<svg xmlns="http://www.w3.org/2000/svg" width="189.844" height="168.5" viewBox="0 0 189.844 168.5">
  <defs>
    <style>
      .cls-1 {
        fill: #ae1014;
        fill-rule: evenodd;
      }
    </style>
  </defs>
  <path id="å›" class="cls-1" d="M380.312,403.411a144.507,144.507,0,0,1,.782,17.222V434.86q0,5.983-.782,14.975,6.245,0,9.376-2.246V440.1h53.906v9.734q7.031,0,10.156-2.246-0.787-3.756-.781-13.478V416.889l6.25-3.744V409.4l-12.5-8.237-5.469,7.488H390.469l-8.594-5.99Zm-90.624-.749a153.485,153.485,0,0,1,.781,17.971V434.86a120.842,120.842,0,0,1-.781,14.975q2.343,0,9.374-2.246V440.1h49.219v8.986a26.35,26.35,0,0,0,9.375-1.5q-0.788-3.756-.781-13.478V416.14l6.25-3.744v-3l-11.719-7.488-5.468,6.739H299.062l-8.593-6.739Zm92.187-68.14a153.274,153.274,0,0,1,.781,17.971v7.488q0,6-.781,14.976a21.524,21.524,0,0,0,9.375-2.247v-3h50.781v3q7.032,0,10.157-2.246-0.787-3.738-.782-14.227v-7.488l7.032-3.744v-3.744l-13.282-7.487-5.468,7.487H392.812l-10.156-7.487Zm-90.625,0a94.49,94.49,0,0,0,.781,9.735v20.966a75.545,75.545,0,0,0-.781,8.985q2.343,0,9.375-2.246v-3h45.313v3q7.031-.738,9.374-2.247V348.749l5.469-3.744v-3l-10.937-8.236-5.469,7.487H301.406l-9.375-7.487Zm86.719-5.99h81.25l1.562-3-10.937-8.985-6.25,7.487H420.938V304.571h43.75l1.562-3-11.719-8.986-7.031,7.488H420.938V292.59l7.031-2.995v-3.744l-16.407-3.744a77.636,77.636,0,0,0,.782,9.735v8.236H372.5v4.493h39.844v19.468H377.969v4.493Zm-90.625,0h75l0.781-3L352.188,315.8l-6.25,7.488H327.969v-18.72H366.25l0.781-3-11.719-9.734-6.25,7.487H327.969v-7.487l7.031-3v-3l-17.188-4.492q0.769,8.249.782,17.97H278.75v5.242h39.844v18.72h-31.25v5.241Zm156.25,107.076H389.688V413.894h53.906v21.714Zm-95.313-.748H299.062V413.894h49.219V434.86Zm93.75-70.386H391.25V346.5h50.781v17.971Zm-68.75,30.7h94.531l0.782-3-11.719-11.232-7.813,8.986h-18.75a22.028,22.028,0,0,0,6.25-10.483l7.032-1.5v-3l-14.844-4.493v3a20.979,20.979,0,0,0-.781,5.242,22.4,22.4,0,0,1-.781,3.744q-1.575,5.247-2.344,7.488H403.75q6.245-2.983,1.562-8.986-2.343-4.493-10.156-8.985l-3.125,2.246a50.911,50.911,0,0,1,5.469,10.483c1.562,3.5,2.856,5.242,3.906,5.242H373.281v5.241Zm-27.343-30.7H300.625v-18.72h45.313v18.72Zm-66.407,29.951h87.5l1.563-3-12.5-10.483-7.032,8.986h-12.5a32.024,32.024,0,0,1,3.126-5.991q1.556-3.738,2.343-5.241l6.25-1.5,0.781-2.995-14.843-4.493a78.058,78.058,0,0,1-.781,8.986,12.176,12.176,0,0,1-.782,3q-1.575,5.247-2.344,8.237H310q7.032-2.983,3.125-8.986a31.16,31.16,0,0,0-10.156-9.734l-2.344,2.246a23.841,23.841,0,0,1,4.687,11.232c1.038,3,2.344,4.75,3.907,5.242H279.531v4.492Z" transform="translate(-278.75 -281.344)"/>
</svg>
