<svg xmlns="http://www.w3.org/2000/svg" width="313.281" height="47.689" viewBox="0 0 313.281 47.689">
  <metadata><?xpacket begin="﻿" id="W5M0MpCehiHzreSzNTczkc9d"?>
<x:xmpmeta xmlns:x="adobe:ns:meta/" x:xmptk="Adobe XMP Core 5.6-c142 79.160924, 2017/07/13-01:06:39        ">
   <rdf:RDF xmlns:rdf="http://www.w3.org/1999/02/22-rdf-syntax-ns#">
      <rdf:Description rdf:about=""/>
   </rdf:RDF>
</x:xmpmeta>
                                                                                                    
                                                                                                    
                                                                                                    
                                                                                                    
                                                                                                    
                                                                                                    
                                                                                                    
                                                                                                    
                                                                                                    
                                                                                                    
                                                                                                    
                                                                                                    
                                                                                                    
                                                                                                    
                                                                                                    
                                                                                                    
                                                                                                    
                                                                                                    
                                                                                                    
                                                                                                    
                           
<?xpacket end="w"?></metadata>
<defs>
    <style>
      .cls-1 {
        fill: #333;
        fill-rule: evenodd;
      }
    </style>
  </defs>
  <path id="WELCOME_拷贝" data-name="WELCOME 拷贝" class="cls-1" d="M409.9,999.975h-23.85v15.445l12.92-.01,2.574-1.81h0.1v5.48h-0.1l-2.58-1.82H386.053v24.53H409.9l2.842-1.82h0.105l-0.406,3.66H380.306v-0.17l1.76-3.02v-39.12l-1.76-3.015v-0.172h32.138l0.406,3.657h-0.105Zm-38.089,43.665h-3.548v-0.01h-2.2v-0.17l1.758-3.01v-37.04l-16.476,33.6-1.145,2.33-0.062.13-0.831,1.69-0.892-1.82-0.19-.39-17.663-36.01v6.96h-0.011v22.03h0.011v8.81l1.651,2.83v0.11h-4.984v-0.11l1.694-2.91V1009.9h-0.036v-8.8l-1.658-2.84v-0.114h1.694v0h2.982l0.2,0.432,0.245,0.5,17.8,36.277,17.771-36.028,0.456-.932,0.122-.25h3.292l0.022-.008v0.008h1.76v0.172l-1.76,3.018v30.07h0v9.04l1.76,3.02v0.17h-1.761v0.01Zm-60.579-2.15a19.713,19.713,0,0,1-11.315,3.23,20.055,20.055,0,0,1-11.434-3.19,19.754,19.754,0,0,1-7.161-8.6,31.349,31.349,0,0,1,0-24.05,20.3,20.3,0,0,1,37.186,0,29.477,29.477,0,0,1,2.4,12.06,28.515,28.515,0,0,1-2.455,11.92A20.272,20.272,0,0,1,311.235,1041.49Zm3.73-31.79a18.458,18.458,0,0,0-5.8-8.05,15.743,15.743,0,0,0-18.494,0,18.41,18.41,0,0,0-5.794,8.05,32.942,32.942,0,0,0,0,22.42,18.226,18.226,0,0,0,5.794,8.01,15.88,15.88,0,0,0,18.494,0,18.274,18.274,0,0,0,5.8-8.01A32.926,32.926,0,0,0,314.965,1009.7Zm-42.809-4.94-0.617,1.26-0.169.34H270.9l-0.067-.14a7.319,7.319,0,0,0-.524-0.91,12.3,12.3,0,0,0-2.053-2.32,16.363,16.363,0,0,0-4.918-2.91c-0.419-.164-0.856-0.3-1.3-0.434a19.342,19.342,0,0,0-5.57-.772,14.093,14.093,0,0,0-9.025,2.976,18.043,18.043,0,0,0-5.673,7.93,32.755,32.755,0,0,0,0,22.06,18.043,18.043,0,0,0,5.673,7.93,14.119,14.119,0,0,0,9.025,2.98,18.592,18.592,0,0,0,6.867-1.21,16.363,16.363,0,0,0,4.918-2.91,10.654,10.654,0,0,0,2.577-3.23v-0.14h0.54l1.96,4a25.6,25.6,0,0,1-16.146,5.33,20.778,20.778,0,0,1-11.647-3.19,20.017,20.017,0,0,1-7.332-8.6,30.3,30.3,0,0,1,0-23.98,20.017,20.017,0,0,1,7.332-8.6,20.752,20.752,0,0,1,11.647-3.186,28.631,28.631,0,0,1,5.821.578,24.888,24.888,0,0,1,4.06,1.2q0.7,0.276,1.332.568a10.957,10.957,0,0,0,5.679.968l0.138,0.08-0.91,1.91Zm-72.24,38.87v-0.18l1.76-3.01v-39.15l-1.742-2.986v-0.172h7.5V998.3l-1.761,3.016v9.04h-0.017v21.03h0v10.39h23.476l2.843-1.81h0.1l-0.406,3.66H199.916Zm-7.826-1.84,2.843-1.82h0.1l-0.406,3.66H162.494v-0.17l1.76-3.02v-39.12l-1.76-3.015v-0.172h32.137l0.406,3.657h-0.1l-2.843-1.815H168.24v15.445l12.92-.01,2.574-1.81h0.1v5.48h-0.1l-2.58-1.82H168.24v24.53h23.85Zm-37.563-35.71-0.029.07-16.2,38.3h-1.382l-8.276-20.88-8.832,20.88h-1.382l-13.714-34.6s-2.71-6.83-2.712-6.83l-0.681-1.72H101.3l-1.756-3v-0.172h7.688V998.3l-1.476,2.53,14.627,37.82,7.336-17.38-4.523-11.41s-2.71-6.84-2.713-6.84l-0.68-1.72h-0.012l-1.756-3v-0.172h7.687V998.3l-1.475,2.529,5.785,14.96,6.253-14.81-1.665-2.708v-0.141h5.3v0.141l-1.991,3.1-1.889,4.71-0.029.07-5.069,11.98,7.936,20.52,15.9-37.67-1.664-2.707v-0.146h5.3v0.141l-1.991,3.1Z" transform="translate(-99.563 -997.031)"/>
</svg>
