<svg xmlns="http://www.w3.org/2000/svg" width="219.906" height="53.34" viewBox="0 0 219.906 53.34">
  <defs>
    <style>
      .cls-1 {
        fill: #3d030e;
        fill-rule: evenodd;
      }
    </style>
  </defs>
  <path id="I_like_flowers_in_spring_and_trees_in_summer_Autumn_dusk_winte" data-name="I like flowers in spring and trees in summer Autumn dusk, winte" class="cls-1" d="M215.005,6344.35a0.593,0.593,0,0,1,.383.34,2.649,2.649,0,0,1,.106.76c0.046,1.29.068,2.28,0.068,2.96,0,0.76-.012,1.49-0.037,2.17a5.277,5.277,0,0,1-.174,1.4,0.711,0.711,0,0,1-.356.42,3.172,3.172,0,0,1-1,.17l0.014,0.26c0.036,0,.144-0.01.324-0.01s0.382-.02.6-0.02,0.4-.01.537-0.01h0.878c0.11,0,.266,0,0.469.01s0.4,0.01.588,0.02,0.315,0.01.379,0.01l0.027-.26a2.946,2.946,0,0,1-.882-0.11,0.483,0.483,0,0,1-.334-0.3,2.738,2.738,0,0,1-.076-0.67c-0.013-.4-0.021-0.77-0.024-1.12s0-1.18,0-2.5a12.124,12.124,0,0,1,.226-3.29,0.509,0.509,0,0,1,.328-0.25,3,3,0,0,1,.82-0.07v-0.32c-0.369.02-.763,0.04-1.183,0.05s-0.656.03-.711,0.03q-0.239,0-.936-0.03c-0.128,0-.449-0.02-0.964-0.05v0.29A3.228,3.228,0,0,1,215.005,6344.35Zm8.063,8.41q0.465,0,1.8.09v-0.26a2.7,2.7,0,0,1-.622-0.12,0.53,0.53,0,0,1-.41-0.27,15.956,15.956,0,0,1-.1-2.61l0.055-3.29a14.8,14.8,0,0,1,.267-2.92h-0.206a11,11,0,0,1-1.845.93v0.21c0.032,0,.062-0.01.089-0.01s0.058-.01.09-0.02h0.131a0.518,0.518,0,0,1,.468.17,5.684,5.684,0,0,1,.186,2.05c0,0.58-.012,1.22-0.035,1.94s-0.047,1.36-.075,1.92-0.052.91-.075,1.07a1.143,1.143,0,0,1-.267.67,1.283,1.283,0,0,1-.724.3v0.22a11.057,11.057,0,0,1,1.271-.07h0Zm5.114,0-0.082-.2a3.868,3.868,0,0,0-.479-0.04,0.9,0.9,0,0,1-.328-0.06,0.263,0.263,0,0,1-.137-0.15,4.624,4.624,0,0,1-.085-0.87c-0.016-.42-0.024-0.75-0.024-0.98q0-.45.031-1.05t0.078-1.14a6.1,6.1,0,0,1,.116-0.82,0.877,0.877,0,0,0-.129-0.02,4.882,4.882,0,0,1-1.593.89,0.14,0.14,0,0,0-.123.14,0.5,0.5,0,0,0,.314.09,0.719,0.719,0,0,1,.342.07,0.677,0.677,0,0,1,.12.37c0.02,0.18.03,0.6,0.03,1.25,0,0.05,0,.27-0.017.66s-0.026.74-.044,1.02a1.931,1.931,0,0,1-.062.49,0.884,0.884,0,0,1-.656.2l-0.027.22Zm-1.566-7.73a0.526,0.526,0,0,0,.376.15,0.5,0.5,0,0,0,.373-0.15,0.559,0.559,0,0,0,0-.76,0.5,0.5,0,0,0-.369-0.15,0.526,0.526,0,0,0-.376.15,0.507,0.507,0,0,0-.157.38A0.523,0.523,0,0,0,226.616,6345.03Zm3.541,7.73a6.953,6.953,0,0,1,.868.05l0.014-.24a3.308,3.308,0,0,1-.656-0.13,0.24,0.24,0,0,1-.116-0.17,2.154,2.154,0,0,1-.045-0.41c-0.007-.19-0.01-0.49-0.01-0.92v-0.73c0-.16.039-0.24,0.116-0.24a0.466,0.466,0,0,1,.2.13,1.37,1.37,0,0,1,.2.18l0.452,0.41c0.305,0.29.644,0.62,1.018,1,0.091,0.09.21,0.23,0.356,0.4a1.035,1.035,0,0,1,.218.33,0.1,0.1,0,0,1-.089.07c-0.059.01-.14,0.03-0.242,0.04s-0.179.03-.229,0.04v0.24c0.31-.02.711-0.04,1.2-0.04h0.533a2.881,2.881,0,0,1,.359.01,1.271,1.271,0,0,1,.185.01c0.07,0.01.137,0.01,0.2,0.02v-0.24a1.87,1.87,0,0,1-.659-0.27,8.709,8.709,0,0,1-1.159-1.04c-1.044-1.01-1.638-1.58-1.784-1.74l1.175-.78a7.972,7.972,0,0,1,1.084-.63,2.731,2.731,0,0,1,.81-0.21l0.027-.26c-0.524.01-.9,0.02-1.134,0.02-0.474,0-.777-0.01-0.91-0.02l-0.628-.01v0.2a1.28,1.28,0,0,1,.379.09,0.233,0.233,0,0,1,.126.23,0.9,0.9,0,0,1-.362.55,6.123,6.123,0,0,1-.837.65,5.457,5.457,0,0,1-.612.37l0.014-.94q0-.18.01-0.93c0.007-.5.023-1.1,0.048-1.81s0.058-1.28.1-1.73a5.508,5.508,0,0,1,.136-0.92h-0.205a0.826,0.826,0,0,1-.294.25c-0.132.07-.341,0.16-0.628,0.29-0.082.03-.168,0.07-0.257,0.11a1.525,1.525,0,0,1-.212.1c-0.052.03-.116,0.06-0.191,0.1l-0.168.09-0.013.23c0.045-.02.113-0.05,0.2-0.08a0.786,0.786,0,0,1,.243-0.05,0.349,0.349,0,0,1,.321.3,9.409,9.409,0,0,1,.13,2c0,0.39,0,.93-0.013,1.61s-0.021,1.37-.035,2.05-0.036,1.2-.068,1.56a1.052,1.052,0,0,1-.1.35,0.479,0.479,0,0,1-.225.19,2.415,2.415,0,0,1-.479.1v0.22c0.584-.03,1.128-0.05,1.634-0.05h0Zm9.413-3.77a0.453,0.453,0,0,1-.2-0.03,0.486,0.486,0,0,1-.116-0.14,2.088,2.088,0,0,0-.53-0.76,1.632,1.632,0,0,0-.649-0.38,2.1,2.1,0,0,0-.64-0.1,1.767,1.767,0,0,0-.786.29,2.815,2.815,0,0,0-.936.94,2.928,2.928,0,0,0-.417,1.62,2.776,2.776,0,0,0,.547,1.7,1.794,1.794,0,0,0,1.524.74,3.792,3.792,0,0,0,2.112-.86l-0.123-.16a3.15,3.15,0,0,1-.772.42,2.3,2.3,0,0,1-.656.11,1.559,1.559,0,0,1-1.272-.69,2.1,2.1,0,0,1-.366-0.71,5.419,5.419,0,0,1-.126-1l3.418-.74Zm-3.127-.44a0.747,0.747,0,0,1,.728-0.54,1.233,1.233,0,0,1,.714.22,1.853,1.853,0,0,1,.468.48,0.893,0.893,0,0,1,.165.38,0.125,0.125,0,0,1-.1.11c-0.064.02-.214,0.06-0.451,0.11-0.082.02-.243,0.05-0.482,0.11s-0.377.09-.414,0.1l-0.895.2A3.906,3.906,0,0,1,236.443,6348.55Zm8.186-.4a0.4,0.4,0,0,1,.055.28l-0.014,2.28q0,0.615-.024.96a1.539,1.539,0,0,1-.109.52,0.488,0.488,0,0,1-.267.25,1.681,1.681,0,0,1-.543.09v0.23h1.616q0.968,0.015,1.371.03v-0.27c-0.461-.01-0.738-0.03-0.834-0.04a0.287,0.287,0,0,1-.2-0.06,1.256,1.256,0,0,1-.116-0.65c-0.014-.37-0.021-0.94-0.021-1.73l0.027-1.94,1.86-.02v-0.44h-1.86a12.289,12.289,0,0,1,.2-2.21,2.12,2.12,0,0,1,.5-1.11,1.2,1.2,0,0,1,.868-0.32,2.844,2.844,0,0,1,.909.21l0.547,0.19a0.4,0.4,0,0,0,.287-0.21,0.726,0.726,0,0,0,.15-0.33,0.472,0.472,0,0,0-.389-0.34,2.4,2.4,0,0,0-.786-0.14,2.192,2.192,0,0,0-.739.16,4.23,4.23,0,0,0-.9.44,3.69,3.69,0,0,0-.752.64,3,3,0,0,0-.574,1.14,7.188,7.188,0,0,0-.205,1.88l-0.91.02v0.41a2.528,2.528,0,0,1,.855.08h0Zm4.348,4.61q0.463,0,1.8.09v-0.26a2.711,2.711,0,0,1-.622-0.12,0.53,0.53,0,0,1-.41-0.27,16.087,16.087,0,0,1-.1-2.61l0.055-3.29a14.883,14.883,0,0,1,.267-2.92h-0.206a11,11,0,0,1-1.845.93v0.21c0.032,0,.062-0.01.089-0.01s0.058-.01.09-0.02h0.131a0.518,0.518,0,0,1,.468.17,5.684,5.684,0,0,1,.186,2.05c0,0.58-.012,1.22-0.034,1.94s-0.048,1.36-.076,1.92-0.052.91-.075,1.07a1.149,1.149,0,0,1-.266.67,1.29,1.29,0,0,1-.725.3v0.22a11.062,11.062,0,0,1,1.272-.07h0Zm2.881-1.02a2.534,2.534,0,0,0,1.087.86,3.241,3.241,0,0,0,1.254.27,2.7,2.7,0,0,0,1.425-.38,2.637,2.637,0,0,0,.957-1,2.768,2.768,0,0,0,.339-1.34,2.533,2.533,0,0,0-.209-1.02,2.485,2.485,0,0,0-.57-0.82,2.687,2.687,0,0,0-1.867-.75,3.382,3.382,0,0,0-1.114.19,2.74,2.74,0,0,0-.909.55,2.572,2.572,0,0,0-.834,1.94A2.424,2.424,0,0,0,251.858,6351.74Zm0.663-2.89a1.684,1.684,0,0,1,.578-0.7,1.428,1.428,0,0,1,.834-0.25,1.65,1.65,0,0,1,1.049.37,2.572,2.572,0,0,1,.745.96,2.924,2.924,0,0,1,.27,1.22,2.549,2.549,0,0,1-.232,1.1,1.9,1.9,0,0,1-.622.75,1.559,1.559,0,0,1-.869.26,1.467,1.467,0,0,1-1-.4,2.738,2.738,0,0,1-.708-1.04,3.334,3.334,0,0,1-.253-1.26A2.418,2.418,0,0,1,252.521,6348.85Zm7.944,3.29,1.373-2.84c0.069,0.2.143,0.42,0.223,0.67s0.127,0.38.141,0.42l0.562,1.89c0.037,0.13.076,0.27,0.117,0.43a3.2,3.2,0,0,1,.082.36h0.208a4.865,4.865,0,0,1,.175-0.49c0.1-.25.187-0.46,0.267-0.64a2.727,2.727,0,0,1,.2-0.37l0.882-1.75c0.434-.83.721-1.35,0.863-1.55a0.829,0.829,0,0,1,.452-0.36,0.77,0.77,0,0,0,.013-0.18q-0.532.03-.936,0.03c-0.306,0-.59-0.01-0.855-0.03l-0.013.2a1.735,1.735,0,0,1,.31.03,0.344,0.344,0,0,1,.17.13,0.457,0.457,0,0,1,.079.3,2.6,2.6,0,0,1-.23.83c-0.153.38-.324,0.76-0.513,1.15s-0.391.77-.606,1.19c-0.328-1.04-.566-1.82-0.714-2.35a6.887,6.887,0,0,1-.222-0.89c0-.22.231-0.34,0.693-0.37l0.014-.22-0.437.02c-0.784.03-1.213,0.05-1.286,0.05l-0.676-.01-0.028.22a1.328,1.328,0,0,1,.531.17,1.44,1.44,0,0,1,.32.56,6.851,6.851,0,0,1-.348.88c-0.16.35-.319,0.68-0.479,1s-0.276.53-.348,0.65c-0.01.03-.032,0.1-0.069,0.2l-0.082-.2c-0.233-.65-0.431-1.25-0.6-1.79a4.476,4.476,0,0,1-.247-1.16,0.233,0.233,0,0,1,.126-0.23,1.433,1.433,0,0,1,.474-0.11l0.041-.26a5.718,5.718,0,0,1-.677.05c-0.205.01-.581,0.02-1.128,0.02a3.449,3.449,0,0,0-.52.03v0.16a1.792,1.792,0,0,1,.445.24,1.232,1.232,0,0,1,.293.42,9.1,9.1,0,0,1,.376.98,23.588,23.588,0,0,1,.921,3.45l0.225-.02a8.257,8.257,0,0,0,.431-0.91h0Zm10.421-3.15a0.458,0.458,0,0,1-.2-0.03,0.5,0.5,0,0,1-.116-0.14,2.088,2.088,0,0,0-.53-0.76,1.625,1.625,0,0,0-.649-0.38,2.1,2.1,0,0,0-.639-0.1,1.759,1.759,0,0,0-.786.29,2.808,2.808,0,0,0-.937.94,2.928,2.928,0,0,0-.417,1.62,2.776,2.776,0,0,0,.547,1.7,1.8,1.8,0,0,0,1.525.74,3.792,3.792,0,0,0,2.112-.86l-0.123-.16a3.155,3.155,0,0,1-.773.42,2.292,2.292,0,0,1-.656.11,1.556,1.556,0,0,1-1.271-.69,2.06,2.06,0,0,1-.366-0.71,5.32,5.32,0,0,1-.127-1l3.418-.74Zm-3.128-.44a0.748,0.748,0,0,1,.728-0.54,1.234,1.234,0,0,1,.715.22,1.869,1.869,0,0,1,.468.48,0.9,0.9,0,0,1,.164.38,0.125,0.125,0,0,1-.1.11c-0.064.02-.214,0.06-0.451,0.11-0.082.02-.243,0.05-0.482,0.11s-0.377.09-.413,0.1l-0.9.2A3.968,3.968,0,0,1,267.758,6348.55Zm5.958,4.19c0.091,0,.269,0,0.533-0.01s0.408-.01.431-0.01l0.013-.28-0.813.01-0.178.01a0.855,0.855,0,0,1-.26-0.02,0.283,0.283,0,0,1-.136-0.13,5.64,5.64,0,0,1-.137-1.65c0-.05.014-0.45,0.041-1.22a2.264,2.264,0,0,1,.038-0.49,0.617,0.617,0,0,1,.2-0.25,2.037,2.037,0,0,1,.424-0.28,1.069,1.069,0,0,1,.485-0.15,0.371,0.371,0,0,1,.308.13,0.508,0.508,0,0,1,.109.35,1.027,1.027,0,0,0,.527-0.2,0.54,0.54,0,0,0,.218-0.44,0.513,0.513,0,0,0-.116-0.36,0.993,0.993,0,0,0-.321-0.21,0.887,0.887,0,0,1-.1-0.07l-0.054-.03c-0.092.06-.215,0.14-0.37,0.23s-0.264.16-.328,0.2-0.12.07-.171,0.1a0.345,0.345,0,0,0-.1.06l-0.732.41c0-.49-0.009-0.87-0.027-1.16l-1.764,1.03-0.027.22a2.144,2.144,0,0,1,.431-0.05,0.41,0.41,0,0,1,.444.27,4.318,4.318,0,0,1,.089,1.1c0,0.7-.01,1.21-0.031,1.55a2.8,2.8,0,0,1-.126.76,0.588,0.588,0,0,1-.226.32,2.049,2.049,0,0,1-.472.13l-0.013.2Zm2.334-1.04a2.646,2.646,0,0,1,.058.47,2.267,2.267,0,0,1-.054.39c0.05,0.01.159,0.05,0.328,0.1a3,3,0,0,0,.357.09c0.068,0.01.187,0.03,0.356,0.06a3.572,3.572,0,0,0,.39.03,2.743,2.743,0,0,0,.753-0.11,3.8,3.8,0,0,0,.939-0.46,0.728,0.728,0,0,0,.3-0.39,1.484,1.484,0,0,0,.1-0.51,1.281,1.281,0,0,0-.4-1,4.392,4.392,0,0,0-.973-0.62l-0.417-.2a2.246,2.246,0,0,1-.625-0.39,0.608,0.608,0,0,1-.165-0.45,0.77,0.77,0,0,1,.227-0.57,0.8,0.8,0,0,1,.589-0.23,1.183,1.183,0,0,1,.511.15,1.949,1.949,0,0,1,.521.37,0.944,0.944,0,0,1,.285.45h0.239l-0.225-1.16a8.988,8.988,0,0,0-1.1-.1,2.047,2.047,0,0,0-.969.22,1.7,1.7,0,0,0-.654.57,1.211,1.211,0,0,0-.227.66,0.869,0.869,0,0,0,.268.66,2.92,2.92,0,0,0,.719.49l0.513,0.24a3.711,3.711,0,0,1,.761.5,0.984,0.984,0,0,1,.33.77,0.578,0.578,0,0,1-.321.6,1.642,1.642,0,0,1-.643.13,1.486,1.486,0,0,1-.82-0.23,2.355,2.355,0,0,1-.6-0.53,0.917,0.917,0,0,1-.222-0.43l-0.24-.01A2.926,2.926,0,0,1,276.05,6351.7Zm10.675,1.06-0.082-.2a3.884,3.884,0,0,0-.479-0.04,0.9,0.9,0,0,1-.328-0.06,0.263,0.263,0,0,1-.137-0.15,4.624,4.624,0,0,1-.085-0.87c-0.016-.42-0.024-0.75-0.024-0.98q0-.45.031-1.05t0.078-1.14a6.1,6.1,0,0,1,.116-0.82,0.877,0.877,0,0,0-.129-0.02,4.882,4.882,0,0,1-1.593.89,0.14,0.14,0,0,0-.123.14,0.5,0.5,0,0,0,.314.09,0.719,0.719,0,0,1,.342.07,0.677,0.677,0,0,1,.12.37c0.02,0.18.03,0.6,0.03,1.25,0,0.05,0,.27-0.017.66s-0.026.74-.044,1.02a1.931,1.931,0,0,1-.062.49,0.884,0.884,0,0,1-.656.2l-0.027.22Zm-1.566-7.73a0.526,0.526,0,0,0,.376.15,0.5,0.5,0,0,0,.373-0.15,0.559,0.559,0,0,0,0-.76,0.5,0.5,0,0,0-.369-0.15,0.526,0.526,0,0,0-.376.15,0.507,0.507,0,0,0-.157.38A0.523,0.523,0,0,0,285.159,6345.03Zm3.477,7.67c0.292,0.01.532,0.02,0.719,0.04s0.331,0.02.432,0.03l0.014-.21a3.062,3.062,0,0,1-.6-0.11,0.532,0.532,0,0,1-.229-0.15,0.561,0.561,0,0,1-.065-0.25q-0.04-.375-0.027-1.53l0.041-1.82a4.114,4.114,0,0,1,1.043-.41,4.548,4.548,0,0,1,.662-0.08,0.9,0.9,0,0,1,.722.27,1.23,1.23,0,0,1,.283.66,7.669,7.669,0,0,1,.052.99c0,0.27-.013.64-0.038,1.13a3.2,3.2,0,0,1-.14.95,1.083,1.083,0,0,1-.773.39v0.2a12.287,12.287,0,0,1,1.374-.08,7.033,7.033,0,0,1,1.19.08l-0.014-.21a1.67,1.67,0,0,0-.348-0.09,1.124,1.124,0,0,1-.349-0.12,2.891,2.891,0,0,1-.089-1.05v-1.63a6.654,6.654,0,0,0-.072-1.09,1.232,1.232,0,0,0-.375-0.7,1.329,1.329,0,0,0-.965-0.29,2.661,2.661,0,0,0-.928.18,9.305,9.305,0,0,0-1.235.6,5.167,5.167,0,0,0-.028-0.65c-0.018-.13-0.061-0.2-0.13-0.2a1.021,1.021,0,0,0-.309.14,4.2,4.2,0,0,1-.518.24,5.829,5.829,0,0,1-.786.29,0.542,0.542,0,0,1,.014.14,2.315,2.315,0,0,1,.626.12,0.445,0.445,0,0,1,.218.36,7.261,7.261,0,0,1,.052,1.07c0,0.37-.007.74-0.021,1.1a9.137,9.137,0,0,1-.075.92,0.7,0.7,0,0,1-.075.26,0.491,0.491,0,0,1-.226.17,2.885,2.885,0,0,1-.54.15l0.014,0.19h1.5Zm8.736-1a2.744,2.744,0,0,1,.058.47,2.3,2.3,0,0,1-.055.39c0.05,0.01.16,0.05,0.329,0.1a3,3,0,0,0,.356.09c0.068,0.01.187,0.03,0.356,0.06a3.572,3.572,0,0,0,.39.03,2.756,2.756,0,0,0,.754-0.11,3.81,3.81,0,0,0,.938-0.46,0.724,0.724,0,0,0,.3-0.39,1.484,1.484,0,0,0,.1-0.51,1.277,1.277,0,0,0-.4-1,4.384,4.384,0,0,0-.972-0.62l-0.418-.2a2.238,2.238,0,0,1-.624-0.39,0.6,0.6,0,0,1-.166-0.45,0.77,0.77,0,0,1,.227-0.57,0.8,0.8,0,0,1,.59-0.23,1.186,1.186,0,0,1,.511.15,1.981,1.981,0,0,1,.521.37,0.949,0.949,0,0,1,.284.45h0.24l-0.226-1.16a8.992,8.992,0,0,0-1.1-.1,2.053,2.053,0,0,0-.97.22,1.716,1.716,0,0,0-.654.57,1.209,1.209,0,0,0-.226.66,0.872,0.872,0,0,0,.267.66,2.94,2.94,0,0,0,.719.49l0.514,0.24a3.731,3.731,0,0,1,.76.5,0.984,0.984,0,0,1,.33.77,0.578,0.578,0,0,1-.321.6,1.637,1.637,0,0,1-.642.13,1.487,1.487,0,0,1-.821-0.23,2.372,2.372,0,0,1-.6-0.53,0.917,0.917,0,0,1-.222-0.43l-0.239-.01A3.054,3.054,0,0,1,297.372,6351.7Zm4.747-3.35a0.341,0.341,0,0,1,.2.08,0.629,0.629,0,0,1,.171.21,0.981,0.981,0,0,1,.106.26,11.928,11.928,0,0,1,.054,1.28c0.009,0.7.014,1.38,0.014,2.03l-0.014.86q0,0.975-.034,1.89a4.793,4.793,0,0,1-.143,1.2,0.509,0.509,0,0,1-.185.24,1.167,1.167,0,0,1-.465.1,1.2,1.2,0,0,1,.014.2c0.788-.05,1.253-0.08,1.394-0.08s0.5-.01,1.06-0.01a1.047,1.047,0,0,0,.243-0.02,0.11,0.11,0,0,0,.051-0.11c0-.09-0.057-0.13-0.171-0.13l-0.5-.03a0.718,0.718,0,0,1-.318-0.07,0.3,0.3,0,0,1-.126-0.23,3.793,3.793,0,0,1-.035-0.62v-1.24c0-.08,0-0.33.014-0.76s0.014-.69.014-0.77a3.323,3.323,0,0,0,1.011.2,3.687,3.687,0,0,0,.77-0.12,4.657,4.657,0,0,0,1.059-.41,2.615,2.615,0,0,0,.926-0.85,2.4,2.4,0,0,0,.376-1.38,2.474,2.474,0,0,0-.318-1.22,2.66,2.66,0,0,0-.827-0.9,1.864,1.864,0,0,0-1.022-.33,4.122,4.122,0,0,0-1.387.38l-0.588.23a7.849,7.849,0,0,0-.147-0.96,2.664,2.664,0,0,1-.695.53,2.221,2.221,0,0,1-.6.28c-0.086.04-.239,0.13-0.459,0.26l0.055,0.19a2.407,2.407,0,0,1,.5-0.18h0Zm2.693-.24a1.618,1.618,0,0,1,.91.33,2.756,2.756,0,0,1,.8.93,2.655,2.655,0,0,1,.322,1.29,1.618,1.618,0,0,1-.311,1.03,1.81,1.81,0,0,1-.721.57,2.007,2.007,0,0,1-.746.16,3.82,3.82,0,0,1-1-.24l-0.629-.21,0.014-3.46a6.9,6.9,0,0,1,1.36-.4h0Zm5.838,4.63c0.091,0,.269,0,0.534-0.01s0.407-.01.43-0.01l0.014-.28-0.814.01-0.177.01a0.855,0.855,0,0,1-.26-0.02,0.285,0.285,0,0,1-.137-0.13,5.678,5.678,0,0,1-.137-1.65c0-.05.014-0.45,0.041-1.22a2.411,2.411,0,0,1,.038-0.49,0.631,0.631,0,0,1,.2-0.25,2.01,2.01,0,0,1,.424-0.28,1.062,1.062,0,0,1,.485-0.15,0.371,0.371,0,0,1,.308.13,0.513,0.513,0,0,1,.109.35,1.023,1.023,0,0,0,.526-0.2,0.541,0.541,0,0,0,.219-0.44,0.518,0.518,0,0,0-.116-0.36,1.015,1.015,0,0,0-.321-0.21,0.8,0.8,0,0,1-.1-0.07l-0.055-.03c-0.091.06-.214,0.14-0.369,0.23s-0.264.16-.328,0.2-0.121.07-.171,0.1a0.363,0.363,0,0,0-.1.06l-0.731.41c0-.49-0.009-0.87-0.028-1.16l-1.763,1.03-0.028.22a2.152,2.152,0,0,1,.431-0.05,0.41,0.41,0,0,1,.444.27,4.271,4.271,0,0,1,.089,1.1c0,0.7-.01,1.21-0.03,1.55a2.755,2.755,0,0,1-.127.76,0.588,0.588,0,0,1-.225.32,2.049,2.049,0,0,1-.472.13l-0.014.2Zm5.052,0.02-0.082-.2a3.868,3.868,0,0,0-.478-0.04,0.9,0.9,0,0,1-.329-0.06,0.261,0.261,0,0,1-.136-0.15,4.6,4.6,0,0,1-.086-0.87c-0.016-.42-0.024-0.75-0.024-0.98,0-.3.011-0.65,0.031-1.05s0.047-.78.079-1.14a5.938,5.938,0,0,1,.116-0.82,0.887,0.887,0,0,0-.13-0.02,4.862,4.862,0,0,1-1.593.89,0.14,0.14,0,0,0-.123.14,0.5,0.5,0,0,0,.315.09,0.717,0.717,0,0,1,.341.07,0.661,0.661,0,0,1,.12.37c0.021,0.18.031,0.6,0.031,1.25q0,0.075-.017.66-0.018.6-.045,1.02a1.956,1.956,0,0,1-.061.49,0.884,0.884,0,0,1-.656.2l-0.028.22Zm-1.565-7.73a0.524,0.524,0,0,0,.376.15,0.5,0.5,0,0,0,.372-0.15,0.543,0.543,0,0,0,.147-0.38,0.537,0.537,0,0,0-.15-0.38,0.5,0.5,0,0,0-.369-0.15,0.524,0.524,0,0,0-.376.15,0.508,0.508,0,0,0-.158.38A0.524,0.524,0,0,0,314.137,6345.03Zm3.476,7.67c0.293,0.01.532,0.02,0.72,0.04s0.331,0.02.432,0.03l0.013-.21a3.048,3.048,0,0,1-.6-0.11,0.525,0.525,0,0,1-.229-0.15,0.561,0.561,0,0,1-.065-0.25q-0.042-.375-0.028-1.53l0.041-1.82a4.1,4.1,0,0,1,1.044-.41,4.538,4.538,0,0,1,.661-0.08,0.9,0.9,0,0,1,.723.27,1.23,1.23,0,0,1,.283.66,7.88,7.88,0,0,1,.051.99c0,0.27-.012.64-0.037,1.13a3.187,3.187,0,0,1-.141.95,1.08,1.08,0,0,1-.772.39v0.2a12.261,12.261,0,0,1,1.374-.08,7.021,7.021,0,0,1,1.189.08l-0.013-.21a1.668,1.668,0,0,0-.349-0.09,1.114,1.114,0,0,1-.348-0.12,2.866,2.866,0,0,1-.089-1.05v-1.63a6.654,6.654,0,0,0-.072-1.09,1.244,1.244,0,0,0-.375-0.7,1.334,1.334,0,0,0-.966-0.29,2.665,2.665,0,0,0-.928.18,9.365,9.365,0,0,0-1.235.6,5.425,5.425,0,0,0-.027-0.65c-0.018-.13-0.062-0.2-0.13-0.2a1.021,1.021,0,0,0-.309.14,4.289,4.289,0,0,1-.518.24,5.879,5.879,0,0,1-.786.29,0.542,0.542,0,0,1,.014.14,2.306,2.306,0,0,1,.625.12,0.443,0.443,0,0,1,.219.36,7.3,7.3,0,0,1,.051,1.07c0,0.37-.007.74-0.02,1.1a8.821,8.821,0,0,1-.076.92,0.66,0.66,0,0,1-.075.26,0.487,0.487,0,0,1-.225.17,2.885,2.885,0,0,1-.54.15l0.013,0.19h1.5Zm6.7-.6a4.273,4.273,0,0,0-1.073.53,1.145,1.145,0,0,0,.711,1.05,4.99,4.99,0,0,0-.892.67,1.234,1.234,0,0,0-.352.92,1.418,1.418,0,0,0,.4.96,1.844,1.844,0,0,0,1.443.46,4.785,4.785,0,0,0,1.61-.28,3.37,3.37,0,0,0,1.319-.78,1.606,1.606,0,0,0,.516-1.18,1.335,1.335,0,0,0-.2-0.77,1.106,1.106,0,0,0-.554-0.39,3.233,3.233,0,0,0-.82-0.14q-0.465-.03-1.3-0.03-1,0-1-.42a2.21,2.21,0,0,1,1.2-.77,8.731,8.731,0,0,0,1.056-.57,2.329,2.329,0,0,0,.694-0.7,1.942,1.942,0,0,0,.28-1.07,2.073,2.073,0,0,0-.054-0.46,2.755,2.755,0,0,0-.144-0.45,1.584,1.584,0,0,0-.178-0.33,2.5,2.5,0,0,1,.978.19,2.121,2.121,0,0,0,.185-0.74,2.624,2.624,0,0,0-.493-0.03,5.758,5.758,0,0,0-1.039.1,1.669,1.669,0,0,0-.581-0.3,2.12,2.12,0,0,0-.677-0.1,2.326,2.326,0,0,0-1.151.31,2.5,2.5,0,0,0-.916.86,2.2,2.2,0,0,0-.352,1.21,1.885,1.885,0,0,0,.321,1.15,2.056,2.056,0,0,0,.721.62,4.327,4.327,0,0,0,.79.28Zm-0.143-1.33a1.709,1.709,0,0,1-.554-1.39,1.55,1.55,0,0,1,.38-1.08,1.191,1.191,0,0,1,.939-0.43,1.352,1.352,0,0,1,.667.17,1.583,1.583,0,0,1,.5.47,2.279,2.279,0,0,1,.322.66,2.522,2.522,0,0,1,.116.77,1.539,1.539,0,0,1-.277,1.03,2.613,2.613,0,0,1-.769.57A4.679,4.679,0,0,1,324.172,6350.77Zm1.032,3.16c0.077,0,.316-0.01.714-0.01s0.63,0,.694.01a0.878,0.878,0,0,1,.657.3,0.916,0.916,0,0,1,.211.58,0.937,0.937,0,0,1-.393.75,2.529,2.529,0,0,1-.946.44,3.908,3.908,0,0,1-1.026.14,2.361,2.361,0,0,1-1.36-.36,1,1,0,0,1-.527-0.81,0.9,0.9,0,0,1,.342-0.69,1.98,1.98,0,0,1,.766-0.43,3.437,3.437,0,0,0,.868.08h0Zm8.107-5.46a0.38,0.38,0,0,1,.216-0.34,0.871,0.871,0,0,1,.427-0.12,1.076,1.076,0,0,1,.776.34,1.261,1.261,0,0,1,.331.92v0.23l-0.034.84q-0.628.09-1.2,0.21a5,5,0,0,0-1.087.39,0.782,0.782,0,0,0-.365.36,1.6,1.6,0,0,0-.113.69,1.057,1.057,0,0,0,.212.72,0.768,0.768,0,0,0,.629.25,4.532,4.532,0,0,0,1.941-.71,1.855,1.855,0,0,0,.249.5,0.416,0.416,0,0,0,.312.21,2.691,2.691,0,0,0,.341-0.11l1-.4v-0.28a1.925,1.925,0,0,1-.711.2,0.33,0.33,0,0,1-.307-0.33,2.542,2.542,0,0,1-.076-0.6c0-.15.01-0.34,0.028-0.59l0.027-.51c0.023-.53.034-0.83,0.034-0.92a3.611,3.611,0,0,0-.061-0.73,1.524,1.524,0,0,0-.14-0.42,1.235,1.235,0,0,0-.223-0.27,2.266,2.266,0,0,0-.437-0.33,0.927,0.927,0,0,0-.458-0.16,2.85,2.85,0,0,0-.749.18,4.487,4.487,0,0,0-.963.48,0.83,0.83,0,0,0-.428.65,1.39,1.39,0,0,0,.055.32l0.841-.37a0.985,0.985,0,0,1-.069-0.3h0Zm0.367,4.02a0.515,0.515,0,0,1-.459-0.27,1.094,1.094,0,0,1-.167-0.58,0.82,0.82,0,0,1,.545-0.71,2.827,2.827,0,0,1,1.444-.22q-0.061,1.065-.041,1.29a3.972,3.972,0,0,1-1.322.49h0Zm5.024,0.21c0.292,0.01.532,0.02,0.72,0.04s0.331,0.02.431,0.03l0.014-.21a3.048,3.048,0,0,1-.6-0.11,0.525,0.525,0,0,1-.229-0.15,0.548,0.548,0,0,1-.065-0.25q-0.042-.375-0.028-1.53l0.041-1.82a4.1,4.1,0,0,1,1.044-.41,4.538,4.538,0,0,1,.661-0.08,0.9,0.9,0,0,1,.723.27,1.238,1.238,0,0,1,.283.66,7.88,7.88,0,0,1,.051.99c0,0.27-.013.64-0.038,1.13a3.164,3.164,0,0,1-.14.95,1.082,1.082,0,0,1-.772.39v0.2a12.261,12.261,0,0,1,1.374-.08,7.021,7.021,0,0,1,1.189.08l-0.013-.21a1.689,1.689,0,0,0-.349-0.09,1.124,1.124,0,0,1-.349-0.12,2.905,2.905,0,0,1-.088-1.05v-1.63a6.654,6.654,0,0,0-.072-1.09,1.244,1.244,0,0,0-.375-0.7,1.334,1.334,0,0,0-.966-0.29,2.661,2.661,0,0,0-.928.18,9.365,9.365,0,0,0-1.235.6,5.425,5.425,0,0,0-.027-0.65c-0.019-.13-0.062-0.2-0.131-0.2a1.021,1.021,0,0,0-.308.14,4.289,4.289,0,0,1-.518.24,5.93,5.93,0,0,1-.786.29,0.55,0.55,0,0,1,.013.14,2.306,2.306,0,0,1,.626.12,0.443,0.443,0,0,1,.219.36,7.3,7.3,0,0,1,.051,1.07c0,0.37-.007.74-0.021,1.1a8.583,8.583,0,0,1-.075.92,0.66,0.66,0,0,1-.075.26,0.486,0.486,0,0,1-.226.17,2.839,2.839,0,0,1-.54.15l0.014,0.19h1.5Zm9.649-4.93c-0.3-.07-0.561-0.13-0.78-0.17a4.273,4.273,0,0,0-.54-0.05,2.981,2.981,0,0,0-.625.13,4.22,4.22,0,0,0-1.012.45,2.814,2.814,0,0,0-.937.92,2.682,2.682,0,0,0-.406,1.52,2.2,2.2,0,0,0,.311,1.17,2.1,2.1,0,0,0,1.787,1.03,2.586,2.586,0,0,0,.923-0.16,11.22,11.22,0,0,0,1.176-.56,4.538,4.538,0,0,0,.055.83c0.036,0.19.089,0.28,0.157,0.28a18.149,18.149,0,0,0,1.736-.56v-0.25c-0.177.06-.347,0.11-0.509,0.16a1.747,1.747,0,0,1-.318.06,0.529,0.529,0,0,1-.188-0.49,12.015,12.015,0,0,1-.065-1.46v-0.66l0.055-2.76,0.027-.68c0.037-.75.073-1.4,0.11-1.94a8.421,8.421,0,0,1,.129-1.15l-0.164-.06a9.946,9.946,0,0,1-1.8.91l0.013,0.21a1.76,1.76,0,0,1,.458-0.07,0.416,0.416,0,0,1,.25.06,0.342,0.342,0,0,1,.116.23,6.334,6.334,0,0,1,.086.63v0.95c0,0.49-.014.98-0.041,1.48h0Zm-0.106,3.68a2.317,2.317,0,0,0,0,.27,4.831,4.831,0,0,1-.667.35,1.953,1.953,0,0,1-1.75-.15,2,2,0,0,1-.741-0.83,2.86,2.86,0,0,1-.274-1.3,1.686,1.686,0,0,1,.236-0.88,1.85,1.85,0,0,1,.629-0.63,1.642,1.642,0,0,1,.831-0.22c0.036,0,.168.01,0.4,0.04a5.051,5.051,0,0,1,.626.12,2.1,2.1,0,0,1,.519.19,0.364,0.364,0,0,1,.236.29l-0.041,2.34C348.248,6351.17,348.247,6351.31,348.245,6351.45Zm6.4,0.08a1.44,1.44,0,0,0,.318,1.05,1.072,1.072,0,0,0,.763.3,3.133,3.133,0,0,0,1.151-.25,2.521,2.521,0,0,0,.879-0.52,0.417,0.417,0,0,1-.01-0.06,0.479,0.479,0,0,0-.018-0.08,7.028,7.028,0,0,1-.762.3,2.27,2.27,0,0,1-.557.1,0.7,0.7,0,0,1-.742-0.4,2.741,2.741,0,0,1-.14-1.02l0.034-2.13c0-.14.011-0.28,0.018-0.4a1,1,0,0,1,.034-0.26,0.12,0.12,0,0,1,.089-0.09,0.482,0.482,0,0,1,.194-0.03c0.329,0.02.57,0.03,0.725,0.03s0.244,0.01.267,0.01a5.831,5.831,0,0,0,.731-0.04l0.014-.42c-0.265.01-.508,0.01-0.732,0.01-0.465,0-.893-0.02-1.285-0.05l0.069-1.23a9.167,9.167,0,0,1-.793.93,6.3,6.3,0,0,1-.93.69,0.837,0.837,0,0,1-.014.17,5.3,5.3,0,0,1,.732.04l-0.035,2.66v0.69Zm5.633,1.21c0.091,0,.269,0,0.533-0.01s0.408-.01.431-0.01l0.014-.28-0.814.01-0.177.01a0.855,0.855,0,0,1-.26-0.02,0.285,0.285,0,0,1-.137-0.13,5.678,5.678,0,0,1-.137-1.65c0-.05.014-0.45,0.041-1.22a2.336,2.336,0,0,1,.038-0.49,0.622,0.622,0,0,1,.2-0.25,2.026,2.026,0,0,1,.423-0.28,1.069,1.069,0,0,1,.486-0.15,0.369,0.369,0,0,1,.307.13,0.508,0.508,0,0,1,.11.35,1.023,1.023,0,0,0,.526-0.2,0.541,0.541,0,0,0,.219-0.44,0.518,0.518,0,0,0-.116-0.36,1.009,1.009,0,0,0-.322-0.21,0.869,0.869,0,0,1-.1-0.07l-0.055-.03c-0.091.06-.214,0.14-0.369,0.23s-0.264.16-.328,0.2-0.121.07-.171,0.1a0.363,0.363,0,0,0-.1.06l-0.731.41c0-.49-0.009-0.87-0.028-1.16l-1.763,1.03-0.028.22a2.152,2.152,0,0,1,.431-0.05,0.41,0.41,0,0,1,.444.27,4.271,4.271,0,0,1,.089,1.1c0,0.7-.01,1.21-0.031,1.55a2.724,2.724,0,0,1-.126.76,0.583,0.583,0,0,1-.226.32,2.021,2.021,0,0,1-.471.13l-0.014.2Zm6.665-3.75a0.453,0.453,0,0,1-.2-0.03,0.5,0.5,0,0,1-.116-0.14,2.088,2.088,0,0,0-.53-0.76,1.632,1.632,0,0,0-.649-0.38,2.1,2.1,0,0,0-.64-0.1,1.767,1.767,0,0,0-.786.29,2.815,2.815,0,0,0-.936.94,2.928,2.928,0,0,0-.417,1.62,2.776,2.776,0,0,0,.547,1.7,1.794,1.794,0,0,0,1.524.74,3.792,3.792,0,0,0,2.112-.86l-0.123-.16a3.15,3.15,0,0,1-.772.42,2.3,2.3,0,0,1-.656.11,1.559,1.559,0,0,1-1.272-.69,2.1,2.1,0,0,1-.366-0.71,5.419,5.419,0,0,1-.126-1l3.418-.74Zm-3.127-.44a0.747,0.747,0,0,1,.728-0.54,1.233,1.233,0,0,1,.714.22,1.853,1.853,0,0,1,.468.48,0.893,0.893,0,0,1,.165.38,0.125,0.125,0,0,1-.1.11c-0.064.02-.214,0.06-0.451,0.11-0.082.02-.243,0.05-0.482,0.11s-0.377.09-.414,0.1l-0.9.2A3.906,3.906,0,0,1,363.817,6348.55Zm8.241,0.44a0.458,0.458,0,0,1-.2-0.03,0.5,0.5,0,0,1-.116-0.14,2.088,2.088,0,0,0-.53-0.76,1.632,1.632,0,0,0-.649-0.38,2.1,2.1,0,0,0-.639-0.1,1.759,1.759,0,0,0-.786.29,2.808,2.808,0,0,0-.937.94,2.928,2.928,0,0,0-.417,1.62,2.776,2.776,0,0,0,.547,1.7,1.8,1.8,0,0,0,1.524.74,3.792,3.792,0,0,0,2.113-.86l-0.123-.16a3.155,3.155,0,0,1-.773.42,2.292,2.292,0,0,1-.656.11,1.559,1.559,0,0,1-1.272-.69,2.074,2.074,0,0,1-.365-0.71,5.32,5.32,0,0,1-.127-1l3.418-.74Zm-3.128-.44a0.748,0.748,0,0,1,.728-0.54,1.234,1.234,0,0,1,.715.22,1.886,1.886,0,0,1,.468.48,0.9,0.9,0,0,1,.164.38,0.125,0.125,0,0,1-.1.11c-0.064.02-.214,0.06-0.451,0.11-0.082.02-.243,0.05-0.482,0.11s-0.377.09-.414,0.1l-0.9.2A3.968,3.968,0,0,1,368.93,6348.55Zm3.91,3.15a2.646,2.646,0,0,1,.058.47,2.267,2.267,0,0,1-.054.39c0.05,0.01.159,0.05,0.328,0.1a3,3,0,0,0,.357.09c0.068,0.01.187,0.03,0.356,0.06a3.572,3.572,0,0,0,.39.03,2.756,2.756,0,0,0,.754-0.11,3.81,3.81,0,0,0,.938-0.46,0.728,0.728,0,0,0,.3-0.39,1.484,1.484,0,0,0,.1-0.51,1.277,1.277,0,0,0-.4-1,4.392,4.392,0,0,0-.973-0.62l-0.417-.2a2.246,2.246,0,0,1-.625-0.39,0.608,0.608,0,0,1-.165-0.45,0.77,0.77,0,0,1,.227-0.57,0.8,0.8,0,0,1,.589-0.23,1.183,1.183,0,0,1,.511.15,1.949,1.949,0,0,1,.521.37,0.944,0.944,0,0,1,.285.45h0.239l-0.225-1.16a8.988,8.988,0,0,0-1.1-.1,2.047,2.047,0,0,0-.969.22,1.7,1.7,0,0,0-.654.57,1.211,1.211,0,0,0-.227.66,0.869,0.869,0,0,0,.268.66,2.92,2.92,0,0,0,.719.49l0.513,0.24a3.711,3.711,0,0,1,.761.5,0.984,0.984,0,0,1,.33.77,0.578,0.578,0,0,1-.321.6,1.638,1.638,0,0,1-.643.13,1.486,1.486,0,0,1-.82-0.23,2.355,2.355,0,0,1-.6-0.53,0.917,0.917,0,0,1-.222-0.43l-0.24-.01A2.808,2.808,0,0,1,372.84,6351.7Zm10.675,1.06-0.082-.2a3.868,3.868,0,0,0-.479-0.04,0.9,0.9,0,0,1-.328-0.06,0.263,0.263,0,0,1-.137-0.15,4.624,4.624,0,0,1-.085-0.87c-0.016-.42-0.024-0.75-0.024-0.98q0-.45.031-1.05t0.078-1.14a6.1,6.1,0,0,1,.116-0.82,0.877,0.877,0,0,0-.129-0.02,4.882,4.882,0,0,1-1.593.89,0.14,0.14,0,0,0-.123.14,0.5,0.5,0,0,0,.314.09,0.719,0.719,0,0,1,.342.07,0.677,0.677,0,0,1,.12.37c0.02,0.18.03,0.6,0.03,1.25,0,0.05,0,.27-0.017.66s-0.026.74-.044,1.02a1.931,1.931,0,0,1-.062.49,0.884,0.884,0,0,1-.656.2l-0.027.22Zm-1.566-7.73a0.526,0.526,0,0,0,.376.15,0.5,0.5,0,0,0,.373-0.15,0.559,0.559,0,0,0,0-.76,0.5,0.5,0,0,0-.369-0.15,0.526,0.526,0,0,0-.376.15,0.507,0.507,0,0,0-.157.38A0.523,0.523,0,0,0,381.949,6345.03Zm3.477,7.67c0.292,0.01.532,0.02,0.719,0.04s0.331,0.02.432,0.03l0.014-.21a3.062,3.062,0,0,1-.6-0.11,0.532,0.532,0,0,1-.229-0.15,0.561,0.561,0,0,1-.065-0.25q-0.041-.375-0.027-1.53l0.041-1.82a4.114,4.114,0,0,1,1.043-.41,4.548,4.548,0,0,1,.662-0.08,0.9,0.9,0,0,1,.722.27,1.23,1.23,0,0,1,.283.66,7.669,7.669,0,0,1,.052.99c0,0.27-.013.64-0.038,1.13a3.2,3.2,0,0,1-.14.95,1.083,1.083,0,0,1-.773.39v0.2a12.287,12.287,0,0,1,1.374-.08,7.033,7.033,0,0,1,1.19.08l-0.014-.21a1.67,1.67,0,0,0-.348-0.09,1.124,1.124,0,0,1-.349-0.12,2.891,2.891,0,0,1-.089-1.05v-1.63a6.654,6.654,0,0,0-.072-1.09,1.232,1.232,0,0,0-.375-0.7,1.329,1.329,0,0,0-.965-0.29,2.661,2.661,0,0,0-.928.18,9.305,9.305,0,0,0-1.235.6,5.167,5.167,0,0,0-.028-0.65c-0.018-.13-0.061-0.2-0.13-0.2a1.021,1.021,0,0,0-.309.14,4.2,4.2,0,0,1-.518.24,5.829,5.829,0,0,1-.786.29,0.5,0.5,0,0,1,.014.14,2.315,2.315,0,0,1,.626.12,0.445,0.445,0,0,1,.218.36,7.119,7.119,0,0,1,.052,1.07c0,0.37-.007.74-0.021,1.1a9.137,9.137,0,0,1-.075.92,0.7,0.7,0,0,1-.075.26,0.491,0.491,0,0,1-.226.17,2.885,2.885,0,0,1-.54.15l0.014,0.19h1.5Zm8.736-1a2.744,2.744,0,0,1,.058.47,2.3,2.3,0,0,1-.055.39c0.05,0.01.16,0.05,0.329,0.1a3,3,0,0,0,.356.09c0.068,0.01.187,0.03,0.356,0.06a3.572,3.572,0,0,0,.39.03,2.756,2.756,0,0,0,.754-0.11,3.81,3.81,0,0,0,.938-0.46,0.724,0.724,0,0,0,.3-0.39,1.486,1.486,0,0,0,.1-0.51,1.278,1.278,0,0,0-.4-1,4.384,4.384,0,0,0-.972-0.62l-0.418-.2a2.238,2.238,0,0,1-.624-0.39,0.608,0.608,0,0,1-.165-0.45,0.769,0.769,0,0,1,.226-0.57,0.8,0.8,0,0,1,.59-0.23,1.186,1.186,0,0,1,.511.15,1.981,1.981,0,0,1,.521.37,0.949,0.949,0,0,1,.284.45h0.24l-0.226-1.16a8.992,8.992,0,0,0-1.1-.1,2.053,2.053,0,0,0-.97.22,1.716,1.716,0,0,0-.654.57,1.209,1.209,0,0,0-.226.66,0.872,0.872,0,0,0,.267.66,2.94,2.94,0,0,0,.719.49l0.514,0.24a3.731,3.731,0,0,1,.76.5,0.985,0.985,0,0,1,.331.77,0.579,0.579,0,0,1-.322.6,1.637,1.637,0,0,1-.642.13,1.487,1.487,0,0,1-.821-0.23,2.372,2.372,0,0,1-.6-0.53,0.917,0.917,0,0,1-.222-0.43l-0.239-.01A3.054,3.054,0,0,1,394.162,6351.7Zm4.692-3.22a0.243,0.243,0,0,1,.264.21,2.985,2.985,0,0,1,.03.63l-0.054,1.53a2.106,2.106,0,0,0,.395,1.61,1.281,1.281,0,0,0,.874.42,6.4,6.4,0,0,0,2.319-.85,5.668,5.668,0,0,0,.187.97q0.795-.3,1.57-0.51v-0.31a2.565,2.565,0,0,1-.765.17,5.125,5.125,0,0,1-.13-1.4c0-.2.01-0.52,0.031-0.94s0.043-.82.068-1.19,0.049-.76.072-1.18l-1.825.43,0.013,0.27a1.568,1.568,0,0,1,.578.08,0.459,0.459,0,0,1,.236.34,3.98,3.98,0,0,1,.041.9l-0.041,1.39a6.6,6.6,0,0,0-.021.67c-0.127.06-.3,0.15-0.528,0.26a5.017,5.017,0,0,1-.593.23,1.471,1.471,0,0,1-.5.08,0.91,0.91,0,0,1-.955-0.51,3.446,3.446,0,0,1-.2-1.28c0-.22.028-0.79,0.085-1.72l0.086-1.18a0.1,0.1,0,0,0-.1-0.12l-0.138.06-1.523.84v0.28a1.728,1.728,0,0,1,.519-0.18h0Zm7.534,4.31c0.063,0,.264,0,0.6.02s0.533,0.03.588,0.03v-0.24a2.219,2.219,0,0,1-.738-0.18,0.382,0.382,0,0,1-.2-0.22c-0.019-.08-0.032-0.52-0.041-1.34v-0.69c0-.21.009-0.47,0.013-0.79s0.009-.51.014-0.59c0.127-.07.28-0.14,0.458-0.23a3.538,3.538,0,0,1,.56-0.23,1.656,1.656,0,0,1,.561-0.1,0.844,0.844,0,0,1,.8.44,2.832,2.832,0,0,1,.257,1.29l0.013,0.66a7.829,7.829,0,0,1-.051,1.27,0.787,0.787,0,0,1-.263.52,1.84,1.84,0,0,1-.649.23l0.041,0.21c0.095,0,.391-0.01.888-0.02s0.784-.03.862-0.03h0.854v-0.21c-0.292-.04-0.482-0.08-0.571-0.1a0.318,0.318,0,0,1-.181-0.1,0.608,0.608,0,0,1-.061-0.26q-0.007-.225-0.021-0.96-0.014-.75-0.027-1.44t-0.048-.99a3.512,3.512,0,0,1,1.429-.38,1.11,1.11,0,0,1,.758.24,1.251,1.251,0,0,1,.38.67,4.654,4.654,0,0,1,.106,1.07,11.4,11.4,0,0,1-.065,1.48,0.951,0.951,0,0,1-.222.56,1.7,1.7,0,0,1-.581.23l0.041,0.19h2.6l0.1-.19a2.745,2.745,0,0,1-.373-0.07c-0.216-.05-0.343-0.07-0.379-0.08a0.255,0.255,0,0,1-.28-0.33c0-.13,0-0.37.013-0.72v-1.22a9.951,9.951,0,0,0-.065-1.32,1.283,1.283,0,0,0-.366-0.76,1.316,1.316,0,0,0-.959-0.29,4.826,4.826,0,0,0-2.192.67,1.053,1.053,0,0,0-.475-0.67,1.321,1.321,0,0,0-.7-0.2,1.9,1.9,0,0,0-.575.1,3.8,3.8,0,0,0-.536.21c-0.139.06-.331,0.16-0.574,0.29s-0.414.22-.51,0.28a3.388,3.388,0,0,0,0-.62q-0.032-.36-0.168-0.36a0.25,0.25,0,0,0-.136.06,5.634,5.634,0,0,1-1.5.63v0.23a1.386,1.386,0,0,1,.6.11,0.681,0.681,0,0,1,.273.48,6.415,6.415,0,0,1,.092,1.31,8.421,8.421,0,0,1-.085,1.41,0.985,0.985,0,0,1-.27.61,1.453,1.453,0,0,1-.595.24l-0.013.21Zm9.912,0c0.064,0,.264,0,0.6.02s0.534,0.03.588,0.03v-0.24a2.219,2.219,0,0,1-.738-0.18,0.382,0.382,0,0,1-.2-0.22c-0.019-.08-0.032-0.52-0.041-1.34v-0.69c0-.21.009-0.47,0.013-0.79s0.009-.51.014-0.59c0.128-.07.28-0.14,0.458-0.23a3.549,3.549,0,0,1,.561-0.23,1.646,1.646,0,0,1,.56-0.1,0.846,0.846,0,0,1,.8.44,2.847,2.847,0,0,1,.256,1.29l0.014,0.66a7.682,7.682,0,0,1-.052,1.27,0.787,0.787,0,0,1-.263.52,1.84,1.84,0,0,1-.649.23l0.041,0.21c0.1,0,.392-0.01.888-0.02s0.784-.03.862-0.03h0.854v-0.21c-0.292-.04-0.482-0.08-0.571-0.1a0.318,0.318,0,0,1-.181-0.1,0.608,0.608,0,0,1-.061-0.26q-0.007-.225-0.021-0.96-0.013-.75-0.027-1.44t-0.048-.99a3.516,3.516,0,0,1,1.429-.38,1.11,1.11,0,0,1,.758.24,1.251,1.251,0,0,1,.38.67,4.654,4.654,0,0,1,.106,1.07,11.4,11.4,0,0,1-.065,1.48,0.939,0.939,0,0,1-.222.56,1.7,1.7,0,0,1-.581.23l0.041,0.19h2.6l0.1-.19a2.745,2.745,0,0,1-.373-0.07c-0.216-.05-0.342-0.07-0.379-0.08a0.255,0.255,0,0,1-.28-0.33c0-.13,0-0.37.013-0.72v-1.22a9.951,9.951,0,0,0-.065-1.32,1.283,1.283,0,0,0-.366-0.76,1.316,1.316,0,0,0-.959-0.29,4.826,4.826,0,0,0-2.192.67,1.053,1.053,0,0,0-.475-0.67,1.318,1.318,0,0,0-.7-0.2,1.9,1.9,0,0,0-.575.1,3.8,3.8,0,0,0-.536.21c-0.139.06-.331,0.16-0.574,0.29s-0.414.22-.51,0.28a3.3,3.3,0,0,0,0-.62c-0.021-.24-0.076-0.36-0.168-0.36a0.25,0.25,0,0,0-.136.06,5.634,5.634,0,0,1-1.5.63v0.23a1.383,1.383,0,0,1,.6.11,0.678,0.678,0,0,1,.273.48,6.4,6.4,0,0,1,.093,1.31,8.4,8.4,0,0,1-.086,1.41,0.985,0.985,0,0,1-.27.61,1.453,1.453,0,0,1-.6.24l-0.013.21Zm12.954-3.8a0.45,0.45,0,0,1-.2-0.03,0.487,0.487,0,0,1-.117-0.14,2.086,2.086,0,0,0-.529-0.76,1.635,1.635,0,0,0-.65-0.38,2.1,2.1,0,0,0-.639-0.1,1.759,1.759,0,0,0-.786.29,2.817,2.817,0,0,0-.937.94,2.928,2.928,0,0,0-.417,1.62,2.782,2.782,0,0,0,.547,1.7,1.8,1.8,0,0,0,1.525.74,3.792,3.792,0,0,0,2.112-.86l-0.123-.16a3.155,3.155,0,0,1-.773.42,2.292,2.292,0,0,1-.656.11,1.557,1.557,0,0,1-1.271-.69,2.077,2.077,0,0,1-.366-0.71,5.334,5.334,0,0,1-.126-1l3.418-.74Zm-3.128-.44a0.749,0.749,0,0,1,.728-0.54,1.234,1.234,0,0,1,.715.22,1.853,1.853,0,0,1,.468.48,0.9,0.9,0,0,1,.164.38,0.125,0.125,0,0,1-.1.11c-0.063.02-.214,0.06-0.451,0.11-0.082.02-.242,0.05-0.482,0.11s-0.377.09-.413,0.1l-0.9.2A3.968,3.968,0,0,1,426.126,6348.55Zm5.958,4.19c0.091,0,.269,0,0.533-0.01s0.408-.01.431-0.01l0.013-.28-0.813.01-0.178.01a0.848,0.848,0,0,1-.259-0.02,0.281,0.281,0,0,1-.137-0.13,5.678,5.678,0,0,1-.137-1.65c0-.05.014-0.45,0.041-1.22a2.336,2.336,0,0,1,.038-0.49,0.617,0.617,0,0,1,.2-0.25,2.037,2.037,0,0,1,.424-0.28,1.069,1.069,0,0,1,.486-0.15,0.369,0.369,0,0,1,.307.13,0.508,0.508,0,0,1,.11.35,1.023,1.023,0,0,0,.526-0.2,0.541,0.541,0,0,0,.219-0.44,0.513,0.513,0,0,0-.117-0.36,0.993,0.993,0,0,0-.321-0.21,1,1,0,0,1-.1-0.07l-0.054-.03c-0.091.06-.215,0.14-0.369,0.23s-0.265.16-.329,0.2-0.12.07-.17,0.1a0.334,0.334,0,0,0-.1.06l-0.732.41c0-.49-0.009-0.87-0.027-1.16l-1.764,1.03-0.027.22a2.144,2.144,0,0,1,.431-0.05,0.41,0.41,0,0,1,.444.27,4.318,4.318,0,0,1,.089,1.1c0,0.7-.01,1.21-0.031,1.55a2.762,2.762,0,0,1-.126.76,0.583,0.583,0,0,1-.226.32,2.049,2.049,0,0,1-.472.13l-0.013.2ZM220.013,6372.8c0.136-.01.322-0.02,0.557-0.04s0.489-.02.762-0.02a10.163,10.163,0,0,1,1.08.06v-0.24a0.98,0.98,0,0,1-.73-0.31,4.945,4.945,0,0,1-.495-0.98q-0.284-.69-0.837-2.13l-1.434-3.85c-0.169-.46-0.323-0.95-0.465-1.45l-0.226.01a0.178,0.178,0,0,0-.041.13c-0.06.21-.153,0.49-0.281,0.83s-0.263.7-.407,1.04-0.284.67-.421,0.99l-1.094,2.62c-0.083.23-.216,0.56-0.4,0.98s-0.367.82-.547,1.17a2.4,2.4,0,0,1-.434.68,1.224,1.224,0,0,1-.629.32v0.2c0.446-.03.861-0.05,1.244-0.05a12.467,12.467,0,0,1,1.36.09v-0.22a2.178,2.178,0,0,1-.878-0.26,0.485,0.485,0,0,1-.216-0.4,3.949,3.949,0,0,1,.333-0.99l0.5-1.26a6.978,6.978,0,0,1,1.432-.09h0.541a9.758,9.758,0,0,1,1.295.06l0.5,1.37c0.041,0.1.1,0.27,0.185,0.52a2.028,2.028,0,0,1,.122.58,0.308,0.308,0,0,1-.188.3,2.133,2.133,0,0,1-.5.14v0.23C219.773,6372.82,219.876,6372.81,220.013,6372.8Zm-2.277-6.61c0.062-.16.136-0.34,0.222-0.53,0.069,0.13.179,0.38,0.331,0.74s0.256,0.61.311,0.75l0.491,1.25c0.046,0.09.148,0.37,0.307,0.83q-0.45.03-1.017,0.03l-0.628.01a8.38,8.38,0,0,1-1.195-.08c0.036-.07.107-0.25,0.212-0.53l0.772-1.99Q217.644,6366.415,217.736,6366.19Zm5.469,2.29a0.241,0.241,0,0,1,.263.21,2.908,2.908,0,0,1,.031.63l-0.055,1.53a2.11,2.11,0,0,0,.4,1.61,1.277,1.277,0,0,0,.873.42,6.4,6.4,0,0,0,2.32-.85,5.777,5.777,0,0,0,.186.97q0.8-.3,1.571-0.51v-0.31a2.571,2.571,0,0,1-.766.17,5.166,5.166,0,0,1-.13-1.4c0-.2.011-0.52,0.031-0.94s0.044-.82.069-1.19,0.049-.76.071-1.18l-1.825.43,0.014,0.27a1.562,1.562,0,0,1,.577.08,0.457,0.457,0,0,1,.236.34,3.92,3.92,0,0,1,.041.9l-0.041,1.39c-0.013.11-.02,0.33-0.02,0.67-0.127.06-.3,0.15-0.529,0.26a4.951,4.951,0,0,1-.593.23,1.462,1.462,0,0,1-.494.08,0.909,0.909,0,0,1-.955-0.51,3.445,3.445,0,0,1-.205-1.28c0-.22.029-0.79,0.086-1.72l0.085-1.18a0.1,0.1,0,0,0-.1-0.12l-0.137.06-1.523.84v0.28a1.728,1.728,0,0,1,.519-0.18h0Zm6.747,3.05a1.44,1.44,0,0,0,.318,1.05,1.071,1.071,0,0,0,.762.3,3.133,3.133,0,0,0,1.152-.25,2.505,2.505,0,0,0,.878-0.52c0-.02-0.008-0.04-0.01-0.06a0.464,0.464,0,0,0-.017-0.08,7.028,7.028,0,0,1-.762.3,2.278,2.278,0,0,1-.557.1,0.7,0.7,0,0,1-.742-0.4,2.741,2.741,0,0,1-.14-1.02l0.034-2.13c0-.14.01-0.28,0.017-0.4a1.047,1.047,0,0,1,.034-0.26,0.121,0.121,0,0,1,.089-0.09,0.487,0.487,0,0,1,.195-0.03q0.492,0.03.725,0.03c0.155,0.01.243,0.01,0.266,0.01a5.836,5.836,0,0,0,.732-0.04l0.013-.42c-0.264.01-.508,0.01-0.731,0.01-0.465,0-.893-0.02-1.285-0.05l0.068-1.23a9.04,9.04,0,0,1-.793.93,6.227,6.227,0,0,1-.929.69,0.837,0.837,0,0,1-.014.17,5.279,5.279,0,0,1,.731.04l-0.034,2.66v0.69Zm3.753-3.05a0.241,0.241,0,0,1,.263.21,2.908,2.908,0,0,1,.031.63l-0.055,1.53a2.11,2.11,0,0,0,.4,1.61,1.277,1.277,0,0,0,.873.42,6.4,6.4,0,0,0,2.32-.85,5.777,5.777,0,0,0,.186.97q0.8-.3,1.571-0.51v-0.31a2.571,2.571,0,0,1-.766.17,5.166,5.166,0,0,1-.13-1.4c0-.2.011-0.52,0.031-0.94s0.044-.82.069-1.19,0.049-.76.071-1.18l-1.825.43,0.014,0.27a1.562,1.562,0,0,1,.577.08,0.457,0.457,0,0,1,.236.34,3.92,3.92,0,0,1,.041.9l-0.041,1.39c-0.013.11-.02,0.33-0.02,0.67-0.127.06-.3,0.15-0.529,0.26a4.951,4.951,0,0,1-.593.23,1.462,1.462,0,0,1-.494.08,0.909,0.909,0,0,1-.955-0.51,3.445,3.445,0,0,1-.205-1.28c0-.22.029-0.79,0.086-1.72l0.085-1.18a0.1,0.1,0,0,0-.1-0.12l-0.137.06-1.523.84v0.28a1.728,1.728,0,0,1,.519-0.18h0Zm7.533,4.31c0.064,0,.264,0,0.6.02s0.533,0.03.588,0.03v-0.24a2.219,2.219,0,0,1-.739-0.18,0.382,0.382,0,0,1-.2-0.22c-0.018-.08-0.032-0.52-0.041-1.34v-0.69c0.005-.21.009-0.47,0.014-0.79s0.009-.51.013-0.59c0.128-.07.281-0.14,0.459-0.23a3.5,3.5,0,0,1,.56-0.23,1.656,1.656,0,0,1,.561-0.1,0.845,0.845,0,0,1,.8.44,2.834,2.834,0,0,1,.256,1.29l0.014,0.66a7.829,7.829,0,0,1-.051,1.27,0.791,0.791,0,0,1-.263.52,1.847,1.847,0,0,1-.65.23l0.041,0.21c0.1,0,.392-0.01.889-0.02s0.784-.03.861-0.03h0.855v-0.21c-0.292-.04-0.482-0.08-0.571-0.1a0.318,0.318,0,0,1-.181-0.1,0.605,0.605,0,0,1-.062-0.26q-0.006-.225-0.02-0.96-0.015-.75-0.028-1.44t-0.048-.99a3.52,3.52,0,0,1,1.429-.38,1.111,1.111,0,0,1,.759.24,1.25,1.25,0,0,1,.379.67,4.6,4.6,0,0,1,.106,1.07,11.215,11.215,0,0,1-.065,1.48,0.939,0.939,0,0,1-.222.56,1.689,1.689,0,0,1-.581.23l0.041,0.19h2.6l0.1-.19a2.716,2.716,0,0,1-.373-0.07c-0.217-.05-0.343-0.07-0.379-0.08a0.256,0.256,0,0,1-.281-0.33c0-.13,0-0.37.014-0.72v-1.22a10.127,10.127,0,0,0-.065-1.32,1.284,1.284,0,0,0-.367-0.76,1.312,1.312,0,0,0-.958-0.29,4.822,4.822,0,0,0-2.192.67,1.057,1.057,0,0,0-.475-0.67,1.322,1.322,0,0,0-.7-0.2,1.9,1.9,0,0,0-.574.1,3.773,3.773,0,0,0-.537.21c-0.139.06-.33,0.16-0.574,0.29s-0.413.22-.509,0.28a3.308,3.308,0,0,0,0-.62c-0.02-.24-0.076-0.36-0.167-0.36a0.253,0.253,0,0,0-.137.06,5.607,5.607,0,0,1-1.5.63v0.23a1.383,1.383,0,0,1,.6.11,0.681,0.681,0,0,1,.274.48,6.49,6.49,0,0,1,.092,1.31,8.532,8.532,0,0,1-.085,1.41,0.985,0.985,0,0,1-.27.61,1.465,1.465,0,0,1-.595.24l-0.014.21Zm9.889-.09c0.292,0.01.532,0.02,0.719,0.04s0.332,0.02.432,0.03l0.014-.21a3.062,3.062,0,0,1-.6-0.11,0.539,0.539,0,0,1-.229-0.15,0.575,0.575,0,0,1-.065-0.25q-0.04-.375-0.027-1.53l0.041-1.82a4.114,4.114,0,0,1,1.043-.41,4.548,4.548,0,0,1,.662-0.08,0.9,0.9,0,0,1,.723.27,1.246,1.246,0,0,1,.283.66,7.88,7.88,0,0,1,.051.99c0,0.27-.013.64-0.038,1.13a3.2,3.2,0,0,1-.14.95,1.082,1.082,0,0,1-.772.39v0.2a12.261,12.261,0,0,1,1.374-.08,7.028,7.028,0,0,1,1.189.08l-0.014-.21a1.65,1.65,0,0,0-.348-0.09,1.124,1.124,0,0,1-.349-0.12,2.891,2.891,0,0,1-.089-1.05v-1.63a6.784,6.784,0,0,0-.071-1.09,1.239,1.239,0,0,0-.376-0.7,1.329,1.329,0,0,0-.965-0.29,2.661,2.661,0,0,0-.928.18,9.305,9.305,0,0,0-1.235.6,5.425,5.425,0,0,0-.027-0.65c-0.019-.13-0.062-0.2-0.131-0.2a1.021,1.021,0,0,0-.309.14,4.2,4.2,0,0,1-.518.24,5.875,5.875,0,0,1-.785.29,0.55,0.55,0,0,1,.013.14,2.306,2.306,0,0,1,.626.12,0.448,0.448,0,0,1,.219.36,7.3,7.3,0,0,1,.051,1.07c0,0.37-.007.74-0.021,1.1a8.583,8.583,0,0,1-.075.92,0.7,0.7,0,0,1-.075.26,0.491,0.491,0,0,1-.226.17,2.885,2.885,0,0,1-.54.15l0.014,0.19h1.5Zm13.08-4.93c-0.3-.07-0.561-0.13-0.779-0.17a4.273,4.273,0,0,0-.54-0.05,2.973,2.973,0,0,0-.626.13,4.255,4.255,0,0,0-1.012.45,2.8,2.8,0,0,0-.936.92,2.683,2.683,0,0,0-.407,1.52,2.2,2.2,0,0,0,.311,1.17,2.107,2.107,0,0,0,1.788,1.03,2.594,2.594,0,0,0,.923-0.16,11.319,11.319,0,0,0,1.175-.56,4.631,4.631,0,0,0,.055.83c0.037,0.19.089,0.28,0.157,0.28a18.005,18.005,0,0,0,1.737-.56v-0.25c-0.178.06-.348,0.11-0.51,0.16a1.727,1.727,0,0,1-.317.06,0.529,0.529,0,0,1-.188-0.49,11.81,11.81,0,0,1-.065-1.46v-0.66l0.054-2.76,0.028-.68c0.036-.75.072-1.4,0.109-1.94a8.377,8.377,0,0,1,.13-1.15l-0.164-.06a9.963,9.963,0,0,1-1.805.91l0.014,0.21a1.754,1.754,0,0,1,.458-0.07,0.411,0.411,0,0,1,.249.06,0.342,0.342,0,0,1,.117.23q0.037,0.165.085,0.63v0.95c0,0.49-.014.98-0.041,1.48h0Zm-0.106,3.68q0,0.225,0,.27a4.823,4.823,0,0,1-.666.35,1.953,1.953,0,0,1-1.75-.15,2,2,0,0,1-.742-0.83,2.873,2.873,0,0,1-.273-1.3,1.677,1.677,0,0,1,.236-0.88,1.841,1.841,0,0,1,.629-0.63,1.638,1.638,0,0,1,.83-0.22c0.037,0,.169.01,0.4,0.04a5.034,5.034,0,0,1,.625.12,2.127,2.127,0,0,1,.52.19,0.362,0.362,0,0,1,.235.29l-0.041,2.34C264.1,6371.17,264.1,6371.31,264.1,6371.45Zm2.635-2.97a0.241,0.241,0,0,1,.263.21,2.908,2.908,0,0,1,.031.63l-0.054,1.53a2.106,2.106,0,0,0,.395,1.61,1.277,1.277,0,0,0,.874.42,6.4,6.4,0,0,0,2.319-.85,5.777,5.777,0,0,0,.186.97q0.8-.3,1.571-0.51v-0.31a2.565,2.565,0,0,1-.765.17,5.125,5.125,0,0,1-.13-1.4c0-.2.01-0.52,0.03-0.94s0.044-.82.069-1.19,0.049-.76.072-1.18l-1.826.43,0.014,0.27a1.568,1.568,0,0,1,.578.08,0.459,0.459,0,0,1,.236.34,3.98,3.98,0,0,1,.041.9l-0.041,1.39a6.6,6.6,0,0,0-.021.67c-0.127.06-.3,0.15-0.528,0.26a4.958,4.958,0,0,1-.594.23,1.462,1.462,0,0,1-.494.08,0.91,0.91,0,0,1-.955-0.51,3.446,3.446,0,0,1-.2-1.28c0-.22.028-0.79,0.085-1.72l0.086-1.18a0.1,0.1,0,0,0-.1-0.12l-0.138.06-1.523.84v0.28a1.728,1.728,0,0,1,.519-0.18h0Zm6.245,3.22a2.646,2.646,0,0,1,.058.47,2.2,2.2,0,0,1-.055.39c0.051,0.01.16,0.05,0.329,0.1a3.052,3.052,0,0,0,.356.09c0.069,0.01.187,0.03,0.356,0.06a3.569,3.569,0,0,0,.391.03,2.743,2.743,0,0,0,.753-0.11,3.8,3.8,0,0,0,.939-0.46,0.733,0.733,0,0,0,.3-0.39,1.484,1.484,0,0,0,.1-0.51,1.281,1.281,0,0,0-.4-1,4.416,4.416,0,0,0-.973-0.62l-0.418-.2a2.238,2.238,0,0,1-.624-0.39,0.608,0.608,0,0,1-.165-0.45,0.769,0.769,0,0,1,.226-0.57,0.8,0.8,0,0,1,.59-0.23,1.183,1.183,0,0,1,.511.15,1.965,1.965,0,0,1,.521.37,0.952,0.952,0,0,1,.285.45h0.239l-0.226-1.16a8.976,8.976,0,0,0-1.1-.1,2.053,2.053,0,0,0-.97.22,1.716,1.716,0,0,0-.654.57,1.209,1.209,0,0,0-.226.66,0.872,0.872,0,0,0,.267.66,2.94,2.94,0,0,0,.719.49l0.514,0.24a3.738,3.738,0,0,1,.761.5,0.984,0.984,0,0,1,.33.77,0.578,0.578,0,0,1-.321.6,1.646,1.646,0,0,1-.643.13,1.483,1.483,0,0,1-.82-0.23,2.355,2.355,0,0,1-.6-0.53,0.912,0.912,0,0,1-.223-0.43l-0.239-.01A2.926,2.926,0,0,1,272.981,6371.7Zm5.855,1.06a6.953,6.953,0,0,1,.868.05l0.014-.24a3.34,3.34,0,0,1-.657-0.13,0.246,0.246,0,0,1-.116-0.17,2.17,2.17,0,0,1-.044-0.41c-0.007-.19-0.01-0.49-0.01-0.92v-0.73c0-.16.038-0.24,0.116-0.24a0.46,0.46,0,0,1,.2.13,1.34,1.34,0,0,1,.2.18l0.451,0.41c0.306,0.29.645,0.62,1.019,1,0.091,0.09.209,0.23,0.355,0.4a1.028,1.028,0,0,1,.219.33,0.1,0.1,0,0,1-.089.07c-0.059.01-.14,0.03-0.242,0.04s-0.179.03-.229,0.04v0.24c0.309-.02.71-0.04,1.2-0.04h0.533a2.891,2.891,0,0,1,.359.01,1.251,1.251,0,0,1,.184.01c0.071,0.01.138,0.01,0.2,0.02v-0.24a1.881,1.881,0,0,1-.66-0.27,8.721,8.721,0,0,1-1.158-1.04c-1.044-1.01-1.639-1.58-1.785-1.74l1.176-.78a7.972,7.972,0,0,1,1.084-.63,2.731,2.731,0,0,1,.81-0.21l0.027-.26c-0.524.01-.9,0.02-1.135,0.02-0.474,0-.777-0.01-0.909-0.02l-0.629-.01v0.2a1.288,1.288,0,0,1,.38.09,0.233,0.233,0,0,1,.126.23,0.9,0.9,0,0,1-.362.55,6.074,6.074,0,0,1-.838.65,5.387,5.387,0,0,1-.611.37l0.013-.94q0-.18.011-0.93c0.006-.5.022-1.1,0.047-1.81s0.058-1.28.1-1.73a5.478,5.478,0,0,1,.137-0.92h-0.2a0.844,0.844,0,0,1-.294.25c-0.132.07-.342,0.16-0.629,0.29-0.082.03-.167,0.07-0.256,0.11a1.581,1.581,0,0,1-.212.1c-0.052.03-.116,0.06-0.191,0.1l-0.168.09-0.014.23c0.046-.02.113-0.05,0.2-0.08a0.786,0.786,0,0,1,.243-0.05,0.349,0.349,0,0,1,.321.3,9.409,9.409,0,0,1,.13,2c0,0.39,0,.93-0.014,1.61s-0.02,1.37-.034,2.05-0.036,1.2-.068,1.56a1.052,1.052,0,0,1-.1.35,0.484,0.484,0,0,1-.225.19,2.431,2.431,0,0,1-.479.1v0.22c0.583-.03,1.128-0.05,1.634-0.05h0Zm6.057,0.94a2.04,2.04,0,0,0,.54-1.15l0.027-.22a2.154,2.154,0,0,0,.184-0.41,0.16,0.16,0,0,0-.047-0.12,1.864,1.864,0,0,0-.219-0.11,1.05,1.05,0,0,1-.479-0.55,0.529,0.529,0,0,1-.147.02,1.321,1.321,0,0,1-.652.84,0.3,0.3,0,0,0,.037.18,1.37,1.37,0,0,0,.215.2,0.835,0.835,0,0,1,.4.7,0.743,0.743,0,0,1-.243.57,4.895,4.895,0,0,1-.659.5l0.143,0.21A3.325,3.325,0,0,0,284.893,6373.7Zm7.755-1.56,1.374-2.84c0.069,0.2.143,0.42,0.223,0.67s0.127,0.38.141,0.42l0.562,1.89c0.037,0.13.076,0.27,0.117,0.43a3.438,3.438,0,0,1,.082.36h0.208a4.521,4.521,0,0,1,.174-0.49c0.1-.25.187-0.46,0.267-0.64a2.727,2.727,0,0,1,.2-0.37l0.883-1.75c0.434-.83.721-1.35,0.862-1.55a0.832,0.832,0,0,1,.452-0.36,0.752,0.752,0,0,0,.014-0.18q-0.534.03-.937,0.03-0.458,0-.854-0.03l-0.014.2a1.714,1.714,0,0,1,.31.03,0.346,0.346,0,0,1,.171.13,0.457,0.457,0,0,1,.078.3,2.6,2.6,0,0,1-.229.83c-0.153.38-.324,0.76-0.514,1.15s-0.391.77-.605,1.19c-0.328-1.04-.567-1.82-0.715-2.35a6.887,6.887,0,0,1-.222-0.89c0-.22.231-0.34,0.694-0.37l0.014-.22-0.438.02c-0.784.03-1.212,0.05-1.285,0.05l-0.677-.01-0.027.22a1.34,1.34,0,0,1,.531.17,1.453,1.453,0,0,1,.32.56,6.73,6.73,0,0,1-.349.88c-0.159.35-.319,0.68-0.478,1s-0.276.53-.349,0.65c-0.009.03-.032,0.1-0.068,0.2l-0.082-.2c-0.233-.65-0.431-1.25-0.6-1.79a4.506,4.506,0,0,1-.246-1.16,0.233,0.233,0,0,1,.126-0.23,1.432,1.432,0,0,1,.473-0.11l0.041-.26a5.688,5.688,0,0,1-.677.05c-0.205.01-.581,0.02-1.128,0.02a3.434,3.434,0,0,0-.519.03v0.16a1.792,1.792,0,0,1,.445.24,1.232,1.232,0,0,1,.292.42,9.047,9.047,0,0,1,.377.98,23.542,23.542,0,0,1,.92,3.45l0.226-.02a8.383,8.383,0,0,0,.43-0.91h0Zm8.808,0.62-0.082-.2a3.868,3.868,0,0,0-.479-0.04,0.9,0.9,0,0,1-.328-0.06,0.261,0.261,0,0,1-.136-0.15,4.6,4.6,0,0,1-.086-0.87c-0.016-.42-0.024-0.75-0.024-0.98q0-.45.031-1.05t0.079-1.14a5.787,5.787,0,0,1,.116-0.82,0.887,0.887,0,0,0-.13-0.02,4.882,4.882,0,0,1-1.593.89,0.14,0.14,0,0,0-.123.14,0.5,0.5,0,0,0,.315.09,0.717,0.717,0,0,1,.341.07,0.669,0.669,0,0,1,.12.37c0.021,0.18.031,0.6,0.031,1.25q0,0.075-.017.66-0.018.6-.045,1.02a2.011,2.011,0,0,1-.061.49,0.885,0.885,0,0,1-.657.2l-0.027.22Zm-1.565-7.73a0.524,0.524,0,0,0,.376.15,0.5,0.5,0,0,0,.372-0.15,0.543,0.543,0,0,0,.147-0.38,0.537,0.537,0,0,0-.15-0.38,0.5,0.5,0,0,0-.369-0.15,0.524,0.524,0,0,0-.376.15,0.508,0.508,0,0,0-.158.38A0.524,0.524,0,0,0,299.891,6365.03Zm3.476,7.67c0.293,0.01.532,0.02,0.72,0.04s0.331,0.02.432,0.03l0.013-.21a3.048,3.048,0,0,1-.6-0.11,0.525,0.525,0,0,1-.229-0.15,0.548,0.548,0,0,1-.065-0.25q-0.042-.375-0.028-1.53l0.041-1.82a4.1,4.1,0,0,1,1.044-.41,4.538,4.538,0,0,1,.661-0.08,0.9,0.9,0,0,1,.723.27,1.238,1.238,0,0,1,.283.66,7.88,7.88,0,0,1,.051.99c0,0.27-.013.64-0.038,1.13a3.164,3.164,0,0,1-.14.95,1.08,1.08,0,0,1-.772.39v0.2a12.261,12.261,0,0,1,1.374-.08,7.021,7.021,0,0,1,1.189.08l-0.013-.21a1.668,1.668,0,0,0-.349-0.09,1.124,1.124,0,0,1-.349-0.12,2.905,2.905,0,0,1-.088-1.05v-1.63a6.654,6.654,0,0,0-.072-1.09,1.244,1.244,0,0,0-.375-0.7,1.334,1.334,0,0,0-.966-0.29,2.665,2.665,0,0,0-.928.18,9.365,9.365,0,0,0-1.235.6,5.425,5.425,0,0,0-.027-0.65c-0.018-.13-0.062-0.2-0.131-0.2a1.021,1.021,0,0,0-.308.14,4.289,4.289,0,0,1-.518.24,5.93,5.93,0,0,1-.786.29,0.542,0.542,0,0,1,.014.14,2.306,2.306,0,0,1,.625.12,0.443,0.443,0,0,1,.219.36,7.3,7.3,0,0,1,.051,1.07c0,0.37-.007.74-0.02,1.1a8.821,8.821,0,0,1-.076.92,0.66,0.66,0,0,1-.075.26,0.487,0.487,0,0,1-.225.17,2.877,2.877,0,0,1-.541.15l0.014,0.19h1.5Zm5.807-1.17a1.44,1.44,0,0,0,.318,1.05,1.071,1.071,0,0,0,.762.3,3.133,3.133,0,0,0,1.152-.25,2.505,2.505,0,0,0,.878-0.52c0-.02-0.008-0.04-0.01-0.06a0.464,0.464,0,0,0-.017-0.08,7.028,7.028,0,0,1-.762.3,2.285,2.285,0,0,1-.558.1,0.694,0.694,0,0,1-.741-0.4,2.7,2.7,0,0,1-.14-1.02l0.034-2.13c0-.14.01-0.28,0.017-0.4a1.047,1.047,0,0,1,.034-0.26,0.121,0.121,0,0,1,.089-0.09,0.484,0.484,0,0,1,.195-0.03q0.492,0.03.724,0.03c0.155,0.01.244,0.01,0.267,0.01a5.82,5.82,0,0,0,.731-0.04l0.014-.42c-0.264.01-.508,0.01-0.731,0.01-0.465,0-.894-0.02-1.286-0.05l0.069-1.23a9.167,9.167,0,0,1-.793.93,6.191,6.191,0,0,1-.93.69,0.848,0.848,0,0,1-.013.17,5.3,5.3,0,0,1,.731.04l-0.034,2.66v0.69Zm7.916-2.54a0.45,0.45,0,0,1-.2-0.03,0.487,0.487,0,0,1-.117-0.14,2.1,2.1,0,0,0-.529-0.76,1.635,1.635,0,0,0-.65-0.38,2.1,2.1,0,0,0-.639-0.1,1.759,1.759,0,0,0-.786.29,2.808,2.808,0,0,0-.937.94,2.928,2.928,0,0,0-.417,1.62,2.782,2.782,0,0,0,.547,1.7,1.8,1.8,0,0,0,1.525.74,3.792,3.792,0,0,0,2.112-.86l-0.123-.16a3.155,3.155,0,0,1-.773.42,2.292,2.292,0,0,1-.656.11,1.557,1.557,0,0,1-1.271-.69,2.06,2.06,0,0,1-.366-0.71,5.251,5.251,0,0,1-.126-1l3.417-.74Zm-3.128-.44a0.749,0.749,0,0,1,.728-0.54,1.234,1.234,0,0,1,.715.22,1.869,1.869,0,0,1,.468.48,0.9,0.9,0,0,1,.164.38,0.125,0.125,0,0,1-.1.11c-0.064.02-.214,0.06-0.451,0.11-0.082.02-.242,0.05-0.482,0.11s-0.377.09-.413,0.1l-0.9.2A3.968,3.968,0,0,1,313.962,6368.55Zm5.958,4.19c0.091,0,.269,0,0.533-0.01s0.408-.01.431-0.01l0.013-.28-0.813.01-0.178.01a0.859,0.859,0,0,1-.26-0.02,0.283,0.283,0,0,1-.136-0.13,5.678,5.678,0,0,1-.137-1.65c0-.05.014-0.45,0.041-1.22a2.336,2.336,0,0,1,.038-0.49,0.617,0.617,0,0,1,.2-0.25,2.037,2.037,0,0,1,.424-0.28,1.069,1.069,0,0,1,.485-0.15,0.37,0.37,0,0,1,.308.13,0.508,0.508,0,0,1,.109.35,1.023,1.023,0,0,0,.527-0.2,0.541,0.541,0,0,0,.219-0.44,0.513,0.513,0,0,0-.117-0.36,0.993,0.993,0,0,0-.321-0.21,1,1,0,0,1-.1-0.07l-0.054-.03c-0.092.06-.215,0.14-0.369,0.23s-0.265.16-.329,0.2-0.12.07-.17,0.1a0.334,0.334,0,0,0-.1.06l-0.732.41c0-.49-0.009-0.87-0.027-1.16l-1.764,1.03-0.027.22a2.144,2.144,0,0,1,.431-0.05,0.41,0.41,0,0,1,.444.27,4.318,4.318,0,0,1,.089,1.1c0,0.7-.01,1.21-0.031,1.55a2.762,2.762,0,0,1-.126.76,0.583,0.583,0,0,1-.226.32,2.049,2.049,0,0,1-.472.13l-0.013.2Zm5.766-1.04a2.646,2.646,0,0,1,.058.47,2.2,2.2,0,0,1-.055.39c0.051,0.01.16,0.05,0.329,0.1a3.052,3.052,0,0,0,.356.09q0.1,0.015.357,0.06a3.554,3.554,0,0,0,.39.03,2.743,2.743,0,0,0,.753-0.11,3.8,3.8,0,0,0,.939-0.46,0.733,0.733,0,0,0,.3-0.39,1.484,1.484,0,0,0,.1-0.51,1.281,1.281,0,0,0-.4-1,4.416,4.416,0,0,0-.973-0.62l-0.418-.2a2.238,2.238,0,0,1-.624-0.39,0.608,0.608,0,0,1-.165-0.45,0.769,0.769,0,0,1,.226-0.57,0.8,0.8,0,0,1,.59-0.23,1.183,1.183,0,0,1,.511.15,1.949,1.949,0,0,1,.521.37,0.944,0.944,0,0,1,.285.45H329l-0.226-1.16a8.976,8.976,0,0,0-1.1-.1,2.047,2.047,0,0,0-.969.22,1.712,1.712,0,0,0-.655.57,1.209,1.209,0,0,0-.226.66,0.872,0.872,0,0,0,.267.66,2.928,2.928,0,0,0,.72.49l0.513,0.24a3.738,3.738,0,0,1,.761.5,0.984,0.984,0,0,1,.33.77,0.578,0.578,0,0,1-.321.6,1.646,1.646,0,0,1-.643.13,1.483,1.483,0,0,1-.82-0.23,2.355,2.355,0,0,1-.6-0.53,0.912,0.912,0,0,1-.223-0.43l-0.239-.01A2.926,2.926,0,0,1,325.686,6371.7Zm5.79,1c0.293,0.01.533,0.02,0.72,0.04s0.331,0.02.432,0.03l0.014-.21a3.046,3.046,0,0,1-.6-0.11,0.525,0.525,0,0,1-.229-0.15,0.561,0.561,0,0,1-.065-0.25q-0.04-.375-0.027-1.53l0.041-1.82a4.114,4.114,0,0,1,1.043-.41,4.538,4.538,0,0,1,.661-0.08,0.9,0.9,0,0,1,.723.27,1.23,1.23,0,0,1,.283.66,7.88,7.88,0,0,1,.051.99c0,0.27-.012.64-0.037,1.13a3.2,3.2,0,0,1-.14.95,1.085,1.085,0,0,1-.773.39v0.2a12.261,12.261,0,0,1,1.374-.08,7.041,7.041,0,0,1,1.19.08l-0.014-.21a1.668,1.668,0,0,0-.349-0.09,1.125,1.125,0,0,1-.348-0.12,2.891,2.891,0,0,1-.089-1.05v-1.63a6.654,6.654,0,0,0-.072-1.09,1.238,1.238,0,0,0-.375-0.7,1.329,1.329,0,0,0-.965-0.29,2.661,2.661,0,0,0-.928.18,9.305,9.305,0,0,0-1.235.6,5.167,5.167,0,0,0-.028-0.65c-0.018-.13-0.062-0.2-0.13-0.2a1.021,1.021,0,0,0-.309.14,4.2,4.2,0,0,1-.518.24,5.829,5.829,0,0,1-.786.29,0.542,0.542,0,0,1,.014.14,2.3,2.3,0,0,1,.625.12,0.443,0.443,0,0,1,.219.36,7.3,7.3,0,0,1,.051,1.07c0,0.37-.006.74-0.02,1.1a9.137,9.137,0,0,1-.075.92,0.675,0.675,0,0,1-.076.26,0.482,0.482,0,0,1-.225.17,2.885,2.885,0,0,1-.54.15l0.014,0.19h1.5Zm5.79-.96a2.534,2.534,0,0,0,1.087.86,3.245,3.245,0,0,0,1.254.27,2.7,2.7,0,0,0,1.426-.38,2.652,2.652,0,0,0,.957-1,2.778,2.778,0,0,0,.338-1.34,2.532,2.532,0,0,0-.208-1.02,2.488,2.488,0,0,0-.571-0.82,2.682,2.682,0,0,0-1.866-.75,3.388,3.388,0,0,0-1.115.19,2.74,2.74,0,0,0-.909.55,2.572,2.572,0,0,0-.834,1.94A2.424,2.424,0,0,0,337.266,6371.74Zm0.663-2.89a1.692,1.692,0,0,1,.578-0.7,1.428,1.428,0,0,1,.834-0.25,1.648,1.648,0,0,1,1.049.37,2.572,2.572,0,0,1,.745.96,2.924,2.924,0,0,1,.27,1.22,2.534,2.534,0,0,1-.232,1.1,1.89,1.89,0,0,1-.622.75,1.556,1.556,0,0,1-.868.26,1.468,1.468,0,0,1-1-.4,2.724,2.724,0,0,1-.707-1.04,3.314,3.314,0,0,1-.253-1.26A2.418,2.418,0,0,1,337.929,6368.85Zm7.944,3.29,1.374-2.84c0.068,0.2.142,0.42,0.222,0.67s0.127,0.38.141,0.42l0.563,1.89c0.036,0.13.075,0.27,0.116,0.43a3.488,3.488,0,0,1,.083.36h0.208a4.521,4.521,0,0,1,.174-0.49c0.1-.25.187-0.46,0.267-0.64a2.727,2.727,0,0,1,.2-0.37l0.883-1.75c0.433-.83.721-1.35,0.862-1.55a0.829,0.829,0,0,1,.452-0.36,0.752,0.752,0,0,0,.014-0.18q-0.534.03-.937,0.03-0.458,0-.854-0.03l-0.014.2a1.725,1.725,0,0,1,.31.03,0.344,0.344,0,0,1,.17.13,0.451,0.451,0,0,1,.079.3,2.6,2.6,0,0,1-.23.83c-0.152.38-.324,0.76-0.513,1.15s-0.391.77-.606,1.19c-0.328-1.04-.566-1.82-0.714-2.35a6.887,6.887,0,0,1-.222-0.89c0-.22.231-0.34,0.694-0.37l0.013-.22-0.437.02c-0.784.03-1.213,0.05-1.285,0.05l-0.677-.01-0.027.22a1.34,1.34,0,0,1,.531.17,1.466,1.466,0,0,1,.32.56,6.875,6.875,0,0,1-.349.88c-0.16.35-.319,0.68-0.479,1s-0.275.53-.348,0.65c-0.009.03-.032,0.1-0.069,0.2l-0.082-.2c-0.232-.65-0.431-1.25-0.6-1.79a4.519,4.519,0,0,1-.247-1.16,0.233,0.233,0,0,1,.126-0.23,1.433,1.433,0,0,1,.474-0.11l0.041-.26a5.7,5.7,0,0,1-.677.05c-0.2.01-.581,0.02-1.128,0.02a3.434,3.434,0,0,0-.519.03v0.16a1.8,1.8,0,0,1,.444.24,1.218,1.218,0,0,1,.293.42,9.047,9.047,0,0,1,.377.98,23.676,23.676,0,0,1,.92,3.45l0.225-.02a8.04,8.04,0,0,0,.431-0.91h0Zm-125.86,20.66c0.136-.01.322-0.02,0.557-0.04s0.489-.02.762-0.02a10.163,10.163,0,0,1,1.08.06v-0.24a0.98,0.98,0,0,1-.73-0.31,4.945,4.945,0,0,1-.495-0.98q-0.284-.69-0.837-2.13l-1.434-3.85c-0.169-.46-0.323-0.95-0.465-1.45l-0.226.01a0.178,0.178,0,0,0-.041.13c-0.06.21-.153,0.49-0.281,0.83s-0.263.7-.407,1.04-0.284.67-.421,0.99l-1.094,2.62c-0.083.23-.216,0.56-0.4,0.98s-0.367.82-.547,1.17a2.4,2.4,0,0,1-.434.68,1.224,1.224,0,0,1-.629.32v0.2c0.446-.03.861-0.05,1.244-0.05a12.467,12.467,0,0,1,1.36.09v-0.22a2.178,2.178,0,0,1-.878-0.26,0.485,0.485,0,0,1-.216-0.4,3.949,3.949,0,0,1,.333-0.99l0.5-1.26a6.978,6.978,0,0,1,1.432-.09h0.541a9.758,9.758,0,0,1,1.295.06l0.5,1.37c0.041,0.1.1,0.27,0.185,0.52a2.028,2.028,0,0,1,.122.58,0.308,0.308,0,0,1-.188.3,2.133,2.133,0,0,1-.5.14v0.23C219.773,6392.82,219.876,6392.81,220.013,6392.8Zm-2.277-6.61c0.062-.16.136-0.34,0.222-0.53,0.069,0.13.179,0.38,0.331,0.74s0.256,0.61.311,0.75l0.491,1.25c0.046,0.09.148,0.37,0.307,0.83q-0.45.03-1.017,0.03l-0.628.01a8.38,8.38,0,0,1-1.195-.08c0.036-.07.107-0.25,0.212-0.53l0.772-1.99Q217.644,6386.415,217.736,6386.19Zm6.567,6.51c0.292,0.01.532,0.02,0.719,0.04s0.331,0.02.432,0.03l0.014-.21a3.062,3.062,0,0,1-.6-0.11,0.532,0.532,0,0,1-.229-0.15,0.561,0.561,0,0,1-.065-0.25q-0.041-.375-0.027-1.53l0.041-1.82a4.114,4.114,0,0,1,1.043-.41,4.548,4.548,0,0,1,.662-0.08,0.9,0.9,0,0,1,.722.27,1.23,1.23,0,0,1,.283.66,7.669,7.669,0,0,1,.052.99c0,0.27-.013.64-0.038,1.13a3.2,3.2,0,0,1-.14.95,1.083,1.083,0,0,1-.773.39v0.2a12.287,12.287,0,0,1,1.374-.08,7.033,7.033,0,0,1,1.19.08l-0.014-.21a1.67,1.67,0,0,0-.348-0.09,1.124,1.124,0,0,1-.349-0.12,2.891,2.891,0,0,1-.089-1.05v-1.63a6.654,6.654,0,0,0-.072-1.09,1.232,1.232,0,0,0-.375-0.7,1.329,1.329,0,0,0-.965-0.29,2.661,2.661,0,0,0-.928.18,9.305,9.305,0,0,0-1.235.6,5.167,5.167,0,0,0-.028-0.65c-0.018-.13-0.061-0.2-0.13-0.2a1.021,1.021,0,0,0-.309.14,4.2,4.2,0,0,1-.518.24,5.829,5.829,0,0,1-.786.29,0.542,0.542,0,0,1,.014.14,2.315,2.315,0,0,1,.626.12,0.445,0.445,0,0,1,.218.36,7.261,7.261,0,0,1,.052,1.07c0,0.37-.007.74-0.021,1.1a9.137,9.137,0,0,1-.075.92,0.7,0.7,0,0,1-.075.26,0.491,0.491,0,0,1-.226.17,2.885,2.885,0,0,1-.54.15l0.014,0.19h1.5Zm9.648-4.93c-0.3-.07-0.56-0.13-0.779-0.17a4.273,4.273,0,0,0-.54-0.05,2.985,2.985,0,0,0-.626.13,4.231,4.231,0,0,0-1.011.45,2.8,2.8,0,0,0-.937.92,2.683,2.683,0,0,0-.407,1.52,2.2,2.2,0,0,0,.311,1.17,2.107,2.107,0,0,0,1.788,1.03,2.594,2.594,0,0,0,.923-0.16,11.415,11.415,0,0,0,1.176-.56,4.652,4.652,0,0,0,.054.83c0.037,0.19.089,0.28,0.158,0.28a18.149,18.149,0,0,0,1.736-.56v-0.25c-0.178.06-.348,0.11-0.509,0.16a1.747,1.747,0,0,1-.318.06,0.529,0.529,0,0,1-.188-0.49,11.81,11.81,0,0,1-.065-1.46v-0.66l0.054-2.76,0.028-.68c0.036-.75.073-1.4,0.109-1.94a8.542,8.542,0,0,1,.13-1.15l-0.164-.06a9.963,9.963,0,0,1-1.805.91l0.014,0.21a1.754,1.754,0,0,1,.458-0.07,0.411,0.411,0,0,1,.249.06,0.338,0.338,0,0,1,.117.23q0.037,0.165.085,0.63v0.95c0,0.49-.014.98-0.041,1.48h0Zm-0.106,3.68a2.464,2.464,0,0,0,0,.27,4.889,4.889,0,0,1-.667.35,1.953,1.953,0,0,1-1.75-.15,2.01,2.01,0,0,1-.742-0.83,2.873,2.873,0,0,1-.273-1.3,1.686,1.686,0,0,1,.236-0.88,1.85,1.85,0,0,1,.629-0.63,1.641,1.641,0,0,1,.83-0.22c0.037,0,.169.01,0.4,0.04a5,5,0,0,1,.625.12,2.112,2.112,0,0,1,.52.19,0.364,0.364,0,0,1,.236.29l-0.041,2.34C233.849,6391.17,233.847,6391.31,233.845,6391.45Zm5.927-3.33a0.645,0.645,0,0,1,.26.22,1.923,1.923,0,0,1,.277.53,17.417,17.417,0,0,1,.623,1.81q0.329,1.11.719,2.58l-0.534,1.19a11.878,11.878,0,0,1-.547,1.13,2.159,2.159,0,0,1-.493.59,1.741,1.741,0,0,1-.725.31v0.24h1.456c0.147-.62.278-1.11,0.391-1.49a14.97,14.97,0,0,1,.533-1.41q0.364-.84,1.094-2.28c0.337-.65.51-0.99,0.519-1.01l0.744-1.54q0.15-.3.277-0.51a1.139,1.139,0,0,1,.273-0.31,0.678,0.678,0,0,1,.332-0.14l0.013-.23a3.906,3.906,0,0,1-.676.04,12.811,12.811,0,0,1-1.415-.08l-0.1.22c0.633,0.08.95,0.28,0.95,0.59a3.8,3.8,0,0,1-.4,1.24q-0.4.9-.7,1.41l-0.45.81c-0.27-.72-0.5-1.45-0.7-2.18a7.273,7.273,0,0,1-.295-1.42,0.3,0.3,0,0,1,.123-0.28,1.464,1.464,0,0,1,.4-0.12l0.021-.26a10.937,10.937,0,0,1-1.4.09c-0.4,0-.714-0.02-0.937-0.04v0.21A2.293,2.293,0,0,1,239.772,6388.12Zm6.139,3.62a2.534,2.534,0,0,0,1.087.86,3.237,3.237,0,0,0,1.254.27,2.7,2.7,0,0,0,1.425-.38,2.637,2.637,0,0,0,.957-1,2.768,2.768,0,0,0,.339-1.34,2.533,2.533,0,0,0-.209-1.02,2.473,2.473,0,0,0-.571-0.82,2.682,2.682,0,0,0-1.866-.75,3.382,3.382,0,0,0-1.114.19,2.72,2.72,0,0,0-.909.55,2.572,2.572,0,0,0-.834,1.94A2.424,2.424,0,0,0,245.911,6391.74Zm0.663-2.89a1.69,1.69,0,0,1,.577-0.7,1.428,1.428,0,0,1,.834-0.25,1.651,1.651,0,0,1,1.05.37,2.582,2.582,0,0,1,.745.96,2.924,2.924,0,0,1,.27,1.22,2.535,2.535,0,0,1-.233,1.1,1.89,1.89,0,0,1-.622.75,1.554,1.554,0,0,1-.868.26,1.465,1.465,0,0,1-1-.4,2.738,2.738,0,0,1-.708-1.04,3.314,3.314,0,0,1-.253-1.26A2.418,2.418,0,0,1,246.574,6388.85Zm5.588-.37a0.241,0.241,0,0,1,.263.21,2.908,2.908,0,0,1,.031.63l-0.055,1.53a2.11,2.11,0,0,0,.4,1.61,1.277,1.277,0,0,0,.873.42,6.4,6.4,0,0,0,2.32-.85,5.777,5.777,0,0,0,.186.97q0.8-.3,1.571-0.51v-0.31a2.571,2.571,0,0,1-.766.17,5.177,5.177,0,0,1-.129-1.4c0-.2.01-0.52,0.03-0.94s0.044-.82.069-1.19,0.049-.76.071-1.18l-1.825.43,0.014,0.27a1.572,1.572,0,0,1,.578.08,0.459,0.459,0,0,1,.235.34,3.92,3.92,0,0,1,.041.9l-0.041,1.39c-0.013.11-.02,0.33-0.02,0.67-0.127.06-.3,0.15-0.529,0.26a4.951,4.951,0,0,1-.593.23,1.462,1.462,0,0,1-.494.08,0.909,0.909,0,0,1-.955-0.51,3.445,3.445,0,0,1-.2-1.28c0-.22.029-0.79,0.086-1.72l0.085-1.18a0.1,0.1,0,0,0-.1-0.12l-0.137.06-1.523.84v0.28a1.728,1.728,0,0,1,.519-0.18h0Zm14.007,0.51a0.45,0.45,0,0,1-.2-0.03,0.487,0.487,0,0,1-.117-0.14,2.086,2.086,0,0,0-.529-0.76,1.635,1.635,0,0,0-.65-0.38,2.1,2.1,0,0,0-.639-0.1,1.759,1.759,0,0,0-.786.29,2.817,2.817,0,0,0-.937.94,2.928,2.928,0,0,0-.417,1.62,2.782,2.782,0,0,0,.547,1.7,1.8,1.8,0,0,0,1.525.74,3.792,3.792,0,0,0,2.112-.86l-0.123-.16a3.168,3.168,0,0,1-.772.42,2.3,2.3,0,0,1-.657.11,1.557,1.557,0,0,1-1.271-.69,2.077,2.077,0,0,1-.366-0.71,5.334,5.334,0,0,1-.126-1l3.418-.74Zm-3.128-.44a0.749,0.749,0,0,1,.728-0.54,1.234,1.234,0,0,1,.715.22,1.853,1.853,0,0,1,.468.48,0.9,0.9,0,0,1,.164.38,0.125,0.125,0,0,1-.1.11c-0.063.02-.214,0.06-0.451,0.11-0.082.02-.242,0.05-0.482,0.11s-0.377.09-.413,0.1l-0.9.2A3.968,3.968,0,0,1,263.041,6388.55Zm6.587,3.7,1.23-2.71c0.028-.05.073-0.15,0.137-0.3s0.1-.24.116-0.26a2.762,2.762,0,0,1,.318-0.6,1.186,1.186,0,0,1,.537-0.47v-0.2a3.8,3.8,0,0,1-.786.08c-0.183,0-.4-0.02-0.643-0.04l-0.478.01-0.028.22a1.461,1.461,0,0,1,.533.11,0.4,0.4,0,0,1,.2.41,4.4,4.4,0,0,1-.4,1.38,10.851,10.851,0,0,1-.852,1.72c-0.16-.36-0.377-0.95-0.651-1.78a7.31,7.31,0,0,1-.412-1.56,0.18,0.18,0,0,1,.127-0.17,2.8,2.8,0,0,1,.611-0.11l0.028-.23c-0.666.03-1.249,0.05-1.75,0.05-0.333,0-.574,0-0.725-0.01v0.16c0.068,0.04.154,0.08,0.256,0.14a1.508,1.508,0,0,1,.236.14,5.854,5.854,0,0,1,.48,1.01c0.266,0.63.528,1.3,0.786,2.02a17.634,17.634,0,0,1,.573,1.86h0.2Zm7.2-3.26a0.45,0.45,0,0,1-.2-0.03,0.486,0.486,0,0,1-.116-0.14,2.1,2.1,0,0,0-.53-0.76,1.635,1.635,0,0,0-.65-0.38,2.1,2.1,0,0,0-.639-0.1,1.763,1.763,0,0,0-.786.29,2.815,2.815,0,0,0-.936.94,2.928,2.928,0,0,0-.417,1.62,2.776,2.776,0,0,0,.547,1.7,1.794,1.794,0,0,0,1.524.74,3.792,3.792,0,0,0,2.112-.86l-0.123-.16a3.15,3.15,0,0,1-.772.42,2.3,2.3,0,0,1-.656.11,1.559,1.559,0,0,1-1.272-.69,2.1,2.1,0,0,1-.366-0.71,5.419,5.419,0,0,1-.126-1l3.418-.74Zm-3.127-.44a0.747,0.747,0,0,1,.728-0.54,1.233,1.233,0,0,1,.714.22,1.853,1.853,0,0,1,.468.48,0.887,0.887,0,0,1,.164.38,0.126,0.126,0,0,1-.1.11c-0.064.02-.215,0.06-0.451,0.11-0.083.02-.243,0.05-0.482,0.11s-0.378.09-.414,0.1l-0.9.2A3.906,3.906,0,0,1,273.7,6388.55Zm5.957,4.19c0.091,0,.269,0,0.533-0.01s0.408-.01.431-0.01l0.014-.28-0.814.01-0.177.01a0.852,0.852,0,0,1-.26-0.02,0.285,0.285,0,0,1-.137-0.13,5.678,5.678,0,0,1-.137-1.65c0-.05.014-0.45,0.041-1.22a2.336,2.336,0,0,1,.038-0.49,0.622,0.622,0,0,1,.2-0.25,2.026,2.026,0,0,1,.423-0.28,1.069,1.069,0,0,1,.486-0.15,0.369,0.369,0,0,1,.307.13,0.508,0.508,0,0,1,.11.35,1.023,1.023,0,0,0,.526-0.2,0.541,0.541,0,0,0,.219-0.44,0.518,0.518,0,0,0-.116-0.36,1.009,1.009,0,0,0-.322-0.21,0.869,0.869,0,0,1-.1-0.07l-0.055-.03c-0.091.06-.214,0.14-0.369,0.23s-0.264.16-.328,0.2-0.121.07-.171,0.1a0.348,0.348,0,0,0-.1.06l-0.731.41c0-.49-0.009-0.87-0.028-1.16l-1.763,1.03-0.028.22a2.152,2.152,0,0,1,.431-0.05,0.41,0.41,0,0,1,.444.27,4.271,4.271,0,0,1,.089,1.1c0,0.7-.01,1.21-0.031,1.55a2.724,2.724,0,0,1-.126.76,0.583,0.583,0,0,1-.226.32,2.021,2.021,0,0,1-.471.13l-0.014.2Zm2.362-4.62a0.645,0.645,0,0,1,.26.22,1.923,1.923,0,0,1,.277.53,17.417,17.417,0,0,1,.623,1.81q0.328,1.11.719,2.58l-0.534,1.19a11.878,11.878,0,0,1-.547,1.13,2.142,2.142,0,0,1-.493.59,1.735,1.735,0,0,1-.725.31v0.24h1.456c0.147-.62.278-1.11,0.391-1.49a14.97,14.97,0,0,1,.533-1.41q0.364-.84,1.094-2.28c0.337-.65.51-0.99,0.519-1.01l0.744-1.54q0.15-.3.277-0.51a1.139,1.139,0,0,1,.273-0.31,0.678,0.678,0,0,1,.332-0.14l0.013-.23a3.906,3.906,0,0,1-.676.04,12.824,12.824,0,0,1-1.415-.08l-0.1.22c0.633,0.08.95,0.28,0.95,0.59a3.8,3.8,0,0,1-.4,1.24q-0.4.9-.7,1.41l-0.45.81c-0.27-.72-0.5-1.45-0.7-2.18a7.273,7.273,0,0,1-.3-1.42,0.3,0.3,0,0,1,.123-0.28,1.462,1.462,0,0,1,.4-0.12l0.02-.26a10.937,10.937,0,0,1-1.4.09c-0.4,0-.714-0.02-0.937-0.04v0.21A2.293,2.293,0,0,1,282.018,6388.12Zm13.429-.35c-0.3-.07-0.56-0.13-0.779-0.17a4.273,4.273,0,0,0-.54-0.05,2.985,2.985,0,0,0-.626.13,4.231,4.231,0,0,0-1.011.45,2.8,2.8,0,0,0-.937.92,2.683,2.683,0,0,0-.407,1.52,2.2,2.2,0,0,0,.311,1.17,2.107,2.107,0,0,0,1.788,1.03,2.59,2.59,0,0,0,.923-0.16,11.415,11.415,0,0,0,1.176-.56,4.652,4.652,0,0,0,.054.83c0.037,0.19.089,0.28,0.158,0.28a18.149,18.149,0,0,0,1.736-.56v-0.25c-0.178.06-.348,0.11-0.509,0.16a1.747,1.747,0,0,1-.318.06,0.529,0.529,0,0,1-.188-0.49,11.81,11.81,0,0,1-.065-1.46v-0.66l0.055-2.76,0.027-.68c0.036-.75.073-1.4,0.109-1.94a8.542,8.542,0,0,1,.13-1.15l-0.164-.06a9.963,9.963,0,0,1-1.805.91l0.014,0.21a1.754,1.754,0,0,1,.458-0.07,0.416,0.416,0,0,1,.25.06,0.342,0.342,0,0,1,.116.23q0.037,0.165.085,0.63v0.95c0,0.49-.013.98-0.041,1.48h0Zm-0.106,3.68a2.464,2.464,0,0,0,0,.27,4.831,4.831,0,0,1-.667.35,1.953,1.953,0,0,1-1.75-.15,2.01,2.01,0,0,1-.742-0.83,2.873,2.873,0,0,1-.273-1.3,1.686,1.686,0,0,1,.236-0.88,1.85,1.85,0,0,1,.629-0.63,1.641,1.641,0,0,1,.83-0.22c0.037,0,.169.01,0.4,0.04a5,5,0,0,1,.625.12,2.112,2.112,0,0,1,.52.19,0.364,0.364,0,0,1,.236.29l-0.041,2.34C295.345,6391.17,295.344,6391.31,295.341,6391.45Zm3.593-2.98a0.379,0.379,0,0,1,.215-0.34,0.871,0.871,0,0,1,.427-0.12,1.076,1.076,0,0,1,.776.34,1.262,1.262,0,0,1,.332.92v0.23l-0.035.84q-0.628.09-1.2,0.21a5,5,0,0,0-1.087.39,0.782,0.782,0,0,0-.365.36,1.6,1.6,0,0,0-.113.69,1.057,1.057,0,0,0,.212.72,0.768,0.768,0,0,0,.629.25,4.532,4.532,0,0,0,1.941-.71,1.828,1.828,0,0,0,.25.5,0.413,0.413,0,0,0,.311.21,2.691,2.691,0,0,0,.341-0.11l1-.4v-0.28a1.925,1.925,0,0,1-.711.2,0.33,0.33,0,0,1-.307-0.33,2.592,2.592,0,0,1-.075-0.6c0-.15.009-0.34,0.027-0.59l0.027-.51c0.023-.53.034-0.83,0.034-0.92a3.611,3.611,0,0,0-.061-0.73,1.524,1.524,0,0,0-.14-0.42,1.257,1.257,0,0,0-.222-0.27,2.308,2.308,0,0,0-.438-0.33,0.927,0.927,0,0,0-.458-0.16,2.836,2.836,0,0,0-.748.18,4.472,4.472,0,0,0-.964.48,0.83,0.83,0,0,0-.428.65,1.448,1.448,0,0,0,.055.32l0.841-.37a0.976,0.976,0,0,1-.068-0.3h0Zm0.366,4.02a0.515,0.515,0,0,1-.459-0.27,1.094,1.094,0,0,1-.167-0.58,0.82,0.82,0,0,1,.545-0.71,2.829,2.829,0,0,1,1.444-.22q-0.062,1.065-.041,1.29a3.972,3.972,0,0,1-1.322.49h0Zm3.786-4.37a0.639,0.639,0,0,1,.26.22,1.87,1.87,0,0,1,.277.53,17.417,17.417,0,0,1,.623,1.81q0.33,1.11.72,2.58l-0.534,1.19a11.836,11.836,0,0,1-.548,1.13,2.142,2.142,0,0,1-.493.59,1.735,1.735,0,0,1-.725.31v0.24h1.456c0.148-.62.278-1.11,0.391-1.49a14.743,14.743,0,0,1,.534-1.41q0.363-.84,1.094-2.28c0.336-.65.509-0.99,0.519-1.01l0.743-1.54q0.151-.3.277-0.51a1.141,1.141,0,0,1,.274-0.31,0.675,0.675,0,0,1,.331-0.14l0.014-.23a3.919,3.919,0,0,1-.677.04,12.824,12.824,0,0,1-1.415-.08l-0.1.22c0.634,0.08.95,0.28,0.95,0.59a3.8,3.8,0,0,1-.4,1.24q-0.4.9-.7,1.41l-0.45.81c-0.27-.72-0.5-1.45-0.7-2.18a7.321,7.321,0,0,1-.294-1.42,0.3,0.3,0,0,1,.123-0.28,1.453,1.453,0,0,1,.4-0.12l0.02-.26a10.925,10.925,0,0,1-1.4.09c-0.4,0-.713-0.02-0.937-0.04v0.21A2.263,2.263,0,0,1,303.086,6388.12Z" transform="translate(-213.969 -6343.38)"/>
</svg>
