<svg xmlns="http://www.w3.org/2000/svg" width="537.812" height="149.34" viewBox="0 0 537.812 149.34">
  <metadata><?xpacket begin="﻿" id="W5M0MpCehiHzreSzNTczkc9d"?>
<x:xmpmeta xmlns:x="adobe:ns:meta/" x:xmptk="Adobe XMP Core 5.6-c142 79.160924, 2017/07/13-01:06:39        ">
   <rdf:RDF xmlns:rdf="http://www.w3.org/1999/02/22-rdf-syntax-ns#">
      <rdf:Description rdf:about=""/>
   </rdf:RDF>
</x:xmpmeta>
                                                                                                    
                                                                                                    
                                                                                                    
                                                                                                    
                                                                                                    
                                                                                                    
                                                                                                    
                                                                                                    
                                                                                                    
                                                                                                    
                                                                                                    
                                                                                                    
                                                                                                    
                                                                                                    
                                                                                                    
                                                                                                    
                                                                                                    
                                                                                                    
                                                                                                    
                                                                                                    
                           
<?xpacket end="w"?></metadata>
<defs>
    <style>
      .cls-1 {
        fill: #0a0a0a;
        fill-rule: evenodd;
      }
    </style>
  </defs>
  <path id="that_I_will_always_love_you_and_be_faithful_to_you._拷贝" data-name="that I will always love you  and be faithful to you. 拷贝" class="cls-1" d="M283.435,1686.9c0,0.77.3,3.08,1.365,3.08a0.574,0.574,0,0,0,.534-0.47c0-.77-0.534-1.67-0.831-3.86-0.949-6.71,9.079-24.33,11.808-30.21,0.3-.59.534-1.19,0.831-1.78,3.323-.06,6.646-0.06,9.969-0.06,4.331,0,8.663-.06,12.935.3H320.4a0.851,0.851,0,0,0,1.009-.77c0-.42-0.178-0.42-0.534-0.42-1.958,0-3.916.24-5.874,0.24h-4.451c-4.272,0-8.663.06-13.113,0.12a55.105,55.105,0,0,1,2.789-5.17c0.771-1.3,1.72-2.49,2.492-3.79a2.33,2.33,0,0,0,.356-1.07,0.652,0.652,0,0,0-.771-0.6c-0.831,0-1.187.95-1.484,1.55-1.009,2.02-2.67,5.22-4.628,9.08-7.121.18-14.3,0.47-21.065,1.18-1.009.12-3.2,0.12-3.2,1.67l0.119,0.23a0.752,0.752,0,0,0,.652.3,7.169,7.169,0,0,0,1.84-.41,31.228,31.228,0,0,1,5.755-1.49c5.163-.53,10.384-0.77,15.606-0.89C290.5,1664.52,283.257,1679.89,283.435,1686.9Zm18.929-23.92a1.639,1.639,0,0,0-1.306,1.36,0.778,0.778,0,0,0,.653.78c-1.068,2.73-3.382,8.96-3.382,11.86a0.773,0.773,0,0,0,.059.36,0.6,0.6,0,0,0,.3.53H298.8a0.836,0.836,0,0,0,.772-0.53c0.83-1.36,5.34-7.12,6.764-7.12,0.415,0,.475.59,0.475,0.89v0.47l-0.178.89v0.48a1,1,0,0,0,.89,1.25c1.246,0,8.248-3.68,9.494-4.52l0.178-.29a0.462,0.462,0,0,0-.416-0.48c-0.534,0-6.7,4.39-8.6,4.39h-0.356a0.669,0.669,0,0,1-.238-0.59c0-.65.356-1.3,0.356-1.96a1,1,0,0,0-1.008-1.12c-2.255,0-6.053,4.92-7.6,6.4,0-2.37,2.552-9.19,3.442-11.51,2.967-2.73,14.122-15.01,14.122-19.29a1.122,1.122,0,0,0-1.246-1.24C310.849,1643.99,303.728,1659.54,302.364,1662.98Zm1.424-.83c1.424-3.44,7.832-17.69,11.986-17.69a0.645,0.645,0,0,1,.593.77c0,2.38-5.34,9.32-6.883,11.28A31.843,31.843,0,0,1,303.788,1662.15Zm23.438,4.03c-0.475,0-1.306,1.55-1.78,2.38a1.938,1.938,0,0,1-.178.35,1.66,1.66,0,0,0-1.78-1.12c-2.018,0-4.747,3.26-4.747,5.16a1.339,1.339,0,0,0,1.364,1.36c1.662,0,3.442-1.54,4.451-2.79a0.527,0.527,0,0,0,.474.3,0.731,0.731,0,0,0,.475-0.24,1.889,1.889,0,0,0,2.077,1.96c1.78,0,7.951-3.56,7.951-4.27a0.462,0.462,0,0,0-.415-0.48,5.339,5.339,0,0,0-1.128.72c-1.661,1.07-5.1,3.44-6.586,3.44-0.949,0-.949-0.89-0.949-1.96a6.529,6.529,0,0,1,.89-2.97,2.349,2.349,0,0,0,.474-1.18A0.614,0.614,0,0,0,327.226,1666.18Zm-2.967,4.28-0.3.35c-1.008,1.19-2.373,3.09-3.857,3.09a0.784,0.784,0,0,1-.593-0.77c0-.72,2.077-3.68,3.5-3.68A1.07,1.07,0,0,1,324.259,1670.46Zm9.732,16.44c0,0.77.3,3.08,1.365,3.08a0.574,0.574,0,0,0,.534-0.47c0-.77-0.534-1.67-0.831-3.86-0.95-6.71,9.078-24.33,11.808-30.21,0.3-.59.534-1.19,0.831-1.78,3.323-.06,6.645-0.06,9.968-0.06,4.332,0,8.664-.06,12.936.3h0.356a0.851,0.851,0,0,0,1.009-.77c0-.42-0.178-0.42-0.534-0.42-1.959,0-3.917.24-5.875,0.24h-4.45c-4.272,0-8.663.06-13.114,0.12a55.105,55.105,0,0,1,2.789-5.17c0.772-1.3,1.721-2.49,2.492-3.79a2.33,2.33,0,0,0,.356-1.07,0.652,0.652,0,0,0-.771-0.6c-0.831,0-1.187.95-1.483,1.55-1.009,2.02-2.671,5.22-4.629,9.08-7.12.18-14.3,0.47-21.064,1.18-1.009.12-3.205,0.12-3.205,1.67l0.119,0.23a0.752,0.752,0,0,0,.653.3,7.161,7.161,0,0,0,1.839-.41,31.217,31.217,0,0,1,5.756-1.49c5.162-.53,10.384-0.77,15.606-0.89C341.052,1664.52,333.813,1679.89,333.991,1686.9Zm47.173-.18c-4.213.29-9.2-.36-10.028-0.12a0.44,0.44,0,0,0-.415.41,0.513,0.513,0,0,0,.118.36,0.41,0.41,0,0,0,.3.18,12.776,12.776,0,0,0,4.688.77,14.4,14.4,0,0,0,5.577-1.13,82.337,82.337,0,0,0,19.4-2.13,0.831,0.831,0,0,0,.712-0.78,0.742,0.742,0,0,0-1.068-.35c-5.637,2.13-12.877,2.73-18.1,2.91,2.729-1.67,5.815-4.93,8.188-10.15,3.62-8.01,7.892-28.61,9.494-35.97,0.06-.17.178-1.3-0.652-1.48-0.3-.06-1.247-0.06-1.306,1.48-0.119,4.28-4.688,27.66-8.307,35.67C387.1,1682.33,384.25,1685.35,381.164,1686.72Zm-8.663.35a53.75,53.75,0,0,0,7.654.12,13.457,13.457,0,0,1-5.34.3A18.772,18.772,0,0,1,372.5,1687.07Zm56.55-15.31a1.5,1.5,0,0,1,.119.77,13.14,13.14,0,0,1-.3,2.67,20.227,20.227,0,0,0-.237,2.67,0.707,0.707,0,0,0,.652.84c1.78,0,3.264-3.57,4.51-6.59a14.6,14.6,0,0,1,1.661-3.38,16.141,16.141,0,0,0,6.587,1.54c0.534,0,2.848-.06,2.848-0.89a0.642,0.642,0,0,0-.593-0.65,4.58,4.58,0,0,0-1.187.23,7.392,7.392,0,0,1-1.6.24,16.762,16.762,0,0,1-5.756-1.25h-0.119a0.215,0.215,0,0,0-.178-0.06c-0.652,0-1.6,2.14-2.551,4.4-1.187,2.73-2.492,5.69-3.382,5.69,0.118-2.19,1.186-3.74,1.186-5.4a1.252,1.252,0,0,0-1.424-1.48c-0.83,0-1.6,1.07-2.314,2.08a7.69,7.69,0,0,1-1.543,1.72c0-2.14,1.662-5.28,3.739-6.12a1.189,1.189,0,0,0,.949-1.06,1.022,1.022,0,0,0-.89-1.01c-2.373,0-4.688,5.75-4.688,7.71,0,0.54,0,1.37.772,1.37,0.474,0,1.305-1.13,2.077-2.2C428.1,1672.65,428.754,1671.76,429.051,1671.76Zm21.955-7.12a1.088,1.088,0,0,0-.237.53,0.659,0.659,0,0,0,.712.6,1.033,1.033,0,0,0,1.008-.95,0.926,0.926,0,0,0-.3-0.65,0.531,0.531,0,0,0-.3-0.06A0.911,0.911,0,0,0,451.006,1664.64Zm-0.534,2.02c-1.127,0-2.67,3.86-2.67,5.52a1.921,1.921,0,0,0,2.077,2.02c2.314,0,10.8-3.86,10.8-4.93a0.365,0.365,0,0,0-.059-0.24l-0.356-.18c-0.178,0-6.943,4.69-10.384,4.69a1.291,1.291,0,0,1-1.365-1.3c0-1.84,2.729-4.1,2.729-4.81A0.781,0.781,0,0,0,450.472,1666.66Zm28.422-19.88c0-.95-0.474-2.32-1.661-2.32-5.1,0-12.817,17.21-12.817,25.64,0,2.85.831,5.76,4.272,5.76,2.018,0,5.281-1.84,8.842-4.57a29.8,29.8,0,0,0-.89,7.06c0,3.03.593,5.16,3.144,5.16,4.807,0,12.639-10.26,14.538-14.3,0.119-.42-0.237-0.77-0.593-0.24-2.374,3.86-9.257,13.89-14.182,13.89-1.839,0-2.077-2.26-2.077-3.86a31.867,31.867,0,0,1,1.424-8.78c7.536-6.11,15.784-15.49,15.784-19.76a1.472,1.472,0,0,0-1.6-1.61c-5.281,0-12.461,10.86-15.25,21.43-3.679,2.91-7.061,4.92-9.078,4.92-3.2,0-3.5-3.26-3.5-5.69l0.178-.06C470.765,1666.3,478.894,1652.89,478.894,1646.78Zm-13.529,21.66c1.128-7.36,8.189-23.21,11.987-23.21,0.771,0,.949.89,0.949,1.49,0,5.04-6.29,15.25-9.85,19.11A21.567,21.567,0,0,1,465.365,1668.44Zm13.885,0.65c3.145-9.79,9.791-19.4,13.945-19.4a0.664,0.664,0,0,1,.771.77C493.966,1654.25,486.371,1663.04,479.25,1669.09Zm45.039-2.91c-0.475,0-1.306,1.55-1.78,2.38a1.938,1.938,0,0,1-.178.35,1.66,1.66,0,0,0-1.78-1.12c-2.018,0-4.747,3.26-4.747,5.16a1.339,1.339,0,0,0,1.364,1.36c1.662,0,3.442-1.54,4.451-2.79a0.527,0.527,0,0,0,.474.3,0.731,0.731,0,0,0,.475-0.24,1.889,1.889,0,0,0,2.077,1.96c1.78,0,7.951-3.56,7.951-4.27a0.462,0.462,0,0,0-.415-0.48,5.339,5.339,0,0,0-1.128.72c-1.661,1.07-5.1,3.44-6.586,3.44-0.949,0-.949-0.89-0.949-1.96a6.529,6.529,0,0,1,.89-2.97,2.349,2.349,0,0,0,.474-1.18A0.614,0.614,0,0,0,524.289,1666.18Zm-2.967,4.28-0.3.35c-1.008,1.19-2.373,3.09-3.857,3.09a0.784,0.784,0,0,1-.593-0.77c0-.72,2.077-3.68,3.5-3.68A1.07,1.07,0,0,1,521.322,1670.46Zm31.568-23.03c-7.121,0-15.25,16.97-17.089,22.91a22.826,22.826,0,0,0-1.78,7.65c0,1.9.474,4.45,2.966,4.45,3.679,0,11.868-8.6,16.615-12.81,0.653-.48.119-0.95-0.3-0.66-4.569,3.68-12.223,12.82-16.377,12.82-1.661,0-1.9-2.02-1.9-3.38a25.668,25.668,0,0,1,2.018-8.55,34.355,34.355,0,0,0,7.417-5.69c2.67-2.5,10.443-11.16,10.443-15.02C554.907,1647.85,554.077,1647.43,552.89,1647.43Zm-15.131,20.42c1.958-4.75,9.019-19.83,15.428-19.83,0.534,0,1.068.12,1.068,0.72,0,3.73-7.952,13.05-10.918,15.25A36.416,36.416,0,0,1,537.759,1667.85Zm22.548,3.91a1.5,1.5,0,0,1,.119.77,13.14,13.14,0,0,1-.3,2.67,20.227,20.227,0,0,0-.237,2.67,0.707,0.707,0,0,0,.652.84c1.781,0,3.264-3.57,4.51-6.59a14.553,14.553,0,0,1,1.662-3.38,16.132,16.132,0,0,0,6.586,1.54c0.534,0,2.848-.06,2.848-0.89a0.642,0.642,0,0,0-.593-0.65,4.58,4.58,0,0,0-1.187.23,7.392,7.392,0,0,1-1.6.24,16.762,16.762,0,0,1-5.756-1.25h-0.118a0.217,0.217,0,0,0-.178-0.06c-0.653,0-1.6,2.14-2.552,4.4-1.187,2.73-2.492,5.69-3.382,5.69,0.119-2.19,1.187-3.74,1.187-5.4a1.252,1.252,0,0,0-1.425-1.48c-0.83,0-1.6,1.07-2.314,2.08a7.713,7.713,0,0,1-1.542,1.72c0-2.14,1.661-5.28,3.738-6.12a1.189,1.189,0,0,0,.949-1.06,1.022,1.022,0,0,0-.89-1.01c-2.373,0-4.687,5.75-4.687,7.71,0,0.54,0,1.37.771,1.37,0.475,0,1.305-1.13,2.077-2.2C559.358,1672.65,560.01,1671.76,560.307,1671.76Zm25.812-5.58c-0.475,0-1.305,1.55-1.78,2.38a1.875,1.875,0,0,1-.178.35,1.66,1.66,0,0,0-1.78-1.12c-2.018,0-4.747,3.26-4.747,5.16a1.339,1.339,0,0,0,1.365,1.36c1.661,0,3.441-1.54,4.45-2.79a0.528,0.528,0,0,0,.475.3,0.726,0.726,0,0,0,.474-0.24,1.89,1.89,0,0,0,2.077,1.96c1.78,0,7.951-3.56,7.951-4.27a0.462,0.462,0,0,0-.415-0.48,5.318,5.318,0,0,0-1.127.72c-1.662,1.07-5.1,3.44-6.587,3.44-0.949,0-.949-0.89-0.949-1.96a6.529,6.529,0,0,1,.89-2.97,2.349,2.349,0,0,0,.474-1.18A0.614,0.614,0,0,0,586.119,1666.18Zm-2.967,4.28-0.3.35c-1.009,1.19-2.374,3.09-3.857,3.09a0.783,0.783,0,0,1-.594-0.77c0-.72,2.077-3.68,3.5-3.68A1.07,1.07,0,0,1,583.152,1670.46Zm25.931,2.73c-5.459,3.2-19.878,13.88-19.878,21.24a2.973,2.973,0,0,0,2.908,3.15c6.349,0,17.267-19.23,18.453-24.69a27.1,27.1,0,0,1,4.747-2.2c0.712-.29,1.543-0.47,2.255-0.83a0.438,0.438,0,0,0,.3-0.41,0.524,0.524,0,0,0-.415-0.54c-0.95,0-5.816,2.73-6.884,3.33a2.01,2.01,0,0,0-2.2-2.14c-3.026,0-5.162,4.1-8.189,4.1a1.418,1.418,0,0,1-1.6-1.67c0-1.72,1.484-3.62,1.484-4.33a0.738,0.738,0,0,0-.712-0.77c-1.187,0-1.721,3.15-1.721,4.09,0,1.73.831,3.15,2.729,3.15,2.789,0,6.765-3.92,8.6-3.92,0.356,0,.653.06,0.653,0.48A10.774,10.774,0,0,1,609.083,1673.19Zm-0.119.65c-1.6,4.69-11.808,23.26-17.089,23.26-1.3,0-1.839-2.01-1.839-3.02C590.036,1687.67,603.98,1676.87,608.964,1673.84Zm13.53,3.14c-1.365,1.13-4.154,3.74-4.154,5.64a1.54,1.54,0,0,0,1.781,1.55c3.322,0,3.975-3.21,3.975-5.88,0-.59-0.059-1.13-0.059-1.66a40.68,40.68,0,0,1,9.434-5.64,27.069,27.069,0,0,0,3.145-1.31,0.434,0.434,0,0,0,.3-0.35,0.355,0.355,0,0,0-.415-0.42,1.353,1.353,0,0,0-.238.06,51.489,51.489,0,0,0-12.342,6.95c-0.118-2.56-1.6-4.99-1.6-7.48a3.157,3.157,0,0,1,2.908-3.27c1.424,0,1.9,1.55,2.907,1.55a0.819,0.819,0,0,0,.772-0.89c0-1.31-1.662-1.78-2.671-1.78a4.472,4.472,0,0,0-4.569,4.45C621.663,1670.81,622.435,1674.2,622.494,1676.98Zm0,0.78c-0.059,1.42-.3,5.87-2.433,5.87-0.593,0-.771-0.41-0.771-1.01C619.29,1680.9,621.248,1678.76,622.494,1677.76Zm54.71-30.33c-7.121,0-15.25,16.97-17.089,22.91a22.826,22.826,0,0,0-1.78,7.65c0,1.9.474,4.45,2.967,4.45,3.678,0,11.867-8.6,16.614-12.81,0.653-.48.119-0.95-0.3-0.66-4.569,3.68-12.223,12.82-16.377,12.82-1.661,0-1.9-2.02-1.9-3.38a25.668,25.668,0,0,1,2.018-8.55,34.355,34.355,0,0,0,7.417-5.69c2.67-2.5,10.443-11.16,10.443-15.02C679.221,1647.85,678.391,1647.43,677.2,1647.43Zm-15.131,20.42c1.958-4.75,9.019-19.83,15.428-19.83,0.534,0,1.068.12,1.068,0.72,0,3.73-7.952,13.05-10.918,15.25A36.416,36.416,0,0,1,662.073,1667.85Zm20.768,0.05a10.3,10.3,0,0,0-2.017,5.17c0,1.13.415,2.19,1.72,2.19,1.959,0,2.967-3.2,3.383-4.74a8.926,8.926,0,0,0,3.026.53c0.949,0,5.7-.59,5.7-1.6,0-.24-0.059-0.54-0.3-0.54-0.178,0-3.263,1.43-5.459,1.43a9.155,9.155,0,0,1-2.848-.48c0.178-1.48.119-3.44-1.9-3.44a1.278,1.278,0,0,0-1.3,1.31v0.17Zm0.89-.59,0.3-.06c0.89,0,1.009,1.07,1.009,1.72l-0.06.3v0.12a3.048,3.048,0,0,1-1.009-.89,0.66,0.66,0,0,0,.356-0.6A0.6,0.6,0,0,0,683.731,1667.31Zm-0.237,1.72a3.659,3.659,0,0,0,1.3,1.01c-0.178.95-1.661,4.69-2.729,4.69-0.594,0-.594-0.71-0.594-1.19A7.68,7.68,0,0,1,683.494,1669.03Zm15.071-.24c0,1.67-.712,3.27-0.712,4.99a0.958,0.958,0,0,0,.831,1.19c1.839,0,5.281-3.86,6.586-5.17a7.479,7.479,0,0,0,3.739.89c0.712,0,4.153,0,4.153-1.01a0.666,0.666,0,0,0-.593-0.71c-1.3,0-2.848.83-4.332,0.83-1.246,0-2.551-.83-2.967-0.83-0.771,0-4.153,4.75-6.349,5.28v-0.11c0-2.02,1.306-3.92,1.306-6,0-.83-0.119-1.9-1.187-1.9a0.766,0.766,0,0,0-.831.77C698.209,1667.61,698.565,1668.14,698.565,1668.79Zm19.285,2.08a2.886,2.886,0,0,1,.178-1.01c1.543-.06,4.154-1.9,4.154-3.56a1.017,1.017,0,0,0-1.068-1.13c-1.9,0-4.51,3.21-4.51,5.05,0,2.14,1.365,2.79,3.323,2.79,1.6,0,10.087-2.49,10.087-3.8a0.32,0.32,0,0,0-.474-0.24c-0.238.12-6.349,3.5-9.732,3.5C718.681,1672.47,717.85,1672.06,717.85,1670.87Zm0.712-2.31c0.416-.66,1.78-2.79,2.611-2.79,0.238,0,.356.06,0.356,0.29C721.529,1667.25,719.63,1668.5,718.562,1668.56Zm46.284,4.63c-5.459,3.2-19.878,13.88-19.878,21.24a2.973,2.973,0,0,0,2.908,3.15c6.349,0,17.267-19.23,18.454-24.69a27.028,27.028,0,0,1,4.747-2.2c0.712-.29,1.543-0.47,2.255-0.83a0.437,0.437,0,0,0,.3-0.41,0.524,0.524,0,0,0-.415-0.54c-0.949,0-5.815,2.73-6.883,3.33a2.011,2.011,0,0,0-2.2-2.14c-3.026,0-5.162,4.1-8.188,4.1a1.418,1.418,0,0,1-1.6-1.67c0-1.72,1.483-3.62,1.483-4.33a0.738,0.738,0,0,0-.712-0.77c-1.187,0-1.721,3.15-1.721,4.09,0,1.73.831,3.15,2.73,3.15,2.789,0,6.764-3.92,8.6-3.92,0.356,0,.652.06,0.652,0.48A10.774,10.774,0,0,1,764.846,1673.19Zm-0.118.65c-1.6,4.69-11.808,23.26-17.089,23.26-1.306,0-1.84-2.01-1.84-3.02C745.8,1687.67,759.743,1676.87,764.728,1673.84Zm13.411-5.94a10.3,10.3,0,0,0-2.018,5.17c0,1.13.416,2.19,1.721,2.19,1.958,0,2.967-3.2,3.382-4.74a8.936,8.936,0,0,0,3.027.53c0.949,0,5.7-.59,5.7-1.6,0-.24-0.059-0.54-0.3-0.54-0.178,0-3.263,1.43-5.459,1.43a9.155,9.155,0,0,1-2.848-.48c0.178-1.48.119-3.44-1.9-3.44a1.278,1.278,0,0,0-1.3,1.31v0.17Zm0.89-.59,0.3-.06c0.89,0,1.008,1.07,1.008,1.72l-0.059.3v0.12a3.048,3.048,0,0,1-1.009-.89,0.66,0.66,0,0,0,.356-0.6A0.6,0.6,0,0,0,779.029,1667.31Zm-0.237,1.72a3.659,3.659,0,0,0,1.3,1.01c-0.178.95-1.661,4.69-2.73,4.69-0.593,0-.593-0.71-0.593-1.19A7.68,7.68,0,0,1,778.792,1669.03Zm20.649,1.84c-0.475,1.6-.119,2.91,1.661,3.03,3.323,0.18,6.824-3.03,8.367-4.16,0.356-.23.415-1.06-0.119-0.77-2.433,1.9-6.408,4.99-8.485,4.51a1.045,1.045,0,0,1-.831-1.3c0-1.66,1.78-3.03,1.9-4.22a0.594,0.594,0,0,0-.653-0.71,1.881,1.881,0,0,0-1.068,1.07c-0.712,1.48-3.441,5.58-5.221,5.58a1.035,1.035,0,0,1-1.069-1.19c0-3.14,3.145-5.34,3.145-6.35a0.842,0.842,0,0,0-.83-0.77c-1.9,0-3.027,5.28-3.027,6.71,0,1.24.416,2.13,1.781,2.13S798.669,1671.88,799.441,1670.87Zm-441.595,86.31c-0.474,0-1.305,1.55-1.78,2.38a1.56,1.56,0,0,1-.178.35,1.659,1.659,0,0,0-1.78-1.12c-2.017,0-4.747,3.26-4.747,5.16a1.348,1.348,0,0,0,1.365,1.37c1.661,0,3.441-1.55,4.45-2.79a0.538,0.538,0,0,0,.475.29,0.768,0.768,0,0,0,.475-0.23,1.882,1.882,0,0,0,2.076,1.95c1.781,0,7.952-3.56,7.952-4.27a0.452,0.452,0,0,0-.416-0.47,5.094,5.094,0,0,0-1.127.71c-1.662,1.07-5.1,3.44-6.587,3.44-0.949,0-.949-0.89-0.949-1.96a6.569,6.569,0,0,1,.89-2.97,2.342,2.342,0,0,0,.475-1.18A0.615,0.615,0,0,0,357.846,1757.18Zm-2.966,4.28-0.3.35c-1.009,1.19-2.374,3.09-3.857,3.09a0.783,0.783,0,0,1-.593-0.77c0-.71,2.076-3.68,3.5-3.68A1.071,1.071,0,0,1,354.88,1761.46Zm14.953,3.08c0-2.84,1.839-5.16,3.145-7.3a1.9,1.9,0,0,0,.237-0.83,0.817,0.817,0,0,0-.89-0.77c-1.78,0-3.323,7.3-3.323,8.9a0.659,0.659,0,0,0,1.187.3c2.017-2.55,4.866-5.28,7.714-5.28,1.9,0,0,3.86,4.509,3.86,1.781,0,9.969-1.84,10.8-2.67,0.3-.3.3-0.95-0.119-0.78-2.789,1.19-7.892,2.79-10.859,2.79-3.916,0-.771-4.8-4.687-4.8C375,1757.96,371.2,1762.59,369.833,1764.54Zm44.623-27.3c-3.145,0-8.011,16.62-9.613,19.65-0.415.77-1.009,1.42-1.484,2.19a2.913,2.913,0,0,0-2.136-1.66c-2.492,0-5.281,4.04-5.281,6.35a1.56,1.56,0,0,0,1.543,1.66c2.374,0,5.34-3.79,6.586-5.63-1.483,4.51-4.746,14.06-4.746,18.45,0,0.6.178,1.49,0.949,1.49a1.16,1.16,0,0,0,.89-1.49c-0.89-4.21,1.365-12.16,3.857-18.99,2.314-6.35,10.206-13.94,10.206-20.59C415.227,1738.13,415.286,1737.24,414.456,1737.24Zm-7.952,17.57c1.306-3.5,5.341-14.66,7.773-16.79C415.524,1738.02,409.768,1750.06,406.5,1754.81Zm-3.975,5.34c-0.89,1.19-3.442,4.81-5.281,4.87a0.436,0.436,0,0,1-.475-0.54c0-2.07,1.839-5.4,3.738-5.4C401.461,1759.08,401.7,1760.15,402.529,1760.15Zm33.823-7.24-0.593.3c-0.712.3-1.543,0.65-1.543,1.36a0.589,0.589,0,0,0,.534.6,1.469,1.469,0,0,0,.771-0.18c-1.008,2.61-3.8,9.67-3.8,10.62a0.761,0.761,0,0,0,.652.89,0.729,0.729,0,0,0,.712-0.35,3.61,3.61,0,0,1,.238-0.48,1.139,1.139,0,0,1,.178-0.41c0.89-1.61,3.975-5.17,5.933-5.17a0.95,0.95,0,0,1,.891,1.13,9.274,9.274,0,0,1-1.306,3.56c-1.661.89-7.951,4.16-7.951,6.17a1.412,1.412,0,0,0,1.483,1.37c2.73,0,6.705-5.52,8.07-7.72a38.659,38.659,0,0,1,6.824-2.96,16.9,16.9,0,0,0,2.077-.72l0.059-.06a0.344,0.344,0,0,0,.238-0.41,0.475,0.475,0,0,0-.594-0.48c-0.3,0-6.942,3.15-8.307,3.86a5.921,5.921,0,0,0,.534-2.19c0-1.19-.593-2.32-1.9-2.32-2.017,0-4.628,3.03-5.934,4.69a56.478,56.478,0,0,1,2.967-9.67c3.62-2.38,10.5-11.1,10.5-15.37a1.143,1.143,0,0,0-1.305-1.25C442.464,1737.72,437.42,1750.3,436.352,1752.91Zm0.831-.41,0.237-.18a2.323,2.323,0,0,0,.237-0.54c1.543-3.79,6.171-13.53,8.426-13.53a0.455,0.455,0,0,1,.356.48,4.638,4.638,0,0,1-.3,1.3l-0.119.36C444.6,1744.72,441.218,1750.18,437.183,1752.5Zm-5.4,18.63c0-1.48,5.281-4.75,7-5.7-1.009,1.67-4.569,6-6.646,6C431.9,1771.43,431.783,1771.37,431.783,1771.13Zm22.845-9.26a2.886,2.886,0,0,1,.178-1.01c1.543-.06,4.153-1.89,4.153-3.56a1.009,1.009,0,0,0-1.068-1.12c-1.9,0-4.509,3.2-4.509,5.04,0,2.14,1.364,2.79,3.323,2.79,1.6,0,10.087-2.49,10.087-3.8a0.325,0.325,0,0,0-.475-0.24c-0.237.12-6.349,3.51-9.731,3.51C455.458,1763.48,454.628,1763.06,454.628,1761.87Zm0.712-2.31c0.415-.65,1.78-2.79,2.611-2.79,0.237,0,.356.06,0.356,0.3C458.307,1758.25,456.408,1759.5,455.34,1759.56Zm32.577,6.7c-1.839.72-3.679,0.54-5.281,1.07a1.048,1.048,0,0,0-.653,1.01c0,0.42.534,0.42,0.772,0.42a5.4,5.4,0,0,1,3.8,1.12c-0.949,2.62-2.136,6.18-2.136,8.97,0,1.3.356,3.74,2.077,3.74,2.314,0,3.085-6.59,3.085-8.19,0-1.9-.415-4.04-2.017-5.35,0.3-.83.653-1.6,0.949-2.37,3.442-1.42,9.672-3.92,12.639-6.05l0.178-.36a0.561,0.561,0,0,0-.415-0.41,0.3,0.3,0,0,0-.238.11c-3.026,2.2-8.366,4.46-11.808,5.88a69.954,69.954,0,0,1,8.308-15.19c1.068-1.43,1.661-2.14,3.5-2.5a1.376,1.376,0,0,0,1.247-1.06,1.037,1.037,0,0,0-1.009-1.01C496.521,1746.09,489.341,1762.76,487.917,1766.26Zm-0.237.6c-0.238.59-.475,1.19-0.653,1.78a6.392,6.392,0,0,0-1.958-.89A10.758,10.758,0,0,0,487.68,1766.86Zm-0.594,3.62a7.769,7.769,0,0,1,1.424,5.1c0,1.07-.534,6.47-2.076,6.47-1.009,0-1.247-1.78-1.247-2.49A34.344,34.344,0,0,1,487.086,1770.48Zm24.269-13.3c-0.474,0-1.305,1.55-1.78,2.38a1.6,1.6,0,0,1-.178.35,1.66,1.66,0,0,0-1.78-1.12c-2.017,0-4.747,3.26-4.747,5.16a1.348,1.348,0,0,0,1.365,1.37c1.661,0,3.441-1.55,4.45-2.79a0.537,0.537,0,0,0,.475.29,0.763,0.763,0,0,0,.474-0.23,1.883,1.883,0,0,0,2.077,1.95c1.78,0,7.951-3.56,7.951-4.27a0.452,0.452,0,0,0-.415-0.47,5.07,5.07,0,0,0-1.127.71c-1.662,1.07-5.1,3.44-6.587,3.44-0.949,0-.949-0.89-0.949-1.96a6.569,6.569,0,0,1,.89-2.97,2.342,2.342,0,0,0,.475-1.18A0.615,0.615,0,0,0,511.355,1757.18Zm-2.967,4.28-0.3.35c-1.009,1.19-2.374,3.09-3.857,3.09a0.783,0.783,0,0,1-.594-0.77c0-.71,2.077-3.68,3.5-3.68A1.07,1.07,0,0,1,508.388,1761.46Zm17.327-5.82a1.089,1.089,0,0,0-.237.54,0.659,0.659,0,0,0,.712.59,1.033,1.033,0,0,0,1.009-.95,0.946,0.946,0,0,0-.3-0.65,0.531,0.531,0,0,0-.3-0.06A0.926,0.926,0,0,0,525.715,1755.64Zm-0.534,2.02c-1.127,0-2.67,3.86-2.67,5.52a1.916,1.916,0,0,0,2.077,2.02c2.314,0,10.8-3.86,10.8-4.93a0.365,0.365,0,0,0-.059-0.24l-0.356-.17c-0.178,0-6.943,4.68-10.384,4.68a1.291,1.291,0,0,1-1.365-1.3c0-1.84,2.73-4.1,2.73-4.81A0.788,0.788,0,0,0,525.181,1757.66Zm8.782,20.24c0,0.77.3,3.08,1.365,3.08a0.564,0.564,0,0,0,.534-0.47c0-.77-0.534-1.66-0.831-3.86-0.949-6.71,9.079-24.33,11.808-30.21,0.3-.59.534-1.18,0.831-1.78,3.323-.06,6.646-0.06,9.968-0.06,4.332,0,8.664-.06,12.936.3h0.356a0.851,0.851,0,0,0,1.009-.77c0-.42-0.178-0.42-0.534-0.42-1.958,0-3.917.24-5.875,0.24h-4.45c-4.272,0-8.663.06-13.113,0.12a53.709,53.709,0,0,1,2.788-5.16c0.772-1.31,1.721-2.5,2.493-3.8a2.292,2.292,0,0,0,.356-1.07,0.645,0.645,0,0,0-.772-0.59c-0.831,0-1.187.95-1.483,1.54-1.009,2.02-2.67,5.22-4.629,9.08-7.12.18-14.3,0.47-21.064,1.19-1.009.11-3.2,0.11-3.2,1.66l0.118,0.24a0.77,0.77,0,0,0,.653.29,7.161,7.161,0,0,0,1.839-.41,31.217,31.217,0,0,1,5.756-1.49c5.162-.53,10.384-0.77,15.606-0.89C541.024,1755.52,533.785,1770.89,533.963,1777.9Zm18.928-23.92a1.639,1.639,0,0,0-1.3,1.37,0.775,0.775,0,0,0,.652.77c-1.068,2.73-3.382,8.96-3.382,11.87a0.741,0.741,0,0,0,.06.35,0.631,0.631,0,0,0,.3.54h0.119a0.845,0.845,0,0,0,.771-0.54c0.831-1.36,5.341-7.12,6.765-7.12,0.415,0,.474.59,0.474,0.89v0.48l-0.178.89v0.47a1,1,0,0,0,.891,1.25c1.246,0,8.247-3.68,9.493-4.51l0.178-.3a0.462,0.462,0,0,0-.415-0.48c-0.534,0-6.7,4.4-8.6,4.4H558.35a0.7,0.7,0,0,1-.237-0.6c0-.65.356-1.3,0.356-1.96a1,1,0,0,0-1.009-1.12c-2.255,0-6.052,4.92-7.6,6.41,0-2.38,2.551-9.2,3.442-11.52,2.966-2.73,14.122-15.01,14.122-19.28a1.125,1.125,0,0,0-1.246-1.25C561.376,1734.99,554.256,1750.54,552.891,1753.98Zm1.424-.83c1.424-3.44,7.833-17.69,11.986-17.69a0.649,0.649,0,0,1,.594.78c0,2.37-5.341,9.31-6.883,11.27A31.882,31.882,0,0,1,554.315,1753.15Zm14.479,13.11c-1.84.72-3.679,0.54-5.281,1.07a1.046,1.046,0,0,0-.653,1.01c0,0.42.534,0.42,0.771,0.42a5.4,5.4,0,0,1,3.8,1.12c-0.95,2.62-2.136,6.18-2.136,8.97,0,1.3.356,3.74,2.077,3.74,2.314,0,3.085-6.59,3.085-8.19,0-1.9-.415-4.04-2.017-5.35,0.3-.83.652-1.6,0.949-2.37,3.442-1.42,9.672-3.92,12.639-6.05l0.178-.36a0.563,0.563,0,0,0-.416-0.41,0.3,0.3,0,0,0-.237.11c-3.026,2.2-8.366,4.46-11.808,5.88a69.95,69.95,0,0,1,8.307-15.19c1.068-1.43,1.662-2.14,3.5-2.5a1.375,1.375,0,0,0,1.246-1.06,1.036,1.036,0,0,0-1.009-1.01C577.4,1746.09,570.218,1762.76,568.794,1766.26Zm-0.238.6c-0.237.59-.474,1.19-0.652,1.78a6.4,6.4,0,0,0-1.959-.89A10.744,10.744,0,0,0,568.556,1766.86Zm-0.593,3.62a7.769,7.769,0,0,1,1.424,5.1c0,1.07-.534,6.47-2.077,6.47-1.009,0-1.246-1.78-1.246-2.49A34.3,34.3,0,0,1,567.963,1770.48Zm23.616-8.61c-0.475,1.61-.119,2.91,1.662,3.03,3.322,0.18,6.823-3.03,8.366-4.15,0.356-.24.416-1.07-0.119-0.78-2.432,1.9-6.408,4.99-8.485,4.51a1.04,1.04,0,0,1-.83-1.3c0-1.66,1.78-3.03,1.9-4.21a0.6,0.6,0,0,0-.652-0.72,1.908,1.908,0,0,0-1.068,1.07c-0.712,1.48-3.442,5.58-5.222,5.58a1.03,1.03,0,0,1-1.068-1.19c0-3.14,3.145-5.34,3.145-6.35a0.843,0.843,0,0,0-.831-0.77c-1.9,0-3.026,5.28-3.026,6.71,0,1.24.415,2.13,1.78,2.13S590.808,1762.88,591.579,1761.87Zm30.974-23.44c-7.12,0-15.249,16.97-17.089,22.91a22.826,22.826,0,0,0-1.78,7.65c0,1.9.475,4.46,2.967,4.46,3.679,0,11.867-8.61,16.614-12.82,0.653-.48.119-0.95-0.3-0.66-4.569,3.68-12.224,12.82-16.378,12.82-1.661,0-1.9-2.01-1.9-3.38a25.723,25.723,0,0,1,2.017-8.55,34.306,34.306,0,0,0,7.417-5.69c2.67-2.5,10.444-11.16,10.444-15.02C624.571,1738.85,623.74,1738.43,622.553,1738.43Zm-15.131,20.42c1.958-4.75,9.019-19.83,15.428-19.83,0.534,0,1.068.12,1.068,0.72,0,3.74-7.951,13.05-10.918,15.25A36.319,36.319,0,0,1,607.422,1758.85Zm34.654,19.05c0,0.77.3,3.08,1.364,3.08a0.564,0.564,0,0,0,.535-0.47c0-.77-0.535-1.66-0.831-3.86-0.95-6.71,9.078-24.33,11.808-30.21,0.3-.59.534-1.18,0.831-1.78,3.323-.06,6.645-0.06,9.968-0.06,4.332,0,8.664-.06,12.936.3h0.356a0.851,0.851,0,0,0,1.009-.77c0-.42-0.178-0.42-0.534-0.42-1.959,0-3.917.24-5.875,0.24h-4.45c-4.272,0-8.663.06-13.114,0.12a53.717,53.717,0,0,1,2.789-5.16c0.772-1.31,1.721-2.5,2.492-3.8a2.292,2.292,0,0,0,.356-1.07,0.645,0.645,0,0,0-.771-0.59c-0.831,0-1.187.95-1.483,1.54-1.009,2.02-2.671,5.22-4.629,9.08-7.12.18-14.3,0.47-21.064,1.19-1.009.11-3.205,0.11-3.205,1.66l0.119,0.24a0.768,0.768,0,0,0,.653.29,7.161,7.161,0,0,0,1.839-.41,31.217,31.217,0,0,1,5.756-1.49c5.162-.53,10.384-0.77,15.606-0.89C649.137,1755.52,641.9,1770.89,642.076,1777.9Zm17.623-18.99a10.263,10.263,0,0,0-2.018,5.16c0,1.13.415,2.19,1.721,2.19,1.958,0,2.967-3.2,3.382-4.74a8.934,8.934,0,0,0,3.026.53c0.95,0,5.7-.59,5.7-1.6,0-.24-0.06-0.54-0.3-0.54-0.178,0-3.264,1.43-5.459,1.43a9.155,9.155,0,0,1-2.848-.48c0.178-1.48.118-3.44-1.9-3.44a1.284,1.284,0,0,0-1.305,1.31v0.18Zm0.89-.6,0.3-.06c0.89,0,1.009,1.07,1.009,1.72l-0.059.3v0.12a2.941,2.941,0,0,1-1.009-.89,0.658,0.658,0,0,0,.356-0.59A0.6,0.6,0,0,0,660.589,1758.31Zm-0.238,1.72a3.554,3.554,0,0,0,1.306,1.01c-0.178.95-1.662,4.69-2.73,4.69-0.593,0-.593-0.71-0.593-1.19A7.685,7.685,0,0,1,660.351,1760.03Zm45.928,4.16c-5.459,3.2-19.878,13.88-19.878,21.24a2.967,2.967,0,0,0,2.907,3.15c6.349,0,17.267-19.23,18.454-24.69a26.352,26.352,0,0,1,4.747-2.19c0.712-.3,1.543-0.48,2.255-0.84a0.438,0.438,0,0,0,.3-0.41,0.524,0.524,0,0,0-.416-0.54c-0.949,0-5.815,2.73-6.883,3.33a2.01,2.01,0,0,0-2.195-2.14c-3.027,0-5.163,4.1-8.189,4.1a1.418,1.418,0,0,1-1.6-1.67c0-1.72,1.483-3.62,1.483-4.33a0.737,0.737,0,0,0-.712-0.77c-1.186,0-1.72,3.15-1.72,4.1,0,1.72.83,3.14,2.729,3.14,2.789,0,6.765-3.92,8.6-3.92,0.356,0,.653.06,0.653,0.48A10.855,10.855,0,0,1,706.279,1764.19Zm-0.119.65c-1.6,4.69-11.808,23.26-17.089,23.26-1.305,0-1.84-2.01-1.84-3.02C687.231,1778.67,701.176,1767.87,706.16,1764.84Zm13.411-5.93a10.271,10.271,0,0,0-2.017,5.16c0,1.13.415,2.19,1.72,2.19,1.959,0,2.967-3.2,3.383-4.74a8.926,8.926,0,0,0,3.026.53c0.949,0,5.7-.59,5.7-1.6,0-.24-0.059-0.54-0.3-0.54-0.178,0-3.264,1.43-5.459,1.43a9.156,9.156,0,0,1-2.849-.48c0.178-1.48.119-3.44-1.9-3.44a1.285,1.285,0,0,0-1.306,1.31v0.18Zm0.89-.6,0.3-.06c0.89,0,1.009,1.07,1.009,1.72l-0.06.3v0.12a2.937,2.937,0,0,1-1.008-.89,0.658,0.658,0,0,0,.356-0.59A0.6,0.6,0,0,0,720.461,1758.31Zm-0.237,1.72a3.55,3.55,0,0,0,1.3,1.01c-0.178.95-1.661,4.69-2.729,4.69-0.594,0-.594-0.71-0.594-1.19A7.68,7.68,0,0,1,720.224,1760.03Zm20.649,1.84c-0.475,1.61-.119,2.91,1.662,3.03,3.322,0.18,6.823-3.03,8.366-4.15,0.356-.24.415-1.07-0.119-0.78-2.432,1.9-6.408,4.99-8.485,4.51a1.04,1.04,0,0,1-.83-1.3c0-1.66,1.78-3.03,1.9-4.21a0.6,0.6,0,0,0-.652-0.72,1.908,1.908,0,0,0-1.068,1.07c-0.713,1.48-3.442,5.58-5.222,5.58a1.03,1.03,0,0,1-1.068-1.19c0-3.14,3.145-5.34,3.145-6.35a0.843,0.843,0,0,0-.831-0.77c-1.9,0-3.026,5.28-3.026,6.71,0,1.24.415,2.13,1.78,2.13S740.1,1762.88,740.873,1761.87Zm21.421,2.97a1.476,1.476,0,0,0-1.246-1.48,1.582,1.582,0,0,0-1.543,1.6,1.355,1.355,0,0,0,1.3,1.25A1.59,1.59,0,0,0,762.294,1764.84Z" transform="translate(-271.938 -1639.25)"/>
</svg>
