<svg xmlns="http://www.w3.org/2000/svg" width="498.719" height="53.15" viewBox="0 0 498.719 53.15">
  <defs>
    <style>
      .cls-1 {
        fill-rule: evenodd;
        opacity: 0.5;
      }
    </style>
  </defs>
  <path id="Just_wait_for_a_smile_and_a_smile_Stay_with_you_I_only_hope_tha" data-name="Just wait for a smile and a smile Stay with you I only hope tha" class="cls-1" d="M64.42,1142.01a1.228,1.228,0,0,1,.493.13,0.807,0.807,0,0,1,.367.58,9.68,9.68,0,0,1,.071,1.52v6.3a16.459,16.459,0,0,1-.116,2.34,2.29,2.29,0,0,1-.722,1.32,2.055,2.055,0,0,1-1.013.51,3.441,3.441,0,0,1-1.08-.04l-0.136-.06a0.552,0.552,0,0,1-.37-0.51,0.864,0.864,0,0,1,.093-0.33,0.7,0.7,0,0,0,.07-0.3,0.519,0.519,0,0,0-.158-0.38,0.556,0.556,0,0,0-.4-0.15,0.484,0.484,0,0,0-.386.17,0.615,0.615,0,0,0-.163.44,0.972,0.972,0,0,0,.513.81,2.175,2.175,0,0,0,1.008.34,4.013,4.013,0,0,0,.627.05,3.084,3.084,0,0,0,.663-0.07,3.351,3.351,0,0,0,.928-0.26,2.765,2.765,0,0,0,1.611-2.05,13.288,13.288,0,0,0,.094-1.83v-6.3a9.473,9.473,0,0,1,.075-1.56,0.793,0.793,0,0,1,.38-0.56,1.374,1.374,0,0,1,.462-0.11H64.42Zm9.547,9.18a0.664,0.664,0,0,1-.287-0.49c-0.02-.17-0.03-0.57-0.03-1.22v-3.64H72.3a0.763,0.763,0,0,1,.425.18,0.739,0.739,0,0,1,.234.47q0.023,0.21.022,1.17v1.32a3.83,3.83,0,0,1-.091.9,2.309,2.309,0,0,1-1.8,1.53,1.261,1.261,0,0,1-.195.01,1.367,1.367,0,0,1-.776-0.23,1.018,1.018,0,0,1-.432-0.57,3.938,3.938,0,0,1-.077-0.92v-3.86h-1.38a0.982,0.982,0,0,1,.358.11,0.6,0.6,0,0,1,.311.45,11.621,11.621,0,0,1,.038,1.26v1.99a2.94,2.94,0,0,0,.153,1.09,1.287,1.287,0,0,0,.544.57,1.817,1.817,0,0,0,.941.24,2.155,2.155,0,0,0,1.142-.32l0.045-.03a0.336,0.336,0,0,1-.087.04,2.314,2.314,0,0,0,1.222-1.35l0.07-.11,0.009,0.58a3.32,3.32,0,0,0,.166,1.16,4.561,4.561,0,0,1,1.257-.2A0.961,0.961,0,0,1,73.966,1151.19Zm4.239-2.11a2.988,2.988,0,0,0-1.4-.99,3.823,3.823,0,0,1-1.137-.68,1.04,1.04,0,0,1-.032-1.52,1.1,1.1,0,0,1,.281-0.2,1.459,1.459,0,0,1,.547-0.11,1.444,1.444,0,0,1,1.263.75c0.06,0.1.118,0.2,0.17,0.3a2.223,2.223,0,0,1,.155.36v-1.22a1.242,1.242,0,0,1-.241.4l-0.1.11a1.449,1.449,0,0,0-1.248-.71,1.424,1.424,0,0,0-.727.19l0.006,0.01a1.148,1.148,0,0,0-.336.29,1.579,1.579,0,0,0-.375.99,1.254,1.254,0,0,0,.338.9,3.181,3.181,0,0,0,.687.53,1.656,1.656,0,0,0-.97,1.49h0l-0.005,1.46a1.792,1.792,0,0,1,.2-0.39q0.039-.045.081-0.09l0.017-.02,0.024,0.03c0.026,0.03.052,0.07,0.081,0.1a0.22,0.22,0,0,0,.049.05,0.518,0.518,0,0,0,.079.08,0.235,0.235,0,0,0,.053.05,0.636,0.636,0,0,0,.107.08l0.035,0.03a1.112,1.112,0,0,0,.157.1,0.032,0.032,0,0,1,.028.01l0.143,0.06c0.013,0.01.027,0.01,0.041,0.02,0.046,0.01.094,0.03,0.142,0.04a0.061,0.061,0,0,0,.04.01,0.868,0.868,0,0,0,.159.03c0.009,0,.017.01,0.026,0.01,0.064,0,.129.01,0.2,0.01a1.6,1.6,0,0,0,.862-0.25,1.244,1.244,0,0,0,.4-0.27,1.457,1.457,0,0,0,.447-1.11A2.048,2.048,0,0,0,78.206,1149.08ZM77.8,1151.2a0.88,0.88,0,0,1-.179.17,1.619,1.619,0,0,1-.871.25h0a1.238,1.238,0,0,1-.193-0.01H76.528l-0.159-.03a0.057,0.057,0,0,0-.039-0.01c-0.048-.02-0.1-0.03-0.142-0.05-0.013,0-.026-0.01-0.038-0.01a0.856,0.856,0,0,1-.144-0.07,0.028,0.028,0,0,1-.025-0.01q-0.081-.045-0.156-0.09l-0.032-.03a0.642,0.642,0,0,1-.108-0.08c-0.018-.02-0.034-0.03-0.051-0.05a0.524,0.524,0,0,1-.08-0.08,0.212,0.212,0,0,1-.048-0.05c-0.028-.03-0.055-0.07-0.081-0.1a1.634,1.634,0,0,1,.655-2.46c0.153,0.09.322,0.18,0.509,0.27a4.85,4.85,0,0,1,1.179.74,1.2,1.2,0,0,1,.334.87,1.3,1.3,0,0,1-.306.83h0Zm4.449,0.11a0.974,0.974,0,0,1-.6-0.21,0.955,0.955,0,0,1-.368-0.55,5.34,5.34,0,0,1-.077-1.13v-3.69h0.753v-0.02H81.2v-1.41a2.23,2.23,0,0,1-.516.9,1.668,1.668,0,0,1-.928.52h0.779v3.48a7.028,7.028,0,0,0,.091,1.38,1.1,1.1,0,0,0,.421.61,1.227,1.227,0,0,0,.792.26,1.647,1.647,0,0,0,.786-0.21c0.007-.01.015-0.01,0.022-0.02A0.93,0.93,0,0,1,82.246,1151.31Zm14.2-5.47a0.579,0.579,0,0,1,.625.53,0.5,0.5,0,0,1-.011.09l-1.675,4.28-1.847-4.9H93.507l-0.25.64-1.741,4.4,0.046-.12-1.325-3.51a3.012,3.012,0,0,1-.29-0.9,0.457,0.457,0,0,1,.261-0.43,0.849,0.849,0,0,1,.275-0.08H88.558a0.663,0.663,0,0,1,.4.19,3.137,3.137,0,0,1,.492,1l1.735,4.51h0.079l1.921-4.84,1.819,4.84H95.1l1.981-5.07a1.048,1.048,0,0,1,.366-0.49,1,1,0,0,1,.37-0.14H96.45Zm7.745,5.45a0.526,0.526,0,0,1-.535-0.34,3.7,3.7,0,0,1-.095-1.12v-2.36a2.782,2.782,0,0,0-.145-1.04,1.351,1.351,0,0,0-.585-0.56,2.308,2.308,0,0,0-.981-0.25,1.379,1.379,0,0,1,.474.19,1.059,1.059,0,0,1,.479.58,3.693,3.693,0,0,1,.084.93v3.27a1.1,1.1,0,0,0,.31.66,0.925,0.925,0,0,0,.646.21,0.915,0.915,0,0,0,.835-0.37A0.636,0.636,0,0,1,104.2,1151.29Zm-3.395-5.61a1.425,1.425,0,0,0-.759.22,1.249,1.249,0,0,0-.2.13,1.106,1.106,0,0,0-.511.74,0.237,0.237,0,0,0,.053.18,1.348,1.348,0,0,0-.009.15,1.429,1.429,0,0,0,1.426,1.43,1.3,1.3,0,0,0,.2-0.02,7.04,7.04,0,0,0-1.252.74,1.425,1.425,0,0,0-.646,1.14,0.913,0.913,0,0,0,.361.77,1.412,1.412,0,0,0,.907.3,2.521,2.521,0,0,0,.893-0.2,1.717,1.717,0,0,1-.31.03,0.938,0.938,0,0,1-.744-0.33,1.242,1.242,0,0,1-.278-0.84,1.928,1.928,0,0,1,1.1-1.61,1.424,1.424,0,0,0-.228-2.83h0Zm0,2.83a1.4,1.4,0,0,1-1.4-1.55,0.312,0.312,0,0,0,.191.04c0.091,0,.333,0,0.424-0.57a0.928,0.928,0,0,1,.564-0.72,1.65,1.65,0,0,1,.224-0.02A1.41,1.41,0,1,1,100.8,1148.51Zm6.244-5.47a0.533,0.533,0,0,0,.393-0.17,0.561,0.561,0,0,0,.164-0.41,0.578,0.578,0,0,0-.164-0.41,0.524,0.524,0,0,0-.393-0.16,0.513,0.513,0,0,0-.4.17,0.533,0.533,0,0,0-.166.4,0.571,0.571,0,0,0,.166.41A0.549,0.549,0,0,0,107.044,1143.04Zm-0.235,7.65a0.7,0.7,0,0,1-.23.45,0.725,0.725,0,0,1-.414.17h2.026a0.891,0.891,0,0,1-.382-0.13,0.686,0.686,0,0,1-.278-0.5c-0.02-.16-0.03-0.55-0.03-1.19v-3.87a8.122,8.122,0,0,1-1.712.34,1.638,1.638,0,0,1,.578.07,0.614,0.614,0,0,1,.359.38,3.934,3.934,0,0,1,.11,1.32v1.76Q106.836,1150.48,106.809,1150.69Zm5.356,0.62a0.976,0.976,0,0,1-.6-0.21,0.962,0.962,0,0,1-.368-0.55,5.4,5.4,0,0,1-.076-1.13v-3.69h0.753v-0.02h-0.753v-1.41a2.232,2.232,0,0,1-.516.9,1.67,1.67,0,0,1-.929.52h0.779v3.48a7.075,7.075,0,0,0,.091,1.38,1.1,1.1,0,0,0,.421.61,1.227,1.227,0,0,0,.791.26,1.643,1.643,0,0,0,.786-0.21c0.008-.01.015-0.01,0.022-0.02A0.93,0.93,0,0,1,112.165,1151.31Zm11.367-8.3,0.034-.03a0.292,0.292,0,0,0,.088-0.22,0.772,0.772,0,0,0-.429-0.56,1.961,1.961,0,0,0-1.115-.3,1.467,1.467,0,0,0-.3-0.03,1.853,1.853,0,0,0-1.245.48h0a2.052,2.052,0,0,0-.464.52,2.369,2.369,0,0,0-.376.93,9.819,9.819,0,0,0-.069,1.34v0.45h-1.615v0.02h1.615v3.88a7.635,7.635,0,0,1-.051,1.31,0.631,0.631,0,0,1-.323.42,1.191,1.191,0,0,1-.339.09h2.068a0.891,0.891,0,0,1-.381-0.13,0.67,0.67,0,0,1-.275-0.5c-0.017-.17-0.026-0.56-0.026-1.19v-3.88h1.48a1.873,1.873,0,0,0,1.871-1.87A1.816,1.816,0,0,0,123.532,1143.01Zm-1.719,2.59-1.48-.01v-0.37a20.383,20.383,0,0,1,.066-2.1,1.515,1.515,0,0,1,.454-0.91,1.905,1.905,0,0,1,.2-0.16,1.959,1.959,0,0,1,.759-0.16,2.768,2.768,0,0,1,.291.02,1.323,1.323,0,0,1,.714.66,0.741,0.741,0,0,0,.535.5,0.311,0.311,0,0,0,.165-0.05,1.836,1.836,0,0,1,.148.72A1.862,1.862,0,0,1,121.813,1145.6Zm5.724,0.86a2.806,2.806,0,0,0-1.134-.71,1.052,1.052,0,0,0-.3-0.08h0a0.7,0.7,0,0,0-.145-0.01h-0.114a0.988,0.988,0,0,0-.792.57,1.063,1.063,0,0,0,.094,1.05,4.735,4.735,0,0,1,.936,3.13,1.187,1.187,0,0,1-1.143,1.07H124.9c-0.058-.01-0.115-0.01-0.172-0.02a1.78,1.78,0,0,1-.824-0.57,3.669,3.669,0,0,1-.545-2.29,3.831,3.831,0,0,1,.53-2.3,1.766,1.766,0,0,1,.926-0.63,2.786,2.786,0,0,0-1.44.78,2.958,2.958,0,0,0,1.11,4.95,1.039,1.039,0,0,0,.3.08,0.021,0.021,0,0,1,.02.01c0-.01-0.007-0.01-0.01-0.01a0.357,0.357,0,0,0,.1.01h0.036a1.2,1.2,0,0,0,1.161-1.07,4.759,4.759,0,0,0-.939-3.15,1.037,1.037,0,0,1-.092-1.03,0.94,0.94,0,0,1,.777-0.56h0.113a0.835,0.835,0,0,1,.223.02,1.654,1.654,0,0,1,.846.61,3.834,3.834,0,0,1,.526,2.29,3.685,3.685,0,0,1-.532,2.28,1.661,1.661,0,0,1-.891.6,2.879,2.879,0,0,0,1.406-.73,2.831,2.831,0,0,0,.854-2.18A2.876,2.876,0,0,0,127.537,1146.46Zm6.183-.62a0.777,0.777,0,0,0-.611-0.23,1.44,1.44,0,0,0-.732.23,8.7,8.7,0,0,0-1.257.8,0.165,0.165,0,0,1-.046.04,4.675,4.675,0,0,0-.154-1.03,9.952,9.952,0,0,1-1.395.34,0.73,0.73,0,0,0-.633.7,0.694,0.694,0,0,0,.695.69h0.071a1.324,1.324,0,0,0,.387-0.05,2.509,2.509,0,0,0,.419-0.18c0,0.19,0,.42,0,0.7v1.64a11.287,11.287,0,0,1-.038,1.25,0.643,0.643,0,0,1-.3.45,0.829,0.829,0,0,1-.355.12h2.043a0.9,0.9,0,0,1-.382-0.13,0.687,0.687,0,0,1-.274-0.5c-0.018-.16-0.026-0.55-0.026-1.19v-1.04l-0.057-1.53c0-.07-0.006-0.14-0.01-0.21l0.056-.06a7.963,7.963,0,0,1,1.434-.86,0.823,0.823,0,0,1,.153-0.02,0.585,0.585,0,0,1,.55.47c0.143,0.41.317,0.41,0.375,0.41a0.279,0.279,0,0,0,.209-0.09,0.35,0.35,0,0,0,.091-0.24,0.707,0.707,0,0,0-.223-0.48h0Zm-3.678,1.47a1.119,1.119,0,0,1-.454.05,0.674,0.674,0,0,1-.678-0.67,0.723,0.723,0,0,1,.7-0.69,1.113,1.113,0,0,1,.563.16,0.672,0.672,0,0,1,.273.49c0.01,0.09.016,0.25,0.021,0.48A1.913,1.913,0,0,1,130.042,1147.31Zm15.464,3.98a0.526,0.526,0,0,1-.535-0.34,3.7,3.7,0,0,1-.095-1.12v-2.36a2.782,2.782,0,0,0-.145-1.04,1.351,1.351,0,0,0-.585-0.56,2.307,2.307,0,0,0-.98-0.25,1.381,1.381,0,0,1,.473.19,1.059,1.059,0,0,1,.479.58,3.693,3.693,0,0,1,.084.93v3.27a1.1,1.1,0,0,0,.31.66,0.925,0.925,0,0,0,.646.21,0.914,0.914,0,0,0,.835-0.37A0.636,0.636,0,0,1,145.506,1151.29Zm-3.4-5.61a1.425,1.425,0,0,0-.759.22,1.238,1.238,0,0,0-.2.13,1.107,1.107,0,0,0-.51.74,0.235,0.235,0,0,0,.053.18,1.258,1.258,0,0,0-.009.15,1.428,1.428,0,0,0,1.426,1.43,1.3,1.3,0,0,0,.2-0.02,7.05,7.05,0,0,0-1.252.74,1.424,1.424,0,0,0-.645,1.14,0.912,0.912,0,0,0,.361.77,1.412,1.412,0,0,0,.907.3,2.521,2.521,0,0,0,.893-0.2,1.717,1.717,0,0,1-.31.03,0.938,0.938,0,0,1-.744-0.33,1.243,1.243,0,0,1-.278-0.84,1.928,1.928,0,0,1,1.1-1.61,1.424,1.424,0,0,0-.228-2.83h0Zm0,2.83a1.41,1.41,0,0,1-1.411-1.41,1.314,1.314,0,0,1,.008-0.14,0.312,0.312,0,0,0,.191.04c0.091,0,.333,0,0.424-0.57a0.928,0.928,0,0,1,.564-0.72,1.65,1.65,0,0,1,.224-0.02A1.41,1.41,0,1,1,142.111,1148.51Zm13.117,0.57a2.99,2.99,0,0,0-1.4-.99,3.816,3.816,0,0,1-1.136-.68,1.039,1.039,0,0,1-.032-1.52,1.09,1.09,0,0,1,.281-0.2,1.463,1.463,0,0,1,.547-0.11,1.445,1.445,0,0,1,1.264.75c0.06,0.1.118,0.2,0.169,0.3a2.18,2.18,0,0,1,.155.36v-1.22a1.25,1.25,0,0,1-.241.4l-0.1.11a1.45,1.45,0,0,0-1.248-.71,1.421,1.421,0,0,0-.727.19l0.006,0.01a1.153,1.153,0,0,0-.336.29,1.581,1.581,0,0,0-.375.99,1.252,1.252,0,0,0,.338.9,3.166,3.166,0,0,0,.687.53,1.656,1.656,0,0,0-.97,1.49h0l-0.006,1.46a1.784,1.784,0,0,1,.2-0.39q0.039-.045.081-0.09l0.017-.02c0.007,0.01.016,0.02,0.024,0.03,0.026,0.03.052,0.07,0.081,0.1a0.212,0.212,0,0,0,.049.05,0.5,0.5,0,0,0,.079.08,0.243,0.243,0,0,0,.053.05,0.608,0.608,0,0,0,.107.08l0.035,0.03a1.093,1.093,0,0,0,.157.1,0.031,0.031,0,0,1,.027.01l0.143,0.06c0.013,0.01.027,0.01,0.041,0.02,0.046,0.01.093,0.03,0.142,0.04a0.059,0.059,0,0,0,.04.01,0.858,0.858,0,0,0,.159.03c0.009,0,.018.01,0.027,0.01,0.064,0,.129.01,0.195,0.01a1.6,1.6,0,0,0,.862-0.25,1.23,1.23,0,0,0,.4-0.27,1.456,1.456,0,0,0,.447-1.11A2.049,2.049,0,0,0,155.228,1149.08Zm-0.409,2.12a0.87,0.87,0,0,1-.179.17,1.616,1.616,0,0,1-.871.25h0a1.242,1.242,0,0,1-.193-0.01H153.55l-0.158-.03a0.057,0.057,0,0,0-.039-0.01c-0.048-.02-0.095-0.03-0.142-0.05-0.013,0-.026-0.01-0.038-0.01a0.868,0.868,0,0,1-.144-0.07,0.028,0.028,0,0,1-.025-0.01l-0.157-.09-0.032-.03a0.654,0.654,0,0,1-.108-0.08c-0.017-.02-0.034-0.03-0.051-0.05a0.549,0.549,0,0,1-.08-0.08,0.207,0.207,0,0,1-.047-0.05c-0.029-.03-0.055-0.07-0.081-0.1a1.635,1.635,0,0,1,.655-2.46c0.153,0.09.322,0.18,0.509,0.27a4.851,4.851,0,0,1,1.179.74,1.2,1.2,0,0,1,.334.87,1.294,1.294,0,0,1-.306.83h0Zm10.516-.42a0.611,0.611,0,0,1-.319.43,0.944,0.944,0,0,1-.342.1h2.089a0.99,0.99,0,0,1-.36-0.1,0.624,0.624,0,0,1-.314-0.45,9.026,9.026,0,0,1-.042-1.27v-1.75a5.713,5.713,0,0,0-.095-1.24,1.082,1.082,0,0,0-.5-0.61,1.837,1.837,0,0,0-1.047-.28,2.15,2.15,0,0,0-1.072.3,0.813,0.813,0,0,0-.124.08,0.018,0.018,0,0,1,.019-0.01,1.5,1.5,0,0,0-.482.42l-0.743,1.03v-0.29l-0.036-.36a1.552,1.552,0,0,0-.56-0.88,1.734,1.734,0,0,0-1.063-.29,2.215,2.215,0,0,0-1.1.28c-0.026.01-.05,0.03-0.075,0.04a1.688,1.688,0,1,0,2.159,2.46v1.1a7.838,7.838,0,0,1-.05,1.31,0.629,0.629,0,0,1-.324.42,1.182,1.182,0,0,1-.339.09h2.063a0.78,0.78,0,0,1-.383-0.14,0.677,0.677,0,0,1-.268-0.49c-0.018-.17-0.026-0.56-0.026-1.19v-2.03l0.757-1.05a1.663,1.663,0,0,1,1.317-.65c0.024,0,.046.01,0.07,0.01h0.115a0.141,0.141,0,0,0,.063.01,1.282,1.282,0,0,1,.562.23,1.053,1.053,0,0,1,.417.61,4.477,4.477,0,0,1,.072.93v1.94A8.485,8.485,0,0,1,165.335,1150.78Zm-4-2.42a1.669,1.669,0,1,1-2.262-2.35,2.41,2.41,0,0,1,.4-0.18h0.017a0.823,0.823,0,0,1,.149-0.04,1.539,1.539,0,0,1,.305-0.03,1.64,1.64,0,0,1,.764.19,0.8,0.8,0,0,1,.131.09,1.124,1.124,0,0,1,.43.69,7.482,7.482,0,0,1,.063,1.15v0.48Zm-3.344,2.35c-0.02-.17-0.029-0.57-0.029-1.22v-2.84a3.153,3.153,0,0,0-.143-1.02,8.828,8.828,0,0,1-1.439.28,1.319,1.319,0,0,1,.579.13,0.62,0.62,0,0,1,.3.46c0.023,0.16.034,0.57,0.034,1.25v1.74a8.355,8.355,0,0,1-.047,1.3,0.61,0.61,0,0,1-.318.42,0.95,0.95,0,0,1-.345.1h2.077a0.891,0.891,0,0,1-.38-0.12A0.661,0.661,0,0,1,157.991,1150.71Zm10.876-7.67a0.533,0.533,0,0,0,.393-0.17,0.561,0.561,0,0,0,.164-0.41,0.578,0.578,0,0,0-.164-0.41,0.524,0.524,0,0,0-.393-0.16,0.513,0.513,0,0,0-.4.17,0.533,0.533,0,0,0-.166.4,0.571,0.571,0,0,0,.166.41A0.548,0.548,0,0,0,168.867,1143.04Zm-0.235,7.65a0.7,0.7,0,0,1-.231.45,0.719,0.719,0,0,1-.413.17h2.025a0.891,0.891,0,0,1-.381-0.13,0.686,0.686,0,0,1-.278-0.5c-0.02-.16-0.03-0.55-0.03-1.19v-3.87a8.149,8.149,0,0,1-1.712.34,1.641,1.641,0,0,1,.578.07,0.617,0.617,0,0,1,.359.38,3.954,3.954,0,0,1,.109,1.32v1.76Q168.658,1150.48,168.632,1150.69Zm3.646,0.05a0.643,0.643,0,0,1-.295.45,0.834,0.834,0,0,1-.355.12h2.042a0.891,0.891,0,0,1-.381-0.13,0.688,0.688,0,0,1-.275-0.5c-0.017-.17-0.026-0.56-0.026-1.19v-7.58a4.1,4.1,0,0,1-.758.17c-0.277.05-.532,0.08-0.762,0.1a0.828,0.828,0,0,1,.653.3,2.245,2.245,0,0,1,.194,1.25v5.76A11.4,11.4,0,0,1,172.278,1150.74Zm7.58-3.29h0a2.335,2.335,0,0,0-.6-1.21,1.914,1.914,0,0,0-1.118-.59,2.431,2.431,0,0,0-1.479.13,2.53,2.53,0,0,0-.939.68,3.18,3.18,0,0,0-.766,2.18,2.928,2.928,0,0,0,.393,1.56,2.873,2.873,0,0,0,1.015,1,2.653,2.653,0,0,0,1.31.35,2.425,2.425,0,0,0,.541-0.06,1.9,1.9,0,0,1-.341.02,1.74,1.74,0,0,1-1.582-.85,4.625,4.625,0,0,1-.506-2.4c0-.14.009-0.36,0.028-0.64l0.007-.09h-0.008l0.009-.06h4.036v-0.02Zm-4.014-.13a2,2,0,0,1,.871-1.54,2.374,2.374,0,0,1,.885-0.18,2.429,2.429,0,0,1,.468.05,1.52,1.52,0,0,1,.513.31,1.436,1.436,0,0,1,.421,1.1,2.386,2.386,0,0,1-.023.31l-0.01.08h-3.144Zm15.549,3.97a0.527,0.527,0,0,1-.535-0.34,3.7,3.7,0,0,1-.095-1.12v-2.36a2.782,2.782,0,0,0-.145-1.04,1.347,1.347,0,0,0-.584-0.56,2.316,2.316,0,0,0-.981-0.25,1.381,1.381,0,0,1,.473.19,1.055,1.055,0,0,1,.479.58,3.636,3.636,0,0,1,.085.93v3l0,0.27a1.09,1.09,0,0,0,.311.66,1.114,1.114,0,0,0,1.48-.16A0.635,0.635,0,0,1,191.393,1151.29Zm-3.4-5.61a1.431,1.431,0,0,0-.759.22,1.283,1.283,0,0,0-.2.13,1.107,1.107,0,0,0-.51.74,0.239,0.239,0,0,0,.053.18,1.258,1.258,0,0,0-.009.15,1.428,1.428,0,0,0,1.426,1.43,1.3,1.3,0,0,0,.2-0.02,7.05,7.05,0,0,0-1.252.74,1.424,1.424,0,0,0-.645,1.14,0.912,0.912,0,0,0,.361.77,1.413,1.413,0,0,0,.907.3,2.521,2.521,0,0,0,.893-0.2,1.709,1.709,0,0,1-.31.03,0.938,0.938,0,0,1-.744-0.33,1.247,1.247,0,0,1-.277-0.84,1.927,1.927,0,0,1,1.1-1.61,1.424,1.424,0,0,0-.228-2.83h0Zm0,2.83a1.41,1.41,0,0,1-1.411-1.41,1.314,1.314,0,0,1,.008-0.14,0.312,0.312,0,0,0,.191.04c0.091,0,.333,0,0.424-0.57a0.927,0.927,0,0,1,.565-0.72,1.636,1.636,0,0,1,.223-0.02A1.41,1.41,0,1,1,188,1148.51Zm6.444,2.24a8.931,8.931,0,0,1-.042-1.26v-2.43l0.012-.01-0.011-.41a4.133,4.133,0,0,0-.136-1.03h-0.041a9.682,9.682,0,0,1-1.445.3,1.405,1.405,0,0,1,.609.13,0.65,0.65,0,0,1,.312.45,10.566,10.566,0,0,1,.042,1.27v1.73a7.746,7.746,0,0,1-.051,1.31,0.629,0.629,0,0,1-.328.42,1.229,1.229,0,0,1-.345.09h2.1a0.853,0.853,0,0,1-.369-0.11A0.629,0.629,0,0,1,194.442,1150.75Zm3.352-.07a0.724,0.724,0,0,1-.231.46,0.75,0.75,0,0,1-.423.17H199.2a0.843,0.843,0,0,1-.366-0.11,0.615,0.615,0,0,1-.309-0.45,11.381,11.381,0,0,1-.038-1.26v-1.82a4.338,4.338,0,0,0-.12-1.18,1.108,1.108,0,0,0-.5-0.62,1.837,1.837,0,0,0-1.045-.26,2.289,2.289,0,0,0-.733.12,1.688,1.688,0,1,0,1.726,2.62v1.14C197.816,1150.15,197.809,1150.54,197.794,1150.68Zm-1.36-1.63a1.67,1.67,0,1,1,.889-3.08,1.1,1.1,0,0,1,.421.62,5.018,5.018,0,0,1,.072,1.02v0.71A1.671,1.671,0,0,1,196.434,1149.05Zm9.388,2.21a0.634,0.634,0,0,1-.311-0.45,10.2,10.2,0,0,1-.037-1.27v-7.64a9.1,9.1,0,0,1-1.518.27,1.057,1.057,0,0,1,.544.15,0.673,0.673,0,0,1,.275.5c0.017,0.17.026,0.56,0.026,1.19v2.83a2.266,2.266,0,0,0-.995-0.92,2.476,2.476,0,0,0-.242-0.11,2.658,2.658,0,0,0-1.051-.2,2.491,2.491,0,0,0-1.871.82,3.3,3.3,0,0,0-.015,4.27,2.372,2.372,0,0,0,2.564.73,1.968,1.968,0,0,1-.422.04,1.872,1.872,0,0,1-1.5-.74,3.46,3.46,0,0,1-.59-2.21,3.218,3.218,0,0,1,.58-2.13,1.88,1.88,0,0,1,1.473-.68,2.479,2.479,0,0,1,1.018.22,2.192,2.192,0,0,1,.3.15,2.264,2.264,0,0,1,.745.79v3.44l0.074,0.81c0.008,0.15.02,0.29,0.037,0.4a10.7,10.7,0,0,1,1.366-.15A1.024,1.024,0,0,1,205.822,1151.26Zm12.019,0.03a0.526,0.526,0,0,1-.535-0.34,3.667,3.667,0,0,1-.095-1.12v-2.36a2.758,2.758,0,0,0-.146-1.04,1.342,1.342,0,0,0-.584-0.56,2.308,2.308,0,0,0-.981-0.25,1.379,1.379,0,0,1,.474.19,1.059,1.059,0,0,1,.479.58,3.693,3.693,0,0,1,.084.93v3l0,0.27a1.1,1.1,0,0,0,.311.66,0.925,0.925,0,0,0,.646.21,0.915,0.915,0,0,0,.835-0.37A0.636,0.636,0,0,1,217.841,1151.29Zm-3.4-5.61a1.425,1.425,0,0,0-.759.22,1.238,1.238,0,0,0-.2.13,1.106,1.106,0,0,0-.511.74,0.235,0.235,0,0,0,.054.18,1.259,1.259,0,0,0-.01.15,1.429,1.429,0,0,0,1.427,1.43,1.316,1.316,0,0,0,.2-0.02,7.013,7.013,0,0,0-1.252.74,1.425,1.425,0,0,0-.646,1.14,0.913,0.913,0,0,0,.362.77,1.412,1.412,0,0,0,.907.3,2.521,2.521,0,0,0,.893-0.2,1.72,1.72,0,0,1-.311.03,0.94,0.94,0,0,1-.744-0.33,1.247,1.247,0,0,1-.277-0.84,1.926,1.926,0,0,1,1.1-1.61,1.424,1.424,0,0,0-.228-2.83h0Zm0,2.83a1.41,1.41,0,0,1-1.411-1.41,1.314,1.314,0,0,1,.008-0.14,0.31,0.31,0,0,0,.19.04c0.092,0,.334,0,0.425-0.57a0.928,0.928,0,0,1,.564-0.72,1.65,1.65,0,0,1,.223-0.02A1.41,1.41,0,1,1,214.446,1148.51Zm13.117,0.57a2.99,2.99,0,0,0-1.4-.99,3.838,3.838,0,0,1-1.137-.68,1.033,1.033,0,0,1-.346-0.78,1.022,1.022,0,0,1,.315-0.74,1.09,1.09,0,0,1,.281-0.2,1.433,1.433,0,0,1,1.81.64c0.061,0.1.118,0.2,0.17,0.3a2.268,2.268,0,0,1,.155.36v-1.22a1.25,1.25,0,0,1-.241.4l-0.1.11a1.45,1.45,0,0,0-1.248-.71,1.424,1.424,0,0,0-.728.19l0.007,0.01a1.141,1.141,0,0,0-.336.29,1.575,1.575,0,0,0-.375.99,1.252,1.252,0,0,0,.338.9,3.181,3.181,0,0,0,.686.53,1.656,1.656,0,0,0-.97,1.49h0l0,1.46a1.784,1.784,0,0,1,.2-0.39c0.025-.03.052-0.06,0.08-0.09l0.017-.02,0.025,0.03c0.025,0.03.052,0.07,0.08,0.1a0.215,0.215,0,0,0,.05.05,0.461,0.461,0,0,0,.079.08,0.223,0.223,0,0,0,.053.05,0.641,0.641,0,0,0,.106.08l0.035,0.03a1.151,1.151,0,0,0,.157.1,0.032,0.032,0,0,1,.028.01l0.143,0.06c0.013,0.01.027,0.01,0.04,0.02,0.047,0.01.094,0.03,0.142,0.04a0.061,0.061,0,0,0,.04.01,0.884,0.884,0,0,0,.16.03c0.009,0,.018.01,0.026,0.01,0.065,0,.13.01,0.2,0.01a1.6,1.6,0,0,0,.862-0.25,1.24,1.24,0,0,0,.4-0.27,1.456,1.456,0,0,0,.447-1.11A2.049,2.049,0,0,0,227.563,1149.08Zm-0.409,2.12a0.9,0.9,0,0,1-.179.17,1.621,1.621,0,0,1-.871.25h0a1.236,1.236,0,0,1-.193-0.01h-0.026l-0.158-.03a0.057,0.057,0,0,0-.039-0.01c-0.048-.02-0.1-0.03-0.142-0.05-0.013,0-.026-0.01-0.039-0.01a0.859,0.859,0,0,1-.143-0.07,0.028,0.028,0,0,1-.025-0.01c-0.054-.03-0.107-0.06-0.157-0.09l-0.032-.03a0.654,0.654,0,0,1-.108-0.08c-0.017-.02-0.034-0.03-0.051-0.05a0.5,0.5,0,0,1-.08-0.08,0.231,0.231,0,0,1-.048-0.05c-0.028-.03-0.054-0.07-0.08-0.1a1.635,1.635,0,0,1,.655-2.46c0.153,0.09.321,0.18,0.509,0.27a4.851,4.851,0,0,1,1.179.74,1.2,1.2,0,0,1,.334.87,1.294,1.294,0,0,1-.306.83h0Zm10.515-.42a0.609,0.609,0,0,1-.318.43,0.95,0.95,0,0,1-.343.1h2.09a1,1,0,0,1-.361-0.1,0.629,0.629,0,0,1-.314-0.45,9.026,9.026,0,0,1-.042-1.27v-1.75a5.8,5.8,0,0,0-.094-1.24,1.082,1.082,0,0,0-.5-0.61,1.84,1.84,0,0,0-1.048-.28,2.149,2.149,0,0,0-1.071.3,0.873,0.873,0,0,0-.125.08,0.02,0.02,0,0,1,.02-0.01,1.5,1.5,0,0,0-.483.42l-0.742,1.03v-0.29l-0.036-.36a1.552,1.552,0,0,0-.56-0.88,1.736,1.736,0,0,0-1.063-.29,2.219,2.219,0,0,0-1.1.28c-0.025.01-.049,0.03-0.074,0.04a1.688,1.688,0,1,0,2.159,2.46v1.1a7.981,7.981,0,0,1-.05,1.31,0.635,0.635,0,0,1-.324.42,1.2,1.2,0,0,1-.339.09h2.063a0.776,0.776,0,0,1-.383-0.14,0.67,0.67,0,0,1-.268-0.49c-0.018-.17-0.026-0.56-0.026-1.19v-2.03l0.756-1.05a1.664,1.664,0,0,1,1.318-.65c0.023,0,.046.01,0.07,0.01H236.6a0.139,0.139,0,0,0,.063.01,1.273,1.273,0,0,1,.561.23,1.055,1.055,0,0,1,.418.61,4.548,4.548,0,0,1,.072.93v1.94A8.213,8.213,0,0,1,237.669,1150.78Zm-4-2.42a1.669,1.669,0,0,1-3.056-.93,1.676,1.676,0,0,1,.795-1.42,2.375,2.375,0,0,1,.4-0.18h0.017a0.823,0.823,0,0,1,.149-0.04,1.532,1.532,0,0,1,.305-0.03,1.643,1.643,0,0,1,.764.19,0.8,0.8,0,0,1,.131.09,1.122,1.122,0,0,1,.429.69,7.355,7.355,0,0,1,.063,1.15v0.48Zm-3.343,2.35c-0.02-.17-0.03-0.57-0.03-1.22v-2.84a3.183,3.183,0,0,0-.142-1.02,8.828,8.828,0,0,1-1.439.28,1.311,1.311,0,0,1,.578.13,0.619,0.619,0,0,1,.3.46c0.022,0.16.034,0.57,0.034,1.25v1.74a8.355,8.355,0,0,1-.047,1.3,0.615,0.615,0,0,1-.318.42,0.95,0.95,0,0,1-.345.1H231a0.9,0.9,0,0,1-.381-0.12A0.662,0.662,0,0,1,230.326,1150.71Zm10.876-7.67a0.535,0.535,0,0,0,.393-0.17,0.561,0.561,0,0,0,.164-0.41,0.578,0.578,0,0,0-.164-0.41,0.526,0.526,0,0,0-.393-0.16,0.51,0.51,0,0,0-.4.17,0.533,0.533,0,0,0-.166.4,0.571,0.571,0,0,0,.166.41A0.546,0.546,0,0,0,241.2,1143.04Zm-0.235,7.65a0.709,0.709,0,0,1-.231.45,0.719,0.719,0,0,1-.414.17h2.026a0.891,0.891,0,0,1-.381-0.13,0.682,0.682,0,0,1-.278-0.5c-0.02-.16-0.03-0.55-0.03-1.19v-3.87a8.149,8.149,0,0,1-1.712.34,1.635,1.635,0,0,1,.577.07,0.612,0.612,0,0,1,.359.38,3.934,3.934,0,0,1,.11,1.32v1.76Q240.993,1150.48,240.967,1150.69Zm3.645,0.05a0.642,0.642,0,0,1-.294.45,0.839,0.839,0,0,1-.355.12h2.042a0.891,0.891,0,0,1-.381-0.13,0.688,0.688,0,0,1-.275-0.5c-0.017-.17-0.026-0.56-0.026-1.19v-7.58a4.1,4.1,0,0,1-.759.17c-0.277.05-.531,0.08-0.761,0.1a0.829,0.829,0,0,1,.653.3,2.256,2.256,0,0,1,.194,1.25v5.76A11.021,11.021,0,0,1,244.612,1150.74Zm7.58-3.29h0a2.337,2.337,0,0,0-.6-1.21,1.912,1.912,0,0,0-1.117-.59,2.434,2.434,0,0,0-1.48.13,2.527,2.527,0,0,0-.938.68,3.18,3.18,0,0,0-.766,2.18,2.928,2.928,0,0,0,.393,1.56,2.873,2.873,0,0,0,1.015,1,2.651,2.651,0,0,0,1.31.35,2.425,2.425,0,0,0,.541-0.06,1.918,1.918,0,0,1-.342.02,1.739,1.739,0,0,1-1.581-.85,4.624,4.624,0,0,1-.507-2.4c0-.14.01-0.36,0.029-0.64l0.007-.09h-0.008l0.009-.06h4.035v-0.02Zm-4.013-.13a2.006,2.006,0,0,1,.87-1.54,2.379,2.379,0,0,1,.886-0.18,2.429,2.429,0,0,1,.468.05,1.516,1.516,0,0,1,.512.31,1.433,1.433,0,0,1,.422,1.1,2.386,2.386,0,0,1-.023.31l-0.01.08h-3.145Zm-178.9,20.25a2.37,2.37,0,0,0-.844-0.87,17.8,17.8,0,0,0-1.791-.88,7.178,7.178,0,0,1-1.846-1.08,1.67,1.67,0,0,1-.562-1.26,1.7,1.7,0,0,1,.444-1.14,1.382,1.382,0,0,1,.512-0.36,2.668,2.668,0,0,1,2.177.2c0.01,0.01.02,0.01,0.029,0.02s0.014,0.01.02,0.01a3.265,3.265,0,0,1,.364.28,3.541,3.541,0,0,1,.973,1.69h0v-2.11a1.719,1.719,0,0,1-.373.72l-0.129.16-0.044-.05a2.693,2.693,0,0,0-.846-0.74,1.314,1.314,0,0,0-.285-0.14c-0.017-.01-0.034-0.01-0.051-0.02a2.693,2.693,0,0,0-1.462-.14h-0.01a0.04,0.04,0,0,0-.032.01,2.166,2.166,0,0,0-1.225.6,2.1,2.1,0,0,0-.661,1.59,2.427,2.427,0,0,0,.309,1.19,2.461,2.461,0,0,0,.861.9,6.2,6.2,0,0,0,.563.32l-0.092.06a0.566,0.566,0,0,0-.1.07,0.683,0.683,0,0,0-.107.08,0.5,0.5,0,0,0-.089.07c-0.037.03-.071,0.06-0.106,0.09a0.535,0.535,0,0,1-.075.07c-0.037.04-.072,0.08-0.107,0.12-0.02.02-.04,0.05-0.059,0.07-0.039.05-.074,0.1-0.11,0.15a0.2,0.2,0,0,0-.04.05q-0.069.1-.129,0.21s0,0,0,.01a1.91,1.91,0,0,0-.109.22c-0.015.04-.027,0.08-0.041,0.11a1.194,1.194,0,0,0-.046.13c-0.016.05-.029,0.1-0.041,0.15-0.008.03-.017,0.06-0.023,0.09-0.013.06-.022,0.12-0.031,0.17,0,0.02-.007.04-0.01,0.06H63.742v2.75h0.037a2.368,2.368,0,0,1,.347-0.86l0.13-.19,0.147,0.17a3.789,3.789,0,0,0,.6.56c0.045,0.03.093,0.07,0.141,0.1h0c0.02,0.02.042,0.03,0.062,0.05s0.025,0.01.037,0.02l0.188,0.12a0.024,0.024,0,0,1,.023.01,2.71,2.71,0,0,0,.472.2H65.94l0.217,0.06c0.022,0,.045.01,0.068,0.01l0.177,0.03c0.027,0,.053.01,0.081,0.01,0.072,0,.144.01,0.217,0.01h0.031a2.7,2.7,0,0,0,.572-0.06,2.769,2.769,0,0,0,1.523-.69,2.444,2.444,0,0,0,.77-1.88,2.6,2.6,0,0,0-.318-1.3h0Zm-0.962,3.28a2.248,2.248,0,0,1-1.57.63c0.089,0,.175-0.01.261-0.01a2.491,2.491,0,0,1-.274.01H66.7a1.532,1.532,0,0,1-.215-0.01c-0.027,0-.053-0.01-0.08-0.01a1.055,1.055,0,0,1-.176-0.03,0.153,0.153,0,0,1-.066-0.01,1.653,1.653,0,0,1-.217-0.06H65.93a2.6,2.6,0,0,1-.47-0.2c-0.007,0-.014-0.01-0.021-0.01a1.525,1.525,0,0,1-.188-0.11l-0.036-.03a2.669,2.669,0,0,1-1.167-2.21,2.714,2.714,0,0,1,.035-0.41c0.009-.06.017-0.11,0.029-0.17,0.007-.03.017-0.06,0.026-0.1s0.024-.09.038-0.14,0.033-.09.051-0.14c0.012-.03.022-0.06,0.035-0.09a2.962,2.962,0,0,1,.24-0.44c0.011-.02.023-0.03,0.034-0.05,0.037-.05.074-0.1,0.115-0.15l0.055-.06c0.036-.04.072-0.08,0.11-0.12a0.433,0.433,0,0,1,.071-0.07,0.847,0.847,0,0,1,.108-0.1c0.028-.02.057-0.05,0.085-0.07s0.072-.05.109-0.08a0.635,0.635,0,0,0,.1-0.07l0.1-.06c0.318,0.17.7,0.34,1.141,0.53a6.148,6.148,0,0,1,1.847,1.08,1.828,1.828,0,0,1,.542,1.34A2.016,2.016,0,0,1,68.314,1170.85Zm5.068,0.46a0.973,0.973,0,0,1-.6-0.21,0.954,0.954,0,0,1-.368-0.55,5.342,5.342,0,0,1-.077-1.13v-3.69h0.753v-0.02H72.339v-1.41a2.231,2.231,0,0,1-.516.9,1.669,1.669,0,0,1-.928.52h0.779v3.48a7.03,7.03,0,0,0,.091,1.38,1.1,1.1,0,0,0,.421.61,1.227,1.227,0,0,0,.792.26,1.647,1.647,0,0,0,.786-0.21c0.007-.01.015-0.01,0.022-0.02A0.93,0.93,0,0,1,73.382,1171.31Zm6.638-.02a0.527,0.527,0,0,1-.535-0.34,3.7,3.7,0,0,1-.095-1.12v-2.36a2.767,2.767,0,0,0-.146-1.04,1.346,1.346,0,0,0-.584-0.56,2.31,2.31,0,0,0-.981-0.25,1.38,1.38,0,0,1,.474.19,1.06,1.06,0,0,1,.479.58,3.687,3.687,0,0,1,.084.93v3l0,0.27a1.1,1.1,0,0,0,.31.66,0.925,0.925,0,0,0,.646.21,0.915,0.915,0,0,0,.835-0.37A0.636,0.636,0,0,1,80.02,1171.29Zm-3.4-5.61a1.428,1.428,0,0,0-.759.22,1.249,1.249,0,0,0-.2.13,1.106,1.106,0,0,0-.511.74,0.237,0.237,0,0,0,.053.18,1.348,1.348,0,0,0-.009.15,1.429,1.429,0,0,0,1.426,1.43,1.314,1.314,0,0,0,.2-0.02,7.023,7.023,0,0,0-1.252.74,1.425,1.425,0,0,0-.646,1.14,0.913,0.913,0,0,0,.361.77,1.412,1.412,0,0,0,.907.3,2.525,2.525,0,0,0,.893-0.2,1.718,1.718,0,0,1-.31.03,0.939,0.939,0,0,1-.744-0.33,1.246,1.246,0,0,1-.277-0.84,1.927,1.927,0,0,1,1.1-1.61,1.424,1.424,0,0,0-.228-2.83h0Zm0,2.83a1.41,1.41,0,0,1-1.411-1.41,1.369,1.369,0,0,1,.008-0.14,0.311,0.311,0,0,0,.191.04c0.091,0,.333,0,0.425-0.57a0.928,0.928,0,0,1,.564-0.72,1.65,1.65,0,0,1,.223-0.02A1.41,1.41,0,1,1,76.624,1168.51Zm9.044-2.67a0.588,0.588,0,0,1,.641.52,0.707,0.707,0,0,1-.065.25l-1.753,4.19-1.759-3.74a2.325,2.325,0,0,1-.294-0.78,0.536,0.536,0,0,1,.566-0.44H80.974a0.88,0.88,0,0,1,.439.18,2.751,2.751,0,0,1,.529.84l2.213,4.75-0.795,1.9a1.261,1.261,0,0,1-.111.13,2.675,2.675,0,0,1-.626.36,0.85,0.85,0,0,0-.636.65c0,0.16.047,0.25,0.287,0.25a0.657,0.657,0,0,0,.494-0.27,3.865,3.865,0,0,0,.548-0.99l0.005,0.01,2.97-7.11a1.989,1.989,0,0,1,.279-0.42,1.037,1.037,0,0,1,.587-0.28H85.669Zm15.454,0a0.579,0.579,0,0,1,.625.53,0.483,0.483,0,0,1-.011.09l-1.674,4.28-1.847-4.9H98.179l-0.25.64-1.74,4.4,0.046-.12-1.325-3.51a3.014,3.014,0,0,1-.29-0.9,0.457,0.457,0,0,1,.261-0.43,0.849,0.849,0,0,1,.275-0.08H93.229a0.663,0.663,0,0,1,.405.19,3.137,3.137,0,0,1,.492,1l1.735,4.51h0.079l1.921-4.84,1.819,4.84h0.087l1.981-5.07a1.045,1.045,0,0,1,.366-0.49,0.994,0.994,0,0,1,.369-0.14h-1.361Zm3.714-2.8a0.533,0.533,0,0,0,.393-0.17,0.561,0.561,0,0,0,.164-0.41,0.578,0.578,0,0,0-.164-0.41,0.524,0.524,0,0,0-.393-0.16,0.513,0.513,0,0,0-.4.17,0.533,0.533,0,0,0-.166.4,0.571,0.571,0,0,0,.166.41A0.549,0.549,0,0,0,104.836,1163.04Zm-0.235,7.65a0.7,0.7,0,0,1-.23.45,0.725,0.725,0,0,1-.414.17h2.026a0.891,0.891,0,0,1-.382-0.13,0.686,0.686,0,0,1-.278-0.5c-0.02-.16-0.03-0.55-0.03-1.19v-3.87a8.122,8.122,0,0,1-1.712.34,1.638,1.638,0,0,1,.578.07,0.614,0.614,0,0,1,.359.38,3.934,3.934,0,0,1,.11,1.32v1.76Q104.628,1170.48,104.6,1170.69Zm5.356,0.62a0.976,0.976,0,0,1-.6-0.21,0.962,0.962,0,0,1-.368-0.55,5.4,5.4,0,0,1-.076-1.13v-3.69h0.753v-0.02h-0.753v-1.41a2.232,2.232,0,0,1-.516.9,1.67,1.67,0,0,1-.929.52h0.779v3.48a7.075,7.075,0,0,0,.091,1.38,1.1,1.1,0,0,0,.421.61,1.227,1.227,0,0,0,.791.26,1.643,1.643,0,0,0,.786-0.21c0.008-.01.015-0.01,0.022-0.02A0.93,0.93,0,0,1,109.957,1171.31Zm2.669-.59c-0.023-.16-0.034-0.56-0.034-1.23v-7.58a4.625,4.625,0,0,1-1.491.27,0.85,0.85,0,0,1,.625.29,2.132,2.132,0,0,1,.2,1.22v5.8q0,0.99-.026,1.2a0.7,0.7,0,0,1-.231.45,0.723,0.723,0,0,1-.416.17H113.3a0.867,0.867,0,0,1-.374-0.12A0.62,0.62,0,0,1,112.626,1170.72Zm3.341-.04a0.751,0.751,0,0,1-.229.46,0.738,0.738,0,0,1-.424.17h2.065a0.984,0.984,0,0,1-.357-0.1,0.594,0.594,0,0,1-.321-0.44,10.883,10.883,0,0,1-.041-1.28v-1.61a4.866,4.866,0,0,0-.134-1.36,1.221,1.221,0,0,0-.542-0.64,2.031,2.031,0,0,0-1.1-.27,2.3,2.3,0,0,0-.592.07,1.78,1.78,0,1,0,1.7,2.82v0.99C115.994,1170.15,115.985,1170.54,115.967,1170.68Zm-1.4-1.48a1.762,1.762,0,0,1-.388-3.48,2.112,2.112,0,0,1,.359-0.03,1.517,1.517,0,0,1,.9.26,1.158,1.158,0,0,1,.47.68,4.908,4.908,0,0,1,.091,1.11v0.73A1.764,1.764,0,0,1,114.567,1169.2Zm13.149-3.36a0.588,0.588,0,0,1,.64.52,0.7,0.7,0,0,1-.065.25l-1.753,4.19-1.759-3.74a2.331,2.331,0,0,1-.294-0.78,0.536,0.536,0,0,1,.567-0.44h-2.031a0.877,0.877,0,0,1,.438.18,2.733,2.733,0,0,1,.529.84l2.213,4.75-0.795,1.9a1.211,1.211,0,0,1-.11.13,2.675,2.675,0,0,1-.627.36,0.85,0.85,0,0,0-.636.65c0,0.16.047,0.25,0.287,0.25a0.657,0.657,0,0,0,.494-0.27,3.88,3.88,0,0,0,.548-0.99l0.005,0.01,2.97-7.11a1.988,1.988,0,0,1,.279-0.42,1.033,1.033,0,0,1,.587-0.28h-1.487Zm7.132,0.62a2.8,2.8,0,0,0-1.133-.71,1.052,1.052,0,0,0-.3-0.08h0a0.708,0.708,0,0,0-.146-0.01h-0.114a0.987,0.987,0,0,0-.791.57,1.065,1.065,0,0,0,.093,1.05,4.724,4.724,0,0,1,.936,3.13,1.185,1.185,0,0,1-1.143,1.07h-0.035c-0.058-.01-0.116-0.01-0.172-0.02a1.788,1.788,0,0,1-.825-0.57,3.676,3.676,0,0,1-.544-2.29,3.823,3.823,0,0,1,.53-2.3,1.766,1.766,0,0,1,.926-0.63,2.793,2.793,0,0,0-1.441.78,2.958,2.958,0,0,0,1.111,4.95,1.032,1.032,0,0,0,.3.08,0.021,0.021,0,0,1,.021.01c0-.01-0.007-0.01-0.01-0.01a0.357,0.357,0,0,0,.1.01h0.036a1.2,1.2,0,0,0,1.161-1.07,4.759,4.759,0,0,0-.94-3.15,1.042,1.042,0,0,1-.092-1.03,0.942,0.942,0,0,1,.778-0.56h0.112a0.839,0.839,0,0,1,.224.02,1.654,1.654,0,0,1,.846.61,3.834,3.834,0,0,1,.526,2.29,3.685,3.685,0,0,1-.532,2.28,1.664,1.664,0,0,1-.892.6,2.878,2.878,0,0,0,1.407-.73,2.835,2.835,0,0,0,.854-2.18A2.873,2.873,0,0,0,134.848,1166.46Zm7.885,4.73a0.665,0.665,0,0,1-.287-0.49c-0.02-.17-0.03-0.57-0.03-1.22v-3.64h-1.347a0.765,0.765,0,0,1,.425.18,0.737,0.737,0,0,1,.234.47q0.022,0.21.022,1.17v1.32a3.845,3.845,0,0,1-.09.9,2.31,2.31,0,0,1-1.8,1.53,1.274,1.274,0,0,1-.195.01,1.371,1.371,0,0,1-.776-0.23,1.022,1.022,0,0,1-.432-0.57,3.94,3.94,0,0,1-.077-0.92v-3.86h-1.379a0.983,0.983,0,0,1,.358.11,0.6,0.6,0,0,1,.311.45,11.778,11.778,0,0,1,.037,1.26v1.99a2.926,2.926,0,0,0,.153,1.09,1.289,1.289,0,0,0,.544.57,1.817,1.817,0,0,0,.941.24,2.152,2.152,0,0,0,1.142-.32l0.046-.03a0.338,0.338,0,0,1-.087.04,2.316,2.316,0,0,0,1.222-1.35l0.069-.11,0.009,0.58a3.334,3.334,0,0,0,.166,1.16,4.562,4.562,0,0,1,1.257-.2A0.96,0.96,0,0,1,142.733,1171.19Zm-74.216,19.2a0.917,0.917,0,0,0-.19-0.56l-1.646-2.44v-3.15a8.852,8.852,0,0,1,.079-1.56,0.808,0.808,0,0,1,.384-0.56,1.374,1.374,0,0,1,.462-0.11H64.822c-0.029,0-.057-0.01-0.086-0.01a0.914,0.914,0,0,0-.717,1.48l1.62,2.4v3.09a10.887,10.887,0,0,1-.067,1.57,0.878,0.878,0,0,1-.378.6,1.246,1.246,0,0,1-.518.16h2.965A0.914,0.914,0,0,0,68.517,1190.39Zm-2.879-4.54-1.605-2.38h0a0.9,0.9,0,0,1,.7-1.45,0.606,0.606,0,0,1,.135.01c0.034,0.01.065,0.01,0.1,0.02a0.779,0.779,0,0,1,.6.67,10.208,10.208,0,0,1,.067,1.52v1.61h0Zm1.965,5.44a0.543,0.543,0,0,1-.127-0.02,0.915,0.915,0,0,1-.387-0.15,0.932,0.932,0,0,1-.354-0.64,12.548,12.548,0,0,1-.055-1.51v-1.55l1.631,2.42A0.9,0.9,0,0,1,67.6,1191.29Zm12.622-4.83a2.8,2.8,0,0,0-1.133-.71,1.053,1.053,0,0,0-.3-0.08H78.784a0.706,0.706,0,0,0-.145-0.01H78.525a0.988,0.988,0,0,0-.792.57,1.065,1.065,0,0,0,.094,1.05,4.729,4.729,0,0,1,.936,3.13,1.186,1.186,0,0,1-1.143,1.07H77.584c-0.058-.01-0.115-0.01-0.172-0.02a1.783,1.783,0,0,1-.825-0.57,3.674,3.674,0,0,1-.544-2.29,3.827,3.827,0,0,1,.53-2.3,1.767,1.767,0,0,1,.926-0.63,2.788,2.788,0,0,0-1.44.78,2.958,2.958,0,0,0,1.11,4.95,1.041,1.041,0,0,0,.3.08,0.02,0.02,0,0,1,.02.01c0-.01-0.006-0.01-0.01-0.01a0.36,0.36,0,0,0,.1.01h0.036a1.2,1.2,0,0,0,1.16-1.07,4.757,4.757,0,0,0-.939-3.15,1.04,1.04,0,0,1-.092-1.03,0.941,0.941,0,0,1,.777-0.56h0.112a0.837,0.837,0,0,1,.224.02,1.654,1.654,0,0,1,.846.61,3.836,3.836,0,0,1,.526,2.29,3.684,3.684,0,0,1-.532,2.28,1.661,1.661,0,0,1-.891.6,2.88,2.88,0,0,0,1.406-.73,2.832,2.832,0,0,0,.854-2.18A2.873,2.873,0,0,0,80.226,1186.46Zm3.419,4.29a8.912,8.912,0,0,1-.042-1.26v-2.43l0.011-.01-0.011-.41a4.1,4.1,0,0,0-.136-1.03h-0.04a9.7,9.7,0,0,1-1.445.3,1.411,1.411,0,0,1,.609.13,0.649,0.649,0,0,1,.311.45,10.507,10.507,0,0,1,.042,1.27v1.73a7.8,7.8,0,0,1-.051,1.31,0.629,0.629,0,0,1-.328.42,1.217,1.217,0,0,1-.344.09h2.1a0.851,0.851,0,0,1-.369-0.11A0.626,0.626,0,0,1,83.645,1190.75Zm3.351-.07a0.721,0.721,0,0,1-.231.46,0.746,0.746,0,0,1-.422.17H88.4a0.846,0.846,0,0,1-.366-0.11,0.614,0.614,0,0,1-.309-0.45,11.553,11.553,0,0,1-.038-1.26v-1.82a4.333,4.333,0,0,0-.121-1.18,1.105,1.105,0,0,0-.5-0.62,1.837,1.837,0,0,0-1.045-.26,2.29,2.29,0,0,0-.733.12,1.688,1.688,0,1,0,1.726,2.62v1.14C87.018,1190.15,87.011,1190.54,87,1190.68Zm-1.36-1.63a1.67,1.67,0,1,1,.889-3.08,1.1,1.1,0,0,1,.421.62,5.071,5.071,0,0,1,.072,1.02v0.71A1.672,1.672,0,0,1,85.636,1189.05Zm4.6,1.69a0.642,0.642,0,0,1-.295.45,0.834,0.834,0,0,1-.355.12h2.043a0.893,0.893,0,0,1-.381-0.13,0.689,0.689,0,0,1-.275-0.5c-0.017-.17-0.026-0.56-0.026-1.19v-7.58a4.121,4.121,0,0,1-.759.17c-0.277.05-.532,0.08-0.762,0.1a0.829,0.829,0,0,1,.653.3,2.251,2.251,0,0,1,.194,1.25v5.76A11.137,11.137,0,0,1,90.231,1190.74Zm6.941-4.9a0.588,0.588,0,0,1,.641.52,0.706,0.706,0,0,1-.065.25l-1.753,4.19-1.759-3.74a2.325,2.325,0,0,1-.294-0.78,0.536,0.536,0,0,1,.567-0.44H92.477a0.881,0.881,0,0,1,.439.18,2.751,2.751,0,0,1,.529.84l2.213,4.75-0.795,1.9a1.261,1.261,0,0,1-.111.13,2.677,2.677,0,0,1-.626.36,0.85,0.85,0,0,0-.636.65c0,0.16.047,0.25,0.287,0.25a0.657,0.657,0,0,0,.494-0.27,3.864,3.864,0,0,0,.548-0.99l0.005,0.01,2.97-7.11a1.989,1.989,0,0,1,.279-0.42,1.037,1.037,0,0,1,.587-0.28H97.172Zm9.086,4.88c-0.023-.16-0.034-0.56-0.034-1.23v-7.58a4.62,4.62,0,0,1-1.491.27,0.85,0.85,0,0,1,.625.29,2.132,2.132,0,0,1,.2,1.22v5.8q0,0.99-.026,1.2a0.7,0.7,0,0,1-.231.45,0.723,0.723,0,0,1-.416.17h2.044a0.867,0.867,0,0,1-.374-0.12A0.62,0.62,0,0,1,106.258,1190.72Zm3.341-.04a0.751,0.751,0,0,1-.229.46,0.738,0.738,0,0,1-.424.17h2.065a0.978,0.978,0,0,1-.356-0.1,0.593,0.593,0,0,1-.322-0.44,10.883,10.883,0,0,1-.041-1.28v-1.61a4.866,4.866,0,0,0-.134-1.36,1.221,1.221,0,0,0-.542-0.64,2.031,2.031,0,0,0-1.1-.27,2.3,2.3,0,0,0-.592.07,1.78,1.78,0,1,0,1.7,2.82v0.99C109.626,1190.15,109.617,1190.54,109.6,1190.68Zm-1.4-1.48a1.762,1.762,0,0,1-.388-3.48,2.112,2.112,0,0,1,.359-0.03,1.517,1.517,0,0,1,.895.26,1.158,1.158,0,0,1,.47.68,4.908,4.908,0,0,1,.091,1.11v0.73A1.764,1.764,0,0,1,108.2,1189.2Zm8.458-2.74a2.8,2.8,0,0,0-1.134-.71,1.052,1.052,0,0,0-.3-0.08h0a0.7,0.7,0,0,0-.145-0.01h-0.114a0.99,0.99,0,0,0-.792.57,1.063,1.063,0,0,0,.094,1.05,4.729,4.729,0,0,1,.936,3.13,1.186,1.186,0,0,1-1.143,1.07h-0.036c-0.058-.01-0.115-0.01-0.172-0.02a1.78,1.78,0,0,1-.824-0.57,3.669,3.669,0,0,1-.545-2.29,3.831,3.831,0,0,1,.53-2.3,1.766,1.766,0,0,1,.926-0.63,2.786,2.786,0,0,0-1.44.78,2.959,2.959,0,0,0,1.11,4.95,1.039,1.039,0,0,0,.3.08,0.02,0.02,0,0,1,.02.01c0-.01-0.006-0.01-0.01-0.01a0.357,0.357,0,0,0,.1.01h0.037a1.2,1.2,0,0,0,1.16-1.07,4.759,4.759,0,0,0-.939-3.15,1.037,1.037,0,0,1-.092-1.03,0.94,0.94,0,0,1,.777-0.56h0.113a0.831,0.831,0,0,1,.223.02,1.653,1.653,0,0,1,.847.61,3.842,3.842,0,0,1,.525,2.29,3.685,3.685,0,0,1-.532,2.28,1.661,1.661,0,0,1-.891.6,2.879,2.879,0,0,0,1.406-.73,2.831,2.831,0,0,0,.854-2.18A2.872,2.872,0,0,0,116.657,1186.46Zm7.784-.06a2.48,2.48,0,0,0-1.885-.79,2.389,2.389,0,0,0-.707.1,2.974,2.974,0,0,0-1.552.78v-0.1a3.36,3.36,0,0,0-.08-0.78h-0.035a14.144,14.144,0,0,1-1.587.33,0.722,0.722,0,0,0-.614.69,0.694,0.694,0,0,0,.694.69h0a0.223,0.223,0,0,0,.071.01,1.445,1.445,0,0,0,.388-0.06,2.33,2.33,0,0,0,.491-0.21q0,0.285,0,.72v5.29c0,0.67-.008,1.06-0.026,1.2a0.754,0.754,0,0,1-.231.46,0.793,0.793,0,0,1-.413.17h2.05a1,1,0,0,1-.365-0.11,0.652,0.652,0,0,1-.307-0.45,9.156,9.156,0,0,1-.041-1.27v-6.56a2.974,2.974,0,0,1,2.023-.83,1.944,1.944,0,0,1,1.426.7,3.037,3.037,0,0,1,.62,2.07,3.473,3.473,0,0,1-.64,2.31,1.983,1.983,0,0,1-1.533.76,1.506,1.506,0,0,1-.212-0.02,2.366,2.366,0,0,0,.461.05,2.5,2.5,0,0,0,1.991-.86,3.179,3.179,0,0,0,.763-2.17A2.984,2.984,0,0,0,124.441,1186.4Zm-5.311.85a1.272,1.272,0,0,1-.453.06,0.684,0.684,0,0,1-.679-0.68,0.718,0.718,0,0,1,.712-0.69h0.019a1.232,1.232,0,0,1,.6.16,0.65,0.65,0,0,1,.275.49c0.009,0.09.015,0.24,0.02,0.44A2,2,0,0,1,119.13,1187.25Zm11.848,0.2h0a2.342,2.342,0,0,0-.6-1.21,1.914,1.914,0,0,0-1.118-.59,2.431,2.431,0,0,0-1.479.13,2.522,2.522,0,0,0-.939.68,3.18,3.18,0,0,0-.766,2.18,2.928,2.928,0,0,0,.393,1.56,2.873,2.873,0,0,0,1.015,1,2.653,2.653,0,0,0,1.31.35,2.425,2.425,0,0,0,.541-0.06,1.907,1.907,0,0,1-.341.02,1.739,1.739,0,0,1-1.582-.85,4.624,4.624,0,0,1-.507-2.4c0-.14.01-0.36,0.029-0.64l0.007-.09h-0.008l0.009-.06h4.035v-0.02Zm-4.013-.13a2,2,0,0,1,.871-1.54,2.37,2.37,0,0,1,.885-0.18,2.429,2.429,0,0,1,.468.05,1.516,1.516,0,0,1,.512.31,1.433,1.433,0,0,1,.422,1.1,2.386,2.386,0,0,1-.023.31l-0.01.08h-3.145Zm12.943,3.99a0.971,0.971,0,0,1-.6-0.21,0.953,0.953,0,0,1-.368-0.55,5.306,5.306,0,0,1-.077-1.13v-3.69h0.753v-0.02h-0.753v-1.41a2.232,2.232,0,0,1-.516.9,1.671,1.671,0,0,1-.928.52H138.2v3.48a6.973,6.973,0,0,0,.092,1.38,1.1,1.1,0,0,0,.42.61,1.228,1.228,0,0,0,.792.26,1.646,1.646,0,0,0,.786-0.21c0.007-.01.014-0.01,0.021-0.02A0.927,0.927,0,0,1,139.908,1191.31Zm2.669-.59c-0.022-.16-0.034-0.56-0.034-1.23v-7.58a4.62,4.62,0,0,1-1.491.27,0.855,0.855,0,0,1,.626.29,2.132,2.132,0,0,1,.2,1.22v5.8q0,0.99-.027,1.2a0.7,0.7,0,0,1-.23.45,0.729,0.729,0,0,1-.417.17h2.044a0.871,0.871,0,0,1-.374-0.12A0.62,0.62,0,0,1,142.577,1190.72Zm3.342-.04a0.758,0.758,0,0,1-.23.46,0.738,0.738,0,0,1-.424.17h2.066a0.978,0.978,0,0,1-.357-0.1,0.589,0.589,0,0,1-.321-0.44,10.784,10.784,0,0,1-.042-1.28v-1.61a4.866,4.866,0,0,0-.134-1.36,1.217,1.217,0,0,0-.542-0.64,2.031,2.031,0,0,0-1.1-.27,2.308,2.308,0,0,0-.592.07,1.78,1.78,0,1,0,1.7,2.82v0.99C145.945,1190.15,145.936,1190.54,145.919,1190.68Zm-1.4-1.48a1.762,1.762,0,0,1-.388-3.48,2.116,2.116,0,0,1,.36-0.03,1.52,1.52,0,0,1,.895.26,1.158,1.158,0,0,1,.47.68,4.981,4.981,0,0,1,.09,1.11v0.73A1.764,1.764,0,0,1,144.518,1189.2Zm9.212,2.09a0.526,0.526,0,0,1-.535-0.34,3.7,3.7,0,0,1-.095-1.12v-2.36a2.758,2.758,0,0,0-.146-1.04,1.342,1.342,0,0,0-.584-0.56,2.308,2.308,0,0,0-.981-0.25,1.379,1.379,0,0,1,.474.19,1.059,1.059,0,0,1,.479.58,3.693,3.693,0,0,1,.084.93v3.27a1.1,1.1,0,0,0,.31.66,0.925,0.925,0,0,0,.646.21,0.915,0.915,0,0,0,.835-0.37A0.636,0.636,0,0,1,153.73,1191.29Zm-3.395-5.61a1.425,1.425,0,0,0-.759.22,1.238,1.238,0,0,0-.2.13,1.1,1.1,0,0,0-.51.74,0.235,0.235,0,0,0,.053.18,1.259,1.259,0,0,0-.01.15,1.429,1.429,0,0,0,1.427,1.43,1.316,1.316,0,0,0,.2-0.02,7.05,7.05,0,0,0-1.252.74,1.425,1.425,0,0,0-.646,1.14,0.913,0.913,0,0,0,.362.77,1.412,1.412,0,0,0,.907.3,2.521,2.521,0,0,0,.893-0.2,1.717,1.717,0,0,1-.31.03,0.938,0.938,0,0,1-.744-0.33,1.243,1.243,0,0,1-.278-0.84,1.928,1.928,0,0,1,1.1-1.61,1.424,1.424,0,0,0-.228-2.83h0Zm0,2.83a1.41,1.41,0,0,1-1.411-1.41,1.314,1.314,0,0,1,.008-0.14,0.31,0.31,0,0,0,.19.04c0.092,0,.334,0,0.425-0.57a0.928,0.928,0,0,1,.564-0.72,1.65,1.65,0,0,1,.224-0.02A1.41,1.41,0,1,1,150.335,1188.51Zm7.669,2.8a0.976,0.976,0,0,1-.6-0.21,0.956,0.956,0,0,1-.367-0.55,5.306,5.306,0,0,1-.077-1.13v-3.69h0.753v-0.02h-0.753v-1.41a2.232,2.232,0,0,1-.516.9,1.67,1.67,0,0,1-.929.52h0.779v3.48a7.075,7.075,0,0,0,.091,1.38,1.1,1.1,0,0,0,.421.61,1.227,1.227,0,0,0,.791.26,1.65,1.65,0,0,0,.787-0.21c0.007-.01.014-0.01,0.021-0.02A0.93,0.93,0,0,1,158,1191.31Zm11.052-4.85a2.8,2.8,0,0,0-1.133-.71,1.069,1.069,0,0,0-.3-0.08h-0.006a0.7,0.7,0,0,0-.145-0.01h-0.114a0.99,0.99,0,0,0-.792.57,1.065,1.065,0,0,0,.094,1.05,4.729,4.729,0,0,1,.936,3.13,1.186,1.186,0,0,1-1.143,1.07h-0.036c-0.058-.01-0.115-0.01-0.171-0.02a1.783,1.783,0,0,1-.825-0.57,3.676,3.676,0,0,1-.544-2.29,3.831,3.831,0,0,1,.529-2.3,1.766,1.766,0,0,1,.926-0.63,2.786,2.786,0,0,0-1.44.78,2.959,2.959,0,0,0,1.11,4.95,1.039,1.039,0,0,0,.3.08,0.02,0.02,0,0,1,.02.01c0-.01-0.006-0.01-0.01-0.01a0.36,0.36,0,0,0,.1.01h0.037a1.2,1.2,0,0,0,1.16-1.07,4.759,4.759,0,0,0-.939-3.15,1.04,1.04,0,0,1-.092-1.03,0.941,0.941,0,0,1,.777-0.56h0.113a0.839,0.839,0,0,1,.224.02,1.654,1.654,0,0,1,.846.61,3.842,3.842,0,0,1,.525,2.29,3.685,3.685,0,0,1-.532,2.28,1.661,1.661,0,0,1-.891.6,2.879,2.879,0,0,0,1.406-.73,2.831,2.831,0,0,0,.854-2.18A2.872,2.872,0,0,0,169.056,1186.46Zm3.419,4.29a8.931,8.931,0,0,1-.042-1.26v-2.43l0.011-.01-0.011-.41a4.087,4.087,0,0,0-.136-1.03h-0.04a9.708,9.708,0,0,1-1.445.3,1.413,1.413,0,0,1,.609.13,0.648,0.648,0,0,1,.311.45,10.566,10.566,0,0,1,.042,1.27v1.73a7.746,7.746,0,0,1-.051,1.31,0.626,0.626,0,0,1-.328.42,1.212,1.212,0,0,1-.344.09h2.1a0.848,0.848,0,0,1-.368-0.11A0.624,0.624,0,0,1,172.475,1190.75Zm3.351-.07a0.719,0.719,0,0,1-.231.46,0.747,0.747,0,0,1-.423.17h2.062a0.847,0.847,0,0,1-.366-0.11,0.615,0.615,0,0,1-.309-0.45,11.778,11.778,0,0,1-.037-1.26v-1.82a4.33,4.33,0,0,0-.121-1.18,1.108,1.108,0,0,0-.5-0.62,1.835,1.835,0,0,0-1.045-.26,2.289,2.289,0,0,0-.733.12,1.688,1.688,0,1,0,1.727,2.62v1.14C175.849,1190.15,175.841,1190.54,175.826,1190.68Zm-1.36-1.63a1.67,1.67,0,1,1,.889-3.08,1.1,1.1,0,0,1,.422.62,5.093,5.093,0,0,1,.072,1.02v0.71A1.673,1.673,0,0,1,174.466,1189.05Zm8.32-1.6h0a2.335,2.335,0,0,0-.6-1.21,1.914,1.914,0,0,0-1.118-.59,2.431,2.431,0,0,0-1.479.13,2.522,2.522,0,0,0-.939.68,3.18,3.18,0,0,0-.766,2.18,2.928,2.928,0,0,0,.393,1.56,2.873,2.873,0,0,0,1.015,1,2.653,2.653,0,0,0,1.31.35,2.425,2.425,0,0,0,.541-0.06,1.9,1.9,0,0,1-.341.02,1.74,1.74,0,0,1-1.582-.85,4.624,4.624,0,0,1-.507-2.4c0-.14.01-0.36,0.029-0.64l0.007-.09h-0.008l0.009-.06h4.036v-0.02Zm-4.014-.13a2,2,0,0,1,.871-1.54,2.374,2.374,0,0,1,.885-0.18,2.429,2.429,0,0,1,.468.05,1.52,1.52,0,0,1,.513.31,1.436,1.436,0,0,1,.421,1.1,2.386,2.386,0,0,1-.023.31l-0.01.08h-3.144ZM192,1189.08a2.986,2.986,0,0,0-1.4-.99,3.811,3.811,0,0,1-1.137-.68,1.041,1.041,0,0,1-.032-1.52,1.112,1.112,0,0,1,.282-0.2,1.433,1.433,0,0,1,1.81.64c0.06,0.1.118,0.2,0.17,0.3a2.178,2.178,0,0,1,.154.36v-1.22a1.23,1.23,0,0,1-.241.4l-0.1.11a1.449,1.449,0,0,0-1.248-.71,1.423,1.423,0,0,0-.727.19l0.006,0.01a1.153,1.153,0,0,0-.336.29,1.579,1.579,0,0,0-.374.99,1.256,1.256,0,0,0,.337.9,3.191,3.191,0,0,0,.687.53,1.656,1.656,0,0,0-.97,1.49h0l0,1.46a1.783,1.783,0,0,1,.2-0.39q0.039-.045.081-0.09l0.017-.02c0.007,0.01.016,0.02,0.024,0.03,0.026,0.03.053,0.07,0.081,0.1a0.212,0.212,0,0,0,.049.05,0.545,0.545,0,0,0,.079.08,0.243,0.243,0,0,0,.053.05,0.648,0.648,0,0,0,.107.08l0.035,0.03a1.093,1.093,0,0,0,.157.1,0.034,0.034,0,0,1,.028.01l0.142,0.06c0.014,0.01.027,0.01,0.041,0.02,0.046,0.01.094,0.03,0.142,0.04a0.06,0.06,0,0,0,.04.01,0.868,0.868,0,0,0,.16.03c0.009,0,.017.01,0.026,0.01,0.064,0,.129.01,0.195,0.01a1.6,1.6,0,0,0,.863-0.25,1.251,1.251,0,0,0,.4-0.27,1.459,1.459,0,0,0,.446-1.11A2.037,2.037,0,0,0,192,1189.08Zm-0.409,2.12a0.866,0.866,0,0,1-.178.17,1.621,1.621,0,0,1-.871.25h0a1.242,1.242,0,0,1-.193-0.01h-0.025l-0.159-.03a0.057,0.057,0,0,0-.039-0.01c-0.048-.02-0.095-0.03-0.142-0.05-0.012,0-.025-0.01-0.038-0.01a0.868,0.868,0,0,1-.144-0.07,0.028,0.028,0,0,1-.025-0.01q-0.081-.045-0.156-0.09l-0.032-.03a0.615,0.615,0,0,1-.108-0.08c-0.018-.02-0.035-0.03-0.052-0.05a0.545,0.545,0,0,1-.079-0.08,0.192,0.192,0,0,1-.048-0.05c-0.028-.03-0.055-0.07-0.081-0.1a1.634,1.634,0,0,1,.656-2.46c0.152,0.09.321,0.18,0.509,0.27a4.84,4.84,0,0,1,1.178.74,1.2,1.2,0,0,1,.335.87,1.294,1.294,0,0,1-.306.83h0Zm7.589-4.8a2.477,2.477,0,0,0-1.885-.79,2.393,2.393,0,0,0-.707.1,2.978,2.978,0,0,0-1.552.78v-0.1a3.36,3.36,0,0,0-.08-0.78h-0.034a14.19,14.19,0,0,1-1.587.33,0.723,0.723,0,0,0-.615.69,0.694,0.694,0,0,0,.695.69h0a0.223,0.223,0,0,0,.071.01,1.439,1.439,0,0,0,.387-0.06,2.287,2.287,0,0,0,.491-0.21q0.006,0.285.006,0.72v5.29c0,0.67-.009,1.06-0.026,1.2a0.759,0.759,0,0,1-.231.46,0.8,0.8,0,0,1-.414.17h2.051a0.993,0.993,0,0,1-.365-0.11,0.646,0.646,0,0,1-.307-0.45,9.026,9.026,0,0,1-.042-1.27v-6.56a2.977,2.977,0,0,1,2.024-.83,1.944,1.944,0,0,1,1.426.7,3.042,3.042,0,0,1,.62,2.07,3.473,3.473,0,0,1-.64,2.31,1.983,1.983,0,0,1-1.534.76,1.492,1.492,0,0,1-.211-0.02,2.364,2.364,0,0,0,.46.05,2.5,2.5,0,0,0,1.991-.86,3.175,3.175,0,0,0,.764-2.17A2.989,2.989,0,0,0,199.175,1186.4Zm-5.31.85a1.276,1.276,0,0,1-.454.06,0.683,0.683,0,0,1-.678-0.68,0.718,0.718,0,0,1,.712-0.69h0.019a1.232,1.232,0,0,1,.6.16,0.653,0.653,0,0,1,.275.49c0.009,0.09.015,0.24,0.019,0.44A2,2,0,0,1,193.865,1187.25Zm12.44,4.04a0.526,0.526,0,0,1-.535-0.34,3.667,3.667,0,0,1-.095-1.12v-2.36a2.758,2.758,0,0,0-.146-1.04,1.342,1.342,0,0,0-.584-0.56,2.308,2.308,0,0,0-.981-0.25,1.379,1.379,0,0,1,.474.19,1.059,1.059,0,0,1,.479.58,3.693,3.693,0,0,1,.084.93v3.27a1.1,1.1,0,0,0,.31.66,0.925,0.925,0,0,0,.646.21,0.915,0.915,0,0,0,.835-0.37A0.636,0.636,0,0,1,206.305,1191.29Zm-3.4-5.61a1.425,1.425,0,0,0-.759.22,1.238,1.238,0,0,0-.2.13,1.106,1.106,0,0,0-.511.74,0.235,0.235,0,0,0,.054.18,1.259,1.259,0,0,0-.01.15,1.429,1.429,0,0,0,1.427,1.43,1.316,1.316,0,0,0,.2-0.02,7.013,7.013,0,0,0-1.252.74,1.425,1.425,0,0,0-.646,1.14,0.913,0.913,0,0,0,.362.77,1.412,1.412,0,0,0,.907.3,2.521,2.521,0,0,0,.893-0.2,1.72,1.72,0,0,1-.311.03,0.937,0.937,0,0,1-.743-0.33,1.243,1.243,0,0,1-.278-0.84,1.928,1.928,0,0,1,1.1-1.61,1.424,1.424,0,0,0-.228-2.83h0Zm0,2.83a1.41,1.41,0,0,1-1.411-1.41,1.314,1.314,0,0,1,.008-0.14,0.31,0.31,0,0,0,.19.04c0.092,0,.334,0,0.425-0.57a0.928,0.928,0,0,1,.564-0.72,1.65,1.65,0,0,1,.223-0.02A1.41,1.41,0,1,1,202.91,1188.51Zm9-2.59a1.929,1.929,0,0,0-.32-0.14c-0.011-.01-0.022-0.01-0.033-0.02a0.043,0.043,0,0,1-.033-0.01,2.64,2.64,0,0,0-.927-0.16,2.752,2.752,0,0,0-.866.14,2.947,2.947,0,0,0-1.173.72,2.914,2.914,0,0,0-.864,2.19,2.853,2.853,0,0,0,.8,2.11,2.646,2.646,0,0,0,1.971.8,3.868,3.868,0,0,0,.494-0.03h-0.181a1.908,1.908,0,0,1-1.707-.85,4.029,4.029,0,0,1-.545-2.25,3.559,3.559,0,0,1,.513-2.09,1.7,1.7,0,0,1,.9-0.64,2.877,2.877,0,0,1,.662-0.08,2.727,2.727,0,0,1,.639.07,0.9,0.9,0,0,1,.213.13,1.186,1.186,0,0,1,.317.67,0.382,0.382,0,0,0,.4.4,0.22,0.22,0,0,0,.2-0.08,0.392,0.392,0,0,0,.082-0.23A0.79,0.79,0,0,0,211.907,1185.92Zm6.334,1.53h0a2.335,2.335,0,0,0-.6-1.21,1.914,1.914,0,0,0-1.118-.59,2.42,2.42,0,0,0-.539-0.06,2.446,2.446,0,0,0-.94.19,2.527,2.527,0,0,0-.938.68,3.176,3.176,0,0,0-.767,2.18,2.928,2.928,0,0,0,.394,1.56,2.871,2.871,0,0,0,1.014,1,2.654,2.654,0,0,0,1.311.35,2.431,2.431,0,0,0,.541-0.06,1.918,1.918,0,0,1-.342.02,1.741,1.741,0,0,1-1.582-.85,4.625,4.625,0,0,1-.506-2.4c0-.14.009-0.36,0.029-0.64l0.006-.09H214.2l0.008-.06h4.036v-0.02Zm-4.013-.13a2,2,0,0,1,.87-1.54,2.375,2.375,0,0,1,.886-0.18,2.438,2.438,0,0,1,.468.05,1.516,1.516,0,0,1,.512.31,1.436,1.436,0,0,1,.421,1.1,2.373,2.373,0,0,1-.022.31l-0.011.08h-3.144Zm11.518-4.28a0.535,0.535,0,0,0,.393-0.17,0.561,0.561,0,0,0,.164-0.41,0.578,0.578,0,0,0-.164-0.41,0.526,0.526,0,0,0-.393-0.16,0.513,0.513,0,0,0-.4.17,0.533,0.533,0,0,0-.166.4,0.571,0.571,0,0,0,.166.41A0.548,0.548,0,0,0,225.746,1183.04Zm-0.235,7.65a0.7,0.7,0,0,1-.231.45,0.719,0.719,0,0,1-.414.17h2.026a0.891,0.891,0,0,1-.381-0.13,0.686,0.686,0,0,1-.278-0.5c-0.02-.16-0.03-0.55-0.03-1.19v-3.87a8.149,8.149,0,0,1-1.712.34,1.641,1.641,0,0,1,.578.07,0.613,0.613,0,0,1,.358.38,3.9,3.9,0,0,1,.11,1.32v1.76Q225.537,1190.48,225.511,1190.69Zm4.131,0.06a8.739,8.739,0,0,1-.042-1.26v-2.43l0.011-.01-0.011-.41a4.133,4.133,0,0,0-.136-1.03h-0.04a9.734,9.734,0,0,1-1.445.3,1.413,1.413,0,0,1,.609.13,0.651,0.651,0,0,1,.311.45,10.566,10.566,0,0,1,.042,1.27v1.73a7.746,7.746,0,0,1-.051,1.31,0.629,0.629,0,0,1-.328.42,1.229,1.229,0,0,1-.345.09h2.1a0.853,0.853,0,0,1-.369-0.11A0.625,0.625,0,0,1,229.642,1190.75Zm3.351-.07a0.719,0.719,0,0,1-.231.46,0.747,0.747,0,0,1-.423.17H234.4a0.843,0.843,0,0,1-.366-0.11,0.615,0.615,0,0,1-.309-0.45,11.658,11.658,0,0,1-.038-1.26v-1.82a4.338,4.338,0,0,0-.12-1.18,1.108,1.108,0,0,0-.5-0.62,1.837,1.837,0,0,0-1.045-.26,2.289,2.289,0,0,0-.733.12,1.688,1.688,0,1,0,1.726,2.62v1.14C233.015,1190.15,233.008,1190.54,232.993,1190.68Zm-1.36-1.63a1.67,1.67,0,1,1,.889-3.08,1.106,1.106,0,0,1,.422.62,5.112,5.112,0,0,1,.071,1.02v0.71A1.671,1.671,0,0,1,231.633,1189.05Zm17.54,1.73a0.611,0.611,0,0,1-.319.43,0.944,0.944,0,0,1-.342.1h2.09a1,1,0,0,1-.361-0.1,0.624,0.624,0,0,1-.314-0.45,9.026,9.026,0,0,1-.042-1.27v-1.75a5.8,5.8,0,0,0-.094-1.24,1.086,1.086,0,0,0-.5-0.61,1.842,1.842,0,0,0-1.048-.28,2.153,2.153,0,0,0-1.072.3,0.865,0.865,0,0,0-.124.08,0.019,0.019,0,0,1,.019-0.01,1.511,1.511,0,0,0-.482.42l-0.742,1.03v-0.29l-0.037-.36a1.551,1.551,0,0,0-.559-0.88,1.736,1.736,0,0,0-1.063-.29,2.216,2.216,0,0,0-1.1.28c-0.025.01-.05,0.03-0.075,0.04a1.688,1.688,0,1,0,2.16,2.46v1.1a7.746,7.746,0,0,1-.051,1.31,0.629,0.629,0,0,1-.324.42,1.182,1.182,0,0,1-.339.09h2.063a0.78,0.78,0,0,1-.383-0.14,0.677,0.677,0,0,1-.268-0.49c-0.017-.17-0.026-0.56-0.026-1.19v-2.03l0.757-1.05a1.663,1.663,0,0,1,1.317-.65c0.024,0,.047.01,0.07,0.01h0.116a0.135,0.135,0,0,0,.062.01,1.282,1.282,0,0,1,.562.23,1.055,1.055,0,0,1,.418.61,4.561,4.561,0,0,1,.071.93v1.94A8.319,8.319,0,0,1,249.173,1190.78Zm-4-2.42a1.669,1.669,0,1,1-2.261-2.35,2.4,2.4,0,0,1,.4-0.18h0.018a0.813,0.813,0,0,1,.148-0.04,1.542,1.542,0,0,1,.306-0.03,1.643,1.643,0,0,1,.764.19,0.849,0.849,0,0,1,.131.09,1.122,1.122,0,0,1,.429.69,7.482,7.482,0,0,1,.063,1.15v0.48Zm-3.343,2.35c-0.02-.17-0.03-0.57-0.03-1.22v-2.84a3.183,3.183,0,0,0-.142-1.02,8.821,8.821,0,0,1-1.44.28,1.316,1.316,0,0,1,.579.13,0.615,0.615,0,0,1,.3.46c0.023,0.16.034,0.57,0.034,1.25v1.74a8.463,8.463,0,0,1-.046,1.3,0.614,0.614,0,0,1-.319.42,0.95,0.95,0,0,1-.344.1H242.5a0.9,0.9,0,0,1-.38-0.12A0.656,0.656,0,0,1,241.83,1190.71Zm13.675-4.87a0.588,0.588,0,0,1,.641.52,0.725,0.725,0,0,1-.065.25l-1.753,4.19-1.759-3.74a2.331,2.331,0,0,1-.294-0.78,0.536,0.536,0,0,1,.566-0.44H250.81a0.885,0.885,0,0,1,.439.18,2.772,2.772,0,0,1,.529.84l2.213,4.75-0.8,1.9a1.216,1.216,0,0,1-.111.13,2.663,2.663,0,0,1-.626.36,0.85,0.85,0,0,0-.636.65c0,0.16.047,0.25,0.286,0.25a0.656,0.656,0,0,0,.494-0.27,3.88,3.88,0,0,0,.548-0.99l0.006,0.01,2.97-7.11a2.03,2.03,0,0,1,.278-0.42,1.04,1.04,0,0,1,.587-0.28h-1.487Zm8.739,4.9a0.643,0.643,0,0,1-.3.45,0.834,0.834,0,0,1-.355.12h2.043a0.9,0.9,0,0,1-.382-0.13,0.69,0.69,0,0,1-.274-0.5c-0.018-.17-0.026-0.56-0.026-1.19v-7.58a4.139,4.139,0,0,1-.759.17c-0.277.05-.532,0.08-0.762,0.1a0.828,0.828,0,0,1,.653.3,2.24,2.24,0,0,1,.195,1.25v5.76A11.287,11.287,0,0,1,264.244,1190.74Zm4.141-7.7a0.533,0.533,0,0,0,.393-0.17,0.561,0.561,0,0,0,.164-0.41,0.578,0.578,0,0,0-.164-0.41,0.524,0.524,0,0,0-.393-0.16,0.513,0.513,0,0,0-.4.17,0.533,0.533,0,0,0-.166.4,0.571,0.571,0,0,0,.166.41A0.549,0.549,0,0,0,268.385,1183.04Zm-0.235,7.65a0.7,0.7,0,0,1-.231.45,0.719,0.719,0,0,1-.413.17h2.025a0.891,0.891,0,0,1-.381-0.13,0.686,0.686,0,0,1-.278-0.5c-0.02-.16-0.03-0.55-0.03-1.19v-3.87a8.136,8.136,0,0,1-1.712.34,1.641,1.641,0,0,1,.578.07,0.617,0.617,0,0,1,.359.38,3.954,3.954,0,0,1,.109,1.32v1.76Q268.176,1190.48,268.15,1190.69Zm7.523-7.68,0.034-.03a0.292,0.292,0,0,0,.088-0.22,0.772,0.772,0,0,0-.429-0.56,1.961,1.961,0,0,0-1.115-.3,1.467,1.467,0,0,0-.3-0.03,1.851,1.851,0,0,0-1.245.48h0a2.052,2.052,0,0,0-.464.52,2.369,2.369,0,0,0-.376.93,9.819,9.819,0,0,0-.069,1.34v0.45h-1.615v0.02H271.8v3.88a7.635,7.635,0,0,1-.051,1.31,0.631,0.631,0,0,1-.323.42,1.191,1.191,0,0,1-.339.09h2.068a0.891,0.891,0,0,1-.381-0.13,0.67,0.67,0,0,1-.275-0.5c-0.018-.17-0.026-0.56-0.026-1.19v-3.88h1.48a1.873,1.873,0,0,0,1.871-1.87A1.816,1.816,0,0,0,275.673,1183.01Zm-1.719,2.59-1.48-.01v-0.37a20.489,20.489,0,0,1,.065-2.1,1.522,1.522,0,0,1,.455-0.91,1.905,1.905,0,0,1,.2-0.16,1.955,1.955,0,0,1,.759-0.16,2.768,2.768,0,0,1,.291.02,1.326,1.326,0,0,1,.714.66,0.741,0.741,0,0,0,.535.5,0.311,0.311,0,0,0,.165-0.05,1.836,1.836,0,0,1,.148.72A1.862,1.862,0,0,1,273.954,1185.6Zm5.886,1.85h0a2.342,2.342,0,0,0-.6-1.21,1.914,1.914,0,0,0-1.118-.59,2.431,2.431,0,0,0-1.479.13,2.522,2.522,0,0,0-.939.68,3.18,3.18,0,0,0-.766,2.18,2.928,2.928,0,0,0,.393,1.56,2.873,2.873,0,0,0,1.015,1,2.653,2.653,0,0,0,1.31.35,2.425,2.425,0,0,0,.541-0.06,1.9,1.9,0,0,1-.341.02,1.739,1.739,0,0,1-1.582-.85,4.624,4.624,0,0,1-.507-2.4c0-.14.01-0.36,0.029-0.64l0.007-.09H275.8l0.009-.06h4.036v-0.02Zm-4.014-.13a2,2,0,0,1,.871-1.54,2.374,2.374,0,0,1,.885-0.18,2.429,2.429,0,0,1,.468.05,1.53,1.53,0,0,1,.513.31,1.436,1.436,0,0,1,.421,1.1,2.386,2.386,0,0,1-.023.31l-0.01.08h-3.144Zm17.948-1.48a0.579,0.579,0,0,1,.625.53,0.56,0.56,0,0,1-.01.09l-1.675,4.28-1.847-4.9h-0.036l-0.251.64-1.74,4.4,0.046-.12-1.325-3.51a3.01,3.01,0,0,1-.289-0.9,0.457,0.457,0,0,1,.26-0.43,0.85,0.85,0,0,1,.275-0.08h-1.925a0.662,0.662,0,0,1,.4.19,3.132,3.132,0,0,1,.493,1l1.734,4.51h0.08l1.921-4.84,1.819,4.84h0.086l1.981-5.07a1.045,1.045,0,0,1,.366-0.49,0.994,0.994,0,0,1,.369-0.14h-1.361Zm3.714-2.8a0.532,0.532,0,0,0,.393-0.17,0.557,0.557,0,0,0,.164-0.41,0.573,0.573,0,0,0-.164-0.41,0.523,0.523,0,0,0-.393-0.16,0.51,0.51,0,0,0-.4.17,0.534,0.534,0,0,0-.167.4,0.572,0.572,0,0,0,.167.41A0.545,0.545,0,0,0,297.488,1183.04Zm-0.235,7.65a0.7,0.7,0,0,1-.23.45,0.725,0.725,0,0,1-.414.17h2.026a0.9,0.9,0,0,1-.382-0.13,0.686,0.686,0,0,1-.278-0.5c-0.02-.16-0.029-0.55-0.029-1.19v-3.87a8.147,8.147,0,0,1-1.713.34,1.638,1.638,0,0,1,.578.07,0.614,0.614,0,0,1,.359.38,3.934,3.934,0,0,1,.11,1.32v1.76Q297.28,1190.48,297.253,1190.69Zm3.646,0.05a0.643,0.643,0,0,1-.3.45,0.834,0.834,0,0,1-.355.12h2.043a0.9,0.9,0,0,1-.382-0.13,0.69,0.69,0,0,1-.274-0.5c-0.018-.17-0.026-0.56-0.026-1.19v-7.58a4.139,4.139,0,0,1-.759.17c-0.277.05-.532,0.08-0.762,0.1a0.831,0.831,0,0,1,.654.3,2.256,2.256,0,0,1,.194,1.25v5.76A11.287,11.287,0,0,1,300.9,1190.74Zm3.856,0a0.643,0.643,0,0,1-.3.45,0.834,0.834,0,0,1-.355.12h2.043a0.9,0.9,0,0,1-.382-0.13,0.687,0.687,0,0,1-.274-0.5c-0.018-.17-0.026-0.56-0.026-1.19v-7.58a4.139,4.139,0,0,1-.759.17c-0.277.05-.532,0.08-0.762,0.1a0.828,0.828,0,0,1,.653.3,2.24,2.24,0,0,1,.195,1.25v5.76A11.287,11.287,0,0,1,304.755,1190.74Zm12.748-3.29h0a2.335,2.335,0,0,0-.6-1.21,1.914,1.914,0,0,0-1.118-.59,2.42,2.42,0,0,0-.539-0.06,2.446,2.446,0,0,0-.94.19,2.527,2.527,0,0,0-.938.68,3.176,3.176,0,0,0-.767,2.18,2.919,2.919,0,0,0,.394,1.56,2.871,2.871,0,0,0,1.014,1,2.654,2.654,0,0,0,1.311.35,2.431,2.431,0,0,0,.541-0.06,1.918,1.918,0,0,1-.342.02,1.741,1.741,0,0,1-1.582-.85,4.625,4.625,0,0,1-.506-2.4c0-.14.009-0.36,0.029-0.64l0.006-.09h-0.008l0.009-.06H317.5v-0.02Zm-4.013-.13a2,2,0,0,1,.87-1.54,2.375,2.375,0,0,1,.886-0.18,2.438,2.438,0,0,1,.468.05,1.516,1.516,0,0,1,.512.31,1.436,1.436,0,0,1,.421,1.1,2.222,2.222,0,0,1-.023.31l-0.01.08H313.47Zm16.255,0.2v-0.02h0a2.271,2.271,0,0,0-.6-1.2,1.855,1.855,0,0,0-1.116-.59,2.427,2.427,0,0,0-.539-0.07,2.271,2.271,0,0,0-.938.2,2.425,2.425,0,0,0-.937.68,2.915,2.915,0,0,0-.578.99h-1.59l0.336-.74a3.344,3.344,0,0,1,.341-0.54,1.007,1.007,0,0,1,.557-0.33h-1.573a0.81,0.81,0,0,0-.01,1.62h0.323l-1.6,3.5-1.686-3.8a2.286,2.286,0,0,1-.3-0.83,0.438,0.438,0,0,1,.264-0.43,0.718,0.718,0,0,1,.24-0.06h-1.966a0.778,0.778,0,0,1,.471.23,3.4,3.4,0,0,1,.517.9l2.02,4.57h0.192l1.862-4.08h1.594a3.678,3.678,0,0,0-.182,1.17,2.928,2.928,0,0,0,.393,1.56,2.868,2.868,0,0,0,1.013,1,2.647,2.647,0,0,0,1.309.35,2.429,2.429,0,0,0,.54-0.06,1.907,1.907,0,0,1-.341.02,1.738,1.738,0,0,1-1.58-.85,4.636,4.636,0,0,1-.5-2.4c0-.14.009-0.35,0.029-0.63l0.006-.1h-0.008l0.009-.06h4.029Zm-4.007-.14a2.024,2.024,0,0,1,.869-1.55,2.362,2.362,0,0,1,.884-0.17,2.429,2.429,0,0,1,.468.05,1.243,1.243,0,0,1,.511.31,1.424,1.424,0,0,1,.421,1.09,2.719,2.719,0,0,1-.022.32l-0.011.07h-3.14Zm-2.629.13a0.8,0.8,0,0,1-.794-0.8,0.79,0.79,0,0,1,.794-0.79h0.137a0.626,0.626,0,0,1,.544.63,1,1,0,0,1-.052.28l-0.308.68h-0.321Zm9.171,3.24a8.931,8.931,0,0,1-.042-1.26v-2.43l0.011-.01-0.011-.41a4.087,4.087,0,0,0-.136-1.03h-0.04a9.734,9.734,0,0,1-1.445.3,1.413,1.413,0,0,1,.609.13,0.648,0.648,0,0,1,.311.45,10.566,10.566,0,0,1,.042,1.27v1.73a7.746,7.746,0,0,1-.051,1.31,0.626,0.626,0,0,1-.328.42,1.212,1.212,0,0,1-.344.09h2.1a0.848,0.848,0,0,1-.368-0.11A0.624,0.624,0,0,1,332.28,1190.75Zm3.351-.07a0.719,0.719,0,0,1-.231.46,0.747,0.747,0,0,1-.423.17h2.062a0.847,0.847,0,0,1-.366-0.11,0.615,0.615,0,0,1-.309-0.45,11.778,11.778,0,0,1-.037-1.26v-1.82a4.33,4.33,0,0,0-.121-1.18,1.108,1.108,0,0,0-.5-0.62,1.835,1.835,0,0,0-1.045-.26,2.289,2.289,0,0,0-.733.12,1.688,1.688,0,1,0,1.726,2.62v1.14C335.653,1190.15,335.646,1190.54,335.631,1190.68Zm-1.36-1.63a1.67,1.67,0,1,1,.889-3.08,1.1,1.1,0,0,1,.422.62,5.093,5.093,0,0,1,.072,1.02v0.71A1.673,1.673,0,0,1,334.271,1189.05Zm6.306,2.26a0.974,0.974,0,0,1-.6-0.21,0.953,0.953,0,0,1-.368-0.55,5.306,5.306,0,0,1-.077-1.13v-3.69h0.753v-0.02h-0.753v-1.41a2.232,2.232,0,0,1-.516.9,1.667,1.667,0,0,1-.928.52h0.779v3.48a7,7,0,0,0,.091,1.38,1.1,1.1,0,0,0,.42.61,1.228,1.228,0,0,0,.792.26,1.646,1.646,0,0,0,.786-0.21c0.007-.01.015-0.01,0.022-0.02A0.933,0.933,0,0,1,340.577,1191.31Zm7.272-.12a0.665,0.665,0,0,1-.287-0.49c-0.02-.17-0.029-0.57-0.029-1.22v-3.64h-1.348a0.765,0.765,0,0,1,.425.18,0.737,0.737,0,0,1,.234.47q0.022,0.21.022,1.17v1.32a3.845,3.845,0,0,1-.09.9,2.309,2.309,0,0,1-1.8,1.53,1.268,1.268,0,0,1-.195.01,1.365,1.365,0,0,1-.775-0.23,1.02,1.02,0,0,1-.433-0.57,4,4,0,0,1-.077-0.92v-3.86h-1.379a0.977,0.977,0,0,1,.358.11,0.6,0.6,0,0,1,.311.45,11.778,11.778,0,0,1,.037,1.26v1.99a2.947,2.947,0,0,0,.153,1.09,1.289,1.289,0,0,0,.544.57,1.817,1.817,0,0,0,.941.24,2.158,2.158,0,0,0,1.143-.32l0.045-.03a0.338,0.338,0,0,1-.087.04,2.316,2.316,0,0,0,1.222-1.35l0.07-.11,0.008,0.58a3.334,3.334,0,0,0,.166,1.16,4.562,4.562,0,0,1,1.257-.2A0.96,0.96,0,0,1,347.849,1191.19Zm6.565,0.1a0.527,0.527,0,0,1-.535-0.34,3.7,3.7,0,0,1-.1-1.12v-2.36a2.782,2.782,0,0,0-.145-1.04,1.347,1.347,0,0,0-.584-0.56,2.316,2.316,0,0,0-.981-0.25,1.381,1.381,0,0,1,.473.19,1.055,1.055,0,0,1,.479.58,3.636,3.636,0,0,1,.085.93v3l0,0.27a1.09,1.09,0,0,0,.311.66,1.114,1.114,0,0,0,1.48-.16A0.635,0.635,0,0,1,354.414,1191.29Zm-3.395-5.61a1.431,1.431,0,0,0-.759.22,1.283,1.283,0,0,0-.2.13,1.107,1.107,0,0,0-.51.74,0.239,0.239,0,0,0,.053.18,1.258,1.258,0,0,0-.009.15,1.428,1.428,0,0,0,1.426,1.43,1.3,1.3,0,0,0,.2-0.02,7.05,7.05,0,0,0-1.252.74,1.424,1.424,0,0,0-.645,1.14,0.912,0.912,0,0,0,.361.77,1.413,1.413,0,0,0,.907.3,2.521,2.521,0,0,0,.893-0.2,1.709,1.709,0,0,1-.31.03,0.938,0.938,0,0,1-.744-0.33,1.247,1.247,0,0,1-.277-0.84,1.927,1.927,0,0,1,1.1-1.61,1.424,1.424,0,0,0-.228-2.83h0Zm0,2.83a1.41,1.41,0,0,1-1.411-1.41,1.314,1.314,0,0,1,.008-0.14,0.312,0.312,0,0,0,.191.04c0.091,0,.333,0,0.424-0.57a0.928,0.928,0,0,1,.564-0.72,1.665,1.665,0,0,1,.224-0.02A1.41,1.41,0,1,1,351.019,1188.51Zm5.959,2.23a0.645,0.645,0,0,1-.294.45,0.838,0.838,0,0,1-.356.12h2.043a0.891,0.891,0,0,1-.381-0.13,0.688,0.688,0,0,1-.275-0.5c-0.017-.17-0.026-0.56-0.026-1.19v-7.58a4.1,4.1,0,0,1-.759.17c-0.277.05-.532,0.08-0.761,0.1a0.829,0.829,0,0,1,.653.3,2.256,2.256,0,0,1,.194,1.25v5.76A11.021,11.021,0,0,1,356.978,1190.74Zm3.856,0a0.645,0.645,0,0,1-.294.45,0.838,0.838,0,0,1-.356.12h2.043a0.891,0.891,0,0,1-.381-0.13,0.688,0.688,0,0,1-.275-0.5c-0.017-.17-0.026-0.56-0.026-1.19v-7.58a4.1,4.1,0,0,1-.759.17c-0.277.05-.532,0.08-0.761,0.1a0.829,0.829,0,0,1,.653.3,2.256,2.256,0,0,1,.194,1.25v5.76A11.021,11.021,0,0,1,360.834,1190.74Zm6.941-4.9a0.588,0.588,0,0,1,.641.52,0.725,0.725,0,0,1-.065.25l-1.753,4.19-1.759-3.74a2.331,2.331,0,0,1-.294-0.78,0.536,0.536,0,0,1,.566-0.44H363.08a0.885,0.885,0,0,1,.439.18,2.772,2.772,0,0,1,.529.84l2.213,4.75-0.8,1.9a1.216,1.216,0,0,1-.111.13,2.663,2.663,0,0,1-.626.36,0.85,0.85,0,0,0-.636.65c0,0.16.047,0.25,0.286,0.25a0.656,0.656,0,0,0,.494-0.27,3.88,3.88,0,0,0,.548-0.99l0.006,0.01,2.97-7.11a2.03,2.03,0,0,1,.278-0.42,1.04,1.04,0,0,1,.587-0.28h-1.487Zm11.989,0a0.777,0.777,0,0,0-.611-0.23,1.443,1.443,0,0,0-.733.23,8.758,8.758,0,0,0-1.257.8,0.152,0.152,0,0,1-.046.04,4.68,4.68,0,0,0-.153-1.03,9.928,9.928,0,0,1-1.4.34,0.729,0.729,0,0,0-.632.7,0.694,0.694,0,0,0,.694.69H375.7a1.33,1.33,0,0,0,.388-0.05,2.5,2.5,0,0,0,.418-0.18c0,0.19,0,.42,0,0.7v1.64a11.021,11.021,0,0,1-.038,1.25,0.642,0.642,0,0,1-.294.45,0.838,0.838,0,0,1-.356.12h2.043a0.891,0.891,0,0,1-.381-0.13,0.688,0.688,0,0,1-.275-0.5c-0.017-.16-0.026-0.55-0.026-1.19v-1.04l-0.057-1.53c0-.07-0.006-0.14-0.01-0.21l0.057-.06a7.887,7.887,0,0,1,1.434-.86,0.823,0.823,0,0,1,.153-0.02,0.584,0.584,0,0,1,.549.47c0.144,0.41.318,0.41,0.375,0.41a0.278,0.278,0,0,0,.209-0.09,0.346,0.346,0,0,0,.092-0.24,0.707,0.707,0,0,0-.223-0.48h0Zm-3.679,1.47a1.114,1.114,0,0,1-.453.05,0.674,0.674,0,0,1-.678-0.67,0.722,0.722,0,0,1,.7-0.69,1.12,1.12,0,0,1,.564.16,0.668,0.668,0,0,1,.272.49q0.015,0.135.021,0.48A1.894,1.894,0,0,1,376.085,1187.31Zm9.705,0.14h0a2.335,2.335,0,0,0-.6-1.21,1.914,1.914,0,0,0-1.118-.59,2.431,2.431,0,0,0-1.479.13,2.538,2.538,0,0,0-.939.68,3.18,3.18,0,0,0-.766,2.18,2.919,2.919,0,0,0,.394,1.56,2.862,2.862,0,0,0,1.014,1,2.654,2.654,0,0,0,1.311.35,2.422,2.422,0,0,0,.54-0.06,1.9,1.9,0,0,1-.341.02,1.74,1.74,0,0,1-1.582-.85,4.625,4.625,0,0,1-.506-2.4c0-.14.009-0.36,0.029-0.64l0.006-.09h-0.008l0.009-.06h4.036v-0.02Zm-4.014-.13a2,2,0,0,1,.871-1.54,2.374,2.374,0,0,1,.885-0.18,2.44,2.44,0,0,1,.469.05,1.516,1.516,0,0,1,.512.31,1.436,1.436,0,0,1,.421,1.1,2.386,2.386,0,0,1-.023.31l-0.01.08h-3.144Zm9.1-1.4a1.929,1.929,0,0,0-.32-0.14c-0.011-.01-0.022-0.01-0.033-0.02a0.046,0.046,0,0,1-.034-0.01,2.634,2.634,0,0,0-.926-0.16,2.758,2.758,0,0,0-.867.14,2.957,2.957,0,0,0-2.036,2.91,2.849,2.849,0,0,0,.8,2.11,2.643,2.643,0,0,0,1.97.8,3.872,3.872,0,0,0,.5-0.03h-0.182a1.91,1.91,0,0,1-1.707-.85,4.038,4.038,0,0,1-.545-2.25,3.551,3.551,0,0,1,.514-2.09,1.7,1.7,0,0,1,.9-0.64,2.893,2.893,0,0,1,.663-0.08,2.713,2.713,0,0,1,.638.07,0.887,0.887,0,0,1,.214.13,1.186,1.186,0,0,1,.316.67,0.383,0.383,0,0,0,.4.4,0.221,0.221,0,0,0,.2-0.08,0.392,0.392,0,0,0,.082-0.23A0.792,0.792,0,0,0,390.88,1185.92Zm6.171,0.54a2.8,2.8,0,0,0-1.133-.71,1.052,1.052,0,0,0-.3-0.08h0a0.7,0.7,0,0,0-.145-0.01h-0.114a0.987,0.987,0,0,0-.792.57,1.063,1.063,0,0,0,.094,1.05,4.73,4.73,0,0,1,.935,3.13,1.185,1.185,0,0,1-1.142,1.07H394.41c-0.058-.01-0.116-0.01-0.172-0.02a1.788,1.788,0,0,1-.825-0.57,3.676,3.676,0,0,1-.544-2.29,3.831,3.831,0,0,1,.53-2.3,1.766,1.766,0,0,1,.926-0.63,2.793,2.793,0,0,0-1.441.78A2.958,2.958,0,0,0,394,1191.4a1.041,1.041,0,0,0,.3.08,0.021,0.021,0,0,1,.021.01c0-.01-0.007-0.01-0.01-0.01a0.357,0.357,0,0,0,.1.01h0.036a1.2,1.2,0,0,0,1.161-1.07,4.759,4.759,0,0,0-.939-3.15,1.04,1.04,0,0,1-.093-1.03,0.942,0.942,0,0,1,.778-0.56h0.112a0.839,0.839,0,0,1,.224.02,1.654,1.654,0,0,1,.846.61,3.834,3.834,0,0,1,.526,2.29,3.685,3.685,0,0,1-.532,2.28,1.661,1.661,0,0,1-.891.6,2.879,2.879,0,0,0,1.406-.73,2.835,2.835,0,0,0,.854-2.18A2.873,2.873,0,0,0,397.051,1186.46Zm7.977-.66a0.507,0.507,0,0,0-.29-0.12h0a0.356,0.356,0,0,0-.089-0.01h-0.029a1.02,1.02,0,0,0-.41.09h0a1.06,1.06,0,0,0-.174.09h-0.008a1.675,1.675,0,0,0-.58.63,0.034,0.034,0,0,0-.012-0.02h0a1.729,1.729,0,0,0-.642-0.54h0a2.329,2.329,0,0,0-.891-0.29,1.79,1.79,0,0,0-.4-0.04,2.157,2.157,0,0,0-.444.05,2.185,2.185,0,0,0-1.106.54,1.784,1.784,0,0,0-.641,1.38,1.856,1.856,0,0,0,.311,1.05,2.875,2.875,0,0,0,.96.86l0.32,0.19a1.854,1.854,0,0,0-1.251.49,0.819,0.819,0,0,0-.283.64,0.757,0.757,0,0,0,.379.65,2.644,2.644,0,0,0,1.1.28,1.9,1.9,0,0,0-1.631,1.61c0,0.94,1.124,1.71,2.506,1.71a3.328,3.328,0,0,0,1.6-.39,2.5,2.5,0,0,0,.53-0.29,1.634,1.634,0,0,0,.7-1.38,1.612,1.612,0,0,0-.34-1.04,1.537,1.537,0,0,0-.914-0.58,9.183,9.183,0,0,0-1.773-.22,6.193,6.193,0,0,1-1.451-.17,0.56,0.56,0,0,1-.464-0.54,0.536,0.536,0,0,1,.076-0.28,1.867,1.867,0,0,1,1.318-.48l0.476-.01h0.111a1.977,1.977,0,0,0,.6-0.13,2.059,2.059,0,0,0,1.038-.54,1.967,1.967,0,0,0,.564-1.39,2.031,2.031,0,0,0-.2-0.88h0a1.129,1.129,0,0,0-.119-0.23,1.666,1.666,0,0,1,.585-0.63,0.346,0.346,0,0,1,.215-0.03,0.628,0.628,0,0,1,.4.34,0.3,0.3,0,0,0,.254.21c0.159,0,.252-0.05.252-0.3A0.407,0.407,0,0,0,405.028,1185.8Zm-3.393,5.98a4.629,4.629,0,0,1,1.927.37,1.205,1.205,0,0,1,.608,1.15,1.387,1.387,0,0,1-.18.7,2.717,2.717,0,0,1-2.276,1.01c-1.369,0-2.482-.75-2.482-1.68a1.9,1.9,0,0,1,1.676-1.6C401.116,1191.75,401.355,1191.77,401.635,1191.78Zm0.957-2.59a1.325,1.325,0,0,1-.373.3,1.844,1.844,0,0,1-.662.15h-0.084a1.712,1.712,0,0,1-.507-0.08,1.394,1.394,0,0,1-.523-0.37,2.18,2.18,0,0,1-.421-1.46,2.843,2.843,0,0,1,.357-1.58,1.164,1.164,0,0,1,.475-0.42,1.737,1.737,0,0,1,.644-0.13,2.084,2.084,0,0,1,.562.09,1.747,1.747,0,0,1,.5.34,2.132,2.132,0,0,1,.466,1.58A2.287,2.287,0,0,1,402.592,1189.19Zm4.358,1.56a8.931,8.931,0,0,1-.042-1.26v-2.43l0.012-.01-0.011-.41a4.133,4.133,0,0,0-.136-1.03h-0.041a9.7,9.7,0,0,1-1.444.3,1.4,1.4,0,0,1,.608.13,0.65,0.65,0,0,1,.312.45,10.566,10.566,0,0,1,.042,1.27v1.73a7.746,7.746,0,0,1-.051,1.31,0.629,0.629,0,0,1-.328.42,1.229,1.229,0,0,1-.345.09h2.1a0.853,0.853,0,0,1-.369-0.11A0.629,0.629,0,0,1,406.95,1190.75Zm3.352-.07a0.724,0.724,0,0,1-.231.46,0.75,0.75,0,0,1-.423.17h2.062a0.843,0.843,0,0,1-.366-0.11,0.615,0.615,0,0,1-.309-0.45,11.381,11.381,0,0,1-.038-1.26v-1.82a4.338,4.338,0,0,0-.12-1.18,1.108,1.108,0,0,0-.5-0.62,1.837,1.837,0,0,0-1.045-.26,2.289,2.289,0,0,0-.733.12,1.688,1.688,0,1,0,1.726,2.62v1.14C410.324,1190.15,410.317,1190.54,410.3,1190.68Zm-1.36-1.63a1.67,1.67,0,1,1,.889-3.08,1.1,1.1,0,0,1,.421.62,5.018,5.018,0,0,1,.072,1.02v0.71A1.671,1.671,0,0,1,408.942,1189.05Zm4.88-6.01a0.532,0.532,0,0,0,.393-0.17,0.557,0.557,0,0,0,.164-0.41,0.573,0.573,0,0,0-.164-0.41,0.523,0.523,0,0,0-.393-0.16,0.51,0.51,0,0,0-.4.17,0.534,0.534,0,0,0-.167.4,0.572,0.572,0,0,0,.167.41A0.545,0.545,0,0,0,413.822,1183.04Zm-0.235,7.65a0.7,0.7,0,0,1-.23.45,0.725,0.725,0,0,1-.414.17h2.026a0.9,0.9,0,0,1-.382-0.13,0.686,0.686,0,0,1-.278-0.5c-0.02-.16-0.029-0.55-0.029-1.19v-3.87a8.147,8.147,0,0,1-1.713.34,1.638,1.638,0,0,1,.578.07,0.614,0.614,0,0,1,.359.38,3.934,3.934,0,0,1,.11,1.32v1.76Q413.614,1190.48,413.587,1190.69Zm6.875,0.07a1.265,1.265,0,0,1-.6.48,1.371,1.371,0,0,1-.274.06h-2.729l3.982-5.44v-0.02H416.3l-0.063,1.11a3.232,3.232,0,0,1,.334-0.66,1.037,1.037,0,0,1,.431-0.41,0.231,0.231,0,0,1,.086-0.02h2.961l-3.993,5.45h4.733l0.129-1.41A3.766,3.766,0,0,1,420.462,1190.76Zm6.239-3.31h0a2.335,2.335,0,0,0-.6-1.21,1.914,1.914,0,0,0-1.118-.59,2.42,2.42,0,0,0-.539-0.06,2.446,2.446,0,0,0-.94.19,2.527,2.527,0,0,0-.938.68,3.176,3.176,0,0,0-.767,2.18,2.919,2.919,0,0,0,.394,1.56,2.871,2.871,0,0,0,1.014,1,2.654,2.654,0,0,0,1.311.35,2.431,2.431,0,0,0,.541-0.06,1.918,1.918,0,0,1-.342.02,1.741,1.741,0,0,1-1.582-.85,4.625,4.625,0,0,1-.506-2.4c0-.14.009-0.36,0.029-0.64l0.006-.09h-0.008l0.009-.06H426.7v-0.02Zm-4.013-.13a2,2,0,0,1,.87-1.54,2.375,2.375,0,0,1,.886-0.18,2.438,2.438,0,0,1,.468.05,1.516,1.516,0,0,1,.512.31,1.436,1.436,0,0,1,.421,1.1,2.222,2.222,0,0,1-.023.31l-0.01.08h-3.144Zm12.943,3.99a0.974,0.974,0,0,1-.6-0.21,0.953,0.953,0,0,1-.368-0.55,5.4,5.4,0,0,1-.076-1.13v-3.69h0.753v-0.02h-0.753v-1.41a2.234,2.234,0,0,1-.517.9,1.667,1.667,0,0,1-.928.52h0.779v3.48a7,7,0,0,0,.091,1.38,1.1,1.1,0,0,0,.421.61,1.223,1.223,0,0,0,.791.26,1.646,1.646,0,0,0,.786-0.21c0.008-.01.015-0.01,0.022-0.02A0.93,0.93,0,0,1,435.631,1191.31Zm2.669-.59c-0.023-.16-0.034-0.56-0.034-1.23v-7.58a4.63,4.63,0,0,1-1.491.27,0.85,0.85,0,0,1,.625.29,2.132,2.132,0,0,1,.2,1.22v5.8q0,0.99-.026,1.2a0.709,0.709,0,0,1-.231.45,0.726,0.726,0,0,1-.417.17h2.045a0.876,0.876,0,0,1-.375-0.12A0.619,0.619,0,0,1,438.3,1190.72Zm3.341-.04a0.751,0.751,0,0,1-.229.46,0.741,0.741,0,0,1-.424.17h2.065a0.984,0.984,0,0,1-.357-0.1,0.589,0.589,0,0,1-.321-0.44,10.784,10.784,0,0,1-.042-1.28v-1.61a4.914,4.914,0,0,0-.133-1.36,1.221,1.221,0,0,0-.542-0.64,2.034,2.034,0,0,0-1.1-.27,2.3,2.3,0,0,0-.592.07,1.78,1.78,0,1,0,1.7,2.82v0.99C441.667,1190.15,441.659,1190.54,441.641,1190.68Zm-1.4-1.48a1.762,1.762,0,0,1-.388-3.48,2.124,2.124,0,0,1,.36-0.03,1.517,1.517,0,0,1,.9.26,1.158,1.158,0,0,1,.47.68,4.921,4.921,0,0,1,.09,1.11v0.73A1.763,1.763,0,0,1,440.24,1189.2Zm8.62-1.75h0a2.342,2.342,0,0,0-.6-1.21,1.914,1.914,0,0,0-1.118-.59,2.431,2.431,0,0,0-1.479.13,2.522,2.522,0,0,0-.939.68,3.18,3.18,0,0,0-.766,2.18,2.928,2.928,0,0,0,.393,1.56,2.873,2.873,0,0,0,1.015,1,2.653,2.653,0,0,0,1.31.35,2.425,2.425,0,0,0,.541-0.06,1.9,1.9,0,0,1-.341.02,1.739,1.739,0,0,1-1.582-.85,4.624,4.624,0,0,1-.507-2.4c0-.14.01-0.36,0.029-0.64l0.007-.09h-0.008l0.009-.06h4.035v-0.02Zm-4.013-.13a2,2,0,0,1,.871-1.54,2.374,2.374,0,0,1,.885-0.18,2.429,2.429,0,0,1,.468.05,1.53,1.53,0,0,1,.513.31,1.436,1.436,0,0,1,.421,1.1,2.386,2.386,0,0,1-.023.31l-0.01.08h-3.144Zm16.083-.92a2.477,2.477,0,0,0-1.885-.79,2.382,2.382,0,0,0-.706.1,2.977,2.977,0,0,0-1.553.78v-0.1a3.307,3.307,0,0,0-.08-0.78h-0.034a14.19,14.19,0,0,1-1.587.33,0.723,0.723,0,0,0-.615.69,0.694,0.694,0,0,0,.695.69h0a0.223,0.223,0,0,0,.071.01,1.434,1.434,0,0,0,.387-0.06,2.287,2.287,0,0,0,.491-0.21q0.006,0.285.006,0.72v5.29c0,0.67-.009,1.06-0.026,1.2a0.759,0.759,0,0,1-.231.46,0.8,0.8,0,0,1-.414.17H457.5a0.993,0.993,0,0,1-.365-0.11,0.649,0.649,0,0,1-.307-0.45,9.026,9.026,0,0,1-.042-1.27v-6.56a2.977,2.977,0,0,1,2.024-.83,1.944,1.944,0,0,1,1.426.7,3.042,3.042,0,0,1,.62,2.07,3.473,3.473,0,0,1-.64,2.31,1.983,1.983,0,0,1-1.533.76,1.506,1.506,0,0,1-.212-0.02,2.366,2.366,0,0,0,.461.05,2.5,2.5,0,0,0,1.991-.86,3.179,3.179,0,0,0,.763-2.17A2.98,2.98,0,0,0,460.93,1186.4Zm-5.31.85a1.273,1.273,0,0,1-.453.06,0.683,0.683,0,0,1-.679-0.68,0.718,0.718,0,0,1,.712-0.69h0.019a1.232,1.232,0,0,1,.6.16,0.653,0.653,0,0,1,.275.49c0.009,0.09.015,0.24,0.02,0.44A2,2,0,0,1,455.62,1187.25Zm11.374-1.41a0.777,0.777,0,0,0-.611-0.23,1.446,1.446,0,0,0-.733.23,8.726,8.726,0,0,0-1.256.8,0.18,0.18,0,0,1-.046.04,4.675,4.675,0,0,0-.154-1.03,9.928,9.928,0,0,1-1.4.34,0.729,0.729,0,0,0-.632.7,0.694,0.694,0,0,0,.695.69h0.07a1.33,1.33,0,0,0,.388-0.05,2.469,2.469,0,0,0,.418-0.18c0,0.19.006,0.42,0.006,0.7v1.64a10.911,10.911,0,0,1-.039,1.25,0.639,0.639,0,0,1-.294.45,0.834,0.834,0,0,1-.355.12H465.1a0.891,0.891,0,0,1-.382-0.13,0.688,0.688,0,0,1-.275-0.5c-0.017-.16-0.025-0.55-0.025-1.19v-1.04l-0.057-1.53c0-.07-0.007-0.14-0.01-0.21l0.056-.06a7.925,7.925,0,0,1,1.434-.86,0.823,0.823,0,0,1,.153-0.02,0.583,0.583,0,0,1,.549.47c0.144,0.41.318,0.41,0.375,0.41a0.281,0.281,0,0,0,.21-0.09,0.35,0.35,0,0,0,.091-0.24,0.707,0.707,0,0,0-.223-0.48h0Zm-3.679,1.47a1.114,1.114,0,0,1-.453.05,0.674,0.674,0,0,1-.678-0.67,0.723,0.723,0,0,1,.7-0.69,1.12,1.12,0,0,1,.564.16,0.672,0.672,0,0,1,.273.49c0.009,0.09.016,0.25,0.02,0.48A1.894,1.894,0,0,1,463.315,1187.31Zm9.7,0.14h0a2.335,2.335,0,0,0-.6-1.21,1.914,1.914,0,0,0-1.118-.59,2.42,2.42,0,0,0-.539-0.06,2.446,2.446,0,0,0-.94.19,2.527,2.527,0,0,0-.938.68,3.176,3.176,0,0,0-.767,2.18,2.928,2.928,0,0,0,.394,1.56,2.871,2.871,0,0,0,1.014,1,2.654,2.654,0,0,0,1.311.35,2.431,2.431,0,0,0,.541-0.06,1.918,1.918,0,0,1-.342.02,1.741,1.741,0,0,1-1.582-.85,4.625,4.625,0,0,1-.506-2.4c0-.14.009-0.36,0.029-0.64l0.006-.09h-0.007l0.009-.06h4.035v-0.02Zm-4.013-.13a2,2,0,0,1,.87-1.54,2.375,2.375,0,0,1,.886-0.18,2.438,2.438,0,0,1,.468.05,1.516,1.516,0,0,1,.512.31,1.436,1.436,0,0,1,.421,1.1,2.373,2.373,0,0,1-.022.31l-0.011.08h-3.144Zm8.055,1.76a2.99,2.99,0,0,0-1.4-.99,3.838,3.838,0,0,1-1.137-.68,1.033,1.033,0,0,1-.346-0.78,1.022,1.022,0,0,1,.315-0.74,1.09,1.09,0,0,1,.281-0.2,1.433,1.433,0,0,1,1.81.64c0.061,0.1.118,0.2,0.17,0.3a2.268,2.268,0,0,1,.155.36v-1.22a1.25,1.25,0,0,1-.241.4l-0.1.11a1.45,1.45,0,0,0-1.248-.71,1.424,1.424,0,0,0-.728.19l0.007,0.01a1.141,1.141,0,0,0-.336.29,1.575,1.575,0,0,0-.375.99,1.252,1.252,0,0,0,.338.9,3.181,3.181,0,0,0,.686.53,1.656,1.656,0,0,0-.97,1.49h0l0,1.46a1.784,1.784,0,0,1,.2-0.39c0.025-.03.052-0.06,0.08-0.09l0.017-.02,0.025,0.03c0.025,0.03.052,0.07,0.08,0.1a0.215,0.215,0,0,0,.05.05,0.461,0.461,0,0,0,.079.08,0.223,0.223,0,0,0,.053.05,0.641,0.641,0,0,0,.106.08l0.035,0.03a1.151,1.151,0,0,0,.157.1,0.032,0.032,0,0,1,.028.01l0.143,0.06c0.013,0.01.027,0.01,0.04,0.02,0.047,0.01.094,0.03,0.142,0.04a0.063,0.063,0,0,0,.041.01,0.858,0.858,0,0,0,.159.03c0.009,0,.018.01,0.026,0.01,0.065,0,.13.01,0.2,0.01a1.6,1.6,0,0,0,.862-0.25,1.24,1.24,0,0,0,.4-0.27,1.456,1.456,0,0,0,.447-1.11A2.049,2.049,0,0,0,477.062,1189.08Zm-0.409,2.12a0.9,0.9,0,0,1-.179.17,1.621,1.621,0,0,1-.871.25h0a1.236,1.236,0,0,1-.193-0.01h-0.026l-0.158-.03a0.057,0.057,0,0,0-.039-0.01c-0.048-.02-0.1-0.03-0.142-0.05-0.013,0-.026-0.01-0.039-0.01a0.859,0.859,0,0,1-.143-0.07,0.028,0.028,0,0,1-.025-0.01c-0.054-.03-0.107-0.06-0.157-0.09l-0.032-.03a0.654,0.654,0,0,1-.108-0.08c-0.017-.02-0.034-0.03-0.051-0.05a0.5,0.5,0,0,1-.08-0.08,0.231,0.231,0,0,1-.048-0.05c-0.028-.03-0.054-0.07-0.08-0.1a1.635,1.635,0,0,1,.655-2.46c0.153,0.09.321,0.18,0.509,0.27a4.851,4.851,0,0,1,1.179.74,1.2,1.2,0,0,1,.334.87A1.294,1.294,0,0,1,476.653,1191.2Zm6.463-3.75h0a2.335,2.335,0,0,0-.6-1.21,1.914,1.914,0,0,0-1.118-.59,2.431,2.431,0,0,0-1.479.13,2.53,2.53,0,0,0-.939.68,3.18,3.18,0,0,0-.766,2.18,2.919,2.919,0,0,0,.394,1.56,2.862,2.862,0,0,0,1.014,1,2.654,2.654,0,0,0,1.311.35,2.422,2.422,0,0,0,.54-0.06,1.9,1.9,0,0,1-.341.02,1.74,1.74,0,0,1-1.582-.85,4.625,4.625,0,0,1-.506-2.4c0-.14.009-0.36,0.029-0.64l0.006-.09h-0.008l0.009-.06h4.036v-0.02Zm-4.014-.13a2,2,0,0,1,.871-1.54,2.374,2.374,0,0,1,.885-0.18,2.429,2.429,0,0,1,.468.05,1.51,1.51,0,0,1,.513.31,1.436,1.436,0,0,1,.421,1.1,2.386,2.386,0,0,1-.023.31l-0.01.08h-3.144Zm6.551,3.43a8.739,8.739,0,0,1-.042-1.26v-2.43l0.011-.01-0.011-.41a4.133,4.133,0,0,0-.136-1.03h-0.04a9.734,9.734,0,0,1-1.445.3,1.413,1.413,0,0,1,.609.13,0.651,0.651,0,0,1,.311.45,10.566,10.566,0,0,1,.042,1.27v1.73a7.746,7.746,0,0,1-.051,1.31,0.629,0.629,0,0,1-.328.42,1.229,1.229,0,0,1-.345.09h2.105a0.853,0.853,0,0,1-.369-0.11A0.625,0.625,0,0,1,485.653,1190.75Zm3.351-.07a0.719,0.719,0,0,1-.231.46,0.747,0.747,0,0,1-.423.17h2.062a0.843,0.843,0,0,1-.366-0.11,0.615,0.615,0,0,1-.309-0.45,11.658,11.658,0,0,1-.038-1.26v-1.82a4.338,4.338,0,0,0-.12-1.18,1.108,1.108,0,0,0-.5-0.62,1.837,1.837,0,0,0-1.045-.26,2.289,2.289,0,0,0-.733.12,1.688,1.688,0,1,0,1.726,2.62v1.14C489.026,1190.15,489.019,1190.54,489,1190.68Zm-1.36-1.63a1.67,1.67,0,1,1,.889-3.08,1.1,1.1,0,0,1,.421.62,5.018,5.018,0,0,1,.072,1.02v0.71A1.671,1.671,0,0,1,487.644,1189.05Zm7.634-3.13a2,2,0,0,0-.32-0.14c-0.011-.01-0.023-0.01-0.034-0.02a0.043,0.043,0,0,1-.033-0.01,2.64,2.64,0,0,0-.927-0.16,2.752,2.752,0,0,0-.866.14,2.947,2.947,0,0,0-1.173.72,2.914,2.914,0,0,0-.864,2.19,2.849,2.849,0,0,0,.8,2.11,2.643,2.643,0,0,0,1.97.8,3.872,3.872,0,0,0,.5-0.03h-0.182a1.91,1.91,0,0,1-1.707-.85,4.029,4.029,0,0,1-.545-2.25,3.551,3.551,0,0,1,.514-2.09,1.7,1.7,0,0,1,.9-0.64,2.877,2.877,0,0,1,.662-0.08,2.716,2.716,0,0,1,.639.07,0.86,0.86,0,0,1,.213.13,1.18,1.18,0,0,1,.317.67,0.383,0.383,0,0,0,.4.4,0.219,0.219,0,0,0,.2-0.08,0.385,0.385,0,0,0,.082-0.23A0.791,0.791,0,0,0,495.278,1185.92Zm6.333,1.53h0a2.337,2.337,0,0,0-.6-1.21,1.911,1.911,0,0,0-1.118-.59,2.42,2.42,0,0,0-.539-0.06,2.446,2.446,0,0,0-.94.19,2.527,2.527,0,0,0-.938.68,3.18,3.18,0,0,0-.766,2.18,2.928,2.928,0,0,0,.393,1.56,2.879,2.879,0,0,0,1.014,1,2.654,2.654,0,0,0,1.311.35,2.431,2.431,0,0,0,.541-0.06,1.918,1.918,0,0,1-.342.02,1.739,1.739,0,0,1-1.581-.85,4.624,4.624,0,0,1-.507-2.4c0-.14.01-0.36,0.029-0.64l0.007-.09h-0.008l0.009-.06h4.035v-0.02Zm-4.013-.13a2.006,2.006,0,0,1,.87-1.54,2.379,2.379,0,0,1,.886-0.18,2.429,2.429,0,0,1,.468.05,1.516,1.516,0,0,1,.512.31,1.433,1.433,0,0,1,.422,1.1,2.386,2.386,0,0,1-.023.31l-0.01.08h-3.145Zm14.8-.86a2.8,2.8,0,0,0-1.133-.71,1.052,1.052,0,0,0-.3-0.08h0a0.713,0.713,0,0,0-.146-0.01h-0.114a0.99,0.99,0,0,0-.792.57,1.068,1.068,0,0,0,.094,1.05,4.729,4.729,0,0,1,.936,3.13,1.186,1.186,0,0,1-1.143,1.07h-0.036c-0.058-.01-0.115-0.01-0.171-0.02a1.783,1.783,0,0,1-.825-0.57,3.676,3.676,0,0,1-.544-2.29,3.823,3.823,0,0,1,.53-2.3,1.768,1.768,0,0,1,.925-0.63,2.786,2.786,0,0,0-1.44.78,2.959,2.959,0,0,0,1.11,4.95,1.047,1.047,0,0,0,.3.08,0.02,0.02,0,0,1,.02.01c0-.01-0.006-0.01-0.01-0.01a0.367,0.367,0,0,0,.1.01h0.036a1.2,1.2,0,0,0,1.16-1.07,4.759,4.759,0,0,0-.939-3.15,1.04,1.04,0,0,1-.092-1.03,0.941,0.941,0,0,1,.777-0.56h0.113a0.839,0.839,0,0,1,.224.02,1.654,1.654,0,0,1,.846.61,3.834,3.834,0,0,1,.526,2.29,3.677,3.677,0,0,1-.533,2.28,1.657,1.657,0,0,1-.891.6,2.879,2.879,0,0,0,1.406-.73,2.831,2.831,0,0,0,.854-2.18A2.872,2.872,0,0,0,512.393,1186.46Zm6.811-3.45,0.034-.03a0.292,0.292,0,0,0,.088-0.22,0.772,0.772,0,0,0-.429-0.56,1.959,1.959,0,0,0-1.115-.3,1.46,1.46,0,0,0-.3-0.03,1.853,1.853,0,0,0-1.245.48h0a2.052,2.052,0,0,0-.464.52,2.369,2.369,0,0,0-.376.93,9.986,9.986,0,0,0-.069,1.34v0.45h-1.615v0.02h1.615v3.88a7.866,7.866,0,0,1-.05,1.31,0.632,0.632,0,0,1-.324.42,1.191,1.191,0,0,1-.339.09h2.068a0.891,0.891,0,0,1-.381-0.13,0.67,0.67,0,0,1-.275-0.5c-0.017-.17-0.026-0.56-0.026-1.19v-3.88h1.48a1.873,1.873,0,0,0,1.871-1.87A1.816,1.816,0,0,0,519.2,1183.01Zm-1.719,2.59-1.48-.01v-0.37a20.383,20.383,0,0,1,.066-2.1,1.515,1.515,0,0,1,.454-0.91,1.905,1.905,0,0,1,.2-0.16,1.959,1.959,0,0,1,.759-0.16,2.768,2.768,0,0,1,.291.02,1.323,1.323,0,0,1,.714.66,0.744,0.744,0,0,0,.535.5,0.311,0.311,0,0,0,.165-0.05,1.819,1.819,0,0,1,.149.72A1.863,1.863,0,0,1,517.485,1185.6Zm10.892,0.86a2.8,2.8,0,0,0-1.134-.71,1.052,1.052,0,0,0-.3-0.08h-0.005a0.7,0.7,0,0,0-.145-0.01h-0.114a0.99,0.99,0,0,0-.792.57,1.063,1.063,0,0,0,.094,1.05,4.729,4.729,0,0,1,.936,3.13,1.186,1.186,0,0,1-1.143,1.07h-0.036c-0.058-.01-0.115-0.01-0.172-0.02a1.78,1.78,0,0,1-.824-0.57,3.669,3.669,0,0,1-.545-2.29,3.831,3.831,0,0,1,.53-2.3,1.766,1.766,0,0,1,.926-0.63,2.786,2.786,0,0,0-1.44.78,2.958,2.958,0,0,0,1.11,4.95,1.039,1.039,0,0,0,.3.08,0.02,0.02,0,0,1,.02.01c0-.01-0.006-0.01-0.01-0.01a0.357,0.357,0,0,0,.1.01h0.037a1.2,1.2,0,0,0,1.16-1.07,4.759,4.759,0,0,0-.939-3.15,1.037,1.037,0,0,1-.092-1.03,0.94,0.94,0,0,1,.777-0.56h0.113a0.831,0.831,0,0,1,.223.02,1.653,1.653,0,0,1,.847.61,3.842,3.842,0,0,1,.525,2.29,3.685,3.685,0,0,1-.532,2.28,1.661,1.661,0,0,1-.891.6,2.879,2.879,0,0,0,1.406-.73,2.831,2.831,0,0,0,.854-2.18A2.872,2.872,0,0,0,528.377,1186.46Zm3.419,4.29a8.931,8.931,0,0,1-.042-1.26v-2.43l0.011-.01-0.011-.41a4.133,4.133,0,0,0-.136-1.03h-0.04a9.734,9.734,0,0,1-1.445.3,1.413,1.413,0,0,1,.609.13,0.651,0.651,0,0,1,.311.45,10.566,10.566,0,0,1,.042,1.27v1.73a7.746,7.746,0,0,1-.051,1.31,0.629,0.629,0,0,1-.328.42,1.22,1.22,0,0,1-.345.09h2.105a0.853,0.853,0,0,1-.369-0.11A0.625,0.625,0,0,1,531.8,1190.75Zm3.351-.07a0.719,0.719,0,0,1-.231.46,0.747,0.747,0,0,1-.423.17h2.062a0.843,0.843,0,0,1-.366-0.11,0.615,0.615,0,0,1-.309-0.45,11.658,11.658,0,0,1-.038-1.26v-1.82a4.338,4.338,0,0,0-.12-1.18,1.108,1.108,0,0,0-.5-0.62,1.837,1.837,0,0,0-1.045-.26,2.289,2.289,0,0,0-.733.12,1.688,1.688,0,1,0,1.726,2.62v1.14C535.169,1190.15,535.162,1190.54,535.147,1190.68Zm-1.36-1.63a1.67,1.67,0,1,1,.889-3.08,1.1,1.1,0,0,1,.422.62,5.093,5.093,0,0,1,.072,1.02v0.71A1.673,1.673,0,0,1,533.787,1189.05Zm8.319-1.6h0a2.337,2.337,0,0,0-.6-1.21,1.912,1.912,0,0,0-1.117-.59,2.434,2.434,0,0,0-1.48.13,2.527,2.527,0,0,0-.938.68,3.18,3.18,0,0,0-.766,2.18,2.928,2.928,0,0,0,.393,1.56,2.873,2.873,0,0,0,1.015,1,2.651,2.651,0,0,0,1.31.35,2.425,2.425,0,0,0,.541-0.06,1.918,1.918,0,0,1-.342.02,1.739,1.739,0,0,1-1.581-.85,4.624,4.624,0,0,1-.507-2.4c0-.14.01-0.36,0.029-0.64l0.007-.09h-0.008l0.009-.06h4.035v-0.02Zm-4.013-.13a2,2,0,0,1,.871-1.54,2.37,2.37,0,0,1,.885-0.18,2.429,2.429,0,0,1,.468.05,1.516,1.516,0,0,1,.512.31,1.433,1.433,0,0,1,.422,1.1,2.386,2.386,0,0,1-.023.31l-0.01.08h-3.145Zm14.957,0.13h0a2.337,2.337,0,0,0-.6-1.21,1.911,1.911,0,0,0-1.118-.59,2.42,2.42,0,0,0-.539-0.06,2.446,2.446,0,0,0-.94.19,2.527,2.527,0,0,0-.938.68,3.175,3.175,0,0,0-.766,2.18,2.928,2.928,0,0,0,.393,1.56,2.879,2.879,0,0,0,1.014,1,2.654,2.654,0,0,0,1.311.35,2.431,2.431,0,0,0,.541-0.06,1.918,1.918,0,0,1-.342.02,1.739,1.739,0,0,1-1.581-.85,4.624,4.624,0,0,1-.507-2.4c0-.14.01-0.36,0.029-0.64l0.007-.09h-0.008l0.009-.06h4.035v-0.02Zm-4.013-.13a2.006,2.006,0,0,1,.87-1.54,2.379,2.379,0,0,1,.886-0.18,2.429,2.429,0,0,1,.468.05,1.516,1.516,0,0,1,.512.31,1.432,1.432,0,0,1,.421,1.1,2.373,2.373,0,0,1-.022.31l-0.01.08h-3.145Zm9.15-1.48a0.588,0.588,0,0,1,.641.52,0.725,0.725,0,0,1-.065.25l-1.753,4.19-1.759-3.74a2.3,2.3,0,0,1-.294-0.78,0.536,0.536,0,0,1,.566-0.44h-2.031a0.885,0.885,0,0,1,.439.18,2.755,2.755,0,0,1,.528.84l2.214,4.75-0.795,1.9a1.216,1.216,0,0,1-.111.13,2.685,2.685,0,0,1-.626.36,0.852,0.852,0,0,0-.637.65c0,0.16.048,0.25,0.287,0.25a0.656,0.656,0,0,0,.494-0.27,3.88,3.88,0,0,0,.548-0.99l0.006,0.01,2.97-7.11a1.99,1.99,0,0,1,.278-0.42,1.04,1.04,0,0,1,.587-0.28h-1.487Z" transform="translate(-60.969 -1141.88)"/>
</svg>
