<svg xmlns="http://www.w3.org/2000/svg" width="379.032" height="33.34" viewBox="0 0 379.032 33.34">
  <defs>
    <style>
      .cls-1 {
        fill: #9a5f5f;
        fill-rule: evenodd;
      }
    </style>
  </defs>
  <path id="The_sun_shines_all_over_the_window_the_fragrance_of_flowers_flo" data-name="The sun shines all over the window the fragrance of flowers flo" class="cls-1" d="M285.9,8492.1a0.769,0.769,0,0,1,.314-0.24,1.77,1.77,0,0,1,.629-0.16,10.833,10.833,0,0,1,1.145-.05,12.78,12.78,0,0,1,1.292.06,2.155,2.155,0,0,1,.11.54c0.023,0.23.037,0.55,0.044,0.97s0.01,1.12.01,2.1c0,0.33,0,.61-0.006.85s-0.012.65-.021,1.22-0.014.84-.014,0.81a6.378,6.378,0,0,0-.054.77,1.1,1.1,0,0,1-.055.41,0.45,0.45,0,0,1-.263.22,4.058,4.058,0,0,1-.687.2c-0.223.05-.365,0.09-0.424,0.11a0.535,0.535,0,0,0,.092.18,0.2,0.2,0,0,0,.147.05c0.028,0,.187-0.03.479-0.08a9.782,9.782,0,0,1,1.456-.12c0.187,0,.433.01,0.738,0.04,0.21,0.01.454,0.02,0.732,0.04,0.109,0,.2-0.01.266-0.01a0.563,0.563,0,0,0,.014-0.16,0.379,0.379,0,0,0-.308-0.09,4.188,4.188,0,0,1-.666-0.13,0.5,0.5,0,0,1-.291-0.29,1.808,1.808,0,0,1-.116-0.63q-0.021-.42-0.021-1.44c0-.54.01-1.17,0.014-1.91s0.009-1.18.014-1.34c0.027-.66.041-1.06,0.041-1.21l0.041-.91a0.306,0.306,0,0,1,.068-0.2,0.616,0.616,0,0,1,.274-0.05c0.145-.01.446-0.01,0.9-0.01a6.328,6.328,0,0,1,1.36.1,1.4,1.4,0,0,1,.616.26c-0.014.26-.032,0.47-0.055,0.62l0.294-.05a8.533,8.533,0,0,1,.376-1.4,0.511,0.511,0,0,1-.178-0.17,0.539,0.539,0,0,1-.2.16,1.088,1.088,0,0,1-.383.04c-0.068,0-.337.01-0.806,0.01s-0.747.02-.833,0.02h-3.458a19.494,19.494,0,0,1-1.988-.06,0.741,0.741,0,0,1-.294-0.07,1.382,1.382,0,0,1-.246-0.19q-0.255.765-.578,1.62l0.232,0.06A3.834,3.834,0,0,1,285.9,8492.1Zm9.369-.59a0.425,0.425,0,0,1,.386.44,8.7,8.7,0,0,1,.078,1.37c0,0.67,0,1.11-.013,1.3l-0.028,1.91c-0.022.51-.041,1.13-0.054,1.84a6.1,6.1,0,0,1-.072.9,0.446,0.446,0,0,1-.191.32,1.974,1.974,0,0,1-.578.18l-0.014.22c0.584-.04,1.128-0.07,1.634-0.07a9.3,9.3,0,0,1,.957.03v-0.24a3.931,3.931,0,0,1-.69-0.09,0.231,0.231,0,0,1-.164-0.16,2.513,2.513,0,0,1-.089-0.86c0-.1.008-0.2,0.01-0.28s0-.19,0-0.29l0.062-1.65c0.018-.3.027-0.51,0.027-0.64a4.694,4.694,0,0,1,.718-0.27,3.035,3.035,0,0,1,.889-0.15,0.94,0.94,0,0,1,1,.58,6.015,6.015,0,0,1,.219,1.94,11.891,11.891,0,0,1-.045,1.24,1.087,1.087,0,0,1-.171.53,0.7,0.7,0,0,1-.386.22,0.115,0.115,0,0,0-.109.09c0,0.07.022,0.1,0.068,0.1a2.671,2.671,0,0,1,.3-0.07c0.013,0,.267,0,0.76-0.01h1.285l0.013-.21a1.894,1.894,0,0,1-.787-0.1,0.433,0.433,0,0,1-.142-0.39c0-.02,0-0.11.01-0.27s0.012-.33.017-0.52,0.008-.34.01-0.44,0-.22,0-0.34a12.732,12.732,0,0,0-.072-1.52,2.005,2.005,0,0,0-.373-0.98,1.109,1.109,0,0,0-.957-0.4,3.082,3.082,0,0,0-.967.16c-0.335.11-.771,0.28-1.309,0.52l0.041-1.39q0.027-1.245.082-2.04a10.118,10.118,0,0,1,.185-1.42l-0.226-.11-0.226.12-1.326.65c-0.032.02-.1,0.05-0.2,0.1v0.26a4.4,4.4,0,0,1,.431-0.11h0Zm10.7,4.62a0.458,0.458,0,0,1-.2-0.03,0.5,0.5,0,0,1-.116-0.14,2.131,2.131,0,0,0-.53-0.77,1.9,1.9,0,0,0-.649-0.38,2.463,2.463,0,0,0-.639-0.1,1.807,1.807,0,0,0-.786.3,2.718,2.718,0,0,0-.937.94,2.928,2.928,0,0,0-.417,1.62,2.8,2.8,0,0,0,.547,1.7,1.8,1.8,0,0,0,1.525.74,3.792,3.792,0,0,0,2.112-.86l-0.123-.16a2.786,2.786,0,0,1-.773.41,2.017,2.017,0,0,1-.656.12,1.557,1.557,0,0,1-1.271-.69,2.06,2.06,0,0,1-.366-0.71,5.32,5.32,0,0,1-.127-1l3.418-.74Zm-3.128-.44a0.749,0.749,0,0,1,.728-0.54,1.166,1.166,0,0,1,.715.22,1.869,1.869,0,0,1,.468.48,0.9,0.9,0,0,1,.164.38,0.107,0.107,0,0,1-.1.1,2.67,2.67,0,0,1-.451.12c-0.082.01-.243,0.05-0.482,0.1a3.9,3.9,0,0,0-.413.11l-0.9.19A3.974,3.974,0,0,1,302.851,8495.69Zm7.342,3.15a2.546,2.546,0,0,1,.058.47,2.267,2.267,0,0,1-.054.39c0.05,0.01.159,0.04,0.328,0.09s0.288,0.09.356,0.1,0.188,0.03.357,0.05a2.29,2.29,0,0,0,.39.04,2.743,2.743,0,0,0,.753-0.11,3.555,3.555,0,0,0,.939-0.47,0.672,0.672,0,0,0,.3-0.38,1.484,1.484,0,0,0,.1-0.51,1.267,1.267,0,0,0-.4-1,4.079,4.079,0,0,0-.973-0.62l-0.418-.2a2.5,2.5,0,0,1-.624-0.39,0.608,0.608,0,0,1-.165-0.45,0.78,0.78,0,0,1,.816-0.8,1.183,1.183,0,0,1,.511.15,1.949,1.949,0,0,1,.521.37,0.944,0.944,0,0,1,.285.45h0.239l-0.225-1.16a9,9,0,0,0-1.1-.1,2.047,2.047,0,0,0-.969.22,1.712,1.712,0,0,0-.655.57,1.217,1.217,0,0,0-.226.66,0.872,0.872,0,0,0,.267.66,3.232,3.232,0,0,0,.72.49l0.513,0.24a3.738,3.738,0,0,1,.761.5,0.97,0.97,0,0,1,.33.77,0.587,0.587,0,0,1-.321.6,1.646,1.646,0,0,1-.643.13,1.571,1.571,0,0,1-.82-0.23,2.355,2.355,0,0,1-.6-0.53,0.917,0.917,0,0,1-.222-0.43l-0.24-.01A2.626,2.626,0,0,1,310.193,8498.84Zm4.693-3.22a0.242,0.242,0,0,1,.263.21,2.825,2.825,0,0,1,.031.63l-0.055,1.53a2.11,2.11,0,0,0,.4,1.61,1.277,1.277,0,0,0,.873.42,6.482,6.482,0,0,0,2.32-.86,5.718,5.718,0,0,0,.186.98q0.8-.3,1.571-0.51v-0.31a2.578,2.578,0,0,1-.766.17,5.166,5.166,0,0,1-.13-1.4c0-.2.011-0.52,0.031-0.94s0.043-.82.069-1.2,0.048-.76.071-1.17l-1.825.43,0.014,0.26a1.752,1.752,0,0,1,.577.09,0.439,0.439,0,0,1,.236.34,3.823,3.823,0,0,1,.041.89l-0.041,1.4c-0.013.1-.02,0.33-0.02,0.67-0.128.06-.3,0.15-0.529,0.25a3.877,3.877,0,0,1-.593.24,1.761,1.761,0,0,1-.494.08,0.909,0.909,0,0,1-.955-0.51,3.445,3.445,0,0,1-.2-1.28c0-.22.029-0.79,0.086-1.72l0.085-1.18a0.1,0.1,0,0,0-.1-0.12l-0.137.05-1.524.85v0.28a1.739,1.739,0,0,1,.52-0.18h0Zm7.51,4.22c0.292,0.01.532,0.02,0.719,0.04s0.331,0.02.432,0.03l0.014-.21a2.352,2.352,0,0,1-.6-0.12,0.453,0.453,0,0,1-.229-0.14,0.6,0.6,0,0,1-.065-0.25c-0.027-.25-0.036-0.76-0.027-1.54l0.041-1.81a4.114,4.114,0,0,1,1.043-.41,3.681,3.681,0,0,1,.662-0.09,0.873,0.873,0,0,1,.722.28,1.23,1.23,0,0,1,.283.66,7.4,7.4,0,0,1,.052.98q0,0.405-.038,1.14a3.2,3.2,0,0,1-.14.95,1.083,1.083,0,0,1-.773.39v0.2a12.574,12.574,0,0,1,1.374-.09,6.951,6.951,0,0,1,1.19.09l-0.014-.21a1.67,1.67,0,0,0-.348-0.09,1.124,1.124,0,0,1-.349-0.12,2.891,2.891,0,0,1-.089-1.05v-1.63a6.654,6.654,0,0,0-.072-1.09,1.2,1.2,0,0,0-.375-0.7,1.329,1.329,0,0,0-.965-0.29,2.661,2.661,0,0,0-.928.18,9.305,9.305,0,0,0-1.235.6,5.167,5.167,0,0,0-.028-0.65c-0.018-.14-0.061-0.2-0.13-0.2a1.165,1.165,0,0,0-.309.13,5.185,5.185,0,0,1-.518.25,5.829,5.829,0,0,1-.786.29,0.424,0.424,0,0,1,.014.13,2.655,2.655,0,0,1,.626.13,0.445,0.445,0,0,1,.218.36,6.96,6.96,0,0,1,.052,1.06c0,0.38-.007.74-0.021,1.11a9.137,9.137,0,0,1-.075.92,0.7,0.7,0,0,1-.075.26,0.491,0.491,0,0,1-.226.17,2.363,2.363,0,0,1-.54.14l0.014,0.2h1.5Zm8.736-1a2.636,2.636,0,0,1,.058.47,2.3,2.3,0,0,1-.055.39c0.05,0.01.16,0.04,0.329,0.09s0.287,0.09.356,0.1,0.187,0.03.356,0.05a2.29,2.29,0,0,0,.39.04,2.756,2.756,0,0,0,.754-0.11,3.566,3.566,0,0,0,.938-0.47,0.664,0.664,0,0,0,.3-0.38,1.484,1.484,0,0,0,.1-0.51,1.263,1.263,0,0,0-.4-1,4.052,4.052,0,0,0-.972-0.62l-0.418-.2a2.5,2.5,0,0,1-.624-0.39,0.608,0.608,0,0,1-.165-0.45,0.78,0.78,0,0,1,.816-0.8,1.186,1.186,0,0,1,.511.15,1.981,1.981,0,0,1,.521.37,0.949,0.949,0,0,1,.284.45h0.24l-0.226-1.16a8.992,8.992,0,0,0-1.1-.1,2.053,2.053,0,0,0-.97.22,1.716,1.716,0,0,0-.654.57,1.209,1.209,0,0,0-.226.66,0.872,0.872,0,0,0,.267.66,3.247,3.247,0,0,0,.719.49l0.514,0.24a3.731,3.731,0,0,1,.76.5,0.971,0.971,0,0,1,.331.77,0.587,0.587,0,0,1-.322.6,1.637,1.637,0,0,1-.642.13,1.574,1.574,0,0,1-.821-0.23,2.372,2.372,0,0,1-.6-0.53,0.917,0.917,0,0,1-.222-0.43l-0.239-.01A2.729,2.729,0,0,1,331.132,8498.84Zm4.72-7.33a0.424,0.424,0,0,1,.386.44,8.672,8.672,0,0,1,.079,1.37c0,0.67,0,1.11-.014,1.3l-0.027,1.91c-0.023.51-.041,1.13-0.055,1.84a6.1,6.1,0,0,1-.072.9,0.446,0.446,0,0,1-.191.32,1.974,1.974,0,0,1-.578.18l-0.014.22c0.584-.04,1.128-0.07,1.634-0.07a9.3,9.3,0,0,1,.957.03v-0.24a3.947,3.947,0,0,1-.69-0.09,0.232,0.232,0,0,1-.164-0.16,2.513,2.513,0,0,1-.089-0.86c0-.1.008-0.2,0.01-0.28s0-.19,0-0.29l0.061-1.65c0.018-.3.027-0.51,0.027-0.64a4.736,4.736,0,0,1,.718-0.27,3.035,3.035,0,0,1,.889-0.15,0.94,0.94,0,0,1,1,.58,6.015,6.015,0,0,1,.219,1.94,11.891,11.891,0,0,1-.045,1.24,1.066,1.066,0,0,1-.171.53,0.7,0.7,0,0,1-.386.22,0.115,0.115,0,0,0-.109.09c0,0.07.022,0.1,0.068,0.1a2.671,2.671,0,0,1,.3-0.07c0.013,0,.267,0,0.76-0.01h1.285l0.013-.21a1.894,1.894,0,0,1-.787-0.1,0.433,0.433,0,0,1-.142-0.39c0-.02,0-0.11.01-0.27s0.013-.33.017-0.52,0.008-.34.01-0.44,0-.22,0-0.34a12.732,12.732,0,0,0-.072-1.52,2.005,2.005,0,0,0-.373-0.98,1.109,1.109,0,0,0-.957-0.4,3.082,3.082,0,0,0-.967.16c-0.335.11-.771,0.28-1.309,0.52l0.041-1.39q0.027-1.245.082-2.04a10.268,10.268,0,0,1,.185-1.42l-0.226-.11-0.225.12-1.327.65c-0.032.02-.1,0.05-0.2,0.1v0.26a4.4,4.4,0,0,1,.431-0.11h0Zm9.092,8.39-0.082-.2a2.582,2.582,0,0,0-.479-0.04,1.784,1.784,0,0,1-.328-0.06,0.256,0.256,0,0,1-.137-0.16,4.487,4.487,0,0,1-.085-0.86c-0.016-.43-0.024-0.75-0.024-0.98q0-.465.031-1.05t0.078-1.14a6.1,6.1,0,0,1,.116-0.82,0.4,0.4,0,0,0-.129-0.03,4.74,4.74,0,0,1-1.593.9,0.133,0.133,0,0,0-.123.14,0.463,0.463,0,0,0,.314.08,1.187,1.187,0,0,1,.342.07,0.753,0.753,0,0,1,.12.38c0.02,0.18.03,0.6,0.03,1.24,0,0.05,0,.28-0.017.67s-0.026.73-.044,1.02a2.025,2.025,0,0,1-.062.49,0.884,0.884,0,0,1-.656.2l-0.027.21Zm-1.566-7.74a0.5,0.5,0,0,0,.376.16,0.473,0.473,0,0,0,.373-0.16,0.519,0.519,0,0,0,.147-0.37,0.538,0.538,0,0,0-.151-0.38,0.5,0.5,0,0,0-.369-0.15,0.526,0.526,0,0,0-.376.15,0.492,0.492,0,0,0-.157.38A0.5,0.5,0,0,0,343.378,8492.16Zm3.477,7.68c0.292,0.01.532,0.02,0.719,0.04s0.331,0.02.432,0.03l0.014-.21a2.352,2.352,0,0,1-.6-0.12,0.453,0.453,0,0,1-.229-0.14,0.6,0.6,0,0,1-.065-0.25c-0.027-.25-0.036-0.76-0.027-1.54l0.041-1.81a4.114,4.114,0,0,1,1.043-.41,3.681,3.681,0,0,1,.662-0.09,0.873,0.873,0,0,1,.722.28,1.23,1.23,0,0,1,.283.66,7.4,7.4,0,0,1,.052.98q0,0.405-.038,1.14a3.2,3.2,0,0,1-.14.95,1.083,1.083,0,0,1-.773.39v0.2a12.574,12.574,0,0,1,1.374-.09,6.951,6.951,0,0,1,1.19.09l-0.014-.21a1.67,1.67,0,0,0-.348-0.09,1.124,1.124,0,0,1-.349-0.12,2.891,2.891,0,0,1-.089-1.05v-1.63a6.654,6.654,0,0,0-.072-1.09,1.2,1.2,0,0,0-.375-0.7,1.329,1.329,0,0,0-.965-0.29,2.661,2.661,0,0,0-.928.18,9.305,9.305,0,0,0-1.235.6,5.167,5.167,0,0,0-.028-0.65c-0.018-.14-0.061-0.2-0.13-0.2a1.165,1.165,0,0,0-.309.13,5.185,5.185,0,0,1-.518.25,5.829,5.829,0,0,1-.786.29,0.458,0.458,0,0,1,.014.13,2.655,2.655,0,0,1,.626.13,0.445,0.445,0,0,1,.218.36,7.1,7.1,0,0,1,.052,1.06c0,0.38-.007.74-0.021,1.11a9.137,9.137,0,0,1-.075.92,0.7,0.7,0,0,1-.075.26,0.491,0.491,0,0,1-.226.17,2.363,2.363,0,0,1-.54.14l0.014,0.2h1.5Zm9.634-3.71a0.456,0.456,0,0,1-.2-0.03,0.5,0.5,0,0,1-.116-0.14,2.131,2.131,0,0,0-.53-0.77,1.91,1.91,0,0,0-.649-0.38,2.463,2.463,0,0,0-.639-0.1,1.807,1.807,0,0,0-.786.3,2.718,2.718,0,0,0-.937.94,2.928,2.928,0,0,0-.417,1.62,2.8,2.8,0,0,0,.547,1.7,1.8,1.8,0,0,0,1.524.74,3.792,3.792,0,0,0,2.113-.86l-0.123-.16a2.786,2.786,0,0,1-.773.41,2.017,2.017,0,0,1-.656.12,1.559,1.559,0,0,1-1.272-.69,2.074,2.074,0,0,1-.365-0.71,5.32,5.32,0,0,1-.127-1l3.418-.74Zm-3.127-.44a0.748,0.748,0,0,1,.728-0.54,1.163,1.163,0,0,1,.714.22,1.874,1.874,0,0,1,.469.48,0.9,0.9,0,0,1,.164.38,0.107,0.107,0,0,1-.1.1,2.67,2.67,0,0,1-.451.12c-0.082.01-.243,0.05-0.482,0.1a4.033,4.033,0,0,0-.414.11l-0.9.19A3.942,3.942,0,0,1,353.362,8495.69Zm3.91,3.15a2.546,2.546,0,0,1,.058.47,2.267,2.267,0,0,1-.054.39c0.05,0.01.159,0.04,0.328,0.09s0.288,0.09.356,0.1,0.188,0.03.357,0.05a2.29,2.29,0,0,0,.39.04,2.743,2.743,0,0,0,.753-0.11,3.555,3.555,0,0,0,.939-0.47,0.668,0.668,0,0,0,.3-0.38,1.484,1.484,0,0,0,.1-0.51,1.267,1.267,0,0,0-.4-1,4.059,4.059,0,0,0-.973-0.62l-0.418-.2a2.5,2.5,0,0,1-.624-0.39,0.608,0.608,0,0,1-.165-0.45,0.78,0.78,0,0,1,.816-0.8,1.183,1.183,0,0,1,.511.15,1.949,1.949,0,0,1,.521.37,0.944,0.944,0,0,1,.285.45h0.239l-0.225-1.16a9,9,0,0,0-1.1-.1,2.047,2.047,0,0,0-.969.22,1.712,1.712,0,0,0-.655.57,1.217,1.217,0,0,0-.226.66,0.872,0.872,0,0,0,.267.66,3.256,3.256,0,0,0,.72.49l0.513,0.24a3.711,3.711,0,0,1,.761.5,0.97,0.97,0,0,1,.33.77,0.587,0.587,0,0,1-.321.6,1.642,1.642,0,0,1-.643.13,1.573,1.573,0,0,1-.82-0.23,2.355,2.355,0,0,1-.6-0.53,0.917,0.917,0,0,1-.222-0.43l-0.24-.01A2.626,2.626,0,0,1,357.272,8498.84Zm9.082-3.23a0.37,0.37,0,0,1,.215-0.34,0.873,0.873,0,0,1,.427-0.12,1.037,1.037,0,0,1,.776.34,1.262,1.262,0,0,1,.332.92v0.23l-0.034.84q-0.63.09-1.2,0.21a4.521,4.521,0,0,0-1.086.39,0.761,0.761,0,0,0-.366.35,1.611,1.611,0,0,0-.113.69,1.073,1.073,0,0,0,.212.73,0.8,0.8,0,0,0,.629.24,4.484,4.484,0,0,0,1.941-.7,1.828,1.828,0,0,0,.25.5,0.425,0.425,0,0,0,.311.2,1.955,1.955,0,0,0,.342-0.1l1-.4v-0.28a1.926,1.926,0,0,1-.71.2,0.33,0.33,0,0,1-.308-0.33,2.729,2.729,0,0,1-.075-0.6c0-.15.009-0.35,0.027-0.59l0.027-.51c0.023-.53.035-0.83,0.035-0.92a3.534,3.534,0,0,0-.062-0.73,1.524,1.524,0,0,0-.14-0.42,1.257,1.257,0,0,0-.222-0.27,2.308,2.308,0,0,0-.438-0.33,0.927,0.927,0,0,0-.458-0.16,2.836,2.836,0,0,0-.748.18,3.73,3.73,0,0,0-.964.48,0.828,0.828,0,0,0-.427.65,1.526,1.526,0,0,0,.054.32l0.841-.38a0.873,0.873,0,0,1-.068-0.29h0Zm0.367,4.02a0.515,0.515,0,0,1-.46-0.27,1.137,1.137,0,0,1-.167-0.59,0.821,0.821,0,0,1,.545-0.7,2.727,2.727,0,0,1,1.444-.22q-0.062,1.065-.041,1.29a3.97,3.97,0,0,1-1.321.49h0Zm4.726,0.27q0.463,0,1.8.09v-0.26a4.5,4.5,0,0,1-.622-0.12,0.53,0.53,0,0,1-.41-0.27,16.087,16.087,0,0,1-.1-2.61l0.055-3.29a14.792,14.792,0,0,1,.267-2.92h-0.206a10.4,10.4,0,0,1-1.845.92v0.22c0.032-.01.062-0.01,0.089-0.02a0.289,0.289,0,0,0,.09-0.01c0.032,0,.076-0.01.131-0.01a0.52,0.52,0,0,1,.468.18,5.643,5.643,0,0,1,.186,2.05c0,0.57-.012,1.22-0.034,1.94s-0.048,1.36-.076,1.92-0.052.91-.075,1.07a1.149,1.149,0,0,1-.266.67,1.364,1.364,0,0,1-.725.3v0.21q0.649-.06,1.272-0.06h0Zm3.363,0q0.465,0,1.8.09v-0.26a4.5,4.5,0,0,1-.622-0.12,0.53,0.53,0,0,1-.41-0.27,16.154,16.154,0,0,1-.1-2.61l0.054-3.29a14.872,14.872,0,0,1,.267-2.92H375.6a10.331,10.331,0,0,1-1.845.92v0.22c0.032-.01.062-0.01,0.09-0.02a0.286,0.286,0,0,0,.089-0.01c0.032,0,.076-0.01.131-0.01a0.52,0.52,0,0,1,.468.18,5.643,5.643,0,0,1,.186,2.05c0,0.57-.011,1.22-0.034,1.94s-0.048,1.36-.075,1.92-0.053.91-.075,1.07a1.156,1.156,0,0,1-.267.67,1.361,1.361,0,0,1-.725.3v0.21q0.649-.06,1.272-0.06h0Zm6.313-1.02a2.534,2.534,0,0,0,1.087.86,3.237,3.237,0,0,0,1.254.27,2.7,2.7,0,0,0,1.425-.38,2.664,2.664,0,0,0,.957-1.01,2.7,2.7,0,0,0,.339-1.33,2.533,2.533,0,0,0-.209-1.02,2.473,2.473,0,0,0-.571-0.82,2.506,2.506,0,0,0-.844-0.55,2.7,2.7,0,0,0-1.022-.2,3.142,3.142,0,0,0-1.114.19,2.74,2.74,0,0,0-.909.55,2.529,2.529,0,0,0-.834,1.93A2.455,2.455,0,0,0,381.123,8498.88Zm0.663-2.89a1.69,1.69,0,0,1,.577-0.7,1.433,1.433,0,0,1,.834-0.25,1.651,1.651,0,0,1,1.05.37,2.582,2.582,0,0,1,.745.96,2.924,2.924,0,0,1,.27,1.22,2.549,2.549,0,0,1-.232,1.1,1.794,1.794,0,0,1-.623.74,1.472,1.472,0,0,1-1.869-.14,2.625,2.625,0,0,1-.708-1.03,3.372,3.372,0,0,1-.253-1.26A2.385,2.385,0,0,1,381.786,8495.99Zm8.1,3.4,1.23-2.71c0.028-.05.073-0.15,0.137-0.3s0.1-.24.116-0.26a3.055,3.055,0,0,1,.318-0.61,1.223,1.223,0,0,1,.537-0.46v-0.21a3.2,3.2,0,0,1-.786.09c-0.183,0-.4-0.02-0.643-0.04l-0.478.01-0.028.22a1.285,1.285,0,0,1,.534.11,0.4,0.4,0,0,1,.2.41,4.4,4.4,0,0,1-.4,1.38,10.313,10.313,0,0,1-.852,1.71q-0.24-.525-0.651-1.77a7.31,7.31,0,0,1-.412-1.56,0.171,0.171,0,0,1,.127-0.17,2.279,2.279,0,0,1,.612-0.11l0.027-.23c-0.666.03-1.249,0.05-1.75,0.05-0.333,0-.574,0-0.725-0.01v0.16c0.069,0.04.154,0.08,0.257,0.13s0.181,0.11.235,0.15a5.9,5.9,0,0,1,.481,1.01c0.265,0.63.527,1.3,0.785,2.02a17.908,17.908,0,0,1,.574,1.86h0.2Zm7.2-3.26a0.453,0.453,0,0,1-.2-0.03,0.5,0.5,0,0,1-.116-0.14,2.131,2.131,0,0,0-.53-0.77,1.91,1.91,0,0,0-.649-0.38,2.464,2.464,0,0,0-.64-0.1,1.816,1.816,0,0,0-.786.3,2.725,2.725,0,0,0-.936.94,2.928,2.928,0,0,0-.417,1.62,2.8,2.8,0,0,0,.547,1.7,1.794,1.794,0,0,0,1.524.74,3.792,3.792,0,0,0,2.112-.86l-0.123-.16a2.783,2.783,0,0,1-.772.41,2.022,2.022,0,0,1-.656.12,1.559,1.559,0,0,1-1.272-.69,2.1,2.1,0,0,1-.366-0.71,5.419,5.419,0,0,1-.126-1l3.418-.74Zm-3.127-.44a0.747,0.747,0,0,1,.728-0.54,1.165,1.165,0,0,1,.714.22,1.853,1.853,0,0,1,.468.48,0.893,0.893,0,0,1,.165.38,0.107,0.107,0,0,1-.1.1,2.67,2.67,0,0,1-.451.12c-0.082.01-.243,0.05-0.482,0.1a3.951,3.951,0,0,0-.414.11l-0.9.19A3.911,3.911,0,0,1,393.954,8495.69Zm5.957,4.19c0.091,0,.269,0,0.534-0.01s0.407-.02.43-0.02l0.014-.28-0.814.02-0.177.01a1.4,1.4,0,0,1-.26-0.02,0.269,0.269,0,0,1-.137-0.14,5.543,5.543,0,0,1-.137-1.64q0-.075.041-1.23a2.5,2.5,0,0,1,.038-0.49,0.7,0.7,0,0,1,.2-0.24,2.01,2.01,0,0,1,.424-0.28,1.062,1.062,0,0,1,.485-0.15,0.4,0.4,0,0,1,.308.12,0.56,0.56,0,0,1,.109.36,0.953,0.953,0,0,0,.526-0.21,0.51,0.51,0,0,0,.219-0.43,0.5,0.5,0,0,0-.116-0.36,1.23,1.23,0,0,0-.321-0.22,0.217,0.217,0,0,1-.1-0.07l-0.055-.02c-0.091.06-.214,0.13-0.369,0.23s-0.264.16-.328,0.19a1.276,1.276,0,0,1-.171.1c-0.027.02-.059,0.04-0.1,0.07l-0.731.41c0-.49-0.009-0.88-0.028-1.16l-1.763,1.03-0.028.22a1.61,1.61,0,0,1,.431-0.05,0.41,0.41,0,0,1,.444.27,4.271,4.271,0,0,1,.089,1.1c0,0.69-.01,1.21-0.03,1.55a2.829,2.829,0,0,1-.127.76,0.63,0.63,0,0,1-.225.32,2.049,2.049,0,0,1-.472.13l-0.014.2Zm6.269-1.21a1.4,1.4,0,0,0,.318,1.04,1.04,1.04,0,0,0,.762.31,3.165,3.165,0,0,0,1.152-.26,2.515,2.515,0,0,0,.878-0.51c0-.03-0.008-0.05-0.01-0.06a0.858,0.858,0,0,0-.017-0.09,5.616,5.616,0,0,1-.762.31,2.278,2.278,0,0,1-.557.1,0.708,0.708,0,0,1-.742-0.4,2.721,2.721,0,0,1-.14-1.02l0.034-2.13c0-.14.01-0.28,0.017-0.4a1.047,1.047,0,0,1,.034-0.26,0.156,0.156,0,0,1,.089-0.1,0.866,0.866,0,0,1,.195-0.02c0.328,0.01.57,0.02,0.724,0.03s0.244,0.01.267,0.01a5.836,5.836,0,0,0,.732-0.04l0.013-.42c-0.264,0-.508.01-0.731,0.01a12.708,12.708,0,0,1-1.285-.06l0.068-1.23a9.04,9.04,0,0,1-.793.93,5.069,5.069,0,0,1-.93.69,0.725,0.725,0,0,1-.013.17,5.16,5.16,0,0,1,.731.05l-0.034,2.66v0.69Zm3.78-7.16a0.424,0.424,0,0,1,.386.44,8.551,8.551,0,0,1,.079,1.37c0,0.67,0,1.11-.014,1.3l-0.027,1.91c-0.023.51-.041,1.13-0.055,1.84a6,6,0,0,1-.071.9,0.45,0.45,0,0,1-.192.32,1.963,1.963,0,0,1-.578.18l-0.013.22c0.583-.04,1.128-0.07,1.634-0.07a9.329,9.329,0,0,1,.957.03v-0.24a3.965,3.965,0,0,1-.691-0.09,0.234,0.234,0,0,1-.164-0.16,2.54,2.54,0,0,1-.089-0.86c0-.1.008-0.2,0.011-0.28s0-.19,0-0.29l0.061-1.65c0.019-.3.028-0.51,0.028-0.64a4.694,4.694,0,0,1,.718-0.27,3.024,3.024,0,0,1,.888-0.15,0.94,0.94,0,0,1,1,.58,6.015,6.015,0,0,1,.219,1.94,12.26,12.26,0,0,1-.044,1.24,1.087,1.087,0,0,1-.171.53,0.7,0.7,0,0,1-.386.22,0.116,0.116,0,0,0-.11.09c0,0.07.023,0.1,0.068,0.1a2.789,2.789,0,0,1,.3-0.07c0.014,0,.267,0,0.76-0.01h1.285l0.014-.21a1.89,1.89,0,0,1-.787-0.1,0.433,0.433,0,0,1-.143-0.39c0-.02,0-0.11.01-0.27s0.013-.33.018-0.52,0.007-.34.01-0.44,0-.22,0-0.34a12.732,12.732,0,0,0-.072-1.52,2,2,0,0,0-.372-0.98,1.112,1.112,0,0,0-.957-0.4,3.082,3.082,0,0,0-.967.16c-0.335.11-.772,0.28-1.31,0.52l0.041-1.39q0.029-1.245.083-2.04a10.128,10.128,0,0,1,.184-1.42l-0.225-.11-0.226.12-1.326.65c-0.032.02-.1,0.05-0.2,0.1v0.26a4.422,4.422,0,0,1,.43-0.11h0Zm10.705,4.62a0.453,0.453,0,0,1-.2-0.03,0.486,0.486,0,0,1-.116-0.14,2.143,2.143,0,0,0-.53-0.77,1.91,1.91,0,0,0-.649-0.38,2.464,2.464,0,0,0-.64-0.1,1.816,1.816,0,0,0-.786.3,2.725,2.725,0,0,0-.936.94,2.928,2.928,0,0,0-.417,1.62,2.8,2.8,0,0,0,.547,1.7,1.794,1.794,0,0,0,1.524.74,3.792,3.792,0,0,0,2.112-.86l-0.123-.16a2.783,2.783,0,0,1-.772.41,2.022,2.022,0,0,1-.656.12,1.559,1.559,0,0,1-1.272-.69,2.1,2.1,0,0,1-.366-0.71,5.419,5.419,0,0,1-.126-1l3.418-.74Zm-3.127-.44a0.747,0.747,0,0,1,.728-0.54,1.165,1.165,0,0,1,.714.22,1.853,1.853,0,0,1,.468.48,0.893,0.893,0,0,1,.165.38,0.107,0.107,0,0,1-.1.1,2.67,2.67,0,0,1-.451.12c-0.082.01-.243,0.05-0.482,0.1a3.951,3.951,0,0,0-.414.11l-0.9.19A3.911,3.911,0,0,1,417.538,8495.69Zm9.864,3.59,1.374-2.84q0.1,0.3.223,0.66c0.08,0.25.127,0.39,0.141,0.43l0.562,1.89q0.055,0.195.117,0.42c0.041,0.16.068,0.28,0.082,0.36h0.208q0.027-.105.175-0.48c0.1-.25.187-0.46,0.266-0.64a2.29,2.29,0,0,1,.2-0.37l0.883-1.75c0.434-.83.721-1.35,0.863-1.55a0.831,0.831,0,0,1,.451-0.36,0.812,0.812,0,0,0,.014-0.18c-0.355.02-.668,0.03-0.936,0.03q-0.459,0-.855-0.03l-0.014.19a1.508,1.508,0,0,1,.31.04,0.384,0.384,0,0,1,.171.12,0.509,0.509,0,0,1,.078.31,2.6,2.6,0,0,1-.229.83q-0.23.57-.513,1.14c-0.19.39-.392,0.78-0.606,1.19q-0.492-1.545-.714-2.34a6.8,6.8,0,0,1-.223-0.89c0-.22.232-0.34,0.694-0.37l0.014-.22-0.438.02c-0.784.03-1.212,0.05-1.285,0.05l-0.677-.01-0.027.22a1.34,1.34,0,0,1,.531.17,1.363,1.363,0,0,1,.32.56,7.475,7.475,0,0,1-.348.88q-0.24.525-.479,0.99c-0.16.32-.276,0.53-0.349,0.66-0.009.03-.032,0.09-0.068,0.19l-0.082-.19c-0.233-.65-0.431-1.25-0.6-1.79a4.588,4.588,0,0,1-.246-1.16,0.233,0.233,0,0,1,.126-0.23,1.214,1.214,0,0,1,.473-0.11l0.041-.26c-0.246.03-.471,0.04-0.676,0.05s-0.581.02-1.128,0.02c-0.224,0-.4.01-0.52,0.02v0.17a1.817,1.817,0,0,1,.445.23,1.246,1.246,0,0,1,.293.42,9.479,9.479,0,0,1,.376.99,23.858,23.858,0,0,1,.92,3.44l0.226-.01a9.424,9.424,0,0,0,.43-0.91h0Zm8.808,0.62-0.082-.2a2.571,2.571,0,0,0-.478-0.04,1.766,1.766,0,0,1-.328-0.06,0.253,0.253,0,0,1-.137-0.16,4.462,4.462,0,0,1-.086-0.86c-0.016-.43-0.024-0.75-0.024-0.98,0-.31.011-0.66,0.031-1.05s0.047-.78.079-1.14a5.938,5.938,0,0,1,.116-0.82,0.408,0.408,0,0,0-.13-0.03,4.721,4.721,0,0,1-1.593.9,0.133,0.133,0,0,0-.123.14,0.468,0.468,0,0,0,.315.08,1.208,1.208,0,0,1,.342.07,0.745,0.745,0,0,1,.119.38c0.021,0.18.031,0.6,0.031,1.24,0,0.05-.006.28-0.017,0.67s-0.026.73-.045,1.02a2.051,2.051,0,0,1-.061.49,0.884,0.884,0,0,1-.656.2l-0.028.21Zm-1.565-7.74a0.5,0.5,0,0,0,.376.16,0.472,0.472,0,0,0,.372-0.16,0.519,0.519,0,0,0,.147-0.37,0.537,0.537,0,0,0-.15-0.38,0.5,0.5,0,0,0-.369-0.15,0.526,0.526,0,0,0-.376.15,0.492,0.492,0,0,0-.157.38A0.5,0.5,0,0,0,434.645,8492.16Zm3.476,7.68c0.293,0.01.532,0.02,0.72,0.04s0.331,0.02.432,0.03l0.013-.21a2.342,2.342,0,0,1-.6-0.12,0.449,0.449,0,0,1-.229-0.14,0.6,0.6,0,0,1-.065-0.25c-0.028-.25-0.037-0.76-0.028-1.54l0.042-1.81a4.1,4.1,0,0,1,1.043-.41,3.673,3.673,0,0,1,.661-0.09,0.876,0.876,0,0,1,.723.28,1.23,1.23,0,0,1,.283.66,7.6,7.6,0,0,1,.051.98q0,0.405-.037,1.14a3.154,3.154,0,0,1-.141.95,1.08,1.08,0,0,1-.772.39v0.2a12.544,12.544,0,0,1,1.374-.09,6.959,6.959,0,0,1,1.19.09l-0.014-.21a1.668,1.668,0,0,0-.349-0.09,1.114,1.114,0,0,1-.348-0.12,2.866,2.866,0,0,1-.089-1.05v-1.63a6.654,6.654,0,0,0-.072-1.09,1.213,1.213,0,0,0-.375-0.7,1.334,1.334,0,0,0-.966-0.29,2.665,2.665,0,0,0-.928.18,9.3,9.3,0,0,0-1.234.6,5.37,5.37,0,0,0-.028-0.65c-0.018-.14-0.062-0.2-0.13-0.2a1.165,1.165,0,0,0-.309.13,5.326,5.326,0,0,1-.518.25,5.829,5.829,0,0,1-.786.29,0.458,0.458,0,0,1,.014.13,2.644,2.644,0,0,1,.625.13,0.443,0.443,0,0,1,.219.36,7.141,7.141,0,0,1,.051,1.06c0,0.38-.007.74-0.02,1.11a8.821,8.821,0,0,1-.076.92,0.66,0.66,0,0,1-.075.26,0.482,0.482,0,0,1-.225.17,2.363,2.363,0,0,1-.54.14l0.013,0.2h1.5Zm9.649-4.93c-0.3-.07-0.561-0.13-0.78-0.17a4.241,4.241,0,0,0-.54-0.05,2.981,2.981,0,0,0-.625.13,4.612,4.612,0,0,0-1.012.44,2.938,2.938,0,0,0-.936.93,2.675,2.675,0,0,0-.407,1.52,2.164,2.164,0,0,0,1.107,1.94,2.117,2.117,0,0,0,.992.26,2.826,2.826,0,0,0,.922-0.16,11.22,11.22,0,0,0,1.176-.56,4.538,4.538,0,0,0,.055.83c0.036,0.19.089,0.28,0.157,0.28a18.046,18.046,0,0,0,1.736-.56v-0.25q-0.266.09-.509,0.15a1.324,1.324,0,0,1-.318.07,0.532,0.532,0,0,1-.188-0.49,12.015,12.015,0,0,1-.065-1.46v-0.67l0.055-2.75,0.027-.68q0.055-1.125.11-1.95a8.222,8.222,0,0,1,.13-1.14l-0.164-.07a9.893,9.893,0,0,1-1.805.92l0.014,0.2a2.205,2.205,0,0,1,.458-0.06,0.514,0.514,0,0,1,.249.05,0.4,0.4,0,0,1,.116.24,6.334,6.334,0,0,1,.086.63v0.95c0,0.48-.014.98-0.041,1.48h0Zm-0.106,3.68a2.6,2.6,0,0,0,0,.27,4.88,4.88,0,0,1-.666.35,1.865,1.865,0,0,1-.721.14,1.945,1.945,0,0,1-1.029-.29,2,2,0,0,1-.742-0.83,2.9,2.9,0,0,1-.273-1.3,1.74,1.74,0,0,1,.864-1.51,1.653,1.653,0,0,1,.831-0.23c0.036,0,.168.02,0.4,0.05a5.015,5.015,0,0,1,.626.12,2.1,2.1,0,0,1,.519.19,0.362,0.362,0,0,1,.236.29l-0.041,2.33C447.667,8498.31,447.666,8498.44,447.664,8498.59Zm2.953,0.29a2.534,2.534,0,0,0,1.087.86,3.241,3.241,0,0,0,1.254.27,2.7,2.7,0,0,0,2.721-2.72,2.533,2.533,0,0,0-.209-1.02,2.485,2.485,0,0,0-.57-0.82,2.52,2.52,0,0,0-.845-0.55,2.7,2.7,0,0,0-1.022-.2,3.142,3.142,0,0,0-1.114.19,2.74,2.74,0,0,0-.909.55,2.529,2.529,0,0,0-.834,1.93A2.455,2.455,0,0,0,450.617,8498.88Zm0.663-2.89a1.692,1.692,0,0,1,.578-0.7,1.428,1.428,0,0,1,.834-0.25,1.65,1.65,0,0,1,1.049.37,2.572,2.572,0,0,1,.745.96,2.924,2.924,0,0,1,.27,1.22,2.534,2.534,0,0,1-.232,1.1,1.8,1.8,0,0,1-.622.74,1.473,1.473,0,0,1-1.87-.14,2.625,2.625,0,0,1-.708-1.03,3.371,3.371,0,0,1-.252-1.26A2.385,2.385,0,0,1,451.28,8495.99Zm7.944,3.29,1.373-2.84q0.1,0.3.223,0.66c0.08,0.25.127,0.39,0.141,0.43l0.563,1.89c0.036,0.13.075,0.27,0.116,0.42s0.069,0.28.083,0.36h0.207q0.029-.105.175-0.48c0.1-.25.187-0.46,0.267-0.64a2.214,2.214,0,0,1,.2-0.37l0.883-1.75c0.433-.83.72-1.35,0.862-1.55a0.829,0.829,0,0,1,.452-0.36,0.894,0.894,0,0,0,.013-0.18q-0.533.03-.936,0.03-0.458,0-.855-0.03l-0.013.19a1.53,1.53,0,0,1,.31.04,0.387,0.387,0,0,1,.17.12,0.509,0.509,0,0,1,.079.31,2.6,2.6,0,0,1-.23.83q-0.23.57-.513,1.14c-0.189.39-.391,0.78-0.606,1.19q-0.492-1.545-.714-2.34a6.887,6.887,0,0,1-.222-0.89c0-.22.231-0.34,0.693-0.37l0.014-.22-0.437.02c-0.784.03-1.213,0.05-1.286,0.05l-0.676-.01-0.028.22a1.328,1.328,0,0,1,.531.17,1.363,1.363,0,0,1,.32.56,7.3,7.3,0,0,1-.348.88q-0.24.525-.479,0.99c-0.159.32-.275,0.53-0.348,0.66-0.009.03-.032,0.09-0.069,0.19l-0.082-.19c-0.233-.65-0.431-1.25-0.6-1.79a4.557,4.557,0,0,1-.247-1.16,0.233,0.233,0,0,1,.126-0.23,1.216,1.216,0,0,1,.474-0.11l0.041-.26c-0.246.03-.472,0.04-0.677,0.05s-0.581.02-1.128,0.02c-0.223,0-.4.01-0.52,0.02v0.17a1.817,1.817,0,0,1,.445.23,1.232,1.232,0,0,1,.293.42,9.479,9.479,0,0,1,.376.99,23.907,23.907,0,0,1,.921,3.44l0.225-.01a9.267,9.267,0,0,0,.431-0.91h0Zm-273,19.39a1.4,1.4,0,0,0,.318,1.04,1.04,1.04,0,0,0,.762.31,3.165,3.165,0,0,0,1.152-.26,2.515,2.515,0,0,0,.878-0.51c0-.03-0.008-0.05-0.01-0.06a0.858,0.858,0,0,0-.017-0.09,5.616,5.616,0,0,1-.762.31,2.278,2.278,0,0,1-.557.1,0.708,0.708,0,0,1-.742-0.4,2.721,2.721,0,0,1-.14-1.02l0.034-2.13c0-.14.01-0.28,0.017-0.4a1.047,1.047,0,0,1,.034-0.26,0.156,0.156,0,0,1,.089-0.1,0.866,0.866,0,0,1,.195-0.02q0.492,0.015.725,0.03c0.154,0.01.243,0.01,0.266,0.01a5.836,5.836,0,0,0,.732-0.04l0.013-.42c-0.264,0-.508.01-0.731,0.01a12.708,12.708,0,0,1-1.285-.06l0.068-1.23a9.04,9.04,0,0,1-.793.93,5.069,5.069,0,0,1-.93.69,0.725,0.725,0,0,1-.013.17,5.16,5.16,0,0,1,.731.05l-0.034,2.66v0.69Zm3.78-7.16a0.424,0.424,0,0,1,.386.44,8.551,8.551,0,0,1,.079,1.37c0,0.67,0,1.11-.014,1.3l-0.027,1.91c-0.023.51-.041,1.13-0.055,1.84a6,6,0,0,1-.071.9,0.447,0.447,0,0,1-.192.32,1.964,1.964,0,0,1-.577.18l-0.014.22c0.583-.04,1.128-0.07,1.634-0.07a9.329,9.329,0,0,1,.957.03v-0.24a3.965,3.965,0,0,1-.691-0.09,0.234,0.234,0,0,1-.164-0.16,2.54,2.54,0,0,1-.089-0.86c0-.1.008-0.2,0.011-0.28s0-.19,0-0.29l0.062-1.65c0.018-.3.027-0.51,0.027-0.64a4.694,4.694,0,0,1,.718-0.27,3.024,3.024,0,0,1,.888-0.15,0.94,0.94,0,0,1,1,.58,6.015,6.015,0,0,1,.219,1.94,12.26,12.26,0,0,1-.044,1.24,1.087,1.087,0,0,1-.171.53,0.7,0.7,0,0,1-.386.22,0.116,0.116,0,0,0-.11.09c0,0.07.023,0.1,0.068,0.1a2.789,2.789,0,0,1,.3-0.07c0.014,0,.267,0,0.76-0.01h1.285l0.014-.21a1.89,1.89,0,0,1-.787-0.1,0.433,0.433,0,0,1-.143-0.39c0-.02,0-0.11.01-0.27s0.013-.33.018-0.52,0.007-.34.01-0.44,0-.22,0-0.34a12.732,12.732,0,0,0-.072-1.52,2,2,0,0,0-.372-0.98,1.112,1.112,0,0,0-.957-0.4,3.082,3.082,0,0,0-.967.16,14.085,14.085,0,0,0-1.309.52l0.041-1.39q0.027-1.245.082-2.04a10.279,10.279,0,0,1,.184-1.42l-0.225-.11-0.226.12-1.326.65c-0.032.02-.1,0.05-0.2,0.1v0.26a4.422,4.422,0,0,1,.43-0.11h0Zm10.705,4.62a0.453,0.453,0,0,1-.2-0.03,0.5,0.5,0,0,1-.116-0.14,2.131,2.131,0,0,0-.53-0.77,1.91,1.91,0,0,0-.649-0.38,2.464,2.464,0,0,0-.64-0.1,1.816,1.816,0,0,0-.786.3,2.725,2.725,0,0,0-.936.94,2.928,2.928,0,0,0-.417,1.62,2.8,2.8,0,0,0,.547,1.7,1.794,1.794,0,0,0,1.524.74,3.792,3.792,0,0,0,2.112-.86l-0.123-.16a2.783,2.783,0,0,1-.772.41,2.022,2.022,0,0,1-.656.12,1.559,1.559,0,0,1-1.272-.69,2.1,2.1,0,0,1-.366-0.71,5.419,5.419,0,0,1-.126-1l3.418-.74Zm-3.127-.44a0.747,0.747,0,0,1,.728-0.54,1.165,1.165,0,0,1,.714.22,1.853,1.853,0,0,1,.468.48,0.893,0.893,0,0,1,.165.38,0.107,0.107,0,0,1-.1.1,2.67,2.67,0,0,1-.451.12c-0.082.01-.243,0.05-0.482,0.1a3.951,3.951,0,0,0-.414.11l-0.9.19A3.942,3.942,0,0,1,197.578,8515.69Zm8.186-.4a0.381,0.381,0,0,1,.055.28l-0.014,2.28q0,0.615-.024.96a1.6,1.6,0,0,1-.109.52,0.488,0.488,0,0,1-.267.25,1.681,1.681,0,0,1-.543.09v0.23h1.616c0.645,0.01,1.1.01,1.371,0.02v-0.26c-0.461-.02-0.738-0.03-0.834-0.04a0.434,0.434,0,0,1-.2-0.06,1.256,1.256,0,0,1-.116-0.65c-0.014-.37-0.021-0.94-0.021-1.73l0.027-1.95,1.86-.01v-0.44H206.7a12.289,12.289,0,0,1,.2-2.21,2.168,2.168,0,0,1,.5-1.12,1.2,1.2,0,0,1,.868-0.31,2.844,2.844,0,0,1,.909.21l0.547,0.19a0.391,0.391,0,0,0,.287-0.22,0.649,0.649,0,0,0,.15-0.33,0.45,0.45,0,0,0-.389-0.33,2.161,2.161,0,0,0-.786-0.14,2.414,2.414,0,0,0-.739.15,4.841,4.841,0,0,0-.9.45,3.69,3.69,0,0,0-.752.64,2.924,2.924,0,0,0-.574,1.14,7.188,7.188,0,0,0-.205,1.88l-0.91.02v0.41a2.273,2.273,0,0,1,.855.08h0Zm5.428,4.59c0.091,0,.268,0,0.533-0.01s0.408-.02.43-0.02l0.014-.28-0.813.02-0.178.01a1.4,1.4,0,0,1-.26-0.02,0.269,0.269,0,0,1-.137-0.14,5.558,5.558,0,0,1-.136-1.64q0-.075.041-1.23a2.447,2.447,0,0,1,.037-0.49,0.7,0.7,0,0,1,.2-0.24,2.037,2.037,0,0,1,.424-0.28,1.065,1.065,0,0,1,.485-0.15,0.4,0.4,0,0,1,.308.12,0.554,0.554,0,0,1,.109.36,0.956,0.956,0,0,0,.527-0.21,0.511,0.511,0,0,0,.218-0.43,0.5,0.5,0,0,0-.116-0.36,1.2,1.2,0,0,0-.321-0.22,0.217,0.217,0,0,1-.1-0.07l-0.055-.02c-0.091.06-.214,0.13-0.369,0.23s-0.264.16-.328,0.19a1.276,1.276,0,0,1-.171.1c-0.027.02-.059,0.04-0.095,0.07l-0.732.41c0-.49-0.009-0.88-0.027-1.16l-1.764,1.03-0.027.22a1.6,1.6,0,0,1,.43-0.05,0.412,0.412,0,0,1,.445.27,4.318,4.318,0,0,1,.089,1.1c0,0.69-.011,1.21-0.031,1.55a2.829,2.829,0,0,1-.127.76,0.624,0.624,0,0,1-.225.32,2.049,2.049,0,0,1-.472.13l-0.014.2Zm3.459-4.27a0.369,0.369,0,0,1,.215-0.34,0.871,0.871,0,0,1,.427-0.12,1.038,1.038,0,0,1,.776.34,1.262,1.262,0,0,1,.332.92v0.23l-0.035.84q-0.629.09-1.2,0.21a4.529,4.529,0,0,0-1.087.39,0.763,0.763,0,0,0-.365.35,1.6,1.6,0,0,0-.113.69,1.068,1.068,0,0,0,.212.73,0.8,0.8,0,0,0,.629.24,4.484,4.484,0,0,0,1.941-.7,1.828,1.828,0,0,0,.25.5,0.425,0.425,0,0,0,.311.2,1.932,1.932,0,0,0,.341-0.1l1-.4v-0.28a1.925,1.925,0,0,1-.711.2,0.33,0.33,0,0,1-.307-0.33,2.729,2.729,0,0,1-.075-0.6c0-.15.009-0.35,0.027-0.59l0.027-.51c0.023-.53.034-0.83,0.034-0.92a3.544,3.544,0,0,0-.061-0.73,1.524,1.524,0,0,0-.14-0.42,1.257,1.257,0,0,0-.222-0.27,2.308,2.308,0,0,0-.438-0.33,0.927,0.927,0,0,0-.458-0.16,2.836,2.836,0,0,0-.748.18,3.714,3.714,0,0,0-.964.48,0.83,0.83,0,0,0-.428.65,1.545,1.545,0,0,0,.055.32l0.841-.38a0.873,0.873,0,0,1-.068-0.29h0Zm0.367,4.02a0.515,0.515,0,0,1-.46-0.27,1.128,1.128,0,0,1-.167-0.59,0.819,0.819,0,0,1,.545-0.7,2.727,2.727,0,0,1,1.444-.22q-0.061,1.065-.041,1.29a3.97,3.97,0,0,1-1.321.49h0Zm5.156-.39a4.273,4.273,0,0,0-1.073.53,1.165,1.165,0,0,0,.711,1.05,4.527,4.527,0,0,0-.892.67,1.234,1.234,0,0,0-.352.92,1.418,1.418,0,0,0,.4.96,1.842,1.842,0,0,0,1.442.46,5.038,5.038,0,0,0,1.61-.28,3.39,3.39,0,0,0,1.32-.79,1.6,1.6,0,0,0,.516-1.17,1.306,1.306,0,0,0-.2-0.77,1.1,1.1,0,0,0-.553-0.39,2.852,2.852,0,0,0-.821-0.14q-0.465-.03-1.3-0.03-1,0-1-.42a2.151,2.151,0,0,1,1.2-.77q0.642-.315,1.056-0.57a2.329,2.329,0,0,0,.694-0.7,1.942,1.942,0,0,0,.28-1.07,2.018,2.018,0,0,0-.055-0.46,2.661,2.661,0,0,0-.143-0.45,1.632,1.632,0,0,0-.178-0.33,2.5,2.5,0,0,1,.978.19,2.119,2.119,0,0,0,.184-0.74,2.611,2.611,0,0,0-.492-0.03,4.971,4.971,0,0,0-1.039.1,1.907,1.907,0,0,0-.581-0.31,2.448,2.448,0,0,0-.677-0.1,2.343,2.343,0,0,0-1.152.32,2.428,2.428,0,0,0-.916.86,2.172,2.172,0,0,0-.352,1.2,1.9,1.9,0,0,0,.321,1.16,1.936,1.936,0,0,0,.722.61,3.711,3.711,0,0,0,.789.29Zm-0.144-1.33a1.722,1.722,0,0,1-.553-1.39,1.549,1.549,0,0,1,.379-1.08,1.193,1.193,0,0,1,.94-0.43,1.358,1.358,0,0,1,.667.17,1.682,1.682,0,0,1,.5.46,2.526,2.526,0,0,1,.321.66,2.6,2.6,0,0,1,.117.78,1.514,1.514,0,0,1-.277,1.02,2.629,2.629,0,0,1-.769.58A4.95,4.95,0,0,1,220.03,8517.91Zm1.033,3.15h0.714c0.4-.01.63,0,0.694,0a0.869,0.869,0,0,1,.868.88,0.91,0.91,0,0,1-.393.75,2.4,2.4,0,0,1-.947.45,4.37,4.37,0,0,1-1.025.14,2.364,2.364,0,0,1-1.361-.36,1,1,0,0,1-.526-0.81,0.9,0.9,0,0,1,.342-0.69,2,2,0,0,1,.766-0.44,3.02,3.02,0,0,0,.868.08h0Zm5.6-1.18c0.091,0,.269,0,0.534-0.01s0.407-.02.43-0.02l0.014-.28-0.814.02-0.177.01a1.4,1.4,0,0,1-.26-0.02,0.269,0.269,0,0,1-.137-0.14,5.543,5.543,0,0,1-.137-1.64q0-.075.041-1.23a2.5,2.5,0,0,1,.038-0.49,0.7,0.7,0,0,1,.2-0.24,2.01,2.01,0,0,1,.424-0.28,1.062,1.062,0,0,1,.485-0.15,0.4,0.4,0,0,1,.308.12,0.56,0.56,0,0,1,.109.36,0.953,0.953,0,0,0,.526-0.21,0.51,0.51,0,0,0,.219-0.43,0.5,0.5,0,0,0-.116-0.36,1.23,1.23,0,0,0-.321-0.22,0.217,0.217,0,0,1-.1-0.07l-0.055-.02c-0.091.06-.214,0.13-0.369,0.23s-0.264.16-.328,0.19a1.276,1.276,0,0,1-.171.1c-0.027.02-.059,0.04-0.1,0.07l-0.731.41c0-.49-0.009-0.88-0.028-1.16l-1.763,1.03-0.028.22a1.61,1.61,0,0,1,.431-0.05,0.41,0.41,0,0,1,.444.27,4.271,4.271,0,0,1,.089,1.1c0,0.69-.01,1.21-0.03,1.55a2.829,2.829,0,0,1-.127.76,0.63,0.63,0,0,1-.225.32,2.049,2.049,0,0,1-.472.13l-0.014.2Zm3.459-4.27a0.369,0.369,0,0,1,.216-0.34,0.871,0.871,0,0,1,.427-0.12,1.038,1.038,0,0,1,.776.34,1.261,1.261,0,0,1,.331.92v0.23l-0.034.84q-0.629.09-1.2,0.21a4.529,4.529,0,0,0-1.087.39,0.765,0.765,0,0,0-.366.35,1.614,1.614,0,0,0-.112.69,1.068,1.068,0,0,0,.212.73,0.792,0.792,0,0,0,.628.24,4.483,4.483,0,0,0,1.942-.7,1.855,1.855,0,0,0,.249.5,0.426,0.426,0,0,0,.311.2,1.9,1.9,0,0,0,.342-0.1l1-.4v-0.28a1.925,1.925,0,0,1-.711.2,0.331,0.331,0,0,1-.308-0.33,2.729,2.729,0,0,1-.075-0.6c0-.15.009-0.35,0.028-0.59l0.027-.51c0.023-.53.034-0.83,0.034-0.92a3.544,3.544,0,0,0-.061-0.73,1.524,1.524,0,0,0-.14-0.42,1.235,1.235,0,0,0-.223-0.27,2.266,2.266,0,0,0-.437-0.33,0.927,0.927,0,0,0-.458-0.16,2.85,2.85,0,0,0-.749.18,3.73,3.73,0,0,0-.964.48,0.831,0.831,0,0,0-.427.65,1.479,1.479,0,0,0,.055.32l0.841-.38a0.879,0.879,0,0,1-.069-0.29h0Zm0.367,4.02a0.517,0.517,0,0,1-.46-0.27,1.136,1.136,0,0,1-.166-0.59,0.819,0.819,0,0,1,.545-0.7,2.725,2.725,0,0,1,1.444-.22q-0.061,1.065-.041,1.29a3.972,3.972,0,0,1-1.322.49h0Zm5.024,0.21c0.292,0.01.532,0.02,0.719,0.04s0.332,0.02.432,0.03l0.014-.21a2.352,2.352,0,0,1-.6-0.12,0.458,0.458,0,0,1-.229-0.14,0.619,0.619,0,0,1-.065-0.25c-0.027-.25-0.036-0.76-0.027-1.54l0.041-1.81a4.114,4.114,0,0,1,1.043-.41,3.681,3.681,0,0,1,.662-0.09,0.876,0.876,0,0,1,.723.28,1.238,1.238,0,0,1,.283.66,7.6,7.6,0,0,1,.051.98q0,0.405-.038,1.14a3.164,3.164,0,0,1-.14.95,1.082,1.082,0,0,1-.772.39v0.2a12.544,12.544,0,0,1,1.374-.09,6.947,6.947,0,0,1,1.189.09l-0.014-.21a1.65,1.65,0,0,0-.348-0.09,1.124,1.124,0,0,1-.349-0.12,2.891,2.891,0,0,1-.089-1.05v-1.63a6.784,6.784,0,0,0-.071-1.09,1.208,1.208,0,0,0-.376-0.7,1.329,1.329,0,0,0-.965-0.29,2.661,2.661,0,0,0-.928.18,9.305,9.305,0,0,0-1.235.6,5.425,5.425,0,0,0-.027-0.65c-0.019-.14-0.062-0.2-0.131-0.2a1.152,1.152,0,0,0-.308.13,5.428,5.428,0,0,1-.519.25,5.875,5.875,0,0,1-.785.29,0.466,0.466,0,0,1,.013.13,2.643,2.643,0,0,1,.626.13,0.448,0.448,0,0,1,.219.36,7.141,7.141,0,0,1,.051,1.06c0,0.38-.007.74-0.021,1.11a8.583,8.583,0,0,1-.075.92,0.7,0.7,0,0,1-.075.26,0.491,0.491,0,0,1-.226.17,2.363,2.363,0,0,1-.54.14l0.014,0.2h1.5Zm9.057-.43a1.784,1.784,0,0,1-.66.12,2,2,0,0,1-.933-0.26,2.2,2.2,0,0,1-.871-0.82,2.563,2.563,0,0,1-.363-1.4,2.187,2.187,0,0,1,.349-1.35,1.233,1.233,0,0,1,1.039-.45,3.3,3.3,0,0,1,1.231.31c0.159,0.08.272,0.14,0.338,0.18a0.3,0.3,0,0,0,.154.05,0.515,0.515,0,0,0,.307-0.28,1.056,1.056,0,0,0,.192-0.36,0.819,0.819,0,0,0-.622-0.36,3.554,3.554,0,0,0-.971-0.2,2.5,2.5,0,0,0-1.248.39,3.346,3.346,0,0,0-1.124,1.09,2.807,2.807,0,0,0-.458,1.56,3.372,3.372,0,0,0,.12.87,1.779,1.779,0,0,0,.331.71,2.416,2.416,0,0,0,.926.59,3.021,3.021,0,0,0,1.145.23,2.92,2.92,0,0,0,1.873-.75l-0.095-.2A4.71,4.71,0,0,1,244.568,8519.41Zm5.828-3.28a0.458,0.458,0,0,1-.2-0.03,0.5,0.5,0,0,1-.116-0.14,2.131,2.131,0,0,0-.53-0.77,1.9,1.9,0,0,0-.649-0.38,2.463,2.463,0,0,0-.639-0.1,1.807,1.807,0,0,0-.786.3,2.718,2.718,0,0,0-.937.94,2.928,2.928,0,0,0-.417,1.62,2.8,2.8,0,0,0,.547,1.7,1.8,1.8,0,0,0,1.525.74,3.792,3.792,0,0,0,2.112-.86l-0.123-.16a2.786,2.786,0,0,1-.773.41,2.017,2.017,0,0,1-.656.12,1.556,1.556,0,0,1-1.271-.69,2.06,2.06,0,0,1-.366-0.71,5.32,5.32,0,0,1-.127-1l3.418-.74Zm-3.128-.44a0.749,0.749,0,0,1,.728-0.54,1.166,1.166,0,0,1,.715.22,1.869,1.869,0,0,1,.468.48,0.9,0.9,0,0,1,.164.38,0.107,0.107,0,0,1-.1.1,2.67,2.67,0,0,1-.451.12c-0.082.01-.243,0.05-0.482,0.1a3.9,3.9,0,0,0-.413.11l-0.9.19A3.974,3.974,0,0,1,247.268,8515.69Zm7.827,3.19a2.54,2.54,0,0,0,1.087.86,3.246,3.246,0,0,0,1.255.27,2.7,2.7,0,0,0,2.72-2.72,2.532,2.532,0,0,0-.208-1.02,2.473,2.473,0,0,0-.571-0.82,2.516,2.516,0,0,0-.844-0.55,2.7,2.7,0,0,0-1.022-.2,3.138,3.138,0,0,0-1.114.19,2.734,2.734,0,0,0-.91.55,2.654,2.654,0,0,0-.611.84,2.622,2.622,0,0,0-.222,1.09A2.454,2.454,0,0,0,255.1,8518.88Zm0.664-2.89a1.682,1.682,0,0,1,.577-0.7,1.428,1.428,0,0,1,.834-0.25,1.646,1.646,0,0,1,1.049.37,2.585,2.585,0,0,1,.746.96,2.924,2.924,0,0,1,.27,1.22,2.535,2.535,0,0,1-.233,1.1,1.792,1.792,0,0,1-.622.74,1.473,1.473,0,0,1-1.87-.14,2.623,2.623,0,0,1-.707-1.03,3.352,3.352,0,0,1-.253-1.26A2.37,2.37,0,0,1,255.759,8515.99Zm6.265-.7a0.383,0.383,0,0,1,.054.28l-0.013,2.28q0,0.615-.024.96a1.594,1.594,0,0,1-.11.52,0.489,0.489,0,0,1-.266.25,1.683,1.683,0,0,1-.544.09v0.23h1.617c0.645,0.01,1.1.01,1.371,0.02v-0.26c-0.461-.02-0.739-0.03-0.834-0.04a0.434,0.434,0,0,1-.2-0.06,1.263,1.263,0,0,1-.117-0.65c-0.013-.37-0.02-0.94-0.02-1.73l0.027-1.95,1.86-.01v-0.44h-1.86a12.212,12.212,0,0,1,.2-2.21,2.176,2.176,0,0,1,.5-1.12,1.2,1.2,0,0,1,.869-0.31,2.844,2.844,0,0,1,.909.21l0.547,0.19a0.392,0.392,0,0,0,.287-0.22,0.649,0.649,0,0,0,.15-0.33,0.452,0.452,0,0,0-.389-0.33,2.163,2.163,0,0,0-.787-0.14,2.4,2.4,0,0,0-.738.15,4.81,4.81,0,0,0-.895.45,3.69,3.69,0,0,0-.752.64,2.939,2.939,0,0,0-.575,1.14,7.275,7.275,0,0,0-.205,1.88l-0.909.02v0.41a2.273,2.273,0,0,1,.855.08h0Zm7.656,0a0.381,0.381,0,0,1,.055.28l-0.014,2.28q0,0.615-.024.96a1.6,1.6,0,0,1-.109.52,0.488,0.488,0,0,1-.267.25,1.681,1.681,0,0,1-.543.09v0.23h1.616c0.645,0.01,1.1.01,1.371,0.02v-0.26c-0.46-.02-0.738-0.03-0.834-0.04a0.434,0.434,0,0,1-.2-0.06,1.256,1.256,0,0,1-.116-0.65c-0.014-.37-0.021-0.94-0.021-1.73l0.027-1.95,1.86-.01v-0.44h-1.86a12.289,12.289,0,0,1,.2-2.21,2.168,2.168,0,0,1,.5-1.12,1.2,1.2,0,0,1,.868-0.31,2.844,2.844,0,0,1,.909.21l0.547,0.19a0.391,0.391,0,0,0,.287-0.22,0.649,0.649,0,0,0,.15-0.33,0.45,0.45,0,0,0-.389-0.33,2.161,2.161,0,0,0-.786-0.14,2.414,2.414,0,0,0-.739.15,4.841,4.841,0,0,0-.895.45,3.69,3.69,0,0,0-.752.64,2.924,2.924,0,0,0-.574,1.14,7.188,7.188,0,0,0-.2,1.88l-0.91.02v0.41a2.273,2.273,0,0,1,.855.08h0Zm4.348,4.61q0.463,0,1.8.09v-0.26a4.5,4.5,0,0,1-.622-0.12,0.53,0.53,0,0,1-.41-0.27,16.087,16.087,0,0,1-.1-2.61l0.055-3.29a14.792,14.792,0,0,1,.267-2.92h-0.206a10.4,10.4,0,0,1-1.845.92v0.22c0.032-.01.062-0.01,0.089-0.02a0.289,0.289,0,0,0,.09-0.01c0.032,0,.076-0.01.131-0.01a0.52,0.52,0,0,1,.468.18,5.643,5.643,0,0,1,.186,2.05c0,0.57-.012,1.22-0.034,1.94s-0.048,1.36-.076,1.92-0.052.91-.075,1.07a1.149,1.149,0,0,1-.266.67,1.364,1.364,0,0,1-.725.3v0.21q0.65-.06,1.272-0.06h0Zm2.881-1.02a2.534,2.534,0,0,0,1.087.86,3.241,3.241,0,0,0,1.254.27,2.7,2.7,0,0,0,2.721-2.72,2.533,2.533,0,0,0-.209-1.02,2.485,2.485,0,0,0-.57-0.82,2.52,2.52,0,0,0-.845-0.55,2.7,2.7,0,0,0-1.022-.2,3.142,3.142,0,0,0-1.114.19,2.74,2.74,0,0,0-.909.55,2.529,2.529,0,0,0-.834,1.93A2.455,2.455,0,0,0,276.909,8518.88Zm0.663-2.89a1.692,1.692,0,0,1,.578-0.7,1.428,1.428,0,0,1,.834-0.25,1.65,1.65,0,0,1,1.049.37,2.572,2.572,0,0,1,.745.96,2.924,2.924,0,0,1,.27,1.22,2.534,2.534,0,0,1-.232,1.1,1.8,1.8,0,0,1-.622.74,1.473,1.473,0,0,1-1.87-.14,2.625,2.625,0,0,1-.708-1.03,3.372,3.372,0,0,1-.253-1.26A2.385,2.385,0,0,1,277.572,8515.99Zm7.944,3.29,1.373-2.84q0.1,0.3.223,0.66c0.08,0.25.127,0.39,0.141,0.43l0.563,1.89c0.036,0.13.075,0.27,0.116,0.42s0.069,0.28.083,0.36h0.207q0.029-.105.175-0.48c0.1-.25.187-0.46,0.267-0.64a2.214,2.214,0,0,1,.2-0.37l0.883-1.75c0.433-.83.72-1.35,0.862-1.55a0.829,0.829,0,0,1,.452-0.36,0.894,0.894,0,0,0,.013-0.18q-0.533.03-.936,0.03c-0.306,0-.59-0.01-0.855-0.03l-0.013.19a1.53,1.53,0,0,1,.31.04,0.387,0.387,0,0,1,.17.12,0.509,0.509,0,0,1,.079.31,2.6,2.6,0,0,1-.23.83q-0.23.57-.513,1.14c-0.189.39-.391,0.78-0.606,1.19q-0.492-1.545-.714-2.34a6.887,6.887,0,0,1-.222-0.89c0-.22.231-0.34,0.693-0.37l0.014-.22-0.437.02c-0.784.03-1.213,0.05-1.286,0.05l-0.676-.01-0.028.22a1.328,1.328,0,0,1,.531.17,1.363,1.363,0,0,1,.32.56,7.3,7.3,0,0,1-.348.88q-0.24.525-.479,0.99c-0.159.32-.275,0.53-0.348,0.66-0.01.03-.032,0.09-0.069,0.19l-0.082-.19c-0.233-.65-0.431-1.25-0.6-1.79a4.557,4.557,0,0,1-.247-1.16,0.233,0.233,0,0,1,.126-0.23,1.216,1.216,0,0,1,.474-0.11l0.041-.26c-0.246.03-.472,0.04-0.677,0.05s-0.581.02-1.128,0.02c-0.223,0-.4.01-0.52,0.02v0.17a1.817,1.817,0,0,1,.445.23,1.232,1.232,0,0,1,.293.42,9.479,9.479,0,0,1,.376.99,23.907,23.907,0,0,1,.921,3.44l0.225-.01a9.267,9.267,0,0,0,.431-0.91h0Zm10.421-3.15a0.458,0.458,0,0,1-.2-0.03,0.5,0.5,0,0,1-.116-0.14,2.142,2.142,0,0,0-.529-0.77,1.914,1.914,0,0,0-.65-0.38,2.463,2.463,0,0,0-.639-0.1,1.807,1.807,0,0,0-.786.3,2.718,2.718,0,0,0-.937.94,2.928,2.928,0,0,0-.417,1.62,2.8,2.8,0,0,0,.547,1.7,1.8,1.8,0,0,0,1.525.74,3.792,3.792,0,0,0,2.112-.86l-0.123-.16a2.786,2.786,0,0,1-.773.41,2.017,2.017,0,0,1-.656.12,1.557,1.557,0,0,1-1.271-.69,2.06,2.06,0,0,1-.366-0.71,5.32,5.32,0,0,1-.127-1l3.418-.74Zm-3.128-.44a0.749,0.749,0,0,1,.728-0.54,1.166,1.166,0,0,1,.715.22,1.869,1.869,0,0,1,.468.48,0.9,0.9,0,0,1,.164.38,0.107,0.107,0,0,1-.1.1,2.67,2.67,0,0,1-.451.12c-0.082.01-.243,0.05-0.482,0.1a3.9,3.9,0,0,0-.413.11l-0.9.19A3.974,3.974,0,0,1,292.809,8515.69Zm5.958,4.19c0.091,0,.269,0,0.533-0.01s0.408-.02.431-0.02l0.013-.28-0.813.02-0.178.01a1.4,1.4,0,0,1-.26-0.02,0.267,0.267,0,0,1-.136-0.14,5.507,5.507,0,0,1-.137-1.64q0-.075.041-1.23a2.342,2.342,0,0,1,.038-0.49,0.68,0.68,0,0,1,.2-0.24,2.037,2.037,0,0,1,.424-0.28,1.069,1.069,0,0,1,.485-0.15,0.4,0.4,0,0,1,.308.12,0.554,0.554,0,0,1,.109.36,0.956,0.956,0,0,0,.527-0.21,0.51,0.51,0,0,0,.219-0.43,0.5,0.5,0,0,0-.117-0.36,1.2,1.2,0,0,0-.321-0.22,0.223,0.223,0,0,1-.1-0.07l-0.054-.02c-0.092.06-.215,0.13-0.37,0.23s-0.264.16-.328,0.19a1.216,1.216,0,0,1-.171.1c-0.027.02-.059,0.04-0.1,0.07l-0.732.41c0-.49-0.009-0.88-0.027-1.16l-1.764,1.03-0.027.22a1.6,1.6,0,0,1,.431-0.05,0.41,0.41,0,0,1,.444.27,4.318,4.318,0,0,1,.089,1.1c0,0.69-.01,1.21-0.031,1.55a2.835,2.835,0,0,1-.126.76,0.625,0.625,0,0,1-.226.32,2.049,2.049,0,0,1-.472.13l-0.013.2Zm2.334-1.04a2.546,2.546,0,0,1,.058.47,2.267,2.267,0,0,1-.054.39c0.05,0.01.16,0.04,0.328,0.09s0.288,0.09.357,0.1,0.187,0.03.356,0.05a2.29,2.29,0,0,0,.39.04,2.756,2.756,0,0,0,.754-0.11,3.566,3.566,0,0,0,.938-0.47,0.668,0.668,0,0,0,.3-0.38,1.484,1.484,0,0,0,.1-0.51,1.263,1.263,0,0,0-.4-1,4.059,4.059,0,0,0-.973-0.62l-0.417-.2a2.511,2.511,0,0,1-.625-0.39,0.608,0.608,0,0,1-.165-0.45,0.782,0.782,0,0,1,.816-0.8,1.183,1.183,0,0,1,.511.15,1.949,1.949,0,0,1,.521.37,0.944,0.944,0,0,1,.285.45h0.239l-0.225-1.16a8.988,8.988,0,0,0-1.1-.1,2.047,2.047,0,0,0-.969.22,1.7,1.7,0,0,0-.654.57,1.211,1.211,0,0,0-.227.66,0.869,0.869,0,0,0,.268.66,3.224,3.224,0,0,0,.719.49l0.513,0.24a3.711,3.711,0,0,1,.761.5,0.97,0.97,0,0,1,.33.77,0.587,0.587,0,0,1-.321.6,1.638,1.638,0,0,1-.643.13,1.573,1.573,0,0,1-.82-0.23,2.355,2.355,0,0,1-.6-0.53,0.917,0.917,0,0,1-.222-0.43l-0.24-.01A2.531,2.531,0,0,1,301.1,8518.84Zm8.8-3.55a0.383,0.383,0,0,1,.054.28l-0.013,2.28q0,0.615-.024.96a1.594,1.594,0,0,1-.11.52,0.489,0.489,0,0,1-.266.25,1.683,1.683,0,0,1-.544.09v0.23h1.617c0.645,0.01,1.1.01,1.371,0.02v-0.26c-0.461-.02-0.739-0.03-0.834-0.04a0.438,0.438,0,0,1-.206-0.06,1.279,1.279,0,0,1-.116-0.65c-0.013-.37-0.02-0.94-0.02-1.73l0.027-1.95,1.859-.01v-0.44h-1.859a12.212,12.212,0,0,1,.2-2.21,2.176,2.176,0,0,1,.5-1.12,1.2,1.2,0,0,1,.869-0.31,2.844,2.844,0,0,1,.909.21l0.547,0.19a0.392,0.392,0,0,0,.287-0.22,0.649,0.649,0,0,0,.15-0.33,0.452,0.452,0,0,0-.39-0.33,2.154,2.154,0,0,0-.786-0.14,2.4,2.4,0,0,0-.738.15,4.848,4.848,0,0,0-.9.45,3.71,3.71,0,0,0-.751.64,2.925,2.925,0,0,0-.575,1.14,7.275,7.275,0,0,0-.2,1.88l-0.909.02v0.41a2.273,2.273,0,0,1,.855.08h0Zm4.347,4.61q0.465,0,1.805.09v-0.26a4.473,4.473,0,0,1-.622-0.12,0.528,0.528,0,0,1-.41-0.27,15.956,15.956,0,0,1-.1-2.61l0.055-3.29a14.815,14.815,0,0,1,.266-2.92h-0.2a10.4,10.4,0,0,1-1.845.92v0.22c0.032-.01.062-0.01,0.089-0.02a0.289,0.289,0,0,0,.09-0.01c0.032,0,.075-0.01.131-0.01a0.52,0.52,0,0,1,.468.18,5.643,5.643,0,0,1,.186,2.05c0,0.57-.012,1.22-0.035,1.94s-0.048,1.36-.075,1.92-0.052.91-.075,1.07a1.15,1.15,0,0,1-.267.67,1.357,1.357,0,0,1-.724.3v0.21q0.649-.06,1.271-0.06h0Zm2.882-1.02a2.537,2.537,0,0,0,1.086.86,3.246,3.246,0,0,0,1.255.27,2.7,2.7,0,0,0,1.425-.38,2.664,2.664,0,0,0,.957-1.01,2.7,2.7,0,0,0,.339-1.33,2.533,2.533,0,0,0-.209-1.02,2.473,2.473,0,0,0-.571-0.82,2.516,2.516,0,0,0-.844-0.55,2.7,2.7,0,0,0-1.022-.2,3.142,3.142,0,0,0-1.114.19,2.72,2.72,0,0,0-.909.55,2.529,2.529,0,0,0-.834,1.93A2.455,2.455,0,0,0,317.132,8518.88Zm0.663-2.89a1.69,1.69,0,0,1,.577-0.7,1.428,1.428,0,0,1,.834-0.25,1.651,1.651,0,0,1,1.05.37,2.582,2.582,0,0,1,.745.96,2.924,2.924,0,0,1,.27,1.22,2.535,2.535,0,0,1-.233,1.1,1.792,1.792,0,0,1-.622.74,1.472,1.472,0,0,1-1.869-.14,2.614,2.614,0,0,1-.708-1.03,3.352,3.352,0,0,1-.253-1.26A2.385,2.385,0,0,1,317.8,8515.99Zm6.545-.38a0.37,0.37,0,0,1,.215-0.34,0.874,0.874,0,0,1,.428-0.12,1.04,1.04,0,0,1,.776.34,1.261,1.261,0,0,1,.331.92v0.23l-0.034.84q-0.628.09-1.2,0.21a4.529,4.529,0,0,0-1.087.39,0.761,0.761,0,0,0-.366.35,1.611,1.611,0,0,0-.113.69,1.073,1.073,0,0,0,.212.73,0.8,0.8,0,0,0,.629.24,4.491,4.491,0,0,0,1.942-.7,1.826,1.826,0,0,0,.249.5,0.426,0.426,0,0,0,.311.2,1.955,1.955,0,0,0,.342-0.1l1-.4v-0.28a1.93,1.93,0,0,1-.711.2,0.331,0.331,0,0,1-.308-0.33,2.729,2.729,0,0,1-.075-0.6c0-.15.009-0.35,0.027-0.59l0.028-.51c0.022-.53.034-0.83,0.034-0.92a3.534,3.534,0,0,0-.062-0.73,1.491,1.491,0,0,0-.14-0.42,1.2,1.2,0,0,0-.222-0.27,2.266,2.266,0,0,0-.437-0.33,0.93,0.93,0,0,0-.458-0.16,2.841,2.841,0,0,0-.749.18,3.73,3.73,0,0,0-.964.48,0.828,0.828,0,0,0-.427.65,1.479,1.479,0,0,0,.055.32l0.84-.38a0.9,0.9,0,0,1-.068-0.29h0Zm0.367,4.02a0.516,0.516,0,0,1-.46-0.27,1.137,1.137,0,0,1-.167-0.59,0.821,0.821,0,0,1,.545-0.7,2.731,2.731,0,0,1,1.445-.22q-0.061,1.065-.041,1.29a3.98,3.98,0,0,1-1.322.49h0Zm4.261-.96a1.4,1.4,0,0,0,.318,1.04,1.04,1.04,0,0,0,.762.31,3.165,3.165,0,0,0,1.152-.26,2.515,2.515,0,0,0,.878-0.51c0-.03-0.008-0.05-0.01-0.06a0.858,0.858,0,0,0-.017-0.09,5.616,5.616,0,0,1-.762.31,2.278,2.278,0,0,1-.557.1,0.709,0.709,0,0,1-.742-0.4,2.721,2.721,0,0,1-.14-1.02l0.034-2.13c0-.14.01-0.28,0.017-0.4a1.047,1.047,0,0,1,.034-0.26,0.156,0.156,0,0,1,.089-0.1,0.866,0.866,0,0,1,.195-0.02q0.492,0.015.725,0.03c0.154,0.01.243,0.01,0.266,0.01a5.836,5.836,0,0,0,.732-0.04l0.013-.42c-0.264,0-.508.01-0.731,0.01a12.708,12.708,0,0,1-1.285-.06l0.068-1.23a9.04,9.04,0,0,1-.793.93,5.069,5.069,0,0,1-.93.69,0.725,0.725,0,0,1-.013.17,5.149,5.149,0,0,1,.731.05l-0.034,2.66v0.69Zm3.585,0.17a2.562,2.562,0,0,1,.059.47,2.3,2.3,0,0,1-.055.39c0.05,0.01.16,0.04,0.329,0.09s0.287,0.09.356,0.1,0.187,0.03.356,0.05a2.29,2.29,0,0,0,.39.04,2.756,2.756,0,0,0,.754-0.11,3.566,3.566,0,0,0,.938-0.47,0.668,0.668,0,0,0,.3-0.38,1.484,1.484,0,0,0,.1-0.51,1.263,1.263,0,0,0-.4-1,4.052,4.052,0,0,0-.972-0.62l-0.418-.2a2.5,2.5,0,0,1-.624-0.39,0.6,0.6,0,0,1-.166-0.45,0.782,0.782,0,0,1,.816-0.8,1.179,1.179,0,0,1,.511.15,1.97,1.97,0,0,1,.522.37,0.949,0.949,0,0,1,.284.45h0.239l-0.225-1.16a8.992,8.992,0,0,0-1.1-.1,2.051,2.051,0,0,0-.97.22,1.709,1.709,0,0,0-.654.57,1.209,1.209,0,0,0-.226.66,0.872,0.872,0,0,0,.267.66,3.247,3.247,0,0,0,.719.49l0.514,0.24a3.731,3.731,0,0,1,.76.5,0.97,0.97,0,0,1,.33.77,0.587,0.587,0,0,1-.321.6,1.637,1.637,0,0,1-.642.13,1.574,1.574,0,0,1-.821-0.23,2.372,2.372,0,0,1-.6-0.53,0.917,0.917,0,0,1-.222-0.43l-0.239-.01A2.647,2.647,0,0,1,332.553,8518.84Zm9.082-3.23a0.37,0.37,0,0,1,.215-0.34,0.874,0.874,0,0,1,.428-0.12,1.036,1.036,0,0,1,.775.34,1.262,1.262,0,0,1,.332.92v0.23l-0.034.84q-0.63.09-1.2,0.21a4.529,4.529,0,0,0-1.087.39,0.761,0.761,0,0,0-.366.35,1.611,1.611,0,0,0-.113.69,1.073,1.073,0,0,0,.212.73,0.8,0.8,0,0,0,.629.24,4.484,4.484,0,0,0,1.941-.7,1.828,1.828,0,0,0,.25.5,0.426,0.426,0,0,0,.311.2,1.955,1.955,0,0,0,.342-0.1l1-.4v-0.28a1.935,1.935,0,0,1-.711.2,0.331,0.331,0,0,1-.308-0.33,2.729,2.729,0,0,1-.075-0.6c0-.15.009-0.35,0.027-0.59l0.028-.51c0.022-.53.034-0.83,0.034-0.92a3.534,3.534,0,0,0-.062-0.73,1.524,1.524,0,0,0-.14-0.42,1.2,1.2,0,0,0-.222-0.27,2.245,2.245,0,0,0-.438-0.33,0.924,0.924,0,0,0-.458-0.16,2.845,2.845,0,0,0-.748.18,3.73,3.73,0,0,0-.964.48,0.828,0.828,0,0,0-.427.65,1.479,1.479,0,0,0,.055.32l0.84-.38a0.9,0.9,0,0,1-.068-0.29h0Zm0.367,4.02a0.516,0.516,0,0,1-.46-0.27,1.137,1.137,0,0,1-.167-0.59,0.821,0.821,0,0,1,.545-0.7,2.729,2.729,0,0,1,1.444-.22q-0.061,1.065-.041,1.29a3.97,3.97,0,0,1-1.321.49h0Zm4.726,0.27q0.465,0,1.8.09v-0.26a4.5,4.5,0,0,1-.622-0.12,0.53,0.53,0,0,1-.41-0.27,16.154,16.154,0,0,1-.1-2.61l0.054-3.29a14.872,14.872,0,0,1,.267-2.92h-0.206a10.4,10.4,0,0,1-1.845.92v0.22c0.032-.01.062-0.01,0.09-0.02a0.286,0.286,0,0,0,.089-0.01c0.032,0,.076-0.01.131-0.01a0.52,0.52,0,0,1,.468.18,5.643,5.643,0,0,1,.186,2.05c0,0.57-.011,1.22-0.034,1.94s-0.048,1.36-.075,1.92-0.053.91-.076,1.07a1.149,1.149,0,0,1-.266.67,1.361,1.361,0,0,1-.725.3v0.21q0.649-.06,1.272-0.06h0Zm3.363,0q0.465,0,1.805.09v-0.26a4.446,4.446,0,0,1-.622-0.12,0.532,0.532,0,0,1-.411-0.27,16.154,16.154,0,0,1-.1-2.61l0.055-3.29a14.815,14.815,0,0,1,.266-2.92h-0.2a10.385,10.385,0,0,1-1.846.92v0.22c0.033-.01.062-0.01,0.09-0.02a0.283,0.283,0,0,0,.089-0.01c0.033,0,.076-0.01.131-0.01a0.52,0.52,0,0,1,.468.18,5.643,5.643,0,0,1,.186,2.05c0,0.57-.011,1.22-0.034,1.94s-0.048,1.36-.075,1.92-0.052.91-.075,1.07a1.156,1.156,0,0,1-.267.67,1.36,1.36,0,0,1-.724.3v0.21q0.648-.06,1.271-0.06h0Zm6.313-1.02a2.534,2.534,0,0,0,1.087.86,3.245,3.245,0,0,0,1.254.27,2.7,2.7,0,0,0,2.721-2.72,2.532,2.532,0,0,0-.208-1.02,2.622,2.622,0,0,0-1.415-1.37,2.709,2.709,0,0,0-1.022-.2,3.148,3.148,0,0,0-1.115.19,2.74,2.74,0,0,0-.909.55,2.529,2.529,0,0,0-.834,1.93A2.455,2.455,0,0,0,356.4,8518.88Zm0.663-2.89a1.692,1.692,0,0,1,.578-0.7,1.428,1.428,0,0,1,.834-0.25,1.648,1.648,0,0,1,1.049.37,2.572,2.572,0,0,1,.745.96,2.924,2.924,0,0,1,.27,1.22,2.534,2.534,0,0,1-.232,1.1,1.8,1.8,0,0,1-.622.74,1.473,1.473,0,0,1-1.87-.14,2.612,2.612,0,0,1-.707-1.03,3.352,3.352,0,0,1-.253-1.26A2.385,2.385,0,0,1,357.067,8515.99Zm8.1,3.4,1.231-2.71c0.027-.05.073-0.15,0.136-0.3s0.1-.24.117-0.26a2.953,2.953,0,0,1,.318-0.61,1.226,1.226,0,0,1,.536-0.46v-0.21a3.2,3.2,0,0,1-.786.09c-0.182,0-.4-0.02-0.643-0.04l-0.478.01-0.027.22a1.28,1.28,0,0,1,.533.11,0.4,0.4,0,0,1,.2.41,4.421,4.421,0,0,1-.395,1.38,10.39,10.39,0,0,1-.853,1.71q-0.24-.525-0.651-1.77a7.377,7.377,0,0,1-.412-1.56,0.172,0.172,0,0,1,.127-0.17,2.279,2.279,0,0,1,.612-0.11l0.027-.23c-0.665.03-1.249,0.05-1.75,0.05-0.333,0-.574,0-0.724-0.01v0.16c0.068,0.04.153,0.08,0.256,0.13s0.181,0.11.236,0.15a6.034,6.034,0,0,1,.48,1.01c0.265,0.63.527,1.3,0.786,2.02a18.121,18.121,0,0,1,.573,1.86h0.2Zm7.2-3.26a0.458,0.458,0,0,1-.2-0.03,0.5,0.5,0,0,1-.116-0.14,2.131,2.131,0,0,0-.53-0.77,1.91,1.91,0,0,0-.649-0.38,2.463,2.463,0,0,0-.639-0.1,1.807,1.807,0,0,0-.786.3,2.718,2.718,0,0,0-.937.94,2.928,2.928,0,0,0-.417,1.62,2.8,2.8,0,0,0,.547,1.7,1.8,1.8,0,0,0,1.524.74,3.792,3.792,0,0,0,2.113-.86l-0.123-.16a2.786,2.786,0,0,1-.773.41,2.017,2.017,0,0,1-.656.12,1.559,1.559,0,0,1-1.272-.69,2.074,2.074,0,0,1-.365-0.71,5.32,5.32,0,0,1-.127-1l3.418-.74Zm-3.128-.44a0.748,0.748,0,0,1,.728-0.54,1.161,1.161,0,0,1,.714.22,1.874,1.874,0,0,1,.469.48,0.9,0.9,0,0,1,.164.38,0.107,0.107,0,0,1-.1.1,2.67,2.67,0,0,1-.451.12c-0.082.01-.243,0.05-0.482,0.1a4.033,4.033,0,0,0-.414.11l-0.9.19A3.974,3.974,0,0,1,369.235,8515.69Zm5.958,4.19c0.091,0,.268,0,0.533-0.01s0.408-.02.43-0.02l0.014-.28-0.813.02-0.178.01a1.4,1.4,0,0,1-.26-0.02,0.269,0.269,0,0,1-.137-0.14,5.558,5.558,0,0,1-.136-1.64q0-.075.041-1.23a2.447,2.447,0,0,1,.037-0.49,0.7,0.7,0,0,1,.2-0.24,2.037,2.037,0,0,1,.424-0.28,1.065,1.065,0,0,1,.485-0.15,0.4,0.4,0,0,1,.308.12,0.554,0.554,0,0,1,.109.36,0.956,0.956,0,0,0,.527-0.21,0.511,0.511,0,0,0,.218-0.43,0.5,0.5,0,0,0-.116-0.36,1.2,1.2,0,0,0-.321-0.22,0.217,0.217,0,0,1-.1-0.07l-0.055-.02c-0.091.06-.214,0.13-0.369,0.23s-0.264.16-.328,0.19a1.276,1.276,0,0,1-.171.1c-0.027.02-.059,0.04-0.095,0.07l-0.732.41c0-.49-0.009-0.88-0.027-1.16l-1.764,1.03-0.027.22a1.6,1.6,0,0,1,.43-0.05,0.412,0.412,0,0,1,.445.27,4.318,4.318,0,0,1,.089,1.1c0,0.69-.011,1.21-0.031,1.55a2.829,2.829,0,0,1-.127.76,0.63,0.63,0,0,1-.225.32,2.049,2.049,0,0,1-.472.13l-0.014.2Zm10.1-3.75a0.453,0.453,0,0,1-.2-0.03,0.5,0.5,0,0,1-.116-0.14,2.131,2.131,0,0,0-.53-0.77,1.91,1.91,0,0,0-.649-0.38,2.464,2.464,0,0,0-.64-0.1,1.816,1.816,0,0,0-.786.3,2.725,2.725,0,0,0-.936.94,2.928,2.928,0,0,0-.417,1.62,2.8,2.8,0,0,0,.547,1.7,1.794,1.794,0,0,0,1.524.74,3.792,3.792,0,0,0,2.112-.86l-0.123-.16a2.783,2.783,0,0,1-.772.41,2.022,2.022,0,0,1-.656.12,1.559,1.559,0,0,1-1.272-.69,2.1,2.1,0,0,1-.366-0.71,5.419,5.419,0,0,1-.126-1l3.418-.74Zm-3.127-.44a0.747,0.747,0,0,1,.728-0.54,1.165,1.165,0,0,1,.714.22,1.853,1.853,0,0,1,.468.48,0.893,0.893,0,0,1,.165.38,0.107,0.107,0,0,1-.1.1,2.67,2.67,0,0,1-.451.12c-0.082.01-.243,0.05-0.482,0.1a3.951,3.951,0,0,0-.414.11l-0.895.19A3.911,3.911,0,0,1,382.162,8515.69Zm6.586,3.7,1.231-2.71c0.027-.05.073-0.15,0.136-0.3s0.1-.24.117-0.26a2.953,2.953,0,0,1,.318-0.61,1.22,1.22,0,0,1,.536-0.46v-0.21a3.2,3.2,0,0,1-.786.09c-0.182,0-.4-0.02-0.643-0.04l-0.478.01-0.027.22a1.28,1.28,0,0,1,.533.11,0.4,0.4,0,0,1,.2.41,4.421,4.421,0,0,1-.395,1.38,10.39,10.39,0,0,1-.853,1.71q-0.24-.525-0.651-1.77a7.377,7.377,0,0,1-.412-1.56,0.172,0.172,0,0,1,.127-0.17,2.279,2.279,0,0,1,.612-0.11l0.027-.23c-0.665.03-1.249,0.05-1.75,0.05-0.333,0-.574,0-0.725-0.01v0.16c0.069,0.04.154,0.08,0.257,0.13s0.181,0.11.236,0.15a6.034,6.034,0,0,1,.48,1.01c0.265,0.63.527,1.3,0.786,2.02a18.121,18.121,0,0,1,.573,1.86h0.2Zm7.2-3.26a0.458,0.458,0,0,1-.2-0.03,0.5,0.5,0,0,1-.116-0.14,2.131,2.131,0,0,0-.53-0.77,1.91,1.91,0,0,0-.649-0.38,2.463,2.463,0,0,0-.639-0.1,1.807,1.807,0,0,0-.786.3,2.718,2.718,0,0,0-.937.94,2.928,2.928,0,0,0-.417,1.62,2.8,2.8,0,0,0,.547,1.7,1.8,1.8,0,0,0,1.524.74,3.792,3.792,0,0,0,2.113-.86l-0.123-.16a2.786,2.786,0,0,1-.773.41,2.017,2.017,0,0,1-.656.12,1.559,1.559,0,0,1-1.272-.69,2.074,2.074,0,0,1-.365-0.71,5.32,5.32,0,0,1-.127-1l3.418-.74Zm-3.128-.44a0.748,0.748,0,0,1,.728-0.54,1.161,1.161,0,0,1,.714.22,1.874,1.874,0,0,1,.469.48,0.9,0.9,0,0,1,.164.38,0.107,0.107,0,0,1-.1.1,2.67,2.67,0,0,1-.451.12c-0.082.01-.243,0.05-0.482,0.1a4.033,4.033,0,0,0-.414.11l-0.9.19A3.974,3.974,0,0,1,392.819,8515.69Zm5.958,4.19c0.091,0,.268,0,0.533-0.01s0.408-.02.43-0.02l0.014-.28-0.813.02-0.178.01a1.4,1.4,0,0,1-.26-0.02,0.269,0.269,0,0,1-.137-0.14,5.558,5.558,0,0,1-.136-1.64q0-.075.041-1.23a2.447,2.447,0,0,1,.037-0.49,0.7,0.7,0,0,1,.2-0.24,2.037,2.037,0,0,1,.424-0.28,1.065,1.065,0,0,1,.485-0.15,0.4,0.4,0,0,1,.308.12,0.554,0.554,0,0,1,.109.36,0.956,0.956,0,0,0,.527-0.21,0.511,0.511,0,0,0,.218-0.43,0.5,0.5,0,0,0-.116-0.36,1.213,1.213,0,0,0-.321-0.22,0.217,0.217,0,0,1-.1-0.07l-0.055-.02c-0.091.06-.214,0.13-0.369,0.23s-0.264.16-.328,0.19a1.276,1.276,0,0,1-.171.1c-0.027.02-.059,0.04-0.1,0.07l-0.732.41c0-.49-0.009-0.88-0.027-1.16l-1.764,1.03-0.027.22a1.6,1.6,0,0,1,.43-0.05,0.412,0.412,0,0,1,.445.27,4.318,4.318,0,0,1,.089,1.1c0,0.69-.011,1.21-0.031,1.55a2.829,2.829,0,0,1-.127.76,0.63,0.63,0,0,1-.225.32,2.049,2.049,0,0,1-.472.13l-0.014.2Zm2.361-4.62a0.639,0.639,0,0,1,.26.22,1.87,1.87,0,0,1,.277.53,17.417,17.417,0,0,1,.623,1.81q0.33,1.11.72,2.58l-0.534,1.19a11.836,11.836,0,0,1-.548,1.13,2.09,2.09,0,0,1-.493.58,1.741,1.741,0,0,1-.725.32v0.23h1.456c0.148-.61.278-1.11,0.391-1.48a14.743,14.743,0,0,1,.534-1.41q0.363-.84,1.094-2.28c0.336-.65.509-0.99,0.519-1.01l0.744-1.54a4.627,4.627,0,0,1,.276-0.51,1.141,1.141,0,0,1,.274-0.31,0.594,0.594,0,0,1,.331-0.14l0.014-.23a3.919,3.919,0,0,1-.677.04c-0.4,0-.873-0.03-1.415-0.08l-0.1.22c0.634,0.08.95,0.27,0.95,0.59a3.8,3.8,0,0,1-.4,1.24q-0.4.9-.7,1.41l-0.45.8c-0.27-.72-0.5-1.44-0.7-2.17a7.321,7.321,0,0,1-.294-1.42,0.3,0.3,0,0,1,.123-0.28,1.175,1.175,0,0,1,.4-0.12l0.02-.26a10.917,10.917,0,0,1-1.4.08,7.638,7.638,0,0,1-.936-0.04v0.22A2.275,2.275,0,0,1,401.138,8515.26Zm12.838,4.15a1.779,1.779,0,0,1-.659.12,1.992,1.992,0,0,1-.933-0.26,2.2,2.2,0,0,1-.872-0.82,2.563,2.563,0,0,1-.362-1.4,2.187,2.187,0,0,1,.348-1.35,1.234,1.234,0,0,1,1.039-.45,3.3,3.3,0,0,1,1.231.31c0.159,0.08.272,0.14,0.338,0.18a0.3,0.3,0,0,0,.154.05,0.519,0.519,0,0,0,.308-0.28,1.065,1.065,0,0,0,.191-0.36,0.817,0.817,0,0,0-.622-0.36,3.547,3.547,0,0,0-.971-0.2,2.492,2.492,0,0,0-1.247.39,3.34,3.34,0,0,0-1.125,1.09,2.807,2.807,0,0,0-.458,1.56,3.372,3.372,0,0,0,.12.87,1.779,1.779,0,0,0,.331.71,2.421,2.421,0,0,0,.927.59,3.013,3.013,0,0,0,1.145.23,2.922,2.922,0,0,0,1.873-.75l-0.1-.2A4.71,4.71,0,0,1,413.976,8519.41Zm1.983-.53a2.534,2.534,0,0,0,1.087.86,3.237,3.237,0,0,0,1.254.27,2.7,2.7,0,0,0,1.425-.38,2.664,2.664,0,0,0,.957-1.01,2.7,2.7,0,0,0,.339-1.33,2.533,2.533,0,0,0-.209-1.02,2.473,2.473,0,0,0-.571-0.82,2.516,2.516,0,0,0-.844-0.55,2.7,2.7,0,0,0-1.022-.2,3.142,3.142,0,0,0-1.114.19,2.74,2.74,0,0,0-.909.55,2.529,2.529,0,0,0-.834,1.93A2.455,2.455,0,0,0,415.959,8518.88Zm0.663-2.89a1.69,1.69,0,0,1,.577-0.7,1.43,1.43,0,0,1,.834-0.25,1.651,1.651,0,0,1,1.05.37,2.582,2.582,0,0,1,.745.96,2.924,2.924,0,0,1,.27,1.22,2.535,2.535,0,0,1-.233,1.1,1.792,1.792,0,0,1-.622.74,1.472,1.472,0,0,1-1.869-.14,2.625,2.625,0,0,1-.708-1.03,3.372,3.372,0,0,1-.253-1.26A2.385,2.385,0,0,1,416.622,8515.99Zm7.468,3.89c0.091,0,.269,0,0.533-0.01s0.408-.02.431-0.02l0.014-.28-0.814.02-0.178.01a1.384,1.384,0,0,1-.259-0.02,0.265,0.265,0,0,1-.137-0.14,5.543,5.543,0,0,1-.137-1.64q0-.075.041-1.23a2.418,2.418,0,0,1,.038-0.49,0.68,0.68,0,0,1,.2-0.24,2.037,2.037,0,0,1,.424-0.28,1.069,1.069,0,0,1,.486-0.15,0.394,0.394,0,0,1,.307.12,0.555,0.555,0,0,1,.11.36,0.953,0.953,0,0,0,.526-0.21,0.51,0.51,0,0,0,.219-0.43,0.5,0.5,0,0,0-.116-0.36,1.22,1.22,0,0,0-.322-0.22,0.22,0.22,0,0,1-.095-0.07l-0.055-.02c-0.091.06-.214,0.13-0.369,0.23s-0.265.16-.328,0.19a1.276,1.276,0,0,1-.171.1c-0.028.02-.06,0.04-0.1,0.07l-0.731.41c0-.49-0.01-0.88-0.028-1.16l-1.763,1.03-0.028.22a1.61,1.61,0,0,1,.431-0.05,0.41,0.41,0,0,1,.444.27,4.318,4.318,0,0,1,.089,1.1c0,0.69-.01,1.21-0.031,1.55a2.8,2.8,0,0,1-.126.76,0.625,0.625,0,0,1-.226.32,2.037,2.037,0,0,1-.471.13l-0.014.2Zm3.6-.04c0.292,0.01.532,0.02,0.719,0.04s0.331,0.02.432,0.03l0.014-.21a2.352,2.352,0,0,1-.6-0.12,0.453,0.453,0,0,1-.229-0.14,0.6,0.6,0,0,1-.065-0.25c-0.027-.25-0.036-0.76-0.027-1.54l0.041-1.81a4.114,4.114,0,0,1,1.043-.41,3.681,3.681,0,0,1,.662-0.09,0.873,0.873,0,0,1,.722.28,1.23,1.23,0,0,1,.283.66,7.4,7.4,0,0,1,.052.98q0,0.405-.038,1.14a3.2,3.2,0,0,1-.14.95,1.083,1.083,0,0,1-.773.39v0.2a12.574,12.574,0,0,1,1.374-.09,6.951,6.951,0,0,1,1.19.09l-0.014-.21a1.67,1.67,0,0,0-.348-0.09,1.124,1.124,0,0,1-.349-0.12,2.891,2.891,0,0,1-.089-1.05v-1.63a6.654,6.654,0,0,0-.072-1.09,1.2,1.2,0,0,0-.375-0.7,1.329,1.329,0,0,0-.965-0.29,2.661,2.661,0,0,0-.928.18,9.305,9.305,0,0,0-1.235.6,5.167,5.167,0,0,0-.028-0.65c-0.018-.14-0.061-0.2-0.13-0.2a1.165,1.165,0,0,0-.309.13,5.185,5.185,0,0,1-.518.25,5.829,5.829,0,0,1-.786.29,0.458,0.458,0,0,1,.014.13,2.655,2.655,0,0,1,.626.13,0.445,0.445,0,0,1,.218.36,7.1,7.1,0,0,1,.052,1.06c0,0.38-.007.74-0.021,1.11a9.137,9.137,0,0,1-.075.92,0.7,0.7,0,0,1-.075.26,0.491,0.491,0,0,1-.226.17,2.363,2.363,0,0,1-.54.14l0.014,0.2h1.5Zm9.634-3.71a0.456,0.456,0,0,1-.2-0.03,0.5,0.5,0,0,1-.116-0.14,2.131,2.131,0,0,0-.53-0.77,1.91,1.91,0,0,0-.649-0.38,2.463,2.463,0,0,0-.639-0.1,1.815,1.815,0,0,0-.787.3,2.725,2.725,0,0,0-.936.94,2.928,2.928,0,0,0-.417,1.62,2.8,2.8,0,0,0,.547,1.7,1.8,1.8,0,0,0,1.524.74,3.8,3.8,0,0,0,2.113-.86l-0.123-.16a2.8,2.8,0,0,1-.773.41,2.017,2.017,0,0,1-.656.12,1.559,1.559,0,0,1-1.272-.69,2.074,2.074,0,0,1-.365-0.71,5.32,5.32,0,0,1-.127-1l3.418-.74Zm-3.127-.44a0.748,0.748,0,0,1,.728-0.54,1.163,1.163,0,0,1,.714.22,1.874,1.874,0,0,1,.469.48,0.9,0.9,0,0,1,.164.38,0.107,0.107,0,0,1-.1.1,2.67,2.67,0,0,1-.451.12c-0.082.01-.243,0.05-0.482,0.1a4.033,4.033,0,0,0-.414.11l-0.895.19A3.942,3.942,0,0,1,434.2,8515.69Zm5.958,4.19c0.091,0,.268,0,0.533-0.01s0.408-.02.43-0.02l0.014-.28-0.813.02-0.178.01a1.4,1.4,0,0,1-.26-0.02,0.269,0.269,0,0,1-.137-0.14,5.558,5.558,0,0,1-.136-1.64q0-.075.041-1.23a2.447,2.447,0,0,1,.037-0.49,0.7,0.7,0,0,1,.2-0.24,2.037,2.037,0,0,1,.424-0.28,1.065,1.065,0,0,1,.485-0.15,0.4,0.4,0,0,1,.308.12,0.554,0.554,0,0,1,.109.36,0.95,0.95,0,0,0,.526-0.21,0.51,0.51,0,0,0,.219-0.43,0.5,0.5,0,0,0-.116-0.36,1.23,1.23,0,0,0-.321-0.22,0.217,0.217,0,0,1-.1-0.07l-0.055-.02c-0.091.06-.214,0.13-0.369,0.23s-0.264.16-.328,0.19a1.276,1.276,0,0,1-.171.1c-0.027.02-.059,0.04-0.1,0.07l-0.731.41c0-.49-0.009-0.88-0.027-1.16l-1.764,1.03-0.027.22a1.6,1.6,0,0,1,.43-0.05,0.412,0.412,0,0,1,.445.27,4.318,4.318,0,0,1,.089,1.1c0,0.69-.011,1.21-0.031,1.55a2.829,2.829,0,0,1-.127.76,0.63,0.63,0,0,1-.225.32,2.049,2.049,0,0,1-.472.13l-0.014.2Zm3.308,0.96a2.026,2.026,0,0,0,.54-1.16l0.027-.21a2.124,2.124,0,0,0,.185-0.41,0.157,0.157,0,0,0-.048-0.12,1.864,1.864,0,0,0-.219-0.11,1.088,1.088,0,0,1-.478-0.55,0.541,0.541,0,0,1-.147.02,1.322,1.322,0,0,1-.653.84,0.3,0.3,0,0,0,.038.18,2.172,2.172,0,0,0,.215.2,0.837,0.837,0,0,1,.4.7,0.743,0.743,0,0,1-.243.57,4.214,4.214,0,0,1-.66.49l0.144,0.22A3.545,3.545,0,0,0,443.463,8520.84Zm6.358-5.23a0.369,0.369,0,0,1,.215-0.34,0.871,0.871,0,0,1,.427-0.12,1.038,1.038,0,0,1,.776.34,1.262,1.262,0,0,1,.332.92v0.23l-0.035.84q-0.628.09-1.2,0.21a4.529,4.529,0,0,0-1.087.39,0.763,0.763,0,0,0-.365.35,1.6,1.6,0,0,0-.113.69,1.068,1.068,0,0,0,.212.73,0.8,0.8,0,0,0,.629.24,4.484,4.484,0,0,0,1.941-.7,1.828,1.828,0,0,0,.25.5,0.425,0.425,0,0,0,.311.2,1.932,1.932,0,0,0,.341-0.1l1-.4v-0.28a1.925,1.925,0,0,1-.711.2,0.33,0.33,0,0,1-.307-0.33,2.675,2.675,0,0,1-.076-0.6c0-.15.01-0.35,0.028-0.59l0.027-.51c0.023-.53.034-0.83,0.034-0.92a3.544,3.544,0,0,0-.061-0.73,1.524,1.524,0,0,0-.14-0.42,1.257,1.257,0,0,0-.222-0.27,2.308,2.308,0,0,0-.438-0.33,0.927,0.927,0,0,0-.458-0.16,2.85,2.85,0,0,0-.749.18,3.723,3.723,0,0,0-.963.48,0.83,0.83,0,0,0-.428.65,1.545,1.545,0,0,0,.055.32l0.841-.38a0.873,0.873,0,0,1-.068-0.29h0Zm0.366,4.02a0.515,0.515,0,0,1-.459-0.27,1.128,1.128,0,0,1-.167-0.59,0.819,0.819,0,0,1,.545-0.7,2.725,2.725,0,0,1,1.444-.22q-0.061,1.065-.041,1.29a3.972,3.972,0,0,1-1.322.49h0Zm5.024,0.21c0.293,0.01.532,0.02,0.72,0.04s0.331,0.02.432,0.03l0.013-.21a2.342,2.342,0,0,1-.6-0.12,0.449,0.449,0,0,1-.229-0.14,0.588,0.588,0,0,1-.065-0.25c-0.028-.25-0.037-0.76-0.028-1.54l0.041-1.81a4.1,4.1,0,0,1,1.044-.41,3.673,3.673,0,0,1,.661-0.09,0.876,0.876,0,0,1,.723.28,1.238,1.238,0,0,1,.283.66,7.6,7.6,0,0,1,.051.98q0,0.405-.038,1.14a3.164,3.164,0,0,1-.14.95,1.08,1.08,0,0,1-.772.39v0.2a12.544,12.544,0,0,1,1.374-.09,6.939,6.939,0,0,1,1.189.09l-0.013-.21a1.668,1.668,0,0,0-.349-0.09,1.124,1.124,0,0,1-.349-0.12,2.905,2.905,0,0,1-.088-1.05v-1.63a6.654,6.654,0,0,0-.072-1.09,1.213,1.213,0,0,0-.375-0.7,1.334,1.334,0,0,0-.966-0.29,2.665,2.665,0,0,0-.928.18,9.365,9.365,0,0,0-1.235.6,5.425,5.425,0,0,0-.027-0.65c-0.018-.14-0.062-0.2-0.131-0.2a1.166,1.166,0,0,0-.308.13,5.326,5.326,0,0,1-.518.25,5.93,5.93,0,0,1-.786.29,0.458,0.458,0,0,1,.014.13,2.644,2.644,0,0,1,.625.13,0.443,0.443,0,0,1,.219.36,7.141,7.141,0,0,1,.051,1.06c0,0.38-.007.74-0.02,1.11a8.821,8.821,0,0,1-.076.92,0.66,0.66,0,0,1-.075.26,0.487,0.487,0,0,1-.225.17,2.363,2.363,0,0,1-.54.14l0.013,0.2h1.5Zm9.649-4.93c-0.3-.07-0.561-0.13-0.78-0.17a4.257,4.257,0,0,0-.54-0.05,2.981,2.981,0,0,0-.625.13,4.591,4.591,0,0,0-1.012.44,2.938,2.938,0,0,0-.936.93,2.675,2.675,0,0,0-.407,1.52,2.164,2.164,0,0,0,1.107,1.94,2.116,2.116,0,0,0,.991.26,2.827,2.827,0,0,0,.923-0.16,11.22,11.22,0,0,0,1.176-.56,4.538,4.538,0,0,0,.055.83c0.036,0.19.089,0.28,0.157,0.28a18.149,18.149,0,0,0,1.736-.56v-0.25q-0.265.09-.509,0.15a1.324,1.324,0,0,1-.318.07,0.529,0.529,0,0,1-.188-0.49,12.015,12.015,0,0,1-.065-1.46v-0.67l0.055-2.75,0.027-.68q0.056-1.125.11-1.95a8.222,8.222,0,0,1,.13-1.14l-0.165-.07a9.842,9.842,0,0,1-1.8.92l0.013,0.2a2.213,2.213,0,0,1,.458-0.06,0.516,0.516,0,0,1,.25.05,0.4,0.4,0,0,1,.116.24,6.334,6.334,0,0,1,.086.63v0.95c0,0.48-.014.98-0.041,1.48h0Zm-0.106,3.68a2.317,2.317,0,0,0,0,.27,4.88,4.88,0,0,1-.666.35,1.866,1.866,0,0,1-.722.14,1.944,1.944,0,0,1-1.028-.29,2,2,0,0,1-.742-0.83,2.9,2.9,0,0,1-.274-1.3,1.743,1.743,0,0,1,.865-1.51,1.653,1.653,0,0,1,.831-0.23c0.036,0,.168.02,0.4,0.05a5.015,5.015,0,0,1,.626.12,2.1,2.1,0,0,1,.519.19,0.364,0.364,0,0,1,.236.29l-0.041,2.33C464.757,8518.31,464.756,8518.44,464.754,8518.59Zm5.926-3.33a0.639,0.639,0,0,1,.26.22,1.87,1.87,0,0,1,.277.53,17.417,17.417,0,0,1,.623,1.81q0.33,1.11.72,2.58l-0.534,1.19a11.836,11.836,0,0,1-.548,1.13,2.09,2.09,0,0,1-.493.58,1.741,1.741,0,0,1-.725.32v0.23h1.456c0.148-.61.278-1.11,0.391-1.48a14.743,14.743,0,0,1,.534-1.41q0.363-.84,1.094-2.28c0.336-.65.509-0.99,0.519-1.01l0.744-1.54a4.627,4.627,0,0,1,.276-0.51,1.141,1.141,0,0,1,.274-0.31,0.594,0.594,0,0,1,.331-0.14l0.014-.23a3.919,3.919,0,0,1-.677.04c-0.4,0-.873-0.03-1.415-0.08l-0.1.22c0.634,0.08.95,0.27,0.95,0.59a3.8,3.8,0,0,1-.4,1.24q-0.4.9-.7,1.41l-0.45.8c-0.27-.72-0.5-1.44-0.7-2.17a7.321,7.321,0,0,1-.294-1.42,0.3,0.3,0,0,1,.123-0.28,1.175,1.175,0,0,1,.4-0.12l0.02-.26a10.917,10.917,0,0,1-1.4.08,7.638,7.638,0,0,1-.936-0.04v0.22A2.275,2.275,0,0,1,470.68,8515.26Zm6.139,3.62a2.534,2.534,0,0,0,1.087.86,3.245,3.245,0,0,0,1.254.27,2.7,2.7,0,0,0,2.721-2.72,2.532,2.532,0,0,0-.208-1.02,2.488,2.488,0,0,0-.571-0.82,2.526,2.526,0,0,0-.844-0.55,2.705,2.705,0,0,0-1.022-.2,3.148,3.148,0,0,0-1.115.19,2.74,2.74,0,0,0-.909.55,2.529,2.529,0,0,0-.834,1.93A2.455,2.455,0,0,0,476.819,8518.88Zm0.663-2.89a1.692,1.692,0,0,1,.578-0.7,1.428,1.428,0,0,1,.834-0.25,1.648,1.648,0,0,1,1.049.37,2.572,2.572,0,0,1,.745.96,2.924,2.924,0,0,1,.27,1.22,2.534,2.534,0,0,1-.232,1.1,1.8,1.8,0,0,1-.622.74,1.473,1.473,0,0,1-1.87-.14,2.612,2.612,0,0,1-.707-1.03,3.352,3.352,0,0,1-.253-1.26A2.385,2.385,0,0,1,477.482,8515.99Zm5.589-.37a0.242,0.242,0,0,1,.263.21,2.838,2.838,0,0,1,.03.63l-0.054,1.53a2.1,2.1,0,0,0,.4,1.61,1.277,1.277,0,0,0,.873.42,6.489,6.489,0,0,0,2.32-.86,5.53,5.53,0,0,0,.186.98q0.8-.3,1.57-0.51v-0.31a2.565,2.565,0,0,1-.765.17,5.125,5.125,0,0,1-.13-1.4c0-.2.01-0.52,0.031-0.94s0.043-.82.068-1.2,0.049-.76.072-1.17l-1.825.43,0.013,0.26a1.759,1.759,0,0,1,.578.09,0.441,0.441,0,0,1,.236.34,3.823,3.823,0,0,1,.041.89l-0.041,1.4a6.468,6.468,0,0,0-.021.67c-0.127.06-.3,0.15-0.528,0.25a3.877,3.877,0,0,1-.593.24,1.774,1.774,0,0,1-.5.08,0.91,0.91,0,0,1-.955-0.51,3.446,3.446,0,0,1-.2-1.28c0-.22.028-0.79,0.085-1.72l0.086-1.18a0.1,0.1,0,0,0-.1-0.12l-0.137.05-1.524.85v0.28a1.721,1.721,0,0,1,.52-0.18h0Zm10.8-.01a0.369,0.369,0,0,1,.216-0.34,0.871,0.871,0,0,1,.427-0.12,1.038,1.038,0,0,1,.776.34,1.261,1.261,0,0,1,.331.92v0.23l-0.034.84q-0.628.09-1.2,0.21a4.529,4.529,0,0,0-1.087.39,0.765,0.765,0,0,0-.366.35,1.614,1.614,0,0,0-.112.69,1.073,1.073,0,0,0,.211.73,0.8,0.8,0,0,0,.629.24,4.483,4.483,0,0,0,1.942-.7,1.855,1.855,0,0,0,.249.5,0.426,0.426,0,0,0,.311.2,1.9,1.9,0,0,0,.342-0.1l1-.4v-0.28a1.925,1.925,0,0,1-.711.2,0.331,0.331,0,0,1-.308-0.33,2.729,2.729,0,0,1-.075-0.6c0-.15.009-0.35,0.028-0.59l0.027-.51c0.023-.53.034-0.83,0.034-0.92a3.544,3.544,0,0,0-.061-0.73,1.487,1.487,0,0,0-.141-0.42,1.2,1.2,0,0,0-.222-0.27,2.266,2.266,0,0,0-.437-0.33,0.93,0.93,0,0,0-.458-0.16,2.85,2.85,0,0,0-.749.18,3.73,3.73,0,0,0-.964.48,0.831,0.831,0,0,0-.427.65,1.479,1.479,0,0,0,.055.32l0.841-.38a0.879,0.879,0,0,1-.069-0.29h0Zm0.367,4.02a0.517,0.517,0,0,1-.46-0.27,1.136,1.136,0,0,1-.166-0.59,0.82,0.82,0,0,1,.544-0.7,2.731,2.731,0,0,1,1.445-.22q-0.062,1.065-.041,1.29a3.972,3.972,0,0,1-1.322.49h0Zm5.806,0.25c0.091,0,.269,0,0.533-0.01s0.408-.02.431-0.02l0.014-.28-0.814.02-0.178.01a1.384,1.384,0,0,1-.259-0.02,0.269,0.269,0,0,1-.137-0.14,5.543,5.543,0,0,1-.137-1.64q0-.075.041-1.23a2.418,2.418,0,0,1,.038-0.49,0.686,0.686,0,0,1,.2-0.24,2,2,0,0,1,.423-0.28,1.069,1.069,0,0,1,.486-0.15,0.394,0.394,0,0,1,.307.12,0.555,0.555,0,0,1,.11.36,0.953,0.953,0,0,0,.526-0.21,0.51,0.51,0,0,0,.219-0.43,0.5,0.5,0,0,0-.116-0.36,1.22,1.22,0,0,0-.322-0.22,0.22,0.22,0,0,1-.1-0.07l-0.055-.02c-0.091.06-.214,0.13-0.369,0.23s-0.265.16-.328,0.19a1.276,1.276,0,0,1-.171.1c-0.028.02-.059,0.04-0.1,0.07l-0.731.41c0-.49-0.01-0.88-0.028-1.16l-1.763,1.03-0.028.22a1.61,1.61,0,0,1,.431-0.05,0.41,0.41,0,0,1,.444.27,4.318,4.318,0,0,1,.089,1.1c0,0.69-.01,1.21-0.031,1.55a2.8,2.8,0,0,1-.126.76,0.625,0.625,0,0,1-.226.32,2.037,2.037,0,0,1-.471.13l-0.014.2Zm6.665-3.75a0.45,0.45,0,0,1-.2-0.03,0.486,0.486,0,0,1-.116-0.14,2.143,2.143,0,0,0-.53-0.77,1.91,1.91,0,0,0-.649-0.38,2.477,2.477,0,0,0-.64-0.1,1.816,1.816,0,0,0-.786.3,2.725,2.725,0,0,0-.936.94,2.928,2.928,0,0,0-.417,1.62,2.8,2.8,0,0,0,.547,1.7,1.794,1.794,0,0,0,1.524.74,3.792,3.792,0,0,0,2.112-.86l-0.123-.16a2.783,2.783,0,0,1-.772.41,2.022,2.022,0,0,1-.656.12,1.559,1.559,0,0,1-1.272-.69,2.1,2.1,0,0,1-.366-0.71,5.419,5.419,0,0,1-.126-1l3.418-.74Zm-3.127-.44a0.747,0.747,0,0,1,.728-0.54,1.165,1.165,0,0,1,.714.22,1.853,1.853,0,0,1,.468.48,0.887,0.887,0,0,1,.164.38,0.106,0.106,0,0,1-.1.1,2.67,2.67,0,0,1-.451.12c-0.082.01-.243,0.05-0.482,0.1a3.951,3.951,0,0,0-.414.11l-0.895.19A3.911,3.911,0,0,1,503.582,8515.69Zm8.8-4.22c0.014-.07.036-0.34,0.068-0.82a0.105,0.105,0,0,0-.109-0.13,0.421,0.421,0,0,0-.212.12c-0.055.04-.567,0.31-1.538,0.82a0.081,0.081,0,0,0,.017.06,0.11,0.11,0,0,0,.072.02H510.8a0.563,0.563,0,0,1,.533.22,2.541,2.541,0,0,1,.13.94c0.018,0.69.028,1.42,0.028,2.22a35.7,35.7,0,0,1-.171,4.57l-0.1.38,0.082,0.05,0.109-.05a0.98,0.98,0,0,1,.233-0.14,0.572,0.572,0,0,1,.232-0.05,2.769,2.769,0,0,1,.479.1,3.4,3.4,0,0,0,.936.18,3.523,3.523,0,0,0,1.419-.33,3.307,3.307,0,0,0,1.268-1,2.449,2.449,0,0,0,.519-1.56,2.354,2.354,0,0,0-.328-1.24,2.276,2.276,0,0,0-.868-0.85,2.2,2.2,0,0,0-1.128-.31,2.77,2.77,0,0,0-.841.14,8.478,8.478,0,0,0-1.066.46l0.041-1.94q0.006-.36.075-1.86h0Zm-0.116,4.79c0.018-.48.027-0.71,0.027-0.68a2.765,2.765,0,0,1,1.4-.46,1.6,1.6,0,0,1,.847.23,2.1,2.1,0,0,1,.609.6,2.763,2.763,0,0,1,.358.78,3.029,3.029,0,0,1,.12.83,2.171,2.171,0,0,1-.229,1.01,1.751,1.751,0,0,1-.629.7,1.642,1.642,0,0,1-.906.25,2.382,2.382,0,0,1-1.442-.52,0.417,0.417,0,0,1-.133-0.22,3.5,3.5,0,0,1-.038-0.47v-1Q512.24,8516.98,512.267,8516.26Zm5.253-1a0.639,0.639,0,0,1,.26.22,1.9,1.9,0,0,1,.277.53,17.417,17.417,0,0,1,.623,1.81q0.329,1.11.719,2.58l-0.533,1.19a11.836,11.836,0,0,1-.548,1.13,2.09,2.09,0,0,1-.493.58,1.741,1.741,0,0,1-.725.32v0.23h1.456c0.147-.61.278-1.11,0.391-1.48a14.97,14.97,0,0,1,.533-1.41q0.364-.84,1.1-2.28c0.336-.65.509-0.99,0.518-1.01l0.744-1.54a4.612,4.612,0,0,1,.277-0.51,1.139,1.139,0,0,1,.273-0.31,0.6,0.6,0,0,1,.332-0.14l0.014-.23a3.919,3.919,0,0,1-.677.04c-0.4,0-.873-0.03-1.415-0.08l-0.1.22c0.634,0.08.95,0.27,0.95,0.59a3.8,3.8,0,0,1-.4,1.24q-0.4.9-.7,1.41l-0.45.8c-0.27-.72-0.5-1.44-0.7-2.17a7.353,7.353,0,0,1-.295-1.42,0.3,0.3,0,0,1,.123-0.28,1.182,1.182,0,0,1,.4-0.12l0.02-.26a10.928,10.928,0,0,1-1.4.08,7.667,7.667,0,0,1-.937-0.04v0.22A2.293,2.293,0,0,1,517.52,8515.26Zm10.374,4.66q0.1,0,.6.03t0.588,0.03v-0.24a2.891,2.891,0,0,1-.738-0.18,0.382,0.382,0,0,1-.2-0.22c-0.019-.08-0.032-0.52-0.041-1.34v-0.69c0-.21.009-0.47,0.013-0.79s0.009-.51.014-0.59c0.128-.07.28-0.15,0.458-0.23a3.549,3.549,0,0,1,.561-0.23,1.646,1.646,0,0,1,.56-0.1,0.846,0.846,0,0,1,.8.44,2.831,2.831,0,0,1,.256,1.28l0.014,0.67a7.544,7.544,0,0,1-.052,1.26,0.763,0.763,0,0,1-.263.52,1.645,1.645,0,0,1-.649.24l0.041,0.21c0.1,0,.392-0.01.888-0.03s0.784-.02.862-0.02h0.854v-0.21c-0.292-.05-0.482-0.08-0.571-0.1a0.28,0.28,0,0,1-.181-0.11,0.519,0.519,0,0,1-.061-0.25q-0.008-.225-0.021-0.96c-0.009-.5-0.018-0.98-0.027-1.45s-0.025-.79-0.048-0.98a3.516,3.516,0,0,1,1.429-.38,1.11,1.11,0,0,1,.758.24,1.214,1.214,0,0,1,.38.67,4.654,4.654,0,0,1,.106,1.07,11.4,11.4,0,0,1-.065,1.48,0.876,0.876,0,0,1-.222.55,1.5,1.5,0,0,1-.581.24l0.041,0.19h2.6l0.1-.19c-0.032,0-.156-0.03-0.372-0.07s-0.343-.07-0.38-0.08a0.341,0.341,0,0,1-.215-0.08,0.385,0.385,0,0,1-.065-0.25q-0.007-.2.014-0.72v-1.22a10.088,10.088,0,0,0-.066-1.33,1.255,1.255,0,0,0-.366-0.75,1.317,1.317,0,0,0-.959-0.3,4.953,4.953,0,0,0-2.192.67,1.031,1.031,0,0,0-.475-0.66,1.318,1.318,0,0,0-.7-0.2,1.9,1.9,0,0,0-.575.1,3.8,3.8,0,0,0-.536.21c-0.139.06-.331,0.16-0.574,0.29s-0.414.22-.51,0.28a3.3,3.3,0,0,0,0-.62c-0.021-.24-0.076-0.36-0.168-0.36a0.317,0.317,0,0,0-.136.05,5.367,5.367,0,0,1-1.5.64v0.23a1.411,1.411,0,0,1,.6.1,0.729,0.729,0,0,1,.273.49,6.4,6.4,0,0,1,.093,1.31,8.479,8.479,0,0,1-.086,1.41,1.014,1.014,0,0,1-.27.61,1.453,1.453,0,0,1-.6.24l-0.013.21Zm8.651-4.66a0.643,0.643,0,0,1,.259.22,1.87,1.87,0,0,1,.277.53,17.39,17.39,0,0,1,.624,1.81q0.328,1.11.719,2.58l-0.534,1.19a11.836,11.836,0,0,1-.548,1.13,2.1,2.1,0,0,1-.492.58,1.751,1.751,0,0,1-.726.32v0.23h1.456c0.148-.61.278-1.11,0.391-1.48a14.743,14.743,0,0,1,.534-1.41q0.363-.84,1.094-2.28c0.337-.65.51-0.99,0.519-1.01l0.744-1.54a4.627,4.627,0,0,1,.276-0.51,1.158,1.158,0,0,1,.274-0.31,0.594,0.594,0,0,1,.331-0.14l0.014-.23a3.919,3.919,0,0,1-.677.04c-0.4,0-.872-0.03-1.415-0.08l-0.095.22c0.633,0.08.95,0.27,0.95,0.59a3.785,3.785,0,0,1-.4,1.24q-0.4.9-.695,1.41l-0.451.8c-0.269-.72-0.5-1.44-0.7-2.17a7.273,7.273,0,0,1-.3-1.42,0.3,0.3,0,0,1,.123-0.28,1.175,1.175,0,0,1,.4-0.12l0.021-.26a10.933,10.933,0,0,1-1.4.08,7.638,7.638,0,0,1-.936-0.04v0.22A2.323,2.323,0,0,1,536.545,8515.26Zm9.085,3.58a2.636,2.636,0,0,1,.058.47,2.3,2.3,0,0,1-.055.39c0.05,0.01.16,0.04,0.329,0.09s0.287,0.09.356,0.1,0.187,0.03.356,0.05a2.29,2.29,0,0,0,.391.04,2.754,2.754,0,0,0,.753-0.11,3.566,3.566,0,0,0,.938-0.47,0.664,0.664,0,0,0,.3-0.38,1.486,1.486,0,0,0,.1-0.51,1.264,1.264,0,0,0-.4-1,4.052,4.052,0,0,0-.972-0.62l-0.418-.2a2.5,2.5,0,0,1-.624-0.39,0.608,0.608,0,0,1-.165-0.45,0.78,0.78,0,0,1,.816-0.8,1.186,1.186,0,0,1,.511.15,1.981,1.981,0,0,1,.521.37,0.949,0.949,0,0,1,.284.45h0.24l-0.226-1.16a8.992,8.992,0,0,0-1.1-.1,2.053,2.053,0,0,0-.97.22,1.716,1.716,0,0,0-.654.57,1.209,1.209,0,0,0-.226.66,0.872,0.872,0,0,0,.267.66,3.247,3.247,0,0,0,.719.49l0.514,0.24a3.731,3.731,0,0,1,.76.5,0.971,0.971,0,0,1,.331.77,0.587,0.587,0,0,1-.322.6,1.637,1.637,0,0,1-.642.13,1.574,1.574,0,0,1-.821-0.23,2.372,2.372,0,0,1-.6-0.53,0.917,0.917,0,0,1-.222-0.43l-0.239-.01A2.729,2.729,0,0,1,545.63,8518.84Zm7.242,1.06-0.082-.2a2.571,2.571,0,0,0-.478-0.04,1.766,1.766,0,0,1-.328-0.06,0.253,0.253,0,0,1-.137-0.16,4.462,4.462,0,0,1-.086-0.86c-0.016-.43-0.023-0.75-0.023-0.98q0-.465.03-1.05t0.079-1.14a6.1,6.1,0,0,1,.116-0.82,0.408,0.408,0,0,0-.13-0.03,4.721,4.721,0,0,1-1.593.9,0.133,0.133,0,0,0-.123.14,0.468,0.468,0,0,0,.315.08,1.208,1.208,0,0,1,.342.07,0.745,0.745,0,0,1,.119.38c0.021,0.18.031,0.6,0.031,1.24,0,0.05-.006.28-0.017,0.67s-0.026.73-.044,1.02a2.083,2.083,0,0,1-.062.49,0.884,0.884,0,0,1-.656.2l-0.028.21Zm-1.565-7.74a0.5,0.5,0,0,0,.376.16,0.472,0.472,0,0,0,.372-0.16,0.519,0.519,0,0,0,.147-0.37,0.537,0.537,0,0,0-.15-0.38,0.5,0.5,0,0,0-.369-0.15,0.526,0.526,0,0,0-.376.15,0.492,0.492,0,0,0-.157.38A0.5,0.5,0,0,0,551.307,8512.16Zm6.556,2.75c-0.3-.07-0.561-0.13-0.78-0.17a4.273,4.273,0,0,0-.54-0.05,2.969,2.969,0,0,0-.625.13,4.591,4.591,0,0,0-1.012.44,2.95,2.95,0,0,0-.937.93,2.682,2.682,0,0,0-.406,1.52,2.164,2.164,0,0,0,1.107,1.94,2.116,2.116,0,0,0,.991.26,2.827,2.827,0,0,0,.923-0.16,11.22,11.22,0,0,0,1.176-.56,4.538,4.538,0,0,0,.055.83c0.036,0.19.089,0.28,0.157,0.28a18.149,18.149,0,0,0,1.736-.56v-0.25c-0.178.06-.347,0.11-0.509,0.15a1.324,1.324,0,0,1-.318.07,0.529,0.529,0,0,1-.188-0.49,12.015,12.015,0,0,1-.065-1.46v-0.67l0.055-2.75,0.027-.68q0.055-1.125.11-1.95a8.428,8.428,0,0,1,.129-1.14l-0.164-.07a9.842,9.842,0,0,1-1.8.92l0.013,0.2a2.213,2.213,0,0,1,.458-0.06,0.519,0.519,0,0,1,.25.05,0.4,0.4,0,0,1,.116.24,6.334,6.334,0,0,1,.086.63v0.95c0,0.48-.014.98-0.041,1.48h0Zm-0.106,3.68a2.317,2.317,0,0,0,0,.27,4.831,4.831,0,0,1-.667.35,1.857,1.857,0,0,1-.721.14,1.95,1.95,0,0,1-1.029-.29,2,2,0,0,1-.741-0.83,2.889,2.889,0,0,1-.274-1.3,1.743,1.743,0,0,1,.865-1.51,1.653,1.653,0,0,1,.831-0.23c0.036,0,.168.02,0.4,0.05a5.051,5.051,0,0,1,.626.12,2.1,2.1,0,0,1,.519.19,0.364,0.364,0,0,1,.236.29l-0.041,2.33C557.76,8518.31,557.759,8518.44,557.757,8518.59Zm6.8-2.46a0.45,0.45,0,0,1-.2-0.03,0.487,0.487,0,0,1-.117-0.14,2.13,2.13,0,0,0-.529-0.77,1.914,1.914,0,0,0-.65-0.38,2.463,2.463,0,0,0-.639-0.1,1.807,1.807,0,0,0-.786.3,2.727,2.727,0,0,0-.937.94,2.928,2.928,0,0,0-.417,1.62,2.8,2.8,0,0,0,.547,1.7,1.8,1.8,0,0,0,1.525.74,3.792,3.792,0,0,0,2.112-.86l-0.123-.16a2.8,2.8,0,0,1-.772.41,2.028,2.028,0,0,1-.657.12,1.558,1.558,0,0,1-1.271-.69,2.077,2.077,0,0,1-.366-0.71,5.334,5.334,0,0,1-.126-1l3.418-.74Zm-3.128-.44a0.749,0.749,0,0,1,.728-0.54,1.166,1.166,0,0,1,.715.22,1.853,1.853,0,0,1,.468.48,0.9,0.9,0,0,1,.164.38,0.107,0.107,0,0,1-.1.1,2.641,2.641,0,0,1-.451.12c-0.082.01-.242,0.05-0.482,0.1a3.9,3.9,0,0,0-.413.11l-0.9.19A3.974,3.974,0,0,1,561.427,8515.69Z" transform="translate(-185.531 -8490.5)"/>
</svg>
